<svg width="533" height="448" viewBox="0 0 533 448" fill="none" xmlns="http://www.w3.org/2000/svg">
<path d="M266.5 447.645C413.684 447.645 533 391.072 533 321.285C533 251.499 413.684 194.926 266.5 194.926C119.316 194.926 0 251.499 0 321.285C0 391.072 119.316 447.645 266.5 447.645Z" fill="#F5F5F5"/>
<path d="M71.71 296.173L286.131 399.661L421.152 334.503L206.708 230.997L71.71 296.173Z" fill="#4CBE42"/>
<path opacity="0.5" d="M71.71 296.173L286.131 399.661L421.152 334.503L206.708 230.997L71.71 296.173Z" fill="black"/>
<path opacity="0.15" d="M400.521 322.674L219.298 235.144C216.74 234.055 213.91 233.487 211.039 233.487C208.168 233.487 205.338 234.055 202.78 235.144L139.071 265.87C122.63 264.471 106.05 267.001 91.2613 273.167C68.9761 283.115 65.8515 298.996 84.369 308.636C102.105 317.892 133.397 317.988 155.59 309.116L292.036 375.003C294.594 376.092 297.424 376.66 300.295 376.66C303.166 376.66 305.996 376.092 308.554 375.003L400.452 330.643C405.093 328.435 405.093 324.863 400.521 322.674Z" fill="black"/>
<path d="M206.708 70.0332V230.997L71.7098 296.173L39.9131 150.534L206.708 70.0332Z" fill="#4CBE42"/>
<path opacity="0.4" d="M39.9131 150.534L206.708 70.0332V230.997L71.7098 296.173L39.9131 150.534Z" fill="black"/>
<path d="M452.926 188.864L421.152 334.503L206.708 230.997V70.0332L452.926 188.864Z" fill="#4CBE42"/>
<path opacity="0.3" d="M452.926 188.864L421.152 334.503L206.708 230.997V70.0332L452.926 188.864Z" fill="black"/>
<path d="M463.838 188.865H452.926L206.708 70.1107L39.9129 150.612L42.3712 151.783L29 150.612C29.1043 149.732 29.4841 148.89 30.1012 148.172C30.7183 147.454 31.5509 146.885 32.5151 146.521L198.23 66.4621C200.856 65.3547 203.756 64.7778 206.696 64.7778C209.637 64.7778 212.537 65.3547 215.162 66.4621L460.346 184.775C461.288 185.197 463.838 186.925 463.838 188.865Z" fill="#455A64"/>
<path d="M329.07 10.1181L323.234 1.28454C325.251 0.424267 327.486 -0.0162583 329.75 0.00045861C332.014 0.0171755 334.24 0.490646 336.238 1.38056H336.123C337.912 2.39639 339.303 3.83132 340.121 5.50534C340.938 7.17936 341.146 9.01789 340.718 10.7902C334.331 32.9702 311.954 112.223 311.425 113.01L301.661 108.248L329.07 10.1181Z" fill="#4CBE42"/>
<path opacity="0.25" d="M329.07 10.1181L323.234 1.28454C325.251 0.424267 327.486 -0.0162583 329.75 0.00045861C332.014 0.0171755 334.24 0.490646 336.238 1.38056H336.123C337.912 2.39639 339.303 3.83132 340.121 5.50534C340.938 7.17936 341.146 9.01789 340.718 10.7902C334.331 32.9702 311.954 112.223 311.425 113.01L301.661 108.248L329.07 10.1181Z" fill="black"/>
<path d="M344.762 5.6061C346.651 6.67132 348.267 8.03992 349.518 9.63227C350.768 11.2246 351.627 13.009 352.045 14.8814L373.664 142.93L362.797 137.687L340.052 11.732L331.965 5.74051C333.938 4.88676 336.123 4.43004 338.344 4.4067C340.566 4.38337 342.763 4.79407 344.762 5.6061Z" fill="#4CBE42"/>
<path d="M151.96 84.0319L155.452 94.3633L329.071 10.1178L323.235 1.28418L151.96 84.0319Z" fill="#4CBE42"/>
<path opacity="0.25" d="M151.96 84.0319L155.452 94.3633L329.071 10.1178L323.235 1.28418L151.96 84.0319Z" fill="black"/>
<path d="M331.964 5.73975L340.051 11.7312L161.861 98.5309L155.451 90.2158L331.964 5.73975Z" fill="#4CBE42"/>
<path opacity="0.05" d="M159.426 222.855C183.228 234.377 221.802 234.377 245.604 222.855C269.405 211.333 269.405 192.744 245.604 181.26C221.802 169.776 183.228 169.738 159.426 181.26C135.625 192.782 135.625 211.371 159.426 222.855Z" fill="black"/>
<path d="M260.009 201.769V115.891H157.198V201.769C156.762 208.375 161.793 215.058 172.2 220.108C192.28 229.806 224.858 229.806 244.961 220.108C255.483 215.058 260.445 208.375 260.009 201.769Z" fill="#EBEBEB"/>
<path d="M172.27 133.481C192.349 143.179 224.927 143.179 245.03 133.481C265.133 123.783 265.11 108.075 245.03 98.377C224.95 88.6792 192.349 88.7753 172.27 98.377C152.19 107.979 152.167 123.745 172.27 133.481Z" fill="#FAFAFA"/>
<path d="M174.475 132.021C193.337 140.913 223.939 140.913 242.801 132.021C261.663 123.13 261.663 108.67 242.801 99.7596C223.939 90.8492 193.337 90.8684 174.475 99.7596C155.613 108.651 155.727 123.111 174.475 132.021Z" fill="#EBEBEB"/>
<path d="M242.8 103.946C223.938 95.0361 193.336 95.0361 174.474 103.946C166.181 107.787 161.54 112.857 160.552 117.984C161.54 123.092 166.181 128.085 174.474 132.022C193.336 140.913 223.938 140.913 242.8 132.022C251.117 128.085 255.735 123.092 256.746 117.984C255.735 112.857 251.117 107.864 242.8 103.946Z" fill="#F5F5F5"/>
<path d="M157.198 187.251C157.198 193.646 162.137 200.06 172.269 204.938C192.349 214.54 224.927 214.54 245.029 204.938C255.069 200.079 260.101 193.742 260.101 187.386V129.891C260.101 136.247 255.069 142.603 245.029 147.443C224.927 157.044 192.349 157.044 172.269 147.443C162.137 142.565 157.129 136.151 157.198 129.756V187.251Z" fill="#3DB1E3"/>
<path opacity="0.5" d="M156.7 187.408C156.7 193.803 161.639 200.216 171.771 205.094C191.851 214.696 224.429 214.696 244.531 205.094C254.571 200.236 259.603 193.899 259.603 187.542V130.047C259.603 136.403 254.571 142.76 244.531 147.599C224.429 157.201 191.851 157.201 171.771 147.599C161.639 142.721 156.631 136.307 156.7 129.913V187.408Z" fill="white"/>
<path opacity="0.05" d="M229.706 225.197C210.798 229.268 187.8 227.617 172.269 220.089C161.816 215.077 156.853 208.394 157.267 201.75V115.891C157.267 122.247 162.321 128.604 172.361 133.462C173.961 134.241 175.618 134.934 177.324 135.536V212.216C177.232 219.398 205.904 227.924 229.706 225.197Z" fill="black"/>
<path d="M220.377 131.216L214.932 128.566C210.498 126.434 209.304 123.534 212.29 122.113C215.277 120.692 221.25 121.249 225.684 123.381L231.129 126.011C235.563 128.162 236.758 131.043 233.771 132.483C230.785 133.923 224.811 133.347 220.377 131.216Z" fill="#E0E0E0"/>
<path d="M217.597 126.683C219.881 126.683 221.733 125.789 221.733 124.686C221.733 123.583 219.881 122.689 217.597 122.689C215.313 122.689 213.462 123.583 213.462 124.686C213.462 125.789 215.313 126.683 217.597 126.683Z" fill="#F5F5F5"/>
<path d="M225.501 130.984C226.411 131.363 227.414 131.56 228.43 131.56C229.447 131.56 230.449 131.363 231.359 130.984C231.716 130.885 232.027 130.694 232.247 130.439C232.467 130.184 232.585 129.878 232.585 129.563C232.585 129.249 232.467 128.943 232.247 128.688C232.027 128.432 231.716 128.242 231.359 128.142C230.449 127.764 229.447 127.566 228.43 127.566C227.414 127.566 226.411 127.764 225.501 128.142C225.144 128.242 224.834 128.432 224.614 128.688C224.394 128.943 224.275 129.249 224.275 129.563C224.275 129.878 224.394 130.184 224.614 130.439C224.834 130.694 225.144 130.885 225.501 130.984Z" fill="#F5F5F5"/>
<path d="M331.85 253.31C341.04 205.974 358.386 145.982 393.192 101.238C427.999 56.4942 460.668 50.8868 469.491 85.1458C478.313 119.405 446.516 215.729 424.805 255.653C367.737 360.869 321.673 306.005 331.85 253.31Z" fill="#F0997A"/>
<g opacity="0.8">
<path opacity="0.8" d="M458.256 89.4676C458.256 89.4676 457.2 89.8901 455.293 90.543C453.386 91.1959 450.698 92.0601 447.573 93.0011C446.011 93.5195 444.288 94.038 442.496 94.5565C440.704 95.075 438.843 95.728 436.89 96.2464L424.851 99.9911L418.809 101.911C416.833 102.584 414.812 103.179 412.928 103.832L407.414 105.752C405.668 106.386 403.991 106.962 402.405 107.461C399.35 108.575 396.639 109.382 394.755 110.015C392.871 110.649 391.699 110.899 391.699 110.899C391.699 110.899 392.388 110.092 393.698 108.767C395.511 106.949 397.493 105.254 399.625 103.697C400.958 102.756 402.405 101.777 404.037 100.759C405.712 99.7007 407.461 98.726 409.275 97.8403C411.194 96.8481 413.172 95.9379 415.202 95.1134C417.247 94.2109 419.429 93.5388 421.589 92.7706C423.749 92.0025 425.977 91.4456 428.206 90.9655C430.434 90.4854 432.64 90.0821 434.776 89.6789C438.686 89.0543 442.652 88.7074 446.631 88.6419C450.531 88.5394 454.433 88.8165 458.256 89.4676Z" fill="#FFBDA7"/>
</g>
<g opacity="0.8">
<path opacity="0.8" d="M408.264 261.492C408.264 261.492 407.184 261.933 405.3 262.567C403.417 263.201 400.706 264.103 397.581 265.044C395.996 265.544 394.296 266.062 392.504 266.58C390.712 267.099 388.851 267.752 386.875 268.27L374.859 272.111L368.817 274.031C366.818 274.704 364.819 275.28 362.935 275.952L357.399 277.872C355.676 278.506 353.998 279.082 352.413 279.581C349.335 280.695 346.624 281.502 344.74 282.135C342.856 282.769 341.707 283.019 341.707 283.019C341.707 283.019 342.373 282.212 343.683 280.887C345.5 279.072 347.49 277.383 349.633 275.837C350.966 274.896 352.39 273.916 354.021 272.879C355.707 271.781 357.463 270.762 359.283 269.826C361.166 268.904 363.096 267.906 365.187 267.099C367.278 266.292 369.414 265.524 371.574 264.775C373.733 264.026 375.985 263.45 378.213 262.855C380.442 262.26 382.648 261.991 384.761 261.588C388.669 260.954 392.636 260.607 396.616 260.551C400.53 260.48 404.439 260.796 408.264 261.492Z" fill="#FFBDA7"/>
</g>
<g opacity="0.8">
<path opacity="0.8" d="M456.441 118.753C456.441 118.753 455.086 119.309 452.742 120.135C450.399 120.961 447.183 122.171 443.277 123.515C435.489 126.299 425.127 129.564 414.789 132.79L386.185 141.451L376.513 144.351C374.216 145.08 372.699 145.426 372.699 145.426C372.699 145.426 373.549 144.408 375.226 142.776C376.202 141.774 377.27 140.836 378.42 139.972C379.86 138.78 381.395 137.67 383.015 136.65C391.363 131.158 400.73 126.844 410.745 123.88C420.706 120.701 431.171 118.76 441.806 118.119C445.339 117.886 448.888 117.886 452.421 118.119C454.971 118.484 456.441 118.753 456.441 118.753Z" fill="#FFBDA7"/>
</g>
<g opacity="0.8">
<path opacity="0.8" d="M443.852 153.722C443.852 153.722 442.519 154.375 440.176 155.297C437.832 156.219 434.708 157.563 430.848 159.138C423.128 162.095 412.882 165.552 402.612 168.74L394.893 171.044C392.412 171.87 389.838 172.503 387.426 173.252L373.986 176.939L364.061 179.57C361.626 180.204 360.109 180.473 360.109 180.473C360.843 179.496 361.641 178.553 362.499 177.65C363.424 176.594 364.454 175.605 365.577 174.693C366.96 173.446 368.433 172.273 369.988 171.178C378.254 165.418 387.673 160.926 397.811 157.909C407.824 154.772 418.371 152.989 429.056 152.628C432.641 152.538 436.23 152.692 439.785 153.089C442.358 153.377 443.852 153.722 443.852 153.722Z" fill="#FFBDA7"/>
</g>
<g opacity="0.8">
<path opacity="0.8" d="M418.533 226.389C418.533 226.389 417.338 226.965 415.248 227.791C413.157 228.616 410.308 229.826 406.839 231.19C399.946 233.84 390.757 236.951 381.567 239.812L374.675 241.905C372.377 242.635 370.08 243.211 367.943 243.826L355.835 247.186L346.967 249.471C344.67 250.047 343.406 250.297 343.406 250.297C343.406 250.297 344.118 249.337 345.566 247.781C346.405 246.831 347.335 245.938 348.346 245.112C349.58 243.992 350.9 242.94 352.297 241.963C359.732 236.797 368.192 232.761 377.294 230.037C386.291 227.219 395.768 225.618 405.369 225.294C408.593 225.219 411.819 225.354 415.018 225.698C417.2 226.082 418.533 226.389 418.533 226.389Z" fill="#FFBDA7"/>
</g>
<g opacity="0.8">
<path opacity="0.8" d="M432.915 189.441C432.915 189.441 431.605 190.094 429.262 191.016C426.919 191.938 423.771 193.263 419.911 194.857C412.215 197.814 401.968 201.27 391.676 204.458L383.979 206.763C381.475 207.588 378.902 208.222 376.49 208.971L363.026 212.697L353.147 215.251C350.712 215.904 349.173 216.172 349.173 216.172C349.173 216.172 349.977 215.097 351.585 213.369C352.52 212.278 353.557 211.25 354.687 210.296C356.061 209.05 357.526 207.876 359.075 206.782C367.348 201.031 376.765 196.54 386.897 193.512C396.911 190.377 407.458 188.594 418.142 188.231C421.735 188.142 425.331 188.296 428.894 188.692C430.249 188.884 431.591 189.134 432.915 189.441Z" fill="#FFBDA7"/>
</g>
<path opacity="0.1" d="M303.476 308.944C334.792 308.944 360.178 296.693 360.178 281.579C360.178 266.466 334.792 254.214 303.476 254.214C272.161 254.214 246.775 266.466 246.775 281.579C246.775 296.693 272.161 308.944 303.476 308.944Z" fill="black"/>
<path d="M321.856 59.1056V19.7769L306.624 20.2954L291.415 19.7769V59.1056C291.519 74.792 284.678 89.9563 272.208 101.68C264.535 108.823 257.39 120.345 257.045 138.646V271.15C257.045 280.08 267.521 289.163 288.198 293.369C300.319 295.846 312.975 295.846 325.095 293.369C345.772 289.144 356.111 280.08 356.203 271.15V138.646C355.858 120.345 348.736 108.823 341.063 101.68C328.576 89.965 321.732 74.795 321.856 59.1056Z" fill="#4CBE42"/>
<path opacity="0.5" d="M321.856 59.1056V19.7769L306.624 20.2954L291.415 19.7769V59.1056C291.519 74.792 284.678 89.9563 272.208 101.68C264.535 108.823 257.39 120.345 257.045 138.646V271.15C257.045 280.08 267.521 289.163 288.198 293.369C300.319 295.846 312.975 295.846 325.095 293.369C345.772 289.144 356.111 280.08 356.203 271.15V138.646C355.858 120.345 348.736 108.823 341.063 101.68C328.576 89.965 321.732 74.795 321.856 59.1056Z" fill="black"/>
<path d="M321.879 15.4183C321.89 15.3097 321.89 15.2005 321.879 15.0919C321.847 13.9201 321.414 12.7805 320.633 11.8073C319.851 10.8342 318.753 10.0682 317.468 9.5997C314.127 8.18873 310.436 7.45361 306.693 7.45361C302.949 7.45361 299.258 8.18873 295.917 9.5997C294.208 10.3447 292.831 11.5297 291.989 12.9795C291.894 13.0993 291.817 13.2283 291.759 13.3636C291.748 13.4465 291.748 13.5302 291.759 13.6132C291.624 13.8814 291.546 14.1674 291.529 14.4582V33.6616C291.643 34.789 292.116 35.8702 292.9 36.7924C293.684 37.7146 294.75 38.4439 295.986 38.9042C299.327 40.3151 303.018 41.0503 306.761 41.0503C310.505 41.0503 314.195 40.3151 317.536 38.9042C318.597 38.4745 319.533 37.8568 320.279 37.094C321.025 36.3312 321.563 35.4417 321.856 34.4874C321.93 34.3593 321.984 34.2238 322.017 34.0841L321.879 15.4183Z" fill="#37474F"/>
<path d="M317.399 20.008C314.062 21.4279 310.369 22.168 306.624 22.168C302.879 22.168 299.187 21.4279 295.849 20.008C289.876 17.1467 289.876 12.4802 295.849 9.5997C299.19 8.18873 302.881 7.45361 306.624 7.45361C310.367 7.45361 314.058 8.18873 317.399 9.5997C323.442 12.4994 323.442 17.1467 317.399 20.008Z" fill="#455A64"/>
<path d="M356.203 142.699V214.808C356.203 220.973 351.378 227.079 341.683 231.726C326.474 239.062 303.706 240.637 285.304 236.374V164.207C303.683 168.489 326.474 166.934 341.683 159.56C351.378 154.97 356.203 148.844 356.203 142.699Z" fill="white"/>
<path d="M95.006 212.715C85.3567 214.002 68.5853 216.556 60.2456 235.509C50.7341 257.152 65.8284 281.79 85.5175 291.065C110.284 302.721 146.63 300.475 165.928 282.423C187.364 262.452 184.997 228.212 167.077 214.674C149.157 201.135 124.873 207.453 118.693 210.295C109.526 214.539 102.542 211.716 95.006 212.715Z" fill="#F28F8F"/>
<path opacity="0.1" d="M152.166 279.428C128.388 293.063 93.5813 292.371 71.1582 280.811C75.1509 284.965 80.0266 288.467 85.5403 291.142C110.307 302.799 146.652 300.552 165.951 282.501C182.217 267.349 184.744 244.094 177.231 227.732C178.84 232.264 178.334 264.373 152.166 279.428Z" fill="black"/>
<g opacity="0.2">
<path opacity="0.2" d="M85.7929 220.78C79.4749 220.876 70.9284 226.273 67.0457 233.82C62.198 243.172 62.9562 255.75 65.8969 264.699C71.8244 282.731 94.2245 290.566 96.0855 288.837C97.9464 287.109 81.0831 276.413 87.3781 257.44C93.6961 238.179 96.1544 220.665 85.7929 220.78Z" fill="white"/>
</g>
<g opacity="0.2">
<path opacity="0.2" d="M81.3126 224.16C75.1554 226.503 68.7915 235.682 67.5279 241.866C66.2643 248.049 67.7577 252.082 68.8375 252.716C70.7444 253.829 82.4384 242.154 86.0684 237.046C91.3984 229.787 91.2606 220.377 81.3126 224.16Z" fill="white"/>
</g>
<path d="M107.022 227.578C103.323 225.658 99.9915 224.717 98.7049 228.289C97.4184 231.861 107.137 236.45 116.901 233.147C126.665 229.844 129.468 224.064 128.916 221.318C128.916 221.318 125.103 227.713 118.44 228.999C114.553 229.667 110.508 229.163 107.022 227.578Z" fill="#B16668"/>
<path d="M116.671 230.977C115.578 223.18 113.1 215.562 109.319 208.375C103.461 197.986 94.5236 191.092 92.2491 190.477C88.5956 189.688 84.7867 189.538 81.0605 190.036C75.9143 190.516 70.1247 193.876 72.0086 195.451C73.8925 197.026 81.4741 197.583 91.3531 203.862C101.232 210.142 111.502 223.066 112.49 231.304C113.155 231.577 113.897 231.691 114.635 231.633C115.373 231.576 116.078 231.349 116.671 230.977Z" fill="#37474F"/>
<path d="M91.8355 190.4L91.3301 190.285C87.9704 189.719 84.5185 189.648 81.1294 190.073C77.593 190.329 74.3064 191.703 71.9396 193.914C71.6639 194.567 72.9045 195.316 77.5684 195.47C82.1962 195.653 86.8082 194.896 91.0084 193.261C92.9612 192.532 93.5586 191.091 91.8355 190.4Z" fill="#455A64"/>
<path opacity="0.1" d="M108.286 217.977C103.047 208.625 89.7451 201.558 80.877 198.773C84.5999 200.161 88.1159 201.907 91.3533 203.978C101.232 210.276 111.502 223.181 112.49 231.419C113.151 231.682 113.886 231.789 114.615 231.728C115.344 231.667 116.039 231.441 116.625 231.074C116.625 231.074 116.281 228.135 115.247 223.911C115.454 227.809 113.11 226.599 108.286 217.977Z" fill="black"/>
<path d="M112.076 214.27C116.328 214.434 120.558 213.667 124.347 212.043C128.135 210.419 131.349 207.996 133.672 205.014C139.829 196.603 133.97 186.828 133.97 186.828C130.35 186.607 126.719 187.114 123.381 188.307C120.044 189.5 117.097 191.344 114.787 193.684C109.181 199.541 109.571 209.911 112.076 214.27Z" fill="#4CBE42"/>
<path opacity="0.3" d="M112.076 214.27C116.328 214.434 120.558 213.667 124.347 212.043C128.135 210.419 131.349 207.996 133.672 205.014C139.829 196.603 133.97 186.828 133.97 186.828C130.35 186.607 126.719 187.114 123.381 188.307C120.044 189.5 117.097 191.344 114.787 193.684C109.181 199.541 109.571 209.911 112.076 214.27Z" fill="black"/>
<path d="M134.04 186.828C130.419 186.607 126.788 187.114 123.451 188.307C120.113 189.5 117.166 191.344 114.856 193.684C109.181 199.541 109.572 209.911 112.145 214.27C116.119 198.773 134.04 186.828 134.04 186.828Z" fill="#4CBE42"/>
<path opacity="0.15" d="M73.8916 234.356C92.2712 243.958 125.423 243.728 147.823 233.761C170.224 223.795 173.348 207.932 154.716 198.292C136.084 188.652 103.046 188.921 80.7839 198.888C58.5216 208.854 55.443 224.716 73.8916 234.356Z" fill="black"/>
<path d="M86.0224 142.335C76.3731 143.622 59.5787 146.176 51.239 165.13C41.7505 186.753 56.8447 211.41 76.5109 220.685C101.277 232.342 137.623 230.095 156.922 212.024C178.357 192.053 175.968 157.832 158.07 144.294C140.173 130.755 115.866 137.073 109.686 139.896C100.588 144.159 93.5351 141.337 86.0224 142.335Z" fill="#E77070"/>
<path opacity="0.1" d="M143.183 208.971C119.404 222.606 84.5979 221.895 62.1748 210.335C66.1562 214.503 71.0338 218.013 76.5569 220.685C101.323 232.342 137.669 230.095 156.968 212.024C173.234 196.892 175.761 173.618 168.248 157.275C169.856 161.884 169.351 193.973 143.183 208.971Z" fill="black"/>
<g opacity="0.2">
<path opacity="0.2" d="M76.8098 150.4C70.4918 150.4 61.9453 155.892 58.0397 163.439C53.192 172.791 53.9731 185.369 56.9139 194.318C62.8413 212.35 85.2415 220.185 87.1024 218.457C88.9633 216.728 72.1 206.032 78.372 187.059C84.7589 167.798 87.1713 150.265 76.8098 150.4Z" fill="white"/>
</g>
<g opacity="0.2">
<path opacity="0.2" d="M72.3293 153.78C66.1492 156.123 59.7852 165.302 58.5446 171.466C57.304 177.63 58.7973 181.702 59.8541 182.316C61.784 183.449 73.478 171.754 77.108 166.646C82.3232 159.406 82.2083 149.997 72.3293 153.78Z" fill="white"/>
</g>
<path d="M98.0154 157.179C94.3395 155.259 91.0082 154.318 89.6986 157.89C88.3891 161.462 98.1532 166.051 107.894 162.748C117.636 159.445 120.484 153.665 119.933 150.919C119.933 150.919 116.119 157.294 109.457 158.6C105.561 159.257 101.514 158.755 98.0154 157.179Z" fill="#B16668"/>
<path d="M107.641 160.597C106.559 152.801 104.097 145.184 100.335 137.994C94.4767 127.624 85.5396 120.711 83.2422 120.116C79.5987 119.317 75.7964 119.16 72.0765 119.655C66.9302 120.154 61.1177 123.496 63.0016 125.089C64.8855 126.683 72.4901 127.221 82.3691 133.5C92.2481 139.78 102.495 152.704 103.506 160.942C104.167 161.205 104.902 161.312 105.631 161.251C106.36 161.19 107.055 160.964 107.641 160.597Z" fill="#37474F"/>
<path d="M82.8522 120.039L82.3237 119.905C78.9642 119.341 75.514 119.263 72.123 119.674C68.5879 119.934 65.3029 121.307 62.9332 123.515C62.6575 124.168 63.8752 124.917 68.562 125.071C73.1888 125.243 77.7977 124.486 82.0021 122.862C83.9779 122.152 84.5063 120.596 82.8522 120.039Z" fill="#455A64"/>
<path opacity="0.1" d="M99.3021 147.576C94.0639 138.205 80.7617 131.158 71.8936 128.373C75.6165 129.76 79.1325 131.507 82.3699 133.577C92.226 139.857 102.496 152.781 103.506 161.019C104.168 161.282 104.903 161.388 105.632 161.327C106.361 161.266 107.056 161.04 107.642 160.673C107.642 160.673 107.297 157.735 106.24 153.51C106.47 157.409 104.127 156.218 99.3021 147.576Z" fill="black"/>
<path d="M103.161 143.871C107.415 144.043 111.649 143.278 115.439 141.654C119.229 140.03 122.442 137.602 124.757 134.614C130.915 126.203 125.056 116.448 125.056 116.448C121.436 116.227 117.805 116.734 114.467 117.927C111.13 119.119 108.182 120.963 105.872 123.304C100.198 129.161 100.588 139.531 103.161 143.871Z" fill="#4CBE42"/>
<path opacity="0.3" d="M103.161 143.871C107.415 144.043 111.649 143.278 115.439 141.654C119.229 140.03 122.442 137.602 124.757 134.614C130.915 126.203 125.056 116.448 125.056 116.448C121.436 116.227 117.805 116.734 114.467 117.927C111.13 119.119 108.182 120.963 105.872 123.304C100.198 129.161 100.588 139.531 103.161 143.871Z" fill="black"/>
<path d="M125.056 116.448C121.436 116.227 117.805 116.734 114.467 117.927C111.13 119.119 108.182 120.963 105.872 123.304C100.198 129.161 100.588 139.531 103.161 143.871C107.113 128.354 125.056 116.448 125.056 116.448Z" fill="#4CBE42"/>
<path d="M176.543 266.907C176.543 279.159 164.642 292.985 149.984 292.985C135.326 292.985 123.563 279.159 123.563 266.907C123.767 261.135 126.653 255.656 131.609 251.633C136.565 247.611 143.202 245.36 150.111 245.36C157.019 245.36 163.656 247.611 168.612 251.633C173.568 255.656 176.454 261.135 176.658 266.907H176.543Z" fill="#4CBE42"/>
<path opacity="0.6" d="M176.543 266.907C176.543 279.159 164.642 292.985 149.984 292.985C135.326 292.985 123.563 279.159 123.563 266.907C123.767 261.135 126.653 255.656 131.609 251.633C136.565 247.611 143.202 245.36 150.111 245.36C157.019 245.36 163.656 247.611 168.612 251.633C173.568 255.656 176.454 261.135 176.658 266.907H176.543Z" fill="black"/>
<path d="M224.123 289.893C224.123 302.145 212.245 315.972 197.587 315.972C182.93 315.972 171.052 302.145 171.052 289.893C171.052 286.981 171.738 284.096 173.072 281.405C174.405 278.714 176.36 276.269 178.824 274.21C181.288 272.15 184.213 270.516 187.433 269.402C190.652 268.287 194.103 267.713 197.587 267.713C201.072 267.713 204.523 268.287 207.742 269.402C210.961 270.516 213.887 272.15 216.351 274.21C218.815 276.269 220.769 278.714 222.103 281.405C223.436 284.096 224.123 286.981 224.123 289.893Z" fill="#4CBE42"/>
<path opacity="0.6" d="M224.123 289.893C224.123 302.145 212.245 315.972 197.587 315.972C182.93 315.972 171.052 302.145 171.052 289.893C171.052 286.981 171.738 284.096 173.072 281.405C174.405 278.714 176.36 276.269 178.824 274.21C181.288 272.15 184.213 270.516 187.433 269.402C190.652 268.287 194.103 267.713 197.587 267.713C201.072 267.713 204.523 268.287 207.742 269.402C210.961 270.516 213.887 272.15 216.351 274.21C218.815 276.269 220.769 278.714 222.103 281.405C223.436 284.096 224.123 286.981 224.123 289.893Z" fill="black"/>
<path d="M271.703 312.881C271.703 325.133 259.825 338.959 245.167 338.959C230.51 338.959 218.632 325.133 218.632 312.881C218.632 306.998 221.428 301.357 226.404 297.197C231.38 293.038 238.13 290.701 245.167 290.701C252.205 290.701 258.954 293.038 263.931 297.197C268.907 301.357 271.703 306.998 271.703 312.881Z" fill="#4CBE42"/>
<path opacity="0.6" d="M271.703 312.881C271.703 325.133 259.825 338.959 245.167 338.959C230.51 338.959 218.632 325.133 218.632 312.881C218.632 306.998 221.428 301.357 226.404 297.197C231.38 293.038 238.13 290.701 245.167 290.701C252.205 290.701 258.954 293.038 263.931 297.197C268.907 301.357 271.703 306.998 271.703 312.881Z" fill="black"/>
<path d="M319.306 335.906C319.306 348.158 307.428 361.984 292.77 361.984C278.113 361.984 266.212 348.158 266.212 335.906C266.415 330.134 269.301 324.655 274.257 320.633C279.214 316.61 285.85 314.36 292.759 314.36C299.667 314.36 306.304 316.61 311.26 320.633C316.217 324.655 319.103 330.134 319.306 335.906Z" fill="#4CBE42"/>
<path opacity="0.6" d="M319.306 335.906C319.306 348.158 307.428 361.984 292.77 361.984C278.113 361.984 266.212 348.158 266.212 335.906C266.415 330.134 269.301 324.655 274.257 320.633C279.214 316.61 285.85 314.36 292.759 314.36C299.667 314.36 306.304 316.61 311.26 320.633C316.217 324.655 319.103 330.134 319.306 335.906Z" fill="black"/>
<path d="M371.826 310.153C371.826 322.405 359.948 336.231 345.29 336.231C330.633 336.231 318.847 322.385 318.847 310.153C319.05 304.381 321.936 298.902 326.892 294.879C331.849 290.857 338.485 288.606 345.394 288.606C352.302 288.606 358.939 290.857 363.895 294.879C368.852 298.902 371.738 304.381 371.941 310.153H371.826Z" fill="#4CBE42"/>
<path opacity="0.6" d="M371.826 310.153C371.826 322.405 359.948 336.231 345.29 336.231C330.633 336.231 318.847 322.385 318.847 310.153C319.05 304.381 321.936 298.902 326.892 294.879C331.849 290.857 338.485 288.606 345.394 288.606C352.302 288.606 358.939 290.857 363.895 294.879C368.852 298.902 371.738 304.381 371.941 310.153H371.826Z" fill="black"/>
<path d="M401.67 296.71C401.582 295.829 401.211 294.984 400.596 294.264C399.982 293.544 399.146 292.976 398.178 292.62L212.222 202.825C209.6 201.707 206.699 201.124 203.756 201.124C200.813 201.124 197.912 201.707 195.29 202.825L100.934 248.356C99.968 248.716 99.135 249.284 98.521 250.004C97.907 250.723 97.5343 251.566 97.4414 252.446C97.4414 253.81 97.4414 258.745 97.4414 260.128C97.5343 261.008 97.907 261.851 98.521 262.57C99.135 263.29 99.968 263.858 100.934 264.218L286.889 354.033C289.519 355.14 292.422 355.717 295.367 355.717C298.311 355.717 301.215 355.14 303.844 354.033L398.178 308.501C399.146 308.145 399.982 307.577 400.596 306.857C401.211 306.137 401.582 305.292 401.67 304.411V296.71Z" fill="#4CBE42"/>
<path opacity="0.2" d="M401.67 296.71C401.582 295.829 401.211 294.984 400.596 294.264C399.982 293.544 399.146 292.976 398.178 292.62L212.222 202.825C209.6 201.707 206.699 201.124 203.756 201.124C200.813 201.124 197.912 201.707 195.29 202.825L100.934 248.356C99.968 248.716 99.135 249.284 98.521 250.004C97.907 250.723 97.5343 251.566 97.4414 252.446C97.4414 253.81 97.4414 258.745 97.4414 260.128C97.5343 261.008 97.907 261.851 98.521 262.57C99.135 263.29 99.968 263.858 100.934 264.218L286.889 354.033C289.519 355.14 292.422 355.717 295.367 355.717C298.311 355.717 301.215 355.14 303.844 354.033L398.178 308.501C399.146 308.145 399.982 307.577 400.596 306.857C401.211 306.137 401.582 305.292 401.67 304.411V296.71Z" fill="black"/>
<path opacity="0.1" d="M295.528 348.062V355.743C292.529 355.796 289.563 355.208 286.912 354.034L100.957 264.239C99.9852 263.884 99.1463 263.317 98.5278 262.597C97.9093 261.877 97.534 261.031 97.4414 260.149C97.4414 258.766 97.4414 253.869 97.4414 252.467C97.5434 253.348 97.9223 254.19 98.5397 254.908C99.157 255.627 99.9909 256.196 100.957 256.558L286.912 346.372C289.567 347.535 292.531 348.116 295.528 348.062Z" fill="black"/>
<path d="M100.933 248.376L195.29 202.845C197.911 201.727 200.813 201.144 203.756 201.144C206.699 201.144 209.6 201.727 212.222 202.845L398.178 292.64C402.772 294.906 402.772 298.574 398.178 300.821L303.844 346.352C301.218 347.469 298.313 348.05 295.367 348.05C292.42 348.05 289.515 347.469 286.889 346.352L100.933 256.557C96.2696 254.291 96.2696 250.623 100.933 248.376Z" fill="#4CBE42"/>
<path opacity="0.1" d="M311.127 329.664C321.259 324.767 321.282 316.855 311.127 311.997C300.972 307.138 284.591 307.138 274.368 311.997C264.144 316.855 264.121 324.786 274.368 329.664C280.066 332.074 286.362 333.329 292.747 333.329C299.133 333.329 305.429 332.074 311.127 329.664Z" fill="black"/>
<path opacity="0.1" d="M363.647 304.393C373.778 299.496 373.801 291.584 363.647 286.706C353.492 281.829 337.111 281.848 326.887 286.706C316.664 291.565 316.641 299.496 326.887 304.373C337.134 309.251 353.515 309.193 363.647 304.393Z" fill="black"/>
<path opacity="0.1" d="M263.524 306.678C273.656 301.781 273.702 293.87 263.524 289.011C253.347 284.153 236.989 284.153 226.765 289.011C216.542 293.87 216.519 301.801 226.765 306.678C237.012 311.556 253.393 311.575 263.524 306.678Z" fill="black"/>
<path opacity="0.1" d="M316.044 281.349C326.176 276.471 326.222 268.559 316.044 263.682C305.866 258.804 289.508 258.823 279.285 263.682C269.061 268.54 269.038 276.471 279.285 281.368C284.983 283.778 291.281 285.032 297.667 285.029C304.053 285.025 310.349 283.765 316.044 281.349Z" fill="black"/>
<path opacity="0.1" d="M215.943 283.692C226.075 278.795 226.121 270.883 215.943 266.025C205.766 261.166 189.408 261.166 179.184 266.025C168.961 270.883 168.938 278.814 179.184 283.692C189.431 288.57 205.812 288.589 215.943 283.692Z" fill="black"/>
<path opacity="0.1" d="M268.463 258.305C278.595 253.427 278.641 245.516 268.463 240.638C258.285 235.76 241.905 235.779 231.704 240.638C221.503 245.496 221.457 253.427 231.704 258.305C241.951 263.183 258.331 263.221 268.463 258.305Z" fill="black"/>
<path opacity="0.1" d="M168.341 260.705C178.473 255.808 178.519 247.896 168.341 243.038C158.163 238.179 141.805 238.16 131.582 243.038C121.358 247.915 121.335 255.827 131.582 260.705C137.28 263.113 143.576 264.368 149.961 264.368C156.347 264.368 162.642 263.113 168.341 260.705Z" fill="black"/>
<path opacity="0.1" d="M220.86 235.26C231.015 230.382 231.038 222.47 220.86 217.592C210.683 212.715 194.325 212.734 184.101 217.592C173.878 222.451 173.855 230.382 184.101 235.26C194.348 240.137 210.729 240.233 220.86 235.26Z" fill="black"/>
<path d="M369.919 295.098C369.919 295.463 369.919 295.828 369.919 296.154C369.83 297.602 369.553 299.038 369.091 300.436C367.603 302.009 365.751 303.315 363.647 304.277C353.515 309.193 337.065 309.193 326.887 304.277C324.792 303.319 322.955 302.012 321.488 300.436C320.999 299.01 320.706 297.541 320.615 296.058C320.615 295.732 320.615 295.367 320.615 295.002C320.615 294.637 320.615 294.291 320.615 293.965C320.615 293.043 320.615 292.045 320.822 291.238C321.921 281.698 326.947 272.773 335.043 265.985C337.757 263.722 341.434 262.451 345.267 262.451C349.1 262.451 352.777 263.722 355.491 265.985C363.574 272.735 368.58 281.634 369.643 291.142C369.758 292.141 369.85 293.062 369.896 294.099C369.919 294.387 369.919 294.791 369.919 295.098Z" fill="#FAFAFA"/>
<path d="M322.339 272.092C322.363 272.438 322.363 272.784 322.339 273.129C322.275 274.586 321.997 276.031 321.512 277.431C320.038 279.008 318.193 280.315 316.09 281.271C310.394 283.687 304.097 284.946 297.71 284.946C291.323 284.946 285.026 283.687 279.331 281.271C277.236 280.313 275.398 279.006 273.932 277.431C273.431 275.999 273.138 274.523 273.059 273.033C273.059 272.707 273.059 272.361 273.059 271.996C273.059 271.631 273.059 271.266 273.059 270.94C273.059 270.037 273.059 269.116 273.265 268.232C274.335 258.678 279.355 249.735 287.464 242.941C290.173 240.679 293.846 239.409 297.676 239.409C301.505 239.409 305.178 240.679 307.888 242.941C315.981 249.687 320.996 258.586 322.063 268.098C322.178 269.077 322.247 270.018 322.293 271.036C322.332 271.387 322.347 271.74 322.339 272.092Z" fill="#FAFAFA"/>
<path d="M317.399 320.466C317.399 320.812 317.399 321.176 317.399 321.503C317.314 322.952 317.037 324.388 316.572 325.785C315.096 327.368 313.242 328.676 311.127 329.626C300.995 334.542 284.545 334.542 274.368 329.626C272.277 328.663 270.441 327.356 268.969 325.785C268.479 324.352 268.186 322.876 268.096 321.388C268.096 321.061 268.096 320.696 268.096 320.351C268.096 320.005 268.096 319.621 268.096 319.295C268.096 318.392 268.096 317.47 268.302 316.587C269.355 307.001 274.377 298.023 282.501 291.2C285.214 288.937 288.891 287.666 292.724 287.666C296.558 287.666 300.235 288.937 302.948 291.2C311.034 297.947 316.041 306.847 317.1 316.356C317.215 317.336 317.307 318.277 317.353 319.295C317.399 319.755 317.399 320.101 317.399 320.466Z" fill="#FAFAFA"/>
<path d="M269.819 297.442C269.843 297.793 269.843 298.146 269.819 298.498C269.755 299.948 269.477 301.387 268.992 302.78C267.513 304.353 265.669 305.659 263.57 306.621C257.876 309.041 251.579 310.302 245.191 310.302C238.803 310.302 232.505 309.041 226.811 306.621C224.71 305.663 222.865 304.356 221.389 302.78C220.907 301.353 220.622 299.884 220.539 298.402C220.539 298.075 220.539 297.71 220.539 297.346C220.539 296.981 220.539 296.635 220.539 296.309C220.539 295.387 220.539 294.388 220.746 293.582C221.793 283.995 226.815 275.015 234.944 268.195C237.654 265.933 241.327 264.662 245.156 264.662C248.986 264.662 252.659 265.933 255.368 268.195C263.458 274.942 268.473 283.841 269.544 293.351C269.544 294.35 269.728 295.272 269.773 296.309C269.817 296.685 269.832 297.064 269.819 297.442Z" fill="#FAFAFA"/>
<path d="M274.759 249.067C274.783 249.419 274.783 249.771 274.759 250.123C274.674 251.572 274.397 253.008 273.932 254.406C272.45 255.983 270.597 257.291 268.487 258.246C258.355 263.162 241.905 263.162 231.728 258.246C229.637 257.283 227.801 255.976 226.329 254.406C225.847 252.978 225.562 251.509 225.479 250.027C225.479 249.701 225.479 249.336 225.479 248.971C225.479 248.606 225.479 248.26 225.479 247.934C225.479 247.012 225.479 246.11 225.662 245.226C226.724 235.655 231.754 226.695 239.884 219.897C242.593 217.635 246.266 216.364 250.096 216.364C253.925 216.364 257.598 217.635 260.308 219.897C268.398 226.644 273.412 235.543 274.483 245.053C274.598 246.033 274.667 246.974 274.713 247.992C274.753 248.349 274.769 248.708 274.759 249.067Z" fill="#FAFAFA"/>
<path d="M227.155 226.062C227.179 226.414 227.179 226.766 227.155 227.118C227.086 228.567 226.816 230.004 226.351 231.4C224.863 232.973 223.011 234.279 220.906 235.241C210.774 240.138 194.325 240.138 184.147 235.241C182.051 234.284 180.214 232.977 178.748 231.4C178.259 229.974 177.966 228.505 177.875 227.022C177.875 226.696 177.875 226.331 177.875 225.966C177.875 225.601 177.875 225.255 177.875 224.929C177.875 224.007 177.875 223.009 178.082 222.202C179.139 212.628 184.161 203.663 192.28 196.853C194.99 194.591 198.663 193.321 202.492 193.321C206.322 193.321 209.995 194.591 212.704 196.853C220.794 203.601 225.808 212.499 226.88 222.01C226.88 222.989 227.086 223.93 227.109 224.967C227.151 225.331 227.166 225.697 227.155 226.062Z" fill="#FAFAFA"/>
<path d="M222.354 274.493C222.377 274.839 222.377 275.185 222.354 275.53C222.288 276.979 222.018 278.417 221.549 279.813C220.074 281.396 218.219 282.704 216.105 283.653C205.973 288.57 189.523 288.57 179.345 283.653C177.25 282.695 175.413 281.388 173.946 279.813C173.457 278.386 173.164 276.917 173.073 275.434C173.073 275.108 173.073 274.743 173.073 274.397C173.073 274.052 173.073 273.668 173.073 273.341C173.073 272.419 173.073 271.517 173.28 270.634C174.318 261.044 179.341 252.062 187.478 245.247C190.188 242.984 193.861 241.714 197.69 241.714C201.52 241.714 205.193 242.984 207.903 245.247C216.001 251.989 221.016 260.89 222.078 270.403C222.193 271.382 222.285 272.323 222.308 273.341C222.351 273.724 222.367 274.109 222.354 274.493Z" fill="#FAFAFA"/>
<path d="M174.658 251.488C174.682 251.839 174.682 252.192 174.658 252.544C174.596 253.994 174.318 255.433 173.831 256.826C172.348 258.403 170.495 259.71 168.386 260.667C158.254 265.583 141.828 265.583 131.627 260.667C129.536 259.703 127.7 258.397 126.228 256.826C125.746 255.398 125.461 253.929 125.378 252.448C125.378 252.121 125.378 251.756 125.378 251.391C125.378 251.027 125.378 250.681 125.378 250.354C125.378 249.433 125.378 248.434 125.562 247.628C126.628 238.041 131.657 229.064 139.783 222.241C142.492 219.979 146.166 218.708 149.995 218.708C153.825 218.708 157.498 219.979 160.207 222.241C168.302 228.993 173.317 237.899 174.383 247.416C174.497 248.396 174.566 249.337 174.612 250.354C174.656 250.731 174.671 251.109 174.658 251.488Z" fill="#FAFAFA"/>
<path d="M286.154 269.345L39.9131 150.534L54.2032 279.888C55.0246 284.841 57.104 289.59 60.3018 293.817C63.4995 298.043 67.7417 301.649 72.7437 304.392L269.222 399.218C277.63 403.29 290.864 403.674 300.237 400.351L300.949 400.121L301.363 399.948C301.953 399.732 302.528 399.488 303.086 399.218L420.095 342.741C425.093 340.001 429.334 336.402 432.535 332.183C435.736 327.964 437.824 323.223 438.659 318.276L452.926 188.921L286.154 269.345ZM116.142 292.294C116.193 293.859 115.8 295.412 114.994 296.826C113.131 296.703 111.329 296.216 109.733 295.405L103.346 292.332C99.6515 290.312 96.5768 287.595 94.3699 284.399C92.163 281.204 90.8857 277.619 90.6408 273.935V227.194C90.5969 225.625 90.9819 224.068 91.7666 222.643C93.6461 222.769 95.464 223.262 97.0737 224.083L103.438 227.175C107.141 229.187 110.222 231.902 112.43 235.099C114.638 238.297 115.91 241.885 116.142 245.572V292.294ZM179.667 323.019C179.716 324.588 179.331 326.146 178.541 327.57C176.668 327.447 174.857 326.953 173.257 326.13L166.893 323.058C163.197 321.044 160.12 318.331 157.913 315.138C155.705 311.945 154.429 308.362 154.188 304.68V257.862C154.143 256.295 154.52 254.739 155.291 253.311C157.175 253.419 158.998 253.913 160.598 254.751L166.985 257.843C170.684 259.852 173.761 262.565 175.965 265.759C178.169 268.953 179.438 272.538 179.667 276.22V323.019ZM243.214 353.745C243.263 355.316 242.869 356.875 242.066 358.296C240.205 358.164 238.405 357.678 236.805 356.875L230.418 353.802C226.723 351.783 223.649 349.065 221.442 345.87C219.235 342.674 217.958 339.089 217.713 335.405V288.511C217.666 286.948 218.051 285.397 218.839 283.979C220.72 284.095 222.541 284.589 224.146 285.419L230.51 288.491C234.209 290.507 237.287 293.223 239.495 296.419C241.703 299.616 242.977 303.203 243.214 306.888V353.745ZM351.333 336.942C351.088 340.626 349.81 344.21 347.603 347.406C345.397 350.601 342.322 353.319 338.628 355.339L332.241 358.411C330.644 359.223 328.842 359.71 326.98 359.832C326.174 358.419 325.78 356.866 325.831 355.3V308.444C326.063 304.757 327.335 301.169 329.543 297.971C331.751 294.774 334.833 292.059 338.536 290.047L344.9 286.955C346.505 286.13 348.326 285.643 350.207 285.534C350.994 286.952 351.38 288.503 351.333 290.066V336.942ZM406.931 310.057C406.689 313.741 405.41 317.326 403.199 320.519C400.987 323.712 397.905 326.424 394.203 328.435L387.862 331.507C386.257 332.337 384.437 332.831 382.555 332.947C381.766 331.523 381.38 329.965 381.429 328.396V281.597C381.67 277.915 382.946 274.332 385.154 271.139C387.361 267.946 390.438 265.233 394.134 263.22L400.498 260.147C402.089 259.307 403.905 258.812 405.782 258.707C406.591 260.12 406.984 261.673 406.931 263.239V310.057Z" fill="#4CBE42"/>
<path opacity="0.45" d="M286.154 269.345L39.9131 150.534L54.2032 279.888C55.0246 284.841 57.104 289.59 60.3018 293.817C63.4995 298.043 67.7417 301.649 72.7437 304.392L269.222 399.218C277.63 403.29 290.864 403.674 300.237 400.351L300.949 400.121L301.363 399.948C301.953 399.732 302.528 399.488 303.086 399.218L420.095 342.741C425.093 340.001 429.334 336.402 432.535 332.183C435.736 327.964 437.824 323.223 438.659 318.276L452.926 188.921L286.154 269.345ZM116.142 292.294C116.193 293.859 115.8 295.412 114.994 296.826C113.131 296.703 111.329 296.216 109.733 295.405L103.346 292.332C99.6515 290.312 96.5768 287.595 94.3699 284.399C92.163 281.204 90.8857 277.619 90.6408 273.935V227.194C90.5969 225.625 90.9819 224.068 91.7666 222.643C93.6461 222.769 95.464 223.262 97.0737 224.083L103.438 227.175C107.141 229.187 110.222 231.902 112.43 235.099C114.638 238.297 115.91 241.885 116.142 245.572V292.294ZM179.667 323.019C179.716 324.588 179.331 326.146 178.541 327.57C176.668 327.447 174.857 326.953 173.257 326.13L166.893 323.058C163.197 321.044 160.12 318.331 157.913 315.138C155.705 311.945 154.429 308.362 154.188 304.68V257.862C154.143 256.295 154.52 254.739 155.291 253.311C157.175 253.419 158.998 253.913 160.598 254.751L166.985 257.843C170.684 259.852 173.761 262.565 175.965 265.759C178.169 268.953 179.438 272.538 179.667 276.22V323.019ZM243.214 353.745C243.263 355.316 242.869 356.875 242.066 358.296C240.205 358.164 238.405 357.678 236.805 356.875L230.418 353.802C226.723 351.783 223.649 349.065 221.442 345.87C219.235 342.674 217.958 339.089 217.713 335.405V288.511C217.666 286.948 218.051 285.397 218.839 283.979C220.72 284.095 222.541 284.589 224.146 285.419L230.51 288.491C234.209 290.507 237.287 293.223 239.495 296.419C241.703 299.616 242.977 303.203 243.214 306.888V353.745ZM351.333 336.942C351.088 340.626 349.81 344.21 347.603 347.406C345.397 350.601 342.322 353.319 338.628 355.339L332.241 358.411C330.644 359.223 328.842 359.71 326.98 359.832C326.174 358.419 325.78 356.866 325.831 355.3V308.444C326.063 304.757 327.335 301.169 329.543 297.971C331.751 294.774 334.833 292.059 338.536 290.047L344.9 286.955C346.505 286.13 348.326 285.643 350.207 285.534C350.994 286.952 351.38 288.503 351.333 290.066V336.942ZM406.931 310.057C406.689 313.741 405.41 317.326 403.199 320.519C400.987 323.712 397.905 326.424 394.203 328.435L387.862 331.507C386.257 332.337 384.437 332.831 382.555 332.947C381.766 331.523 381.38 329.965 381.429 328.396V281.597C381.67 277.915 382.946 274.332 385.154 271.139C387.361 267.946 390.438 265.233 394.134 263.22L400.498 260.147C402.089 259.307 403.905 258.812 405.782 258.707C406.591 260.12 406.984 261.673 406.931 263.239V310.057Z" fill="white"/>
<path opacity="0.4" d="M286.153 269.345V390.98C286.153 399.026 292.242 402.829 300.237 400.294L300.949 400.063L301.363 399.891C301.953 399.674 302.528 399.431 303.086 399.161L420.095 342.683C425.093 339.944 429.334 336.344 432.535 332.125C435.736 327.906 437.824 323.165 438.658 318.218L452.925 188.864L286.153 269.345ZM351.355 336.807C351.11 340.491 349.833 344.076 347.626 347.271C345.419 350.467 342.344 353.184 338.65 355.204L332.263 358.277C330.667 359.088 328.865 359.575 327.002 359.698C326.196 358.284 325.802 356.731 325.853 355.166V308.444C326.085 304.757 327.357 301.169 329.566 297.971C331.774 294.774 334.855 292.059 338.558 290.047L344.922 286.955C346.528 286.13 348.349 285.643 350.229 285.534C351.017 286.952 351.402 288.503 351.355 290.066V336.807ZM406.953 309.922C406.711 313.607 405.433 317.191 403.221 320.385C401.009 323.578 397.927 326.29 394.225 328.3L387.884 331.373C386.28 332.202 384.459 332.696 382.577 332.813C381.788 331.388 381.403 329.831 381.452 328.262V281.597C381.693 277.915 382.969 274.332 385.176 271.139C387.384 267.946 390.46 265.233 394.157 263.22L400.52 260.147C402.111 259.307 403.927 258.812 405.805 258.707C406.613 260.12 407.007 261.673 406.953 263.239V309.922Z" fill="white"/>
<path d="M357.604 293.101V339.842C357.371 343.524 356.101 347.107 353.897 350.301C351.694 353.494 348.618 356.208 344.923 358.22L338.559 361.292C333.412 363.769 329.001 362.963 327.071 359.698C328.934 359.576 330.736 359.089 332.332 358.277L338.719 355.205C342.414 353.185 345.488 350.468 347.695 347.272C349.902 344.076 351.179 340.492 351.424 336.808V290.067C351.471 288.504 351.086 286.953 350.299 285.535C354.595 285.343 357.604 288.165 357.604 293.101Z" fill="#455A64"/>
<path d="M413.226 266.272V312.994C412.985 316.679 411.709 320.265 409.502 323.461C407.294 326.657 404.218 329.374 400.521 331.391L394.157 334.464C389.011 336.941 384.6 336.135 382.67 332.87C384.552 332.753 386.372 332.259 387.977 331.43L394.318 328.357C398.02 326.347 401.102 323.635 403.314 320.442C405.525 317.248 406.804 313.664 407.046 309.98V263.238C407.099 261.673 406.706 260.119 405.897 258.706C410.193 258.533 413.226 261.337 413.226 266.272Z" fill="#455A64"/>
<path d="M463.861 188.865V204.227C463.761 205.108 463.383 205.951 462.766 206.67C462.148 207.389 461.313 207.957 460.346 208.318L294.608 288.262C292.005 289.411 289.097 289.992 286.153 289.952V274.589C289.098 274.639 292.009 274.057 294.608 272.899L460.346 193.013C461.372 192.651 462.248 192.044 462.865 191.269C463.482 190.494 463.813 189.584 463.815 188.653C463.844 188.721 463.86 188.793 463.861 188.865Z" fill="#37474F"/>
<path d="M286.154 274.607V289.97C283.203 290.013 280.286 289.432 277.676 288.28L32.5151 169.968C31.5481 169.608 30.713 169.039 30.0954 168.32C29.4777 167.602 29.0997 166.759 29 165.878C29 164.399 29 152.013 29 150.515C29 150.515 29 150.304 29 150.208C29.0103 151.144 29.3458 152.059 29.9657 152.839C30.5856 153.62 31.4632 154.233 32.4921 154.605L277.653 272.898C280.264 274.069 283.192 274.657 286.154 274.607Z" fill="#263238"/>
<path d="M463.838 188.864C463.739 189.74 463.364 190.579 462.75 191.294C462.137 192.009 461.307 192.575 460.346 192.935L294.608 272.917C291.987 274.035 289.085 274.618 286.142 274.618C283.199 274.618 280.298 274.035 277.676 272.917L32.5151 154.605C31.5481 154.245 30.713 153.676 30.0954 152.957C29.4777 152.239 29.0997 151.396 29 150.515H39.9129L206.708 230.977L286.154 269.384L452.926 188.902L463.838 188.864Z" fill="#455A64"/>
<path d="M211.486 291.545V338.287C211.727 341.969 213 345.553 215.203 348.749C217.406 351.945 220.477 354.663 224.168 356.684L230.555 359.756C235.679 362.214 240.09 361.408 242.042 358.162C240.168 358.045 238.355 357.551 236.758 356.722L230.371 353.649C226.675 351.636 223.598 348.923 221.391 345.73C219.184 342.537 217.908 338.954 217.666 335.272V288.53C217.618 286.961 218.003 285.404 218.792 283.979C214.519 283.806 211.486 286.61 211.486 291.545Z" fill="#37474F"/>
<path d="M147.939 260.876V307.618C148.175 311.301 149.445 314.887 151.649 318.084C153.852 321.28 156.926 323.997 160.621 326.015L167.008 329.087C172.155 331.545 176.543 330.758 178.496 327.493C176.622 327.373 174.81 326.879 173.211 326.053L166.847 322.98C163.146 320.97 160.064 318.258 157.852 315.065C155.64 311.872 154.362 308.287 154.12 304.603V257.861C154.066 256.29 154.46 254.73 155.268 253.31C150.972 253.137 147.939 255.941 147.939 260.876Z" fill="#37474F"/>
<path d="M84.5068 230.228V276.969C84.7444 280.652 86.0189 284.236 88.2266 287.43C90.4343 290.623 93.5128 293.336 97.2117 295.347L103.576 298.42C108.722 300.897 113.133 300.09 115.063 296.845C113.194 296.703 111.388 296.211 109.779 295.405L103.415 292.332C99.7155 290.317 96.637 287.601 94.4295 284.404C92.2219 281.208 90.9476 277.621 90.71 273.935V227.194C90.663 225.631 91.0482 224.08 91.8357 222.662C87.4246 222.47 84.5068 225.293 84.5068 230.228Z" fill="#37474F"/>
<path d="M110.605 192.301V193.626C110.605 198.773 111.869 201.308 117.222 203.881C120.025 205.225 121.541 203.535 121.541 200.808V197.563L110.605 192.301Z" fill="#4CBE42"/>
<path opacity="0.25" d="M110.605 192.301V193.626C110.605 198.773 111.869 201.308 117.222 203.881C120.025 205.225 121.541 203.535 121.541 200.808V197.563L110.605 192.301Z" fill="black"/>
<path d="M143.666 93.3459C145.019 89.5163 147.959 86.2144 151.96 84.0322L155.452 94.3637L121.518 197.563L110.605 192.282L143.666 93.3459Z" fill="#4CBE42"/>
<path opacity="0.25" d="M143.666 93.3459C145.019 89.5163 147.959 86.2144 151.96 84.0322L155.452 94.3637L121.518 197.563L110.605 192.282L143.666 93.3459Z" fill="black"/>
<path d="M155.728 90.062L161.839 98.5307L184.813 228.154L172.177 222.067L149.961 99.5869C149.794 97.7109 150.242 95.8323 151.258 94.1537C152.275 92.4751 153.82 91.0604 155.728 90.062Z" fill="#4CBE42"/>
<path d="M172.27 222.065V223.39C172.27 228.537 173.211 232.147 178.542 234.701C179.187 235.011 179.918 235.173 180.662 235.172C181.406 235.171 182.137 235.006 182.781 234.695C183.425 234.384 183.961 233.937 184.333 233.399C184.706 232.861 184.903 232.251 184.906 231.629V228.153L172.27 222.065Z" fill="#4CBE42"/>
</svg>
