<svg width="117" height="83" viewBox="0 0 117 83" fill="none" xmlns="http://www.w3.org/2000/svg">
<path d="M8.88281 18.4742H26.9579C27.9045 18.4742 28.6718 17.7504 28.6718 16.8571C28.6718 15.9638 27.9045 15.24 26.9579 15.24H8.88281C7.9363 15.24 7.16895 15.9638 7.16895 16.8571C7.16895 17.7504 7.93607 18.4742 8.88281 18.4742Z" fill="#9CDA61"/>
<path d="M26.3384 26.2595H19.1982C18.2517 26.2595 17.4844 26.9833 17.4844 27.8766C17.4844 28.77 18.2517 29.4938 19.1982 29.4938H26.3384C27.285 29.4938 28.0523 28.77 28.0523 27.8766C28.0523 26.9833 27.285 26.2595 26.3384 26.2595Z" fill="#4CBE42"/>
<path d="M1.71387 37.4738H19.1981C20.1446 37.4738 20.9119 36.7499 20.9119 35.8566C20.9119 34.9633 20.1446 34.2395 19.1981 34.2395H1.71387C0.767355 34.2395 0 34.9633 0 35.8566C0 36.7499 0.767355 37.4738 1.71387 37.4738Z" fill="#9CDA61"/>
<path d="M28.6718 66.1425C28.6718 65.2492 27.9045 64.5254 26.9579 64.5254H8.88281C7.9363 64.5254 7.16895 65.2492 7.16895 66.1425C7.16895 67.0358 7.9363 67.7596 8.88281 67.7596H26.9579C27.9045 67.7596 28.6718 67.0358 28.6718 66.1425Z" fill="#9CDA61"/>
<path d="M26.3384 53.5061H19.1982C18.2517 53.5061 17.4844 54.2299 17.4844 55.1232C17.4844 56.0165 18.2517 56.7404 19.1982 56.7404H26.3384C27.285 56.7404 28.0523 56.0165 28.0523 55.1232C28.0523 54.2299 27.285 53.5061 26.3384 53.5061Z" fill="#4CBE42"/>
<path d="M20.9119 47.1432C20.9119 46.2499 20.1446 45.5261 19.1981 45.5261H1.71387C0.767355 45.5261 0 46.2499 0 47.1432C0 48.0366 0.767355 48.7604 1.71387 48.7604H19.1981C20.1446 48.7604 20.9119 48.0366 20.9119 47.1432Z" fill="#9CDA61"/>
<path d="M73.0176 22.0579C73.9643 22.0579 74.7314 21.334 74.7314 20.4407V17.9724C74.7314 17.0791 73.9643 16.3552 73.0176 16.3552C72.0708 16.3552 71.3037 17.0791 71.3037 17.9724V20.4407C71.3037 21.334 72.0708 22.0579 73.0176 22.0579Z" fill="#4CBE42"/>
<path d="M91.8606 23.7198C91.1911 23.0885 90.1061 23.0885 89.4368 23.7198L87.587 25.4653C86.9176 26.097 86.9176 27.1208 87.587 27.7523C88.2567 28.3838 89.3415 28.3836 90.0108 27.7523L91.8606 26.0069C92.5297 25.3753 92.5297 24.3516 91.8606 23.7198Z" fill="#4CBE42"/>
<path d="M95.3369 39.8828C94.3902 39.8828 93.623 40.6066 93.623 41.4999C93.623 42.3932 94.3902 43.1171 95.3369 43.1171H97.9527C98.8995 43.1171 99.6666 42.3932 99.6666 41.4999C99.6666 40.6066 98.8995 39.8828 97.9527 39.8828H95.3369Z" fill="#4CBE42"/>
<path d="M90.0108 55.2474C89.3413 54.6161 88.2563 54.6161 87.587 55.2474C86.9176 55.8792 86.9176 56.9029 87.587 57.5345L89.4368 59.2799C90.1066 59.9114 91.1913 59.9112 91.8606 59.2799C92.53 58.6481 92.53 57.6244 91.8606 56.9928L90.0108 55.2474Z" fill="#4CBE42"/>
<path d="M71.3037 62.5593V65.0274C71.3037 65.9207 72.0708 66.6446 73.0176 66.6446C73.9643 66.6446 74.7314 65.9207 74.7314 65.0274V62.5593C74.7314 61.666 73.9643 60.9421 73.0176 60.9421C72.0708 60.9421 71.3037 61.6662 71.3037 62.5593Z" fill="#4CBE42"/>
<path d="M56.0237 55.2474L54.1739 56.9928C53.5045 57.6246 53.5045 58.6483 54.1739 59.2799C54.8434 59.9114 55.9284 59.9112 56.5975 59.2799L58.4473 57.5345C59.1167 56.9027 59.1167 55.879 58.4473 55.2474C57.7782 54.6161 56.693 54.6161 56.0237 55.2474Z" fill="#4CBE42"/>
<path d="M48.082 39.8828C47.1355 39.8828 46.3682 40.6066 46.3682 41.4999C46.3682 42.3932 47.1355 43.1171 48.082 43.1171H50.6981C51.6446 43.1171 52.4119 42.3932 52.4119 41.4999C52.4119 40.6066 51.6446 39.8828 50.6981 39.8828H48.082Z" fill="#4CBE42"/>
<path d="M58.4473 25.4653L56.5975 23.7198C55.9282 23.0885 54.843 23.0885 54.1739 23.7198C53.5045 24.3516 53.5045 25.3753 54.1739 26.0069L56.0237 27.7523C56.6933 28.3838 57.7782 28.3836 58.4473 27.7523C59.1167 27.1208 59.1167 26.097 58.4473 25.4653Z" fill="#4CBE42"/>
<path d="M82.2336 41.4999C82.2336 40.6066 81.4665 39.8828 80.5198 39.8828H74.7314V27.8764C74.7314 26.9831 73.9643 26.2593 73.0176 26.2593C72.0708 26.2593 71.3037 26.9831 71.3037 27.8764V41.4999C71.3037 42.3932 72.0708 43.1171 73.0176 43.1171H80.5198C81.4663 43.1171 82.2336 42.3932 82.2336 41.4999Z" fill="#4CBE42"/>
<path d="M105.515 41.233C106.46 41.1789 107.179 40.4124 107.122 39.521C106.032 22.5513 91.0511 9.2583 73.0171 9.2583C54.1755 9.2583 38.8467 23.7219 38.8467 41.5001C38.8467 59.2782 54.1755 73.7418 73.0171 73.7418C89.8973 73.7418 104.301 62.0722 106.807 46.3246C106.947 45.4414 106.302 44.618 105.366 44.4854C104.432 44.3532 103.557 44.961 103.417 45.8446C101.166 59.9921 88.2191 70.5077 73.0171 70.5077C56.0656 70.5077 42.2744 57.495 42.2744 41.5004C42.2744 25.5057 56.0656 12.4928 73.0171 12.4928C89.2419 12.4928 102.72 24.4511 103.7 39.7172C103.757 40.6081 104.569 41.2847 105.515 41.233Z" fill="#4CBE42"/>
<path d="M73.0168 0C66.9883 0 61.0819 1.18007 55.6455 3.38691H25.4063C24.4597 3.38691 23.6924 4.11074 23.6924 5.00404C23.6924 5.89734 24.4597 6.62116 25.4063 6.62116H49.1977C45.9809 8.57465 43.0196 10.9309 40.4085 13.6511C39.7733 14.3129 39.8267 15.3355 40.5283 15.9352C41.23 16.5348 42.3134 16.4841 42.9492 15.8222C50.6278 7.82237 61.5871 3.23425 73.0168 3.23425C95.3789 3.23425 113.572 20.4002 113.572 41.5C113.572 62.5996 95.3791 79.7657 73.0168 79.7657C50.6547 79.7657 32.4619 62.5998 32.4619 41.5C32.4619 34.1112 34.6988 26.9398 38.9305 20.7607C39.4442 20.0105 39.2161 19.0096 38.4211 18.5249C37.6261 18.0405 36.5654 18.2552 36.0514 19.0055C31.4605 25.7086 29.0342 33.487 29.0342 41.5C29.0342 56.1115 37.0793 68.9821 49.2087 76.3788H25.4065C24.46 76.3788 23.6926 77.1027 23.6926 77.996C23.6926 78.8893 24.46 79.6131 25.4065 79.6131H55.622C60.9601 81.7906 66.8414 83 73.017 83C97.2689 83 117 64.3832 117 41.5C117 18.6168 97.2689 0 73.0168 0Z" fill="#4CBE42"/>
</svg>
