<svg width="113" height="83" viewBox="0 0 113 83" fill="none" xmlns="http://www.w3.org/2000/svg">
<path d="M13.1836 62.2509C13.1864 59.7502 14.1794 57.3528 15.9448 55.5846C17.7101 53.8163 20.1036 52.8217 22.6002 52.8189C23.0996 52.8189 23.5787 52.6202 23.9319 52.2664C24.285 51.9126 24.4835 51.4328 24.4835 50.9325C24.4835 50.4322 24.285 49.9524 23.9319 49.5987C23.5787 49.2449 23.0996 49.0461 22.6002 49.0461C19.105 49.0501 15.7541 50.4425 13.2826 52.9181C10.8111 55.3936 9.42092 58.75 9.41699 62.2509C9.41699 62.7512 9.61541 63.231 9.9686 63.5847C10.3218 63.9385 10.8008 64.1372 11.3003 64.1372C11.7998 64.1372 12.2788 63.9385 12.632 63.5847C12.9852 63.231 13.1836 62.7512 13.1836 62.2509Z" fill="#9CDA61"/>
<path d="M19.4602 71.1464C17.5362 70.4587 15.885 69.1676 14.752 67.4649C14.6156 67.2572 14.4397 67.0786 14.2342 66.9392C14.0288 66.7998 13.7979 66.7025 13.5547 66.6528C13.3116 66.6031 13.0611 66.6021 12.8175 66.6497C12.574 66.6973 12.3422 66.7926 12.1356 66.9302C11.9289 67.0678 11.7515 67.245 11.6134 67.4515C11.4753 67.658 11.3794 67.8898 11.331 68.1336C11.2827 68.3774 11.2829 68.6283 11.3317 68.872C11.3805 69.1157 11.4769 69.3474 11.6153 69.5536C13.2019 71.9361 15.5136 73.7422 18.2069 74.7035C18.4405 74.788 18.6886 74.8255 18.9367 74.8136C19.1849 74.8017 19.4282 74.7408 19.6528 74.6343C19.8773 74.5279 20.0786 74.378 20.245 74.1932C20.4115 74.0085 20.5398 73.7926 20.6226 73.558C20.7054 73.3234 20.741 73.0747 20.7274 72.8262C20.7138 72.5778 20.6513 72.3345 20.5435 72.1103C20.4356 71.8861 20.2845 71.6856 20.0989 71.5202C19.9133 71.3547 19.6969 71.2277 19.4621 71.1464H19.4602Z" fill="#9CDA61"/>
<path d="M92.2822 41.5005C90.3942 41.4994 88.515 41.7574 86.697 42.2674L79.7311 23.9512L91.1757 21.0856C91.3073 21.954 91.2812 23.4549 90.4963 25.8129C90.3383 26.2875 90.3751 26.8056 90.5985 27.2531C90.8219 27.7006 91.2136 28.0409 91.6875 28.1992C92.1614 28.3574 92.6786 28.3206 93.1254 28.0968C93.5722 27.873 93.9119 27.4807 94.0699 27.006C96.2121 20.5671 94.0666 17.9827 93.6148 17.53C93.3847 17.2997 93.0989 17.1331 92.7854 17.0463C92.4718 16.9595 92.1412 16.9555 91.8257 17.0348L76.7592 20.8076C76.501 20.8722 76.2593 20.991 76.0503 21.156C75.8412 21.321 75.6694 21.5286 75.5462 21.765C75.4231 22.0014 75.3514 22.2612 75.3358 22.5274C75.3203 22.7935 75.3612 23.06 75.456 23.3092L77.1808 27.844L48.2127 35.4792L46.0978 30.1822H54.616C55.1154 30.1822 55.5945 29.9835 55.9477 29.6297C56.3009 29.2759 56.4993 28.7961 56.4993 28.2958C56.4965 25.7952 55.5035 23.3978 53.7381 21.6295C51.9728 19.8613 49.5793 18.8667 47.0827 18.8639H37.6662V1.88639C37.6662 1.38609 37.4678 0.906277 37.1146 0.552511C36.7614 0.198744 36.2824 0 35.7829 0H1.88331C1.38382 0 0.904797 0.198744 0.551608 0.552511C0.198419 0.906277 0 1.38609 0 1.88639V35.8414C0 36.3417 0.198419 36.8215 0.551608 37.1753C0.904797 37.529 1.38382 37.7278 1.88331 37.7278H34.8412L38.9461 43.2099L35.849 46.3108C32.2901 43.3458 27.842 41.6606 23.2149 41.5244C18.5878 41.3882 14.0485 42.8088 10.3219 45.5593C6.59528 48.3099 3.8962 52.2318 2.65562 56.6989C1.41504 61.166 1.7045 65.9206 3.47779 70.2035C5.25108 74.4865 8.40594 78.0509 12.4386 80.3275C16.4713 82.6041 21.1493 83.4617 25.7256 82.7633C30.3018 82.065 34.5126 79.8509 37.6854 76.4747C40.8583 73.0985 42.8103 68.7548 43.2297 64.1372H47.2722C47.6446 65.9481 48.5386 67.6101 49.8438 68.9176C51.149 70.2251 52.808 71.1209 54.616 71.4941V75.4555H52.7327C52.2332 75.4555 51.7541 75.6543 51.401 76.008C51.0478 76.3618 50.8493 76.8416 50.8493 77.3419C50.8493 77.8422 51.0478 78.322 51.401 78.6758C51.7541 79.0296 52.2332 79.2283 52.7327 79.2283H60.2659C60.7654 79.2283 61.2444 79.0296 61.5976 78.6758C61.9508 78.322 62.1492 77.8422 62.1492 77.3419C62.1492 76.8416 61.9508 76.3618 61.5976 76.008C61.2444 75.6543 60.7654 75.4555 60.2659 75.4555H58.3826V71.4941C59.9176 71.1815 61.3503 70.4899 62.5508 69.4822C63.7514 68.4744 64.6817 67.1824 65.2575 65.7233C65.8332 64.2641 66.0362 62.6841 65.8479 61.1266C65.6596 59.569 65.086 58.0832 64.1792 56.8039L81.2556 38.5585L83.1789 43.6152C78.6116 45.8559 75.0271 49.7015 73.1084 54.4191C71.1897 59.1367 71.0711 64.3966 72.7751 69.1962C74.4791 73.9958 77.8867 77.9996 82.3483 80.4445C86.81 82.8895 92.0138 83.6048 96.968 82.4539C101.922 81.3031 106.281 78.3666 109.212 74.2041C112.144 70.0417 113.444 64.9443 112.865 59.8834C112.286 54.8224 109.868 50.1519 106.072 46.7617C102.276 43.3716 97.3679 41.4989 92.2822 41.5005ZM57.1791 58.7664L56.3456 56.5957C56.3969 56.5942 56.4477 56.5917 56.4993 56.5917C57.2803 56.5912 58.0528 56.7539 58.7675 57.0694L57.1791 58.7664ZM53.7572 60.3644H51.1733C51.5057 59.429 52.0772 58.5973 52.8308 57.9522L53.7572 60.3644ZM47.2722 60.3644H43.2297C42.8509 56.1773 41.2057 52.2056 38.5137 48.9798L46.3664 41.1143L51.4325 54.3077C50.3704 54.9879 49.4551 55.8743 48.7406 56.9145C48.0261 57.9547 47.5268 59.1278 47.2722 60.3644ZM27.9257 60.3644C27.8594 60.1766 27.7832 59.9923 27.6976 59.8124L35.8347 51.662C37.8368 54.1615 39.088 57.1797 39.4424 60.3644H27.9257ZM24.483 62.2508C24.483 62.6239 24.3726 62.9886 24.1656 63.2988C23.9587 63.6091 23.6646 63.8508 23.3204 63.9936C22.9763 64.1364 22.5976 64.1738 22.2323 64.101C21.867 64.0282 21.5314 63.8485 21.268 63.5847C21.0046 63.3209 20.8253 62.9848 20.7526 62.6188C20.6799 62.2529 20.7172 61.8736 20.8598 61.5289C21.0023 61.1842 21.2437 60.8896 21.5534 60.6823C21.8631 60.4751 22.2272 60.3644 22.5997 60.3644C23.099 60.365 23.5777 60.5639 23.9308 60.9176C24.2839 61.2712 24.4825 61.7507 24.483 62.2508ZM47.0827 22.6367C48.2508 22.638 49.3899 23.0014 50.3437 23.6768C51.2974 24.3523 52.0192 25.3068 52.4099 26.4094H37.6662V22.6367H47.0827ZM33.5756 3.77278C33.1851 4.87526 32.4635 5.82969 31.51 6.50516C30.5564 7.18063 29.4176 7.54405 28.2496 7.54555H9.41655C8.24863 7.54405 7.10978 7.18063 6.15622 6.50516C5.20267 5.82969 4.48112 4.87526 4.09055 3.77278H33.5756ZM26.3663 26.4094H11.2999V22.6367H26.3663V26.4094ZM11.2999 30.1822H26.3663V33.955H11.2999V30.1822ZM30.1329 33.955V20.7503C30.1329 20.25 29.9345 19.7702 29.5813 19.4164C29.2281 19.0626 28.7491 18.8639 28.2496 18.8639H9.41655C8.91706 18.8639 8.43803 19.0626 8.08485 19.4164C7.73166 19.7702 7.53324 20.25 7.53324 20.7503V33.955H3.76662V9.42675C5.39423 10.6563 7.37791 11.3205 9.41655 11.3183H28.2496C30.2883 11.3205 32.2719 10.6563 33.8996 9.42675V33.955H30.1329ZM37.6662 35.2125V30.1822H42.0411L44.8729 37.2734L41.6367 40.5149L37.6662 35.2125ZM22.5997 79.2283C19.8908 79.2311 17.2207 78.5836 14.8131 77.34C12.4055 76.0963 10.3306 74.2928 8.76219 72.0805C7.19379 69.8683 6.1776 67.3117 5.79878 64.625C5.41996 61.9384 5.68955 59.1999 6.58494 56.6391C7.48034 54.0783 8.97547 51.7697 10.945 49.9069C12.9146 48.044 15.3013 46.6812 17.905 45.9325C20.5087 45.1838 23.2537 45.071 25.9098 45.6038C28.566 46.1365 31.056 47.2991 33.1712 48.9942L25.0341 57.1446C24.0028 56.6512 22.8463 56.4826 21.7174 56.6612C20.5885 56.8398 19.5402 57.3571 18.7109 58.1449C17.8816 58.9327 17.3103 59.9539 17.0725 61.0736C16.8347 62.1933 16.9416 63.359 17.3789 64.4167C17.8163 65.4743 18.5636 66.3743 19.5222 66.9976C20.4809 67.621 21.6057 67.9385 22.7482 67.9083C23.8908 67.878 24.9973 67.5014 25.9216 66.8281C26.846 66.1548 27.5448 65.2166 27.9257 64.1372H39.4424C38.9742 68.285 36.9989 72.1154 33.8929 74.8984C30.7868 77.6814 26.7671 79.2226 22.5997 79.2283ZM51.1733 64.1372H54.616V67.5855C53.8227 67.3024 53.1023 66.8461 52.5069 66.2497C51.9115 65.6533 51.4559 64.9317 51.1733 64.1372ZM62.1492 62.2508C62.1477 63.4207 61.7849 64.5614 61.1105 65.5165C60.4361 66.4716 59.4833 67.1943 58.3826 67.5855V62.9967L61.5148 59.6502C61.9322 60.4533 62.1499 61.3454 62.1492 62.2508ZM61.4328 54.2214C59.4963 53.0226 57.1904 52.5705 54.9455 52.9495L49.5953 39.0159L78.5291 31.3888L79.764 34.6355L61.4328 54.2214ZM92.2822 79.2283C88.481 79.2295 84.7898 77.9505 81.8019 75.5968C78.814 73.2431 76.703 69.9515 75.8082 66.2511C74.9134 62.5507 75.2868 58.6564 76.8683 55.1942C78.4498 51.732 81.1476 48.9029 84.5281 47.1618L85.8789 50.7139C83.8254 51.8578 82.1142 53.5304 80.9222 55.5586C79.7303 57.5869 79.1008 59.8973 79.099 62.2508C79.099 62.7511 79.2974 63.2309 79.6506 63.5847C80.0038 63.9385 80.4828 64.1372 80.9823 64.1372C81.4818 64.1372 81.9608 63.9385 82.314 63.5847C82.6672 63.2309 82.8656 62.7511 82.8656 62.2508C82.8666 60.6625 83.2681 59.1003 84.0327 57.7089C84.7974 56.3174 85.9004 55.142 87.2396 54.2914L88.6285 57.9402C87.6189 58.8009 86.9438 59.9901 86.7217 61.2994C86.4997 62.6087 86.7447 63.9544 87.4139 65.1009C88.0832 66.2473 89.1339 67.1213 90.3819 67.5696C91.6299 68.0179 92.9957 68.0119 94.2397 67.5527C95.4838 67.0935 96.5269 66.2104 97.1861 65.0582C97.8453 63.9059 98.0786 62.5581 97.8451 61.2508C97.6117 59.9435 96.9263 58.7602 95.9092 57.9084C94.892 57.0565 93.608 56.5904 92.2822 56.5917C92.2365 56.5917 92.1915 56.594 92.1463 56.5952L90.7574 52.9443C91.2614 52.8612 91.7713 52.8193 92.2822 52.8189C92.7816 52.8189 93.2607 52.6201 93.6138 52.2664C93.967 51.9126 94.1655 51.4328 94.1655 50.9325C94.1655 50.4322 93.967 49.9524 93.6138 49.5986C93.2607 49.2448 92.7816 49.0461 92.2822 49.0461C91.3118 49.0467 90.3445 49.1548 89.3979 49.3684L88.0447 45.8107C90.3742 45.2093 92.8048 45.1114 95.175 45.5236C97.5452 45.9358 99.8006 46.8486 101.791 48.2014C103.782 49.5541 105.463 51.3158 106.721 53.3694C107.979 55.423 108.787 57.7213 109.09 60.1117C109.393 62.5021 109.185 64.9297 108.479 67.2331C107.773 69.5366 106.586 71.6632 104.996 73.4715C103.406 75.2798 101.45 76.7284 99.2577 77.7209C97.0657 78.7135 94.6878 79.2274 92.2822 79.2283ZM92.2822 60.3644C92.6546 60.3644 93.0187 60.4751 93.3285 60.6823C93.6382 60.8896 93.8796 61.1842 94.0221 61.5289C94.1646 61.8736 94.2019 62.2529 94.1293 62.6188C94.0566 62.9848 93.8772 63.3209 93.6138 63.5847C93.3505 63.8485 93.0149 64.0282 92.6496 64.101C92.2842 64.1738 91.9056 64.1364 91.5614 63.9936C91.2173 63.8508 90.9232 63.6091 90.7162 63.2988C90.5093 62.9886 90.3988 62.6239 90.3988 62.2508C90.3994 61.7507 90.598 61.2712 90.9511 60.9176C91.3041 60.5639 91.7828 60.365 92.2822 60.3644Z" fill="#4CBE42"/>
<path d="M89.1428 71.1464C87.2188 70.4587 85.5676 69.1676 84.4346 67.4649C84.2983 67.2572 84.1223 67.0786 83.9169 66.9392C83.7114 66.7998 83.4805 66.7025 83.2373 66.6528C82.9942 66.6031 82.7437 66.6021 82.5001 66.6497C82.2566 66.6973 82.0248 66.7926 81.8182 66.9302C81.6115 67.0678 81.4341 67.245 81.296 67.4515C81.1579 67.658 81.062 67.8898 81.0136 68.1336C80.9653 68.3774 80.9655 68.6283 81.0143 68.872C81.0631 69.1157 81.1595 69.3474 81.2979 69.5536C82.8845 71.9361 85.1962 73.7422 87.8895 74.7035C88.1231 74.788 88.3712 74.8255 88.6193 74.8136C88.8675 74.8017 89.1108 74.7408 89.3354 74.6343C89.5599 74.5279 89.7612 74.378 89.9276 74.1932C90.0941 74.0085 90.2224 73.7926 90.3052 73.558C90.388 73.3234 90.4236 73.0747 90.41 72.8262C90.3965 72.5778 90.3339 72.3345 90.2261 72.1103C90.1182 71.8861 89.9671 71.6856 89.7815 71.5202C89.596 71.3547 89.3795 71.2277 89.1447 71.1464H89.1428Z" fill="#9CDA61"/>
</svg>
