<svg width="550" height="333" viewBox="0 0 550 333" fill="none" xmlns="http://www.w3.org/2000/svg">
<path d="M375.252 332.447C372.355 332.409 369.557 331.383 367.323 329.538C365.088 327.693 363.551 325.14 362.966 322.302L360.1 307.281C353.668 306.095 347.31 304.534 341.061 302.604H340.6L314.248 314.857C312.303 315.739 310.191 316.188 308.056 316.175C305.44 316.193 302.865 315.535 300.578 314.265L274.227 299.047C272.659 298.172 271.337 296.917 270.382 295.397C269.426 293.878 268.868 292.142 268.759 290.35C268.681 288.561 269.06 286.781 269.862 285.179C270.663 283.576 271.859 282.205 273.337 281.193L289.313 269.697C287.857 267.768 286.515 265.756 285.294 263.669L251.696 261.528C248.646 261.336 245.784 259.989 243.691 257.762C241.599 255.535 240.433 252.594 240.431 249.538V229.775C240.433 226.719 241.599 223.778 243.691 221.551C245.784 219.324 248.646 217.977 251.696 217.785L285.294 215.644C286.515 213.558 287.857 211.545 289.313 209.616L273.337 198.12C271.847 197.115 270.641 195.742 269.836 194.134C269.032 192.526 268.656 190.738 268.745 188.942C268.835 187.147 269.386 185.405 270.347 183.885C271.307 182.365 272.643 181.119 274.227 180.267L300.578 165.048C302.659 163.911 304.972 163.263 307.341 163.155C309.71 163.046 312.072 163.48 314.248 164.423L340.6 176.709H340.962C347.287 174.754 353.722 173.17 360.232 171.966L363.097 156.945C363.666 154.099 365.198 151.536 367.436 149.688C369.674 147.839 372.481 146.82 375.384 146.8H414.154C417.051 146.827 419.85 147.85 422.081 149.698C424.313 151.545 425.84 154.105 426.407 156.945L429.273 171.966C435.705 173.152 442.062 174.714 448.312 176.643H448.806L475.158 164.357C477.339 163.413 479.707 162.98 482.081 163.088C484.456 163.197 486.774 163.844 488.861 164.983L515.212 180.201C516.795 181.053 518.132 182.299 519.092 183.819C520.052 185.339 520.604 187.081 520.693 188.876C520.783 190.672 520.407 192.46 519.603 194.068C518.798 195.676 517.592 197.049 516.102 198.054L500.159 209.55C501.593 211.487 502.924 213.499 504.145 215.578L537.743 217.719C540.793 217.911 543.655 219.258 545.747 221.485C547.84 223.712 549.006 226.653 549.008 229.709V249.473C549.006 252.528 547.84 255.469 545.747 257.696C543.655 259.923 540.793 261.27 537.743 261.463L504.145 263.604C502.924 265.682 501.593 267.694 500.159 269.631L516.102 281.094C517.592 282.104 518.797 283.48 519.6 285.09C520.404 286.7 520.779 288.49 520.69 290.288C520.601 292.085 520.05 293.829 519.09 295.352C518.131 296.875 516.795 298.124 515.212 298.981L488.861 314.199C486.561 315.465 483.976 316.122 481.35 316.109C479.23 316.12 477.131 315.682 475.191 314.825L448.839 302.538H448.576C442.25 304.494 435.816 306.077 429.306 307.281L426.44 322.302C425.867 325.14 424.338 327.696 422.108 329.542C419.878 331.389 417.082 332.414 414.187 332.447H375.252ZM394.621 211.888C380.602 211.555 366.732 214.821 354.336 221.375C345.31 226.612 340.139 233.299 340.139 239.722C340.139 246.146 345.31 252.898 354.336 258.07C366.842 264.331 380.635 267.59 394.621 267.59C408.606 267.59 422.4 264.331 434.906 258.07C443.931 252.865 449.103 246.179 449.103 239.722C449.103 233.266 443.931 226.547 434.906 221.375C422.509 214.821 408.639 211.555 394.621 211.888V211.888Z" fill="#E0E0E0"/>
<path d="M96.1553 188.6C95.2793 188.603 94.406 188.504 93.5531 188.304L63.9075 181.255C62.377 180.902 60.9468 180.206 59.7255 179.219C58.5041 178.232 57.5237 176.979 56.8585 175.556C56.1639 174.047 55.8235 172.398 55.8635 170.737C55.9035 169.076 56.3227 167.445 57.089 165.971L61.5688 157.077C58.8348 155.595 56.2655 154.014 53.828 152.367L27.2788 156.814C26.5175 156.947 25.7459 157.013 24.973 157.011C23.0038 157.065 21.0492 156.659 19.2649 155.824C17.4806 154.989 15.9161 153.749 14.6959 152.202L3.19996 136.194L0.729492 134.711L1.19064 127.794L1.52005 127.168C1.72276 126.455 2.01029 125.77 2.37647 125.126L2.60704 124.764C4.11999 122.473 6.37712 120.774 8.99732 119.954L29.4857 113.366C29.4857 112.708 29.4857 112.016 29.4857 111.357L8.33853 104.769C6.58856 104.213 5.02167 103.194 3.80389 101.819C2.58611 100.445 1.7628 98.7668 1.42122 96.9625L1.22359 96.4355V95.052C1.26855 92.6821 2.03878 90.3829 3.43053 88.4641L14.1029 73.6084C15.363 71.8978 16.9975 70.498 18.8815 69.516C20.7655 68.5341 22.8491 67.996 24.973 67.9428C25.6022 67.9487 26.2299 68.0037 26.8505 68.1075L54.0257 72.5873C55.8373 71.3356 57.8796 70.0509 60.0536 68.7992L61.6347 67.9099L56.8255 58.4233C56.1112 57.004 55.7496 55.4335 55.7714 53.8447C55.8734 51.4061 56.7932 49.0727 58.3826 47.2204C59.972 45.3681 62.1385 44.1047 64.5334 43.6334L92.8943 36.8479C93.9729 36.587 95.0785 36.4543 96.1883 36.4527C97.9153 36.4087 99.6335 36.7127 101.241 37.3465C102.848 37.9803 104.311 38.931 105.543 40.1419L117.83 53.0871C120.531 53.0871 123.396 52.8565 126.229 52.8565C129.062 52.8565 132.158 52.8565 135.156 53.12L146.783 40.8665C149.467 38.0955 153.138 36.4972 156.995 36.4197C157.916 36.4135 158.835 36.5242 159.729 36.7491L189.144 43.7652C191.221 44.2331 193.103 45.333 194.531 46.9137C195.958 48.4944 196.861 50.4784 197.115 52.593V53.0212V54.207C197.072 55.9308 196.632 57.6214 195.83 59.1479L191.416 67.9099L192.833 68.7004C194.985 69.9105 197.074 71.2298 199.091 72.6532L225.674 68.1734C226.435 68.0437 227.207 67.9775 227.979 67.9757C229.958 67.9124 231.923 68.3182 233.715 69.1598C235.507 70.0013 237.075 71.2548 238.289 72.8178L250.049 89.2876C251.238 90.9505 251.883 92.9416 251.893 94.9862V95.5462C251.695 97.7741 250.818 99.8875 249.381 101.602C247.943 103.315 246.015 104.548 243.856 105.132L223.5 111.719V113.729L244.581 120.317C246.655 120.947 248.471 122.23 249.759 123.975C251.047 125.719 251.737 127.833 251.729 130.001C251.715 132.361 250.979 134.659 249.621 136.589L238.849 151.609C237.601 153.325 235.974 154.728 234.094 155.711C232.214 156.694 230.133 157.229 228.012 157.275C227.361 157.27 226.711 157.215 226.069 157.11L199.091 152.564C196.628 154.267 194.077 155.839 191.449 157.275L196.226 166.761C196.878 168.106 197.218 169.582 197.218 171.076C197.218 172.571 196.878 174.047 196.226 175.392C195.478 176.938 194.39 178.295 193.044 179.361C191.698 180.428 190.128 181.177 188.452 181.551L159.992 188.337C158.915 188.609 157.809 188.753 156.698 188.765C154.976 188.812 153.262 188.509 151.659 187.875C150.057 187.241 148.6 186.289 147.376 185.076L135.024 172.098C132.29 172.098 129.358 172.328 126.46 172.328C123.561 172.328 120.629 172.328 117.731 172.098L106.103 184.318C103.465 186.977 99.9 188.512 96.1553 188.6V188.6ZM86.9652 104.605C86.7168 104.875 86.4858 105.161 86.2735 105.461C85.9441 105.856 85.7135 106.219 85.4829 106.548L84.9559 107.437C83.8746 109.209 83.3786 111.276 83.5383 113.345C83.6979 115.415 84.5051 117.381 85.8452 118.966C87.2864 120.912 89.0197 122.623 90.9838 124.039C92.141 124.894 93.3512 125.675 94.6072 126.378C104.565 131.524 115.648 134.105 126.855 133.888C132.854 133.9 138.834 133.215 144.675 131.845C149.694 130.7 154.527 128.86 159.037 126.378C160.241 125.696 161.407 124.948 162.528 124.138C164.839 122.495 166.826 120.44 168.392 118.077V118.077L169.116 116.825L169.413 116.1C170.039 114.453 170.214 112.668 169.919 110.931C169.623 109.193 168.869 107.566 167.733 106.219C161.343 97.2919 144.873 91.2969 126.756 91.2969C120.757 91.2846 114.777 91.9699 108.936 93.3392C101.077 94.8885 93.7828 98.5302 87.8216 103.88L86.9652 104.605Z" fill="#E0E0E0"/>
<path d="M540.443 201.249V185.537C540.429 184.649 540.083 183.798 539.474 183.152C538.864 182.506 538.035 182.111 537.149 182.045L512.115 180.464V145.351C512.115 144.949 512 144.556 511.784 144.218C511.569 143.879 511.26 143.61 510.897 143.44L484.545 128.222C483.65 127.758 482.665 127.494 481.659 127.449C480.652 127.403 479.647 127.577 478.715 127.959L452.001 140.344C450.049 141.112 447.903 141.239 445.874 140.706C439.078 138.585 432.145 136.934 425.122 135.765C424.19 135.568 423.334 135.11 422.652 134.445C421.97 133.781 421.49 132.936 421.268 132.01L417.974 114.388C417.79 113.482 417.306 112.665 416.601 112.067C415.896 111.47 415.011 111.127 414.087 111.094H375.252C374.322 111.12 373.429 111.459 372.717 112.057C372.006 112.655 371.517 113.477 371.332 114.388L368.038 132.01C367.819 132.938 367.341 133.784 366.658 134.45C365.975 135.115 365.117 135.571 364.184 135.765C357.162 136.938 350.229 138.589 343.432 140.706C341.411 141.238 339.273 141.099 337.338 140.311L310.591 127.959C309.659 127.579 308.657 127.403 307.651 127.442C306.645 127.482 305.66 127.737 304.761 128.189L278.409 143.44C278.055 143.613 277.754 143.879 277.54 144.21C277.325 144.541 277.204 144.924 277.191 145.318V180.464L252.189 182.045C251.304 182.111 250.474 182.506 249.865 183.152C249.255 183.798 248.91 184.649 248.896 185.537V205.301V219.037V238.636C248.896 239.064 249.225 239.393 249.357 239.756C249.443 240.205 249.623 240.631 249.884 241.007C250.365 241.412 250.944 241.685 251.564 241.798C251.794 241.798 251.926 242.094 252.189 242.094H252.651L277.191 243.642V263.867V278.888C277.21 279.129 277.278 279.364 277.388 279.579C277.388 279.579 277.388 279.579 277.388 279.579C277.619 279.946 277.935 280.252 278.31 280.469L304.662 295.687C305.443 296.105 306.313 296.331 307.198 296.346H307.89C308.197 296.379 308.506 296.379 308.813 296.346V296.181C309.36 296.166 309.903 296.077 310.427 295.917L337.173 283.532C339.112 282.755 341.25 282.628 343.267 283.17C350.069 285.269 357.001 286.919 364.019 288.111C364.957 288.303 365.82 288.758 366.509 289.423C367.197 290.088 367.682 290.935 367.906 291.866L371.2 309.456C371.355 309.843 371.578 310.2 371.859 310.51V310.938C371.859 311.135 372.221 311.234 372.386 311.399C372.537 311.579 372.715 311.734 372.913 311.86C373.537 312.371 374.313 312.66 375.12 312.684H413.89C414.78 312.675 415.64 312.361 416.327 311.794V311.794C417.07 311.224 417.584 310.406 417.776 309.488L421.07 291.899C421.289 290.971 421.767 290.125 422.45 289.459C423.133 288.794 423.991 288.338 424.924 288.144C431.944 286.959 438.876 285.309 445.676 283.203C447.705 282.67 449.851 282.797 451.803 283.565L478.517 295.95C479.31 296.277 480.163 296.434 481.02 296.411C482.16 296.47 483.295 296.232 484.314 295.72L510.666 280.502C511.013 280.337 511.309 280.082 511.524 279.763C511.738 279.444 511.863 279.074 511.885 278.69V278.69V243.445L536.919 241.864C537.807 241.805 538.641 241.413 539.252 240.765C539.863 240.118 540.206 239.263 540.213 238.372V201.776C540.31 201.61 540.387 201.433 540.443 201.249V201.249ZM444.326 217.719C442.675 218.91 440.959 220.01 439.187 221.013C414.581 235.21 374.692 235.21 350.086 221.013C348.299 220.018 346.572 218.918 344.914 217.719C346.495 216.599 348.208 215.512 350.086 214.425C374.692 200.228 414.581 200.228 439.187 214.425C441.032 215.479 442.712 216.566 444.326 217.686V217.719Z" fill="#37474F"/>
<path d="M540.542 201.941V238.537C540.528 239.425 540.182 240.276 539.573 240.922C538.963 241.568 538.134 241.963 537.248 242.028L512.214 243.609V278.855C512.192 279.238 512.067 279.609 511.853 279.928C511.639 280.246 511.342 280.502 510.995 280.666L484.644 295.884C483.624 296.396 482.489 296.635 481.35 296.576V296.576C480.492 296.598 479.64 296.441 478.846 296.115L452.132 283.73C451.339 283.386 450.492 283.186 449.629 283.137V283.137C448.416 282.984 447.184 283.074 446.006 283.4C439.209 285.511 432.276 287.151 425.254 288.308C424.679 288.441 424.132 288.676 423.64 289V289.198C423.089 289.504 422.607 289.919 422.222 290.417C421.837 290.915 421.557 291.487 421.4 292.096L418.106 309.686C417.925 310.6 417.423 311.418 416.689 311.992V311.992C415.988 312.554 415.118 312.867 414.219 312.881H375.252H374.527C373.499 312.683 372.589 312.093 371.991 311.234V310.806C371.76 310.444 371.398 310.18 371.332 309.752L368.038 292.162C367.805 291.166 367.249 290.274 366.457 289.626V289.626C365.806 289.035 365.01 288.626 364.151 288.44C357.131 287.275 350.197 285.635 343.399 283.532C342.069 283.164 340.674 283.096 339.315 283.334V283.334C338.629 283.411 337.955 283.565 337.305 283.796L310.558 296.181C310.035 296.343 309.492 296.432 308.944 296.444V296.609C307.522 296.838 306.065 296.595 304.794 295.917L278.442 280.699C278.244 280.573 278.056 280.429 277.882 280.271C277.72 280.112 277.576 279.935 277.454 279.744C277.328 279.497 277.25 279.229 277.223 278.954V278.954V243.708L272.645 243.379L252.651 242.127H252.189C251.336 242.066 250.533 241.699 249.928 241.094C249.323 240.489 248.957 239.687 248.896 238.833V205.169C248.91 206.057 249.255 206.908 249.865 207.554C250.474 208.2 251.304 208.595 252.189 208.661L287.336 210.868C288.331 211.016 289.278 211.389 290.106 211.96C290.934 212.531 291.62 213.284 292.112 214.161C294.164 217.909 296.664 221.393 299.556 224.537C299.851 224.822 300.078 225.169 300.22 225.554C300.363 225.938 300.417 226.349 300.379 226.757C300.341 227.165 300.212 227.559 300.001 227.91C299.79 228.262 299.503 228.561 299.161 228.787L278.014 243.708C277.669 243.86 277.375 244.109 277.169 244.425C276.963 244.741 276.854 245.11 276.854 245.487C276.854 245.864 276.963 246.233 277.169 246.549C277.375 246.865 277.669 247.114 278.014 247.266L304.366 262.517C305.265 262.969 306.25 263.224 307.256 263.264C308.261 263.303 309.264 263.127 310.196 262.747L336.91 250.395C338.857 249.604 341.01 249.476 343.037 250.033C349.838 252.124 356.771 253.764 363.789 254.941C364.721 255.144 365.579 255.603 366.266 256.266C366.952 256.929 367.44 257.771 367.675 258.696L370.969 276.318C371.166 277.224 371.657 278.039 372.367 278.635C373.076 279.231 373.963 279.575 374.889 279.612H413.659C414.583 279.579 415.468 279.236 416.173 278.639C416.878 278.041 417.362 277.224 417.546 276.318L420.84 258.696C421.069 257.773 421.551 256.933 422.232 256.269C422.913 255.606 423.765 255.146 424.694 254.941C431.716 253.772 438.65 252.121 445.446 250C447.478 249.478 449.624 249.616 451.572 250.395L478.286 262.747C479.218 263.127 480.221 263.303 481.226 263.264C482.232 263.224 483.218 262.969 484.117 262.517L510.468 247.266C510.813 247.114 511.107 246.865 511.313 246.549C511.519 246.233 511.629 245.864 511.629 245.487C511.629 245.11 511.519 244.741 511.313 244.425C511.107 244.109 510.813 243.86 510.468 243.708L489.585 228.655C489.242 228.426 488.955 228.123 488.744 227.769C488.533 227.415 488.404 227.018 488.366 226.608C488.328 226.198 488.382 225.784 488.525 225.397C488.667 225.011 488.894 224.66 489.189 224.373C492.088 221.238 494.598 217.765 496.667 214.03C497.155 213.157 497.836 212.406 498.658 211.835C499.48 211.265 500.421 210.889 501.41 210.736L536.556 208.529C537.442 208.463 538.271 208.068 538.881 207.422C539.491 206.776 539.836 205.925 539.85 205.037V201.117C540.138 201.339 540.374 201.62 540.542 201.941V201.941Z" fill="#263238"/>
<path d="M512.149 145.351V180.464L502.036 179.839C501.047 179.686 500.106 179.31 499.284 178.739C498.463 178.168 497.782 177.418 497.293 176.545C495.217 172.885 492.706 169.49 489.816 166.432C489.52 166.141 489.293 165.789 489.15 165.399C489.008 165.01 488.953 164.594 488.991 164.181C489.029 163.768 489.158 163.369 489.369 163.012C489.58 162.655 489.867 162.349 490.211 162.117L511.095 147.097C511.382 146.918 511.625 146.677 511.808 146.392C511.99 146.107 512.107 145.785 512.149 145.45V145.351Z" fill="#263238"/>
<path d="M299.425 166.432C296.519 169.553 294.018 173.028 291.981 176.775C291.489 177.652 290.803 178.405 289.975 178.976C289.147 179.547 288.199 179.921 287.204 180.069L277.125 180.695V145.285C277.152 145.634 277.262 145.971 277.446 146.268C277.629 146.566 277.88 146.816 278.179 146.998L299.063 162.018C299.421 162.251 299.721 162.563 299.94 162.931C300.16 163.298 300.292 163.71 300.327 164.136C300.362 164.562 300.299 164.991 300.142 165.389C299.986 165.787 299.741 166.144 299.425 166.432V166.432Z" fill="#263238"/>
<path d="M304.695 128.189L278.343 143.44C277.998 143.592 277.705 143.841 277.499 144.157C277.292 144.473 277.183 144.842 277.183 145.219C277.183 145.596 277.292 145.965 277.499 146.281C277.705 146.597 277.998 146.846 278.343 146.998L299.227 162.051C299.57 162.28 299.857 162.583 300.068 162.937C300.279 163.291 300.408 163.688 300.446 164.098C300.484 164.508 300.429 164.922 300.287 165.309C300.144 165.696 299.917 166.046 299.622 166.333C296.716 169.454 294.215 172.929 292.178 176.676C291.686 177.554 291 178.307 290.172 178.877C289.344 179.448 288.396 179.822 287.402 179.97L252.288 182.177C251.402 182.243 250.573 182.638 249.963 183.284C249.354 183.93 249.008 184.781 248.994 185.669V205.433C249.008 206.321 249.354 207.172 249.963 207.818C250.573 208.464 251.402 208.858 252.288 208.924L287.402 211.131C288.396 211.279 289.344 211.653 290.172 212.224C291 212.795 291.686 213.548 292.178 214.425C294.215 218.172 296.716 221.647 299.622 224.768C299.918 225.059 300.145 225.412 300.288 225.801C300.43 226.19 300.484 226.606 300.447 227.019C300.409 227.432 300.28 227.831 300.069 228.188C299.858 228.545 299.57 228.851 299.227 229.083L278.014 243.708C277.68 243.87 277.398 244.123 277.201 244.437C277.004 244.752 276.899 245.116 276.899 245.487C276.899 245.858 277.004 246.222 277.201 246.537C277.398 246.851 277.68 247.104 278.014 247.266L304.365 262.517C305.265 262.969 306.25 263.224 307.256 263.264C308.261 263.303 309.264 263.127 310.196 262.747L336.943 250.395C338.878 249.61 341.016 249.471 343.037 250C349.833 252.118 356.767 253.768 363.788 254.941C364.722 255.135 365.58 255.591 366.263 256.257C366.945 256.922 367.424 257.768 367.642 258.696L370.936 276.318C371.122 277.229 371.61 278.051 372.322 278.649C373.034 279.247 373.927 279.586 374.856 279.612H413.626C414.549 279.579 415.435 279.236 416.14 278.639C416.845 278.041 417.329 277.224 417.513 276.318L420.807 258.696C421.029 257.77 421.509 256.925 422.191 256.261C422.873 255.596 423.729 255.139 424.661 254.941C431.683 253.772 438.617 252.121 445.413 250C447.445 249.478 449.591 249.616 451.539 250.395L478.253 262.747C479.185 263.127 480.188 263.303 481.193 263.264C482.199 263.224 483.185 262.969 484.084 262.517L510.435 247.266C510.78 247.114 511.074 246.865 511.28 246.549C511.486 246.233 511.596 245.864 511.596 245.487C511.596 245.11 511.486 244.741 511.28 244.425C511.074 244.109 510.78 243.86 510.435 243.708L489.552 228.688C489.208 228.456 488.921 228.15 488.71 227.793C488.499 227.436 488.37 227.037 488.332 226.624C488.294 226.211 488.348 225.795 488.491 225.406C488.633 225.016 488.861 224.664 489.156 224.373C492.062 221.244 494.573 217.77 496.633 214.03C497.122 213.157 497.803 212.406 498.625 211.835C499.447 211.265 500.388 210.889 501.377 210.736L536.523 208.529C537.409 208.463 538.238 208.068 538.848 207.422C539.457 206.776 539.803 205.925 539.817 205.037V185.274C539.803 184.385 539.457 183.535 538.848 182.888C538.238 182.242 537.409 181.848 536.523 181.782L502.003 179.839C501.014 179.686 500.073 179.31 499.251 178.739C498.429 178.168 497.748 177.418 497.259 176.545C495.194 172.887 492.694 169.491 489.815 166.432C489.52 166.144 489.293 165.794 489.15 165.408C489.008 165.021 488.954 164.607 488.992 164.197C489.029 163.786 489.159 163.39 489.369 163.036C489.58 162.681 489.868 162.379 490.21 162.15L511.094 147.097C511.439 146.945 511.733 146.696 511.939 146.38C512.145 146.064 512.254 145.695 512.254 145.318C512.254 144.941 512.145 144.572 511.939 144.256C511.733 143.94 511.439 143.691 511.094 143.539L484.742 128.321C483.848 127.857 482.863 127.593 481.856 127.548C480.849 127.502 479.845 127.676 478.912 128.058L452.198 140.443C450.246 141.211 448.1 141.338 446.071 140.805C439.276 138.684 432.342 137.033 425.319 135.864C424.388 135.666 423.531 135.209 422.849 134.544C422.167 133.88 421.687 133.035 421.466 132.109L418.172 114.487C417.987 113.581 417.504 112.764 416.799 112.166C416.094 111.569 415.208 111.226 414.285 111.193H375.251C374.322 111.219 373.429 111.558 372.717 112.156C372.006 112.754 371.517 113.576 371.332 114.487L368.038 132.109C367.819 133.037 367.341 133.883 366.658 134.548C365.975 135.214 365.117 135.67 364.184 135.864C357.162 137.037 350.228 138.687 343.432 140.805C341.411 141.337 339.273 141.198 337.338 140.41L310.591 128.058C309.657 127.653 308.646 127.454 307.629 127.477C306.611 127.5 305.61 127.743 304.695 128.189V128.189ZM439.187 169.726C463.76 183.923 463.76 206.981 439.187 221.178C414.614 235.375 374.691 235.375 350.086 221.178C325.48 206.981 325.48 183.923 350.086 169.726C374.691 155.529 414.581 155.43 439.187 169.726Z" fill="#455A64"/>
<path d="M277.092 245.487C277.114 245.133 277.221 244.789 277.405 244.485C277.588 244.181 277.843 243.926 278.146 243.741L288.653 236.165V211.23C288.194 211.029 287.704 210.906 287.204 210.868L252.058 208.661C251.172 208.595 250.343 208.2 249.733 207.554C249.123 206.908 248.778 206.057 248.764 205.169V238.603C248.825 239.456 249.192 240.259 249.797 240.864C250.402 241.469 251.204 241.836 252.058 241.897H252.519L272.513 243.148L277.092 243.478V245.487Z" fill="#37474F"/>
<path d="M339.282 249.835C338.581 249.938 337.895 250.126 337.239 250.395L310.525 262.747C309.482 263.169 308.351 263.328 307.231 263.208V296.576C307.823 296.642 308.419 296.642 309.01 296.576V296.411C309.558 296.399 310.101 296.31 310.624 296.148L337.371 283.763C338.019 283.525 338.694 283.37 339.38 283.302L339.282 249.835Z" fill="#37474F"/>
<path d="M371.826 277.57C371.599 277.18 371.433 276.758 371.332 276.318L368.038 258.696C367.926 258.223 367.748 257.769 367.511 257.345V290.779C367.753 291.188 367.931 291.633 368.038 292.096L371.332 309.686C371.431 310.005 371.599 310.297 371.826 310.543V277.57Z" fill="#37474F"/>
<path opacity="0.15" d="M421.795 257.378C421.543 257.783 421.365 258.229 421.268 258.696L417.974 276.318C417.897 276.765 417.729 277.191 417.479 277.57V310.938C417.729 310.559 417.897 310.133 417.974 309.686L421.268 292.096C421.339 291.653 421.52 291.234 421.795 290.878V257.378Z" fill="black"/>
<path opacity="0.15" d="M482.239 263.175C481.122 263.316 479.988 263.169 478.945 262.747L452.231 250.395C451.587 250.126 450.912 249.938 450.222 249.835V283.236C450.913 283.313 451.59 283.491 452.231 283.763L478.945 296.148C479.738 296.474 480.591 296.631 481.448 296.609H482.239V263.175Z" fill="black"/>
<path opacity="0.15" d="M537.182 208.661L502.035 210.868C501.535 210.906 501.045 211.029 500.586 211.23V236.132L511.094 243.708C511.401 243.896 511.658 244.157 511.842 244.467C512.026 244.777 512.131 245.127 512.148 245.487V243.609L537.182 242.028C538.068 241.963 538.897 241.568 539.506 240.922C540.116 240.276 540.462 239.425 540.476 238.537V201.941C540.508 201.712 540.508 201.479 540.476 201.249V205.169C540.462 206.057 540.116 206.908 539.506 207.554C538.897 208.2 538.068 208.595 537.182 208.661V208.661Z" fill="black"/>
<path d="M9.68822 85.6974C9.68822 87.2126 9.68822 114.816 9.68822 115.574C9.69518 115.847 9.78729 116.112 9.95173 116.331L21.6782 132.801C22.2396 133.348 22.9269 133.748 23.6794 133.966C24.4319 134.184 25.2265 134.214 25.9933 134.053L53.0366 129.507C54.708 129.221 56.4271 129.511 57.9117 130.33C60.0303 131.843 62.2295 133.24 64.4996 134.514C64.4996 134.514 64.4996 156.484 64.4996 156.946C64.5516 157.343 64.7251 157.714 64.9963 158.009C65.2676 158.304 65.6233 158.508 66.0148 158.593L95.4957 165.642C96.3596 165.712 97.2281 165.583 98.0337 165.263C98.8393 164.943 99.5601 164.441 100.14 163.797L112.295 150.984C113.62 149.662 115.399 148.897 117.269 148.842C123.423 149.221 129.594 149.221 135.748 148.842C137.352 148.721 138.942 149.216 140.195 150.226L153.766 164.489C154.411 164.975 155.16 165.305 155.955 165.454C156.749 165.603 157.567 165.565 158.344 165.345L186.705 158.593C188.089 158.263 188.978 157.374 188.912 156.452V134.316C190.856 133.196 192.7 132.043 194.446 130.825C196.012 129.751 197.886 129.218 199.782 129.309L227.715 133.987C228.562 134.037 229.409 133.877 230.179 133.521C230.949 133.165 231.619 132.623 232.129 131.945L242.801 117.023C243.19 116.537 243.4 115.932 243.394 115.31C243.394 114.783 243.394 106.021 243.394 93.7676C243.534 93.5752 243.614 93.3461 243.625 93.1088C243.625 92.8452 243.625 53.0543 243.625 50.5838C243.611 50.3214 243.519 50.069 243.361 49.8591L231.635 33.3894C231.069 32.85 230.381 32.4547 229.63 32.2369C228.879 32.019 228.087 31.985 227.32 32.1378L200.276 36.7163C198.605 36.9701 196.896 36.6815 195.401 35.8928C193.283 34.3692 191.084 32.9617 188.813 31.6766C188.813 21.4324 188.813 10.8917 188.813 9.67297C188.831 9.2223 188.688 8.77995 188.411 8.42427C188.134 8.06859 187.739 7.82253 187.298 7.72955L157.817 0.680445C156.945 0.58184 156.062 0.688361 155.239 0.991464C154.415 1.29457 153.674 1.78586 153.074 2.42624L140.952 15.2068C139.629 16.5344 137.852 17.3112 135.978 17.3808C129.825 16.9855 123.653 16.9855 117.499 17.3808C115.898 17.4764 114.317 16.9845 113.052 15.9973L99.4814 1.73453C98.8294 1.26138 98.0803 0.939038 97.2885 0.79092C96.4966 0.642802 95.6817 0.672577 94.9028 0.878074L66.5418 7.66361C65.1584 7.993 64.302 8.84945 64.3349 9.73882V31.9401C62.4244 33.0601 60.5469 34.2459 58.8011 35.4317C57.2384 36.5152 55.3647 37.0588 53.4649 36.9799L25.5321 32.2694C24.6825 32.2256 23.8351 32.3921 23.0652 32.7541C22.2952 33.1161 21.6265 33.6624 21.1182 34.3447L10.4458 49.2334C10.0869 49.7102 9.88027 50.2842 9.85292 50.8804V50.8804C9.85292 52.1979 9.85292 73.0815 9.85292 85.1045C9.72838 85.302 9.66005 85.5298 9.65527 85.7633V85.7633L9.68822 85.6974ZM163.121 89.3866C157.905 92.2825 152.304 94.423 146.486 95.744C126.722 100.487 104.62 97.5886 90.2583 89.4195C88.7026 88.5535 87.206 87.5851 85.7785 86.5209C87.0632 85.6315 88.4466 84.7422 89.9289 83.8857C110.154 72.1922 142.962 72.1922 163.219 83.8857C164.735 84.7751 166.151 85.6645 167.436 86.5538C166.056 87.5847 164.615 88.5306 163.121 89.3866Z" fill="#37474F"/>
<path d="M182.49 28.3495C184.763 29.4036 186.937 30.5235 189.078 31.6435V9.63989C189.041 10.0309 188.929 10.4111 188.748 10.7598L181.436 24.7921C181.264 25.0931 181.155 25.4258 181.115 25.7702C181.075 26.1145 181.105 26.4634 181.204 26.7957C181.302 27.1281 181.467 27.4371 181.688 27.7042C181.909 27.9712 182.182 28.1907 182.49 28.3495V28.3495Z" fill="#263238"/>
<path opacity="0.15" d="M214.836 63.3314C215.331 66.397 215.331 69.5218 214.836 72.5874C214.728 73.2681 214.855 73.9654 215.197 74.5642C215.538 75.163 216.073 75.6277 216.714 75.8814L242.242 83.9186C242.592 84.0263 242.898 84.2454 243.112 84.5428C243.326 84.8401 243.437 85.1993 243.428 85.5656C243.428 86.0597 243.428 93.8333 243.428 93.8333C243.542 93.655 243.61 93.4513 243.626 93.2404C243.626 78.7471 243.626 54.5366 243.626 52.4284V50.6497C243.626 51.4073 242.802 52.1648 241.55 52.5601L217.472 60.2021C216.744 60.3503 216.088 60.74 215.609 61.3081C215.131 61.8761 214.859 62.5891 214.836 63.3314Z" fill="black"/>
<path opacity="0.15" d="M198.959 99.4001V129.309C199.299 129.275 199.641 129.275 199.98 129.309L227.913 133.987C228.378 134.099 228.864 134.099 229.329 133.987V104.11C228.84 104.206 228.336 104.206 227.847 104.11L199.914 99.4001C199.598 99.3491 199.275 99.3491 198.959 99.4001V99.4001Z" fill="black"/>
<path d="M189.078 134.349C190.988 133.229 192.866 132.076 194.611 130.857C195.909 130.01 197.387 129.48 198.927 129.309V99.4001C197.368 99.5576 195.874 100.101 194.578 100.981C190.978 103.468 187.19 105.671 183.247 107.569C181.6 108.393 180.678 109.809 181.205 110.863L188.88 126.048C188.921 126.255 188.921 126.467 188.88 126.674C189.078 127.531 189.078 134.349 189.078 134.349Z" fill="#263238"/>
<path opacity="0.15" d="M138.581 119.395V149.304C139.219 149.484 139.805 149.811 140.294 150.259L153.865 164.522C154.554 165.12 155.424 165.468 156.335 165.51V135.601C155.407 135.575 154.514 135.239 153.799 134.646L140.228 120.317C139.762 119.881 139.196 119.564 138.581 119.395V119.395Z" fill="black"/>
<path d="M115.589 119.23V149.139C116.16 148.939 116.762 148.838 117.368 148.842C123.521 149.221 129.693 149.221 135.847 148.842C136.777 148.805 137.706 148.95 138.581 149.271V119.362C137.689 119.017 136.734 118.871 135.781 118.933C129.638 119.312 123.478 119.312 117.335 118.933C116.74 118.927 116.148 119.027 115.589 119.23V119.23Z" fill="#263238"/>
<path opacity="0.15" d="M97.5381 135.469V165.378C98.5556 165.083 99.4838 164.54 100.239 163.797L112.394 150.983C113.332 150.119 114.46 149.487 115.688 149.139V119.23C114.451 119.572 113.318 120.217 112.394 121.107L100.14 133.888C99.4083 134.611 98.5171 135.152 97.5381 135.469Z" fill="black"/>
<path d="M64.5 126.905V134.316V146.043C64.5 151.346 64.5 156.517 64.5 156.748C64.552 157.145 64.7255 157.517 64.9967 157.811C65.268 158.106 65.6237 158.31 66.0152 158.395L95.4961 165.411C96.1543 165.587 96.8472 165.587 97.5054 165.411V135.469C96.8246 135.643 96.111 135.643 95.4302 135.469L65.9493 128.42C65.5805 128.349 65.2429 128.165 64.9832 127.893C64.7235 127.622 64.5547 127.276 64.5 126.905V126.905Z" fill="#37474F"/>
<path opacity="0.15" d="M54.9805 99.4331V129.342C56.0236 129.409 57.0376 129.713 57.945 130.232C60.0636 131.744 62.2628 133.141 64.5329 134.415C64.5329 134.415 64.5329 127.563 64.5329 126.641C64.5405 126.218 64.6418 125.802 64.8294 125.422L71.9114 111.39C72.0936 111.103 72.2154 110.782 72.2693 110.446C72.3232 110.11 72.308 109.766 72.2248 109.437C72.1416 109.107 71.992 108.797 71.7852 108.527C71.5784 108.257 71.3187 108.032 71.022 107.866C66.4145 105.761 62.0049 103.248 57.8462 100.355C56.9888 99.801 56.0003 99.4828 54.9805 99.4331V99.4331Z" fill="black"/>
<path d="M9.68848 85.7302C9.68848 87.2125 9.68848 114.783 9.68848 115.573C9.69544 115.847 9.78754 116.112 9.95199 116.331L21.7114 132.801C22.2321 133.401 22.9402 133.807 23.7207 133.954V103.847C22.902 103.707 22.157 103.288 21.6126 102.661L9.88611 86.1914C9.78517 86.0552 9.71749 85.8973 9.68848 85.7302V85.7302Z" fill="#37474F"/>
<path d="M157.818 0.581568L187.299 7.63068C187.547 7.68846 187.781 7.79523 187.987 7.94481C188.193 8.09439 188.367 8.2837 188.499 8.50161C188.631 8.71952 188.718 8.96166 188.755 9.21372C188.792 9.46578 188.779 9.7227 188.715 9.96935C188.706 10.3609 188.605 10.7447 188.419 11.0893L181.336 25.0886C181.158 25.3797 181.04 25.7035 180.988 26.0409C180.936 26.3784 180.952 26.7227 181.035 27.0539C181.118 27.3851 181.266 27.6965 181.47 27.9699C181.675 28.2433 181.931 28.4732 182.226 28.6461C184.565 29.6672 186.739 30.7872 188.814 31.9401C191.084 33.2252 193.284 34.6327 195.402 36.1563C196.897 36.945 198.605 37.2336 200.277 36.9798L227.32 32.4012C228.087 32.2484 228.879 32.2824 229.63 32.5003C230.381 32.7181 231.069 33.1135 231.635 33.6529L243.362 50.1227C243.52 50.3325 243.612 50.5849 243.625 50.8473C243.559 51.6049 242.802 52.3625 241.55 52.7578L217.471 60.3998C216.716 60.5538 216.039 60.9677 215.557 61.5696C215.076 62.1714 214.82 62.9231 214.836 63.6937C215.33 66.7482 215.33 69.8622 214.836 72.9167C214.721 73.5981 214.846 74.2981 215.188 74.8984C215.53 75.4986 216.069 75.9621 216.714 76.2107L242.209 84.2809C242.565 84.3708 242.881 84.5799 243.102 84.8734C243.324 85.1669 243.439 85.5273 243.428 85.8949C243.382 86.4874 243.177 87.0564 242.835 87.5419L232.129 102.431C231.625 103.117 230.957 103.667 230.186 104.029C229.415 104.392 228.566 104.556 227.715 104.506L199.783 99.7954C197.894 99.6866 196.025 100.221 194.479 101.311C190.886 103.809 187.097 106.012 183.148 107.899C181.501 108.656 180.579 110.106 181.106 111.193L188.781 126.378C189.341 127.465 188.386 128.65 186.706 129.079L158.345 135.864C157.571 136.072 156.761 136.102 155.974 135.954C155.187 135.806 154.444 135.482 153.799 135.008L140.195 120.712C138.931 119.725 137.349 119.233 135.748 119.329C129.605 119.691 123.445 119.691 117.302 119.329C115.426 119.355 113.637 120.125 112.328 121.47L100.173 134.25C99.5689 134.884 98.827 135.372 98.0047 135.674C97.1824 135.977 96.3017 136.087 95.4302 135.996L65.9493 128.947C65.6036 128.878 65.2815 128.722 65.0144 128.492C64.7472 128.262 64.5441 127.967 64.4247 127.635C64.3053 127.304 64.2738 126.947 64.3332 126.6C64.3925 126.252 64.5408 125.926 64.7635 125.653L71.8126 111.654C71.9955 111.364 72.1177 111.04 72.172 110.702C72.2263 110.363 72.2114 110.017 72.1283 109.685C72.0451 109.352 71.8955 109.04 71.6884 108.767C71.4813 108.494 71.221 108.266 70.9232 108.096C66.3156 105.992 61.9061 103.478 57.7474 100.586C56.2835 99.7423 54.5698 99.4392 52.9053 99.7296L25.829 104.275C25.0675 104.443 24.2761 104.416 23.5278 104.197C22.7794 103.978 22.0982 103.575 21.5468 103.024L9.78742 86.5538C9.63309 86.3441 9.55206 86.0894 9.55684 85.8291C9.56162 85.5956 9.62995 85.3678 9.75448 85.1703C10.1997 84.539 10.8526 84.0843 11.5991 83.8857L35.6779 76.2766C37.3907 75.6179 38.5436 74.2015 38.313 72.9827C37.8191 69.9282 37.8191 66.8141 38.313 63.7596C38.4321 63.0736 38.3059 62.3677 37.9566 61.7654C37.6073 61.1631 37.0571 60.7029 36.4026 60.4656L10.9074 52.3625C10.5679 52.2691 10.2683 52.0673 10.0542 51.7878C9.84012 51.5083 9.72329 51.1664 9.72154 50.8144C9.74889 50.2182 9.95554 49.6442 10.3144 49.1674L20.9869 34.2787C21.4951 33.5965 22.1639 33.05 22.9338 32.6881C23.7037 32.3261 24.5511 32.1597 25.4008 32.2035L53.3335 36.9139C55.2334 36.9928 57.1071 36.4492 58.6697 35.3657C60.4155 34.1799 62.3589 32.8952 64.2035 31.8741C66.0481 30.853 68.288 29.6342 69.9679 28.8766C71.6479 28.119 72.5702 26.6367 72.0102 25.5827L64.3353 10.3316C64.2891 10.1367 64.2891 9.93369 64.3353 9.73875C64.3023 8.84939 65.1588 7.99294 66.5422 7.66355L94.9032 0.878012C95.6821 0.672514 96.497 0.642739 97.2888 0.790858C98.0807 0.938976 98.8298 1.26131 99.4818 1.73447L113.053 15.8984C114.317 16.8856 115.898 17.3776 117.5 17.2819C123.653 16.8866 129.825 16.8866 135.979 17.2819C137.852 17.2123 139.629 16.4355 140.953 15.1079L153.074 2.32736C153.674 1.68699 154.416 1.19569 155.239 0.892587C156.063 0.589484 156.946 0.482963 157.818 0.581568Z" fill="#455A64"/>
</svg>
