<svg width="512" height="512" viewBox="0 0 512 512" fill="none" xmlns="http://www.w3.org/2000/svg">
<path d="M256 0C114.836 0 0 114.836 0 256C0 397.164 114.836 512 256 512C397.164 512 512 397.164 512 256C512 114.836 397.164 0 256 0Z" fill="white"/>
<path d="M350.273 320.105C358.613 328.449 358.613 341.93 350.273 350.273C346.113 354.434 340.652 356.523 335.188 356.523C329.727 356.523 324.266 354.434 320.105 350.273L256 286.164L191.895 350.273C187.734 354.434 182.273 356.523 176.812 356.523C171.348 356.523 165.887 354.434 161.727 350.273C153.387 341.93 153.387 328.449 161.727 320.105L225.836 256L161.727 191.895C153.387 183.551 153.387 170.07 161.727 161.727C170.07 153.387 183.551 153.387 191.895 161.727L256 225.836L320.105 161.727C328.449 153.387 341.93 153.387 350.273 161.727C358.613 170.07 358.613 183.551 350.273 191.895L286.164 256L350.273 320.105Z" fill="#E77070"/>
</svg>
