<svg width="252" height="60" viewBox="0 0 252 60" fill="none" xmlns="http://www.w3.org/2000/svg">
<path d="M75.3615 40.5758C72.7626 40.5758 70.4979 39.9106 68.5673 38.5803C66.6367 37.2499 65.1145 35.4761 64.0008 33.2589C62.9241 31.0416 62.3857 28.5841 62.3857 25.8865C62.3857 23.041 62.9612 20.4912 64.1121 18.2369C65.2631 15.9458 66.8595 14.135 68.9015 12.8047C70.9434 11.4743 73.301 10.8091 75.9741 10.8091C78.1646 10.8091 80.0951 11.2895 81.7658 12.2503C83.4365 13.1742 84.7731 14.4676 85.7755 16.1305V11.3634H93.5164V38.4694C93.5164 41.4258 92.7924 43.9756 91.3445 46.1189C89.9337 48.2623 87.9474 49.9068 85.3857 51.0523C82.8611 52.2349 79.9281 52.8261 76.5867 52.8261C73.468 52.8261 70.7764 52.3088 68.5116 51.2741C66.284 50.2763 64.3349 48.8536 62.6642 47.0059L67.4535 42.1833C68.5302 43.4028 69.8668 44.3636 71.4632 45.0658C73.0968 45.8048 74.8046 46.1744 76.5867 46.1744C78.0346 46.1744 79.3526 45.9157 80.5407 45.3983C81.7658 44.881 82.7497 44.0495 83.4922 42.9039C84.2348 41.7953 84.606 40.3171 84.606 38.4694V35.6424C83.715 37.2684 82.4156 38.5064 80.7077 39.3563C79.037 40.1693 77.255 40.5758 75.3615 40.5758ZM78.4244 33.536C79.7981 33.536 81.0233 33.1665 82.1 32.4274C83.1766 31.6513 84.012 30.6721 84.606 29.4895V23.3921C84.012 21.8769 83.1024 20.6574 81.8772 19.7336C80.652 18.8097 79.3526 18.3478 77.9789 18.3478C76.7166 18.3478 75.5843 18.7173 74.5818 19.4564C73.6165 20.1586 72.8554 21.1009 72.2985 22.2834C71.7417 23.466 71.4632 24.7409 71.4632 26.1082C71.4632 28.2516 72.1315 30.0254 73.468 31.4296C74.8046 32.8339 76.4567 33.536 78.4244 33.536Z" fill="#F3FFF2"/>
<path d="M118.167 18.9575C116.014 18.9945 114.065 19.3456 112.32 20.0107C110.575 20.6759 109.313 21.6737 108.533 23.004V40.4649H99.6227V11.3634H107.809V17.2392C108.812 15.2806 110.111 13.747 111.707 12.6384C113.304 11.5297 114.975 10.9569 116.72 10.92C117.462 10.92 117.945 10.9385 118.167 10.9754V18.9575Z" fill="#F3FFF2"/>
<path d="M135.625 41.0193C132.284 41.0193 129.444 40.3171 127.105 38.9129C124.803 37.5086 123.039 35.6609 121.814 33.3697C120.589 31.0786 119.977 28.6026 119.977 25.9419C119.977 23.2442 120.589 20.7498 121.814 18.4587C123.039 16.1675 124.822 14.3198 127.161 12.9155C129.499 11.5113 132.321 10.8091 135.625 10.8091C138.93 10.8091 141.751 11.5113 144.09 12.9155C146.429 14.3198 148.211 16.1675 149.436 18.4587C150.662 20.7498 151.274 23.2442 151.274 25.9419C151.274 28.6026 150.662 31.0786 149.436 33.3697C148.211 35.6609 146.429 37.5086 144.09 38.9129C141.751 40.3171 138.93 41.0193 135.625 41.0193ZM129.11 25.9419C129.11 28.1961 129.722 30.0254 130.947 31.4296C132.21 32.8339 133.769 33.536 135.625 33.536C137.445 33.536 138.967 32.8339 140.192 31.4296C141.454 30.0254 142.085 28.1961 142.085 25.9419C142.085 23.6877 141.454 21.8585 140.192 20.4542C138.967 19.0499 137.445 18.3478 135.625 18.3478C133.769 18.3478 132.21 19.0499 130.947 20.4542C129.722 21.8585 129.11 23.6877 129.11 25.9419Z" fill="#F3FFF2"/>
<path d="M169.672 41.0193C166.404 41.0193 163.583 40.3171 161.207 38.9129C158.868 37.5086 157.067 35.6609 155.805 33.3697C154.58 31.0786 153.967 28.5841 153.967 25.8865C153.967 23.2258 154.58 20.7498 155.805 18.4587C157.067 16.1675 158.868 14.3198 161.207 12.9155C163.546 11.5113 166.367 10.8091 169.672 10.8091C173.013 10.8091 175.835 11.5297 178.136 12.971C180.475 14.3752 182.22 16.2229 183.371 18.5141L174.684 21.1194C173.533 19.2717 171.843 18.3478 169.616 18.3478C167.797 18.3478 166.256 19.0315 164.994 20.3988C163.731 21.7661 163.1 23.5953 163.1 25.8865C163.1 28.1776 163.731 30.0254 164.994 31.4296C166.256 32.8339 167.797 33.536 169.616 33.536C170.73 33.536 171.751 33.2773 172.679 32.76C173.607 32.2057 174.294 31.5035 174.739 30.6536L183.427 33.3143C182.35 35.5685 180.624 37.4162 178.248 38.8574C175.909 40.2987 173.05 41.0193 169.672 41.0193Z" fill="#F3FFF2"/>
<path d="M201.16 41.0193C197.856 41.0193 195.034 40.3356 192.695 38.9683C190.356 37.601 188.556 35.7902 187.293 33.536C186.068 31.2818 185.456 28.8428 185.456 26.2191C185.456 23.4105 186.068 20.8422 187.293 18.5141C188.519 16.186 190.301 14.3198 192.64 12.9155C194.979 11.5113 197.819 10.8091 201.16 10.8091C204.465 10.8091 207.286 11.5113 209.625 12.9155C211.964 14.3198 213.728 16.1675 214.916 18.4587C216.141 20.7498 216.753 23.2073 216.753 25.831C216.753 26.9027 216.679 27.8451 216.531 28.658H194.923C195.071 30.6166 195.777 32.1133 197.039 33.148C198.339 34.1458 199.805 34.6446 201.439 34.6446C202.738 34.6446 203.982 34.3305 205.17 33.7023C206.358 33.0741 207.175 32.2241 207.62 31.1525L215.194 33.2589C214.043 35.55 212.243 37.4162 209.792 38.8574C207.379 40.2987 204.502 41.0193 201.16 41.0193ZM194.7 23.2258H207.398C207.212 21.3781 206.525 19.9184 205.337 18.8467C204.186 17.7381 202.757 17.1837 201.049 17.1837C199.341 17.1837 197.893 17.7381 196.705 18.8467C195.554 19.9553 194.886 21.415 194.7 23.2258Z" fill="#F3FFF2"/>
<path d="M239.337 18.9575C237.183 18.9945 235.234 19.3456 233.489 20.0107C231.744 20.6759 230.482 21.6737 229.702 23.004V40.4649H220.792V11.3634H228.978V17.2392C229.981 15.2806 231.28 13.747 232.877 12.6384C234.473 11.5297 236.144 10.9569 237.889 10.92C238.631 10.92 239.114 10.9385 239.337 10.9754V18.9575Z" fill="#F3FFF2"/>
<path d="M243.09 8.03756V0H252V8.03756H243.09ZM243.09 40.4649V11.3634H252V40.4649H243.09Z" fill="#F3FFF2"/>
<path d="M43.8785 51.1719L38.0921 44.1489L37.719 44.4571C35.1743 46.5593 29.5938 50.0502 22.0291 50.0502C14.6054 50.0502 8.9785 46.1201 6.97112 44.4593L6.59828 44.1508L0.806641 51.1695L1.17949 51.478C3.8637 53.6987 11.519 59.1548 22.0291 59.1548C32.3981 59.1548 39.9609 54.4081 43.5054 51.4801L43.8785 51.1719Z" fill="#4CBE42"/>
<path fill-rule="evenodd" clip-rule="evenodd" d="M44.3111 1.02246H20.1896C14.0748 1.38029 1.92866 5.87695 2.26219 21.001C2.06367 27.5015 5.83577 40.5263 22.5124 40.6217C29.1632 40.741 42.5243 36.9838 42.7626 21.001C42.7626 18.695 42.2146 13.3316 40.0228 10.3259C41.196 10.091 43.6631 9.03464 44.2838 6.6784C44.3028 6.60618 44.3111 6.53102 44.3111 6.45633V1.02246ZM22.6555 31.26C28.4119 31.26 33.0784 26.5874 33.0784 20.8235C33.0784 15.0595 28.4119 10.3869 22.6555 10.3869C16.8991 10.3869 12.2326 15.0595 12.2326 20.8235C12.2326 26.5874 16.8991 31.26 22.6555 31.26Z" fill="#4CBE42"/>
</svg>
