<svg width="104" height="80" viewBox="0 0 104 80" fill="none" xmlns="http://www.w3.org/2000/svg">
<path d="M6.84856e-05 20C0.00236013 22.0749 0.824057 24.0642 2.28488 25.5313C3.74571 26.9985 5.72635 27.8238 7.79227 27.8261H9.15374C6.58388 31.2449 5.19402 35.412 5.19487 39.6957V51.6922L0.246821 59.9748C0.0251676 60.3458 -0.0508478 60.7864 0.0336184 61.2107L3.49682 78.602C3.57533 78.9962 3.78742 79.351 4.09701 79.6058C4.4066 79.8607 4.79455 80 5.19487 80H19.0477C19.5069 80 19.9474 79.8168 20.2721 79.4906C20.5968 79.1645 20.7793 78.7221 20.7793 78.2609V74.7826C20.7777 73.3993 20.2299 72.0732 19.256 71.0951C18.2822 70.117 16.9617 69.5668 15.5845 69.5652H13.541L12.3938 63.8106C14.7087 63.0409 16.9385 62.0334 19.0477 60.8043V62.6087C19.0477 62.852 19.0985 63.0926 19.1968 63.315L26.1232 78.9672C26.2592 79.2746 26.4811 79.5358 26.762 79.7191C27.0429 79.9025 27.3707 80 27.7057 80H41.5585C42.0177 80 42.4581 79.8168 42.7829 79.4906C43.1076 79.1645 43.2901 78.7221 43.2901 78.2609V74.7826C43.2885 73.3993 42.7407 72.0732 41.7668 71.0951C40.793 70.117 39.4725 69.5668 38.0953 69.5652H35.8801L33.1169 61.2391L40.3961 52.465L48.1753 53.8857C48.2775 53.9041 48.3811 53.9133 48.4849 53.913H52.26L57.1764 78.602C57.2549 78.9962 57.467 79.351 57.7766 79.6058C58.0862 79.8607 58.4741 80 58.8745 80H81.3852C81.8445 80 82.2849 79.8168 82.6097 79.4906C82.9344 79.1645 83.1168 78.7221 83.1168 78.2609V74.7826C83.1153 73.3993 82.5675 72.0732 81.5936 71.0951C80.6197 70.117 79.2993 69.5668 77.9221 69.5652H76.1904V57.8976L87.2114 40.5039C87.3419 40.2977 87.5143 40.1214 87.7171 39.9866C87.92 39.8517 88.1489 39.7614 88.3889 39.7213L95.0123 38.6106C96.011 38.4451 96.9397 37.9895 97.6837 37.3001C98.4277 36.6107 98.9545 35.7176 99.1991 34.7311L100.353 30.1007L103.772 21.515C103.914 21.1599 103.935 20.7679 103.832 20.3997C103.729 20.0316 103.508 19.7077 103.203 19.4783L96.5151 14.4396L93.2764 9.56043L91.7748 6.5463C91.0601 5.09828 89.9557 3.88037 88.5868 3.0307C87.218 2.18103 85.6394 1.73359 84.0303 1.73913H71.1883C67.289 1.73524 63.5306 3.20357 60.6589 5.85283L44.3481 20.8696H34.7186L26.7834 20.0717C21.6498 19.5642 16.5228 21.0995 12.5042 24.3478H7.79227C6.64414 24.3478 5.54305 23.8898 4.7312 23.0744C3.91936 22.259 3.46327 21.1531 3.46327 20C3.46327 18.8469 3.91936 17.741 4.7312 16.9256C5.54305 16.1102 6.64414 15.6522 7.79227 15.6522H31.466C33.7896 15.6565 36.0748 15.0574 38.0998 13.913C41.3126 13.9082 44.3925 12.6239 46.6639 10.3418C48.9353 8.05964 50.2128 4.96595 50.2165 1.73913C50.2165 1.27788 50.034 0.83553 49.7093 0.50938C49.3845 0.18323 48.9441 0 48.4849 0C45.4975 0.00385407 42.6164 1.11408 40.3932 3.11817C38.1699 5.12226 36.7606 7.87944 36.4351 10.862C34.9202 11.7251 33.2077 12.1772 31.466 12.1739H7.79227C5.72635 12.1762 3.74571 13.0015 2.28488 14.4687C0.824057 15.9358 0.00236013 17.9251 6.84856e-05 20ZM29.8386 59.7563C29.6498 59.9839 29.522 60.2561 29.4673 60.5472C29.4127 60.8383 29.4329 61.1386 29.5262 61.4196L32.9894 71.8543C33.1044 72.2006 33.3248 72.5018 33.6196 72.7152C33.9145 72.9286 34.2687 73.0435 34.6321 73.0435H38.0953C38.5544 73.044 38.9945 73.2274 39.3191 73.5534C39.6437 73.8795 39.8263 74.3215 39.8269 74.7826V76.5217H28.8312L22.5109 62.2391V58.508C25.477 56.2947 28.0807 53.6294 30.2275 50.6087L36.4812 51.7507L29.8386 59.7563ZM55.7918 53.913H60.918L65.4201 76.5217H60.2941L55.7918 53.913ZM77.9221 73.0435C78.3811 73.044 78.8213 73.2274 79.1459 73.5534C79.4705 73.8795 79.6531 74.3215 79.6536 74.7826V76.5217H68.9521L64.0357 51.8328C64.0122 51.717 63.977 51.6039 63.9307 51.4952L72.7272 58.2509V71.3043C72.7272 71.7656 72.9097 72.2079 73.2344 72.5341C73.5592 72.8602 73.9996 73.0435 74.4588 73.0435H77.9221ZM80.5015 18.3489L81.9415 18.8311L82.1119 19.1304H76.7617C75.2422 19.1353 73.744 19.4884 72.3809 20.1627C71.0179 20.8371 69.826 21.8149 68.8961 23.0217L55.4403 40.5902C52.8552 38.539 50.7411 35.9518 49.2422 33.0052L67.1428 15.0243C68.0406 14.1177 69.1084 13.399 70.2846 12.9097C71.4608 12.4204 72.7219 12.1703 73.995 12.1739H77.0069C76.7338 13.4545 76.939 14.7912 77.5833 15.9298C78.2277 17.0684 79.2663 17.9293 80.5015 18.3489ZM71.64 25.1415C72.2456 24.3558 73.0217 23.7193 73.9092 23.2803C74.7968 22.8414 75.7724 22.6117 76.7617 22.6087H84.0909L87.0595 27.8261H82.7346C81.5016 27.8248 80.2874 28.1298 79.2002 28.7142C78.1131 29.2985 77.1868 30.1439 76.5039 31.175L65.2498 48.1304L58.1874 42.7065L71.64 25.1415ZM95.8391 33.8883C95.7578 34.2169 95.5823 34.5145 95.3344 34.7441C95.0865 34.9737 94.7771 35.1253 94.4443 35.1802L87.821 36.2909C87.1014 36.411 86.4152 36.6819 85.8067 37.086C85.1983 37.49 84.6813 38.018 84.2894 38.6359L74.0106 54.8585L68.006 50.247L79.3848 33.1043C79.752 32.5501 80.25 32.0956 80.8345 31.7815C81.419 31.4675 82.0717 31.3035 82.7346 31.3043H96.4828L95.8391 33.8883ZM94.1991 17.0435L100.065 21.4613L97.5287 27.8261H91.0482L84.6197 16.5285C84.4082 16.157 84.0679 15.8768 83.6638 15.7413L81.5958 15.0491C81.1602 14.9013 80.7956 14.5945 80.5743 14.1896C80.353 13.7847 80.2911 13.3112 80.4008 12.8626C80.4618 12.6172 80.5727 12.3872 80.7264 12.1868C80.8802 11.9865 81.0735 11.8203 81.2943 11.6986C81.515 11.5768 81.7584 11.5023 82.0092 11.4795C82.26 11.4567 82.5128 11.4863 82.7517 11.5663L84.3002 12.0848C84.477 12.1438 84.6621 12.1739 84.8484 12.1739H90.8482L93.7973 16.617C93.9063 16.7809 94.0422 16.9251 94.1991 17.0435ZM62.9993 8.41674C65.2327 6.3563 68.1557 5.21433 71.1883 5.21739H84.0303C84.9958 5.21419 85.9429 5.48279 86.7641 5.99272C87.5854 6.50265 88.2479 7.2335 88.6766 8.10239L88.972 8.69565H85.1298L83.848 8.2663C83.1563 8.03583 82.4247 7.9509 81.6988 8.0168C80.9729 8.0827 80.2684 8.29802 79.629 8.64935C79.6023 8.66413 79.5766 8.68043 79.5502 8.69565H73.995C72.267 8.69095 70.5552 9.03054 68.9587 9.69475C67.3623 10.359 65.9129 11.3346 64.6944 12.5652L47.8149 29.518C47.1843 27.5248 46.8311 25.4535 46.7654 23.363L62.9993 8.41674ZM26.4379 23.5326L34.4595 24.3391C34.5169 24.3448 34.5745 24.3478 34.6327 24.3478H43.3489C43.5488 27.4589 44.3005 30.5091 45.5686 33.3546C45.5723 33.3624 45.5786 33.3763 45.582 33.3843C45.595 33.4141 45.6082 33.4433 45.6217 33.4713C45.7388 33.7341 45.8658 34.0037 46.0087 34.2933C47.7996 37.924 50.3958 41.0937 53.5976 43.5587L62.5734 50.4517C62.4953 50.4407 62.4165 50.435 62.3377 50.4348H48.6411L32.0795 47.4104C33.0602 45.4722 34.0925 42.9337 34.6186 38.693L31.1823 38.2622C30.6109 42.8596 29.4622 44.9889 28.3515 47.048C28.216 47.2993 28.084 47.5457 27.9544 47.7922C25.7667 51.0781 22.9954 53.9315 19.779 56.2098C16.8175 58.3164 13.5215 59.9031 10.0314 60.9022L9.91672 60.935C9.49774 61.0545 9.13896 61.3281 8.9119 61.7014C8.68485 62.0747 8.60619 62.5202 8.69162 62.9491L10.4232 71.6448C10.5016 72.0391 10.7136 72.3941 11.0232 72.6491C11.3328 72.9041 11.7209 73.0435 12.1213 73.0435H15.5845C16.0436 73.044 16.4837 73.2274 16.8083 73.5534C17.1329 73.8795 17.3155 74.3215 17.3161 74.7826V76.5217H6.61456L3.56089 61.1878L8.41131 53.0687C8.57278 52.7984 8.65807 52.4891 8.65807 52.1739V39.6957C8.65885 35.8179 10.04 32.0681 12.5522 29.1235C12.9404 28.6677 13.3541 28.2345 13.7914 27.8261H13.8529V27.7696C13.9875 27.6452 14.1236 27.5222 14.2624 27.4026C15.9256 25.9638 17.8622 24.8789 19.955 24.2137C22.0479 23.5485 24.2533 23.3168 26.4379 23.5326ZM46.531 3.70152C46.1623 5.28567 45.36 6.73473 44.2146 7.88508C43.0692 9.03543 41.6264 9.84125 40.0492 10.2115C40.4178 8.62738 41.2201 7.17831 42.3655 6.02796C43.5109 4.87761 44.9537 4.0718 46.531 3.70152Z" fill="#4CBE42"/>
</svg>
