<svg width="31" height="23" viewBox="0 0 31 23" fill="none" xmlns="http://www.w3.org/2000/svg">
<path d="M0 18.9444C0 20.8466 1.54225 22.3889 3.44444 22.3889H27.5556C29.4578 22.3889 31 20.8466 31 18.9444V15.5H0V18.9444Z" fill="#138808"/>
<path d="M0 6.88867H31V15.4998H0V6.88867Z" fill="#EEEEEE"/>
<path d="M31 6.88889V3.44444C31 1.54225 29.4578 0 27.5556 0H3.44444C1.54225 0 0 1.54225 0 3.44444V6.88889H31Z" fill="#FF9933"/>
<path d="M15.5001 14.6389C17.4024 14.6389 18.9446 13.0968 18.9446 11.1944C18.9446 9.29213 17.4024 7.75 15.5001 7.75C13.5978 7.75 12.0557 9.29213 12.0557 11.1944C12.0557 13.0968 13.5978 14.6389 15.5001 14.6389Z" fill="#000080"/>
<path d="M15.5001 13.778C16.9268 13.778 18.0834 12.6214 18.0834 11.1947C18.0834 9.76793 16.9268 8.61133 15.5001 8.61133C14.0733 8.61133 12.9167 9.76793 12.9167 11.1947C12.9167 12.6214 14.0733 13.778 15.5001 13.778Z" fill="#EEEEEE"/>
<path d="M15.5001 8.61133L15.6258 10.5609L16.4878 8.80852L15.8592 10.6573L17.3265 9.36738L16.0374 10.8356L17.8862 10.2061L16.1339 11.0689L18.0834 11.1947L16.1339 11.3204L17.8862 12.1824L16.0374 11.5537L17.3265 13.0211L15.8592 11.732L16.4878 13.5808L15.6258 11.8284L15.5001 13.778L15.3744 11.8284L14.5115 13.5808L15.141 11.732L13.6728 13.0211L14.9627 11.5537L13.1139 12.1824L14.8663 11.3204L12.9167 11.1947L14.8663 11.0689L13.1139 10.2061L14.9627 10.8356L13.6728 9.36738L15.141 10.6573L14.5115 8.80852L15.3744 10.5609L15.5001 8.61133Z" fill="#6666B3"/>
<path d="M15.5 12.0557C15.9756 12.0557 16.3611 11.6702 16.3611 11.1946C16.3611 10.719 15.9756 10.3335 15.5 10.3335C15.0244 10.3335 14.6389 10.719 14.6389 11.1946C14.6389 11.6702 15.0244 12.0557 15.5 12.0557Z" fill="#000080"/>
</svg>
