<svg width="787" height="906" viewBox="0 0 787 906" fill="none"
    xmlns="http://www.w3.org/2000/svg">
    <path d="M479.516 175.605C481.722 174.824 483.855 173.851 485.891 172.696C488.73 170.947 491.192 168.649 493.131 165.936C495.071 163.223 496.449 160.151 497.186 156.899C497.66 154.667 497.848 152.384 497.744 150.105C497.505 147.592 497.011 145.109 496.27 142.695C494.895 137.535 493.401 131.917 491.788 125.921L480.911 85.0026L467.763 35.3985C466.587 30.9361 465.392 26.414 464.157 21.7922C463.178 17.1737 460.913 12.9262 457.623 9.5406C454.225 6.08393 449.866 3.73061 445.112 2.78727C440.172 1.9366 435.096 2.39683 430.39 4.122L299.886 38.5062C294.303 39.9948 289.435 43.4283 286.16 48.188C282.912 52.8748 281.462 58.5754 282.076 64.2446C282.487 67.0704 283.113 69.8608 283.949 72.5916C284.686 75.4005 285.403 78.1895 286.14 80.9585C287.601 86.5099 289.042 92.0149 290.463 97.4733C296.18 119.387 301.678 140.364 306.938 160.445C309.594 170.485 312.144 180.26 314.588 189.769C315.413 194.435 317.423 198.812 320.424 202.479C323.387 205.956 327.276 208.519 331.64 209.869C340.366 212.937 349.031 208.774 357.299 206.981L381.204 200.785L453.14 182.219L472.723 177.258L477.823 176.023C478.978 175.744 479.576 175.665 479.576 175.665C479.576 175.665 479.018 175.884 477.883 176.202L472.823 177.637L453.32 182.936L381.603 202.1L357.697 208.415L345.027 211.742C340.375 212.923 335.484 212.78 330.908 211.33C326.332 209.88 322.253 207.18 319.13 203.534C315.943 199.692 313.796 195.097 312.894 190.187C310.384 180.705 307.808 170.937 305.165 160.883C299.886 140.822 294.328 119.785 288.59 97.9514C287.156 92.493 285.708 86.9881 284.247 81.4367C283.504 78.6742 282.767 75.8852 282.036 73.0697C281.151 70.2499 280.485 67.3661 280.044 64.4438C279.383 58.3191 280.945 52.1608 284.447 47.0923C287.993 41.8842 293.297 38.1286 299.388 36.5141L429.912 2.32908C434.884 0.553399 440.231 0.10032 445.431 1.01428C450.509 2.07439 455.152 4.63533 458.758 8.36524C462.235 11.9765 464.63 16.4902 465.671 21.3938C466.866 25.9956 468.061 30.5377 469.217 35.0001C473.858 52.9292 478.181 69.4639 482.126 84.6639C486.07 99.8639 489.616 113.57 492.744 125.642C494.298 131.685 495.745 137.289 497.087 142.456C497.833 144.938 498.34 147.486 498.601 150.066C498.687 152.423 498.46 154.781 497.923 157.078C497.135 160.395 495.682 163.518 493.651 166.258C491.62 168.997 489.055 171.296 486.11 173.015C484.595 173.911 482.976 174.62 481.289 175.127C480.114 175.485 479.516 175.605 479.516 175.605Z" fill="#E0E0E0"/>
    <path d="M427.044 124.606C426.652 124.782 426.246 124.922 425.829 125.025L422.323 126.021L409.254 129.626L365.427 141.42H365.069L364.909 141.081L361.881 134.129L340.665 83.2894L340.984 83.4288L329.27 86.417L326.143 87.174L325.047 87.3932C325.387 87.2404 325.74 87.1203 326.103 87.0346L329.191 86.1381L340.864 82.9109H341.103V83.13L362.599 133.87L365.547 140.902L365.049 140.643L409.035 129.128L422.163 125.782L425.709 124.925C426.145 124.782 426.591 124.676 427.044 124.606Z" fill="#E0E0E0"/>
    <path d="M360.048 128.67C360.048 128.67 360.148 128.67 360.347 128.551L361.244 128.272L364.77 127.276L377.958 123.65L423.538 111.398L423.239 111.837C422.562 103.868 421.824 95.1227 421.047 86.1183C420.669 81.4965 420.271 76.9545 419.912 72.6116L420.45 72.9901L366.662 87.0944L350.725 91.1982L346.422 92.2739L345.307 92.513C345.048 92.513 344.928 92.513 344.908 92.513L345.287 92.3935L346.382 92.0548L350.665 90.8396L366.603 86.4968L420.39 72.1136L420.868 71.9741V72.4722C421.227 76.815 421.605 81.3571 422.004 85.9788C422.761 94.9832 423.478 103.669 424.155 111.717V112.056H423.817L378.157 124.009L364.909 127.395L361.343 128.272L360.427 128.491L360.048 128.67Z" fill="#E0E0E0"/>
    <path d="M385.05 153.671C385.05 153.671 384.831 153.153 384.313 152.297C383.586 151.106 382.486 150.189 381.185 149.687C380.243 149.326 379.227 149.202 378.226 149.328C377.226 149.453 376.271 149.823 375.448 150.404C374.829 150.931 374.325 151.579 373.966 152.307C373.606 153.036 373.399 153.83 373.356 154.641C373.314 155.452 373.438 156.264 373.719 157.026C374.001 157.787 374.435 158.484 374.995 159.072C375.555 159.661 376.229 160.129 376.976 160.448C377.723 160.767 378.528 160.931 379.34 160.929C380.152 160.927 380.956 160.759 381.701 160.436C382.446 160.113 383.118 159.642 383.675 159.05C384.552 157.972 385.05 156.635 385.09 155.245C385.09 154.249 384.97 153.691 385.09 153.671C385.345 154.156 385.475 154.697 385.468 155.245C385.548 156.746 385.097 158.227 384.193 159.429C383.508 160.346 382.598 161.071 381.551 161.535C380.505 161.999 379.356 162.186 378.217 162.078C376.825 161.961 375.503 161.416 374.433 160.518C373.363 159.621 372.596 158.414 372.239 157.064C371.881 155.713 371.949 154.286 372.435 152.976C372.92 151.666 373.798 150.538 374.95 149.747C375.877 149.106 376.954 148.712 378.077 148.604C379.199 148.496 380.331 148.677 381.364 149.129C382.742 149.734 383.868 150.797 384.552 152.138C384.842 152.6 385.013 153.127 385.05 153.671Z" fill="#E0E0E0"/>
    <path d="M424.892 143.133C424.892 143.133 424.673 142.595 424.155 141.758C423.422 140.573 422.325 139.657 421.027 139.149C419.999 138.755 418.882 138.653 417.8 138.854C416.718 139.054 415.712 139.55 414.893 140.286C414.075 141.022 413.476 141.97 413.162 143.025C412.848 144.081 412.831 145.202 413.114 146.266C413.397 147.33 413.968 148.295 414.765 149.054C415.562 149.814 416.553 150.339 417.629 150.572C418.705 150.804 419.824 150.734 420.863 150.371C421.902 150.007 422.821 149.364 423.517 148.512C424.395 147.426 424.892 146.082 424.932 144.687C424.932 143.711 424.812 143.153 424.932 143.133C425.19 143.61 425.32 144.145 425.31 144.687C425.395 146.188 424.944 147.671 424.035 148.87C423.359 149.772 422.466 150.488 421.438 150.952C420.41 151.415 419.282 151.61 418.159 151.52C416.769 151.401 415.45 150.856 414.383 149.957C413.316 149.059 412.553 147.852 412.199 146.503C411.846 145.154 411.918 143.728 412.408 142.422C412.897 141.116 413.778 139.993 414.931 139.208C415.863 138.567 416.943 138.174 418.069 138.066C419.194 137.958 420.329 138.138 421.366 138.591C422.748 139.19 423.876 140.254 424.553 141.599C424.789 142.075 424.906 142.602 424.892 143.133Z" fill="#E0E0E0"/>
    <path d="M786.822 890.441C742.099 868.528 724.887 817.489 719.249 770.176C718.313 762.208 716.161 754.239 718.851 746.669C721.54 739.099 729.509 733.143 737.059 735.374C743.314 737.226 746.9 743.621 751.004 748.721C756.52 755.537 763.845 760.66 772.14 763.503C777.539 765.316 783.974 765.953 788.496 762.467C794.711 757.686 794.054 748.203 792.819 740.394L785.826 696.746C784.571 688.937 783.316 680.969 784.611 673.179C785.906 665.39 790.209 657.681 797.321 654.453C804.433 651.226 814.294 654.095 817.023 661.506C818.179 664.573 818.039 667.98 818.756 671.187C819.473 674.395 821.525 677.761 824.733 678.2C827.94 678.638 830.709 675.929 832.701 673.279C839.554 664.155 843.459 653.158 847.025 642.262C850.591 631.365 853.957 620.248 859.954 610.527C865.95 600.805 875.014 592.418 886.11 590.048C897.206 587.677 910.195 592.777 914.717 603.315C919.239 613.854 914.638 626.065 908.98 636.146C900.646 650.97 890.212 664.51 878.002 676.347C875.811 678.478 873.42 680.769 872.922 683.817C872.026 689.276 877.763 693.778 883.162 694.615C889.298 695.671 895.513 694.097 901.729 693.858C907.944 693.619 914.936 695.312 918.124 700.731C922.566 708.221 917.168 717.624 911.43 724.118C899.942 737.097 886.31 748.006 871.129 756.371C865.691 759.339 859.934 762.128 855.91 766.869C851.885 771.611 850.192 779.081 853.917 784.161C857.643 789.241 865.014 789.898 870.87 787.847C876.727 785.795 881.608 781.711 887.007 778.663C897.127 772.945 911.112 771.551 919.419 779.778C924.877 785.197 926.57 793.624 925.395 801.254C924.22 808.883 920.554 815.836 916.51 822.37C902.406 845.22 882.883 864.862 859.296 877.333C835.709 889.804 812.979 895.701 786.842 890.441" fill="#F5F5F5"/>
    <path d="M795.429 857.034C795.086 856.705 794.791 856.33 794.553 855.918L792.262 852.551C790.27 849.603 787.581 845.28 784.293 839.901C777.68 829.144 768.994 814.003 759.651 797.13C750.308 780.257 741.722 765.057 735.407 754.16L727.697 741.291C726.88 739.896 726.203 738.741 725.705 737.784C725.433 737.385 725.219 736.949 725.067 736.49C725.4 736.835 725.694 737.216 725.944 737.625C726.561 738.542 727.319 739.617 728.215 740.992C730.207 743.92 732.916 748.243 736.184 753.622C742.797 764.399 751.463 779.52 760.826 796.413C770.189 813.306 778.755 828.486 785.07 839.363L792.66 852.233L794.653 855.759C794.965 856.148 795.227 856.577 795.429 857.034Z" fill="#E0E0E0"/>
    <path d="M21.4258 169.37C21.4258 169.37 -0.786455 174.768 16.8439 222.858C34.4743 270.948 47.7618 295.312 47.7618 295.312C47.7618 295.312 50.5906 306.329 41.5264 306.886C32.4622 307.444 13.3776 301.986 8.11838 312.325C2.65993 323.063 9.55271 334.657 24.9718 345.952C40.3909 357.248 73.2611 383.245 76.2692 385.616C79.2773 387.986 81.7277 393.206 75.6317 394.58C69.5358 395.955 25.1312 395.218 26.0476 416.294C26.9639 437.371 75.054 461.815 80.2535 464.584C85.4529 467.353 86.4889 469.823 85.692 472.771C84.8952 475.72 69.9741 474.066 57.344 474.365C44.7138 474.664 30.1115 477.254 31.6654 489.386C33.2192 501.518 60.0333 529.826 131.591 545.683L165.218 550.863L187.131 524.547C230.42 465.42 231.895 426.434 224.982 416.294C218.069 406.154 205.479 413.864 195.777 421.972C186.076 430.08 175.975 441.156 173.426 439.483C170.876 437.809 170.019 435.259 172.091 429.741C174.163 424.223 194.223 374.121 180.996 357.666C167.768 341.211 134.898 371.073 129.399 374.081C123.901 377.089 122.347 371.412 123.005 367.746C123.662 364.081 131.212 322.804 135.356 304.137C139.5 285.471 136.989 272.263 125.814 267.761C115.036 263.438 104.279 280.172 97.1069 285.69C89.9352 291.208 84.7955 281.108 84.7955 281.108C84.7955 281.108 78.6996 254.035 60.2126 206.264C41.7256 158.493 20.9876 169.489 20.9876 169.489" fill="#EBEBEB"/>
    <path d="M166.015 559.01C152.568 523.889 129.718 461.037 109.817 407.19C89.9151 353.343 71.8664 304.635 58.5988 269.434C51.965 251.883 46.646 237.56 42.8411 227.779C41.0083 222.878 39.554 219.073 38.5779 216.443C38.0998 215.168 37.7412 214.192 37.4822 213.475C37.2232 212.758 37.1436 212.459 37.1436 212.459C37.1436 212.459 37.3029 212.778 37.5818 213.435L38.7771 216.364L43.2395 227.619C47.0843 237.401 52.5826 251.525 59.2961 269.175C72.743 304.296 90.9112 352.984 110.813 406.831C130.714 460.679 153.444 523.55 166.712 558.751" fill="#E0E0E0"/>
    <path d="M34.5537 321.05C35.3416 321.29 36.1027 321.61 36.8247 322.006C38.2591 322.664 40.311 323.68 42.8011 324.955C47.8213 327.525 54.7539 331.27 62.2045 335.513L81.3688 346.47L87.1858 349.757C87.8939 350.109 88.5619 350.536 89.178 351.032C88.3862 350.821 87.6234 350.513 86.9069 350.115C85.4726 349.458 83.4207 348.442 80.9305 347.127C75.9104 344.498 69.0973 340.693 61.6069 336.429L42.4027 325.612L36.5658 322.365C35.8398 322.018 35.1632 321.576 34.5537 321.05Z" fill="#E0E0E0"/>
    <path d="M91.8878 349.159C91.6288 349.02 98.7009 334.537 107.665 316.787C116.63 299.037 124.14 284.774 124.399 284.913C124.658 285.053 117.586 299.535 108.622 317.285C99.6571 335.035 92.2065 349.279 91.8878 349.159Z" fill="#E0E0E0"/>
    <path d="M118.722 433.227C119.174 432.498 119.716 431.829 120.335 431.235L124.997 426.255C128.981 422.031 134.34 416.294 140.057 409.521C145.775 402.748 150.795 396.652 154.361 392.13L158.604 386.771C159.09 386.085 159.644 385.451 160.258 384.878C159.895 385.633 159.455 386.347 158.943 387.01C158.026 388.344 156.692 390.257 154.959 392.588C151.532 397.229 146.631 403.525 140.874 410.218C135.117 416.912 129.619 422.689 125.535 426.773C123.543 428.765 121.829 430.438 120.634 431.534C120.054 432.16 119.413 432.727 118.722 433.227Z" fill="#E0E0E0"/>
    <path d="M61.249 419.223C62.0299 419.228 62.8067 419.335 63.5599 419.541L69.7554 420.796C74.9549 421.892 82.1465 423.486 90.0752 425.318C98.0039 427.151 105.176 428.845 110.335 430.139L116.451 431.713C117.213 431.869 117.954 432.11 118.662 432.43C117.888 432.425 117.118 432.318 116.371 432.112L110.136 430.956C104.917 429.861 97.725 428.267 89.7963 426.434C81.8676 424.601 74.7158 422.908 69.5363 421.613L63.4204 420.039C62.6663 419.856 61.9372 419.582 61.249 419.223Z" fill="#E0E0E0"/>
    <path d="M75.5127 496.438C76.4988 496.507 77.478 496.653 78.4411 496.876L86.4097 498.45C93.1032 499.824 102.347 501.797 112.507 504.048C122.666 506.299 131.91 508.371 138.544 509.925L146.512 511.917C147.491 512.111 148.451 512.391 149.381 512.753C148.386 512.711 147.397 512.564 146.433 512.315L138.464 510.741C131.771 509.367 122.527 507.394 112.367 505.143C102.207 502.892 92.8841 500.681 86.2304 499.187L78.2618 497.195C77.3218 497.038 76.4004 496.784 75.5127 496.438Z" fill="#E0E0E0"/>
    <path d="M147.607 511.797C148.191 510.906 148.858 510.072 149.6 509.307L155.277 502.772C160.078 497.234 166.652 489.585 173.704 480.859C180.757 472.133 186.932 464.205 191.355 458.388L196.614 451.495C197.206 450.623 197.873 449.803 198.606 449.045C198.127 449.988 197.567 450.888 196.933 451.734C195.777 453.447 194.084 455.878 191.932 458.846C187.649 464.822 181.553 472.791 174.501 481.536C167.449 490.282 160.756 497.792 155.815 503.211C153.345 505.9 151.313 508.072 149.839 509.526C149.152 510.337 148.406 511.096 147.607 511.797Z" fill="#E0E0E0"/>
    <path d="M790.647 73.5279H732.875C729.083 73.627 725.485 75.2264 722.871 77.9752C720.257 80.724 718.839 84.3976 718.93 88.19V98.6686C719.021 102.461 717.604 106.135 714.99 108.883C712.376 111.632 708.778 113.232 704.985 113.331H592.33C588.524 113.237 584.91 111.639 582.278 108.888C579.646 106.137 578.211 102.455 578.286 98.6487V88.0704C578.361 84.2825 576.939 80.6179 574.328 77.8726C571.717 75.1273 568.128 73.523 564.341 73.4083H544.021H493.441C481.375 73.4083 469.803 78.1987 461.267 86.7268C452.732 95.2549 447.931 106.823 447.921 118.889L447.781 848.348C447.781 860.406 452.57 871.972 461.095 880.5C469.62 889.029 481.183 893.823 493.242 893.828L790.747 894.008C796.72 894.013 802.636 892.841 808.156 890.558C813.676 888.276 818.692 884.928 822.918 880.706C827.143 876.485 830.496 871.471 832.783 865.953C835.07 860.435 836.247 854.52 836.247 848.547L836.386 119.068C836.394 113.069 835.215 107.127 832.917 101.585C830.619 96.0432 827.247 91.0109 822.995 86.7779C818.744 82.5449 813.697 79.1949 808.145 76.9209C802.593 74.6468 796.647 73.4937 790.647 73.5279Z" fill="white"/>
    <path d="M790.647 73.5278C790.647 73.5278 791.165 73.5278 792.201 73.5278C793.741 73.5252 795.28 73.6384 796.803 73.8664C802.852 74.6288 808.671 76.6658 813.875 79.8428C817.733 82.1059 821.226 84.9403 824.234 88.2496C827.916 92.2212 830.851 96.8235 832.9 101.836C835.264 107.701 836.422 113.981 836.307 120.303C836.307 127.017 836.307 134.248 836.307 141.738C836.307 202.339 836.406 290.013 836.466 398.325C836.526 506.637 836.466 635.668 836.466 778.822V846.993C836.573 851.701 835.99 856.399 834.733 860.938C833.464 865.488 831.502 869.815 828.916 873.767C826.281 877.702 823.094 881.238 819.453 884.266C811.973 890.323 802.785 893.89 793.177 894.466C783.655 894.744 774.172 894.466 764.61 894.585H706.758H587.888H496.389C485.855 895.123 475.435 892.191 466.726 886.238C458.111 880.199 451.792 871.422 448.797 861.336C447.377 856.338 446.738 851.151 446.905 845.957V830.618C446.905 810.218 446.905 789.945 446.905 769.798C446.905 729.557 446.905 689.927 446.905 650.907C446.905 572.955 446.905 497.772 446.905 426.135C446.905 354.498 446.905 286.447 446.905 222.738C446.905 190.864 446.905 160.146 446.905 130.582C446.905 126.877 446.905 123.192 446.905 119.546C446.905 117.713 447.064 115.861 447.164 114.028C447.263 112.195 447.622 110.382 448.08 108.609C449.723 101.521 453.004 94.9158 457.662 89.3254C462.185 83.9479 467.875 79.6739 474.3 76.8292C480.725 73.9845 487.714 72.6441 494.736 72.9102H534.379H562.787C565.967 72.7406 569.115 73.6151 571.752 75.4004C574.316 77.2041 576.258 79.7584 577.31 82.7115C578.183 85.6209 578.494 88.6701 578.226 91.696V96.2779C578.182 97.727 578.228 99.1775 578.366 100.621C578.791 103.465 580.061 106.116 582.011 108.231C583.823 110.355 586.254 111.86 588.964 112.534C590.3 112.854 591.674 112.995 593.048 112.952H613.666H673.629H700.065C702.157 112.952 704.288 112.952 706.26 112.952C708.237 112.705 710.135 112.025 711.818 110.96C713.437 109.934 714.835 108.594 715.93 107.021C717.024 105.447 717.794 103.671 718.193 101.796C718.521 99.9695 718.642 98.1116 718.552 96.258C718.552 94.4252 718.552 92.6124 718.552 90.8195C718.472 89.0495 718.552 87.276 718.791 85.5204C719.078 83.8136 719.658 82.1692 720.504 80.6596C722.114 77.8028 724.651 75.5817 727.696 74.3645C730.616 73.444 733.692 73.1188 736.74 73.4082H766.243H784.372H790.567H784.372H766.243H736.74C733.832 73.4082 730.764 73.1094 727.855 74.3844C724.86 75.5865 722.375 77.7902 720.823 80.6198C720.016 82.0992 719.458 83.7009 719.169 85.361C718.955 87.092 718.881 88.8376 718.95 90.5804C718.95 92.3733 718.95 94.1862 718.95 96.0189C719.028 97.9055 718.907 99.7951 718.592 101.657C718.183 103.598 717.391 105.438 716.262 107.07C715.133 108.702 713.69 110.092 712.018 111.159C710.257 112.245 708.277 112.925 706.221 113.151C704.109 113.331 702.077 113.151 699.965 113.151H593.048C591.607 113.208 590.166 113.067 588.764 112.733C585.902 112.032 583.336 110.441 581.433 108.191C579.477 105.945 578.223 103.174 577.828 100.222C577.703 98.9114 577.657 97.5943 577.688 96.2779V91.7757C577.936 88.8433 577.631 85.8905 576.792 83.0701C575.801 80.2745 573.962 77.8579 571.532 76.1574C569.026 74.4736 566.041 73.6487 563.026 73.8067H494.975C488.086 73.5471 481.228 74.8661 474.927 77.6628C468.626 80.4596 463.048 84.6599 458.618 89.9429C454.07 95.4207 450.87 101.889 449.275 108.828C448.817 110.562 448.678 112.354 448.359 114.127C448.04 115.9 448.14 117.713 448.12 119.546V130.582C448.12 160.146 448.12 190.864 448.12 222.738C448.12 286.487 448.12 354.518 448.12 426.135V650.907C448.12 689.874 448.12 729.504 448.12 769.798V845.957C447.947 851.029 448.566 856.096 449.953 860.978C452.899 870.792 459.077 879.323 467.483 885.182C475.975 890.941 486.127 893.741 496.369 893.151H527.088H587.868H706.739H764.67C774.212 893.151 783.774 893.31 793.177 893.031C802.529 892.465 811.467 888.981 818.736 883.071C822.288 880.127 825.394 876.685 827.96 872.851C830.473 869.008 832.381 864.802 833.617 860.38C834.836 855.971 835.406 851.407 835.311 846.834C835.311 842.212 835.311 837.63 835.311 833.028C835.311 814.701 835.311 796.579 835.311 778.663C835.311 635.448 835.45 506.438 835.51 398.166C835.57 289.893 835.709 202.18 835.769 141.579C835.769 134.009 835.769 126.857 835.769 120.144C835.899 113.873 834.767 107.641 832.442 101.816C830.424 96.8392 827.529 92.2645 823.896 88.3094C816.788 80.4778 807.158 75.3878 796.683 73.9262C795.166 73.691 793.636 73.5513 792.101 73.5078C791.165 73.5875 790.647 73.5278 790.647 73.5278Z" fill="#263238"/>
    <path d="M521.291 147.197C521.291 147.376 513.76 147.615 504.497 147.675C495.233 147.735 487.703 147.675 487.703 147.476C487.703 147.277 495.213 147.057 504.497 146.978C513.78 146.898 521.291 146.998 521.291 147.197Z" fill="#263238"/>
    <path d="M521.351 155.783C521.351 155.982 513.84 156.201 504.577 156.281C495.313 156.361 487.783 156.281 487.783 156.062C487.783 155.843 495.294 155.644 504.557 155.564C513.82 155.484 521.351 155.584 521.351 155.783Z" fill="#263238"/>
    <path d="M521.43 164.369C521.43 164.568 513.92 164.787 504.636 164.867C495.353 164.947 487.843 164.867 487.843 164.648C487.843 164.429 495.353 164.23 504.636 164.15C513.92 164.07 521.43 164.17 521.43 164.369Z" fill="#263238"/>
    <path d="M631.555 709.656H482.046V859.165H631.555V709.656Z" fill="#F5F5F5"/>
    <path d="M613.906 795.198C601.734 778.205 575.896 766.571 554.899 769.698C537.886 772.228 522.825 780.137 514.578 797.03C514.025 798.133 513.747 799.353 513.766 800.586C513.785 801.819 514.101 803.03 514.687 804.115C515.274 805.2 516.113 806.127 517.135 806.819C518.156 807.51 519.329 807.945 520.554 808.087C548.901 811.47 577.554 811.377 605.877 807.808C610.24 807.25 615.44 806.035 615.738 800.636C615.766 798.667 615.119 796.748 613.906 795.198Z" fill="#E79D47"/>
    <path d="M546.691 794.341C546.592 794.341 545.715 793.564 544.56 791.97C543.016 789.863 541.918 787.464 541.332 784.918C540.834 782.387 540.62 779.808 540.695 777.229C540.606 776.166 540.693 775.095 540.954 774.061C541.285 775.077 541.447 776.14 541.432 777.209C541.566 779.716 541.866 782.211 542.328 784.679C542.92 787.106 543.874 789.429 545.157 791.572C545.784 792.426 546.299 793.357 546.691 794.341Z" fill="#222222"/>
    <path d="M564.72 793.524C564.421 793.524 564.859 788.704 564.222 782.847C563.584 776.99 562.23 772.388 562.489 772.288C565.417 778.964 566.197 786.386 564.72 793.524Z" fill="#222222"/>
    <path d="M583.366 790.755C583.068 790.635 584.482 787.428 584.821 783.205C585.159 778.981 584.382 775.575 584.681 775.495C585.683 777.962 586.086 780.631 585.857 783.283C585.629 785.935 584.775 788.496 583.366 790.755Z" fill="#222222"/>
    <g opacity="0.3">
        <path opacity="0.3" d="M561.412 770.495L561.571 770.793L561.412 770.495Z" fill="black"/>
    </g>
    <path d="M633.289 226.344H482.046V453.069H633.289V226.344Z" fill="#F5F5F5"/>
    <path d="M633.289 470.161H482.046V696.886H633.289V470.161Z" fill="#F5F5F5"/>
    <path d="M798.934 427.35H647.691V639.034H798.934V427.35Z" fill="#F5F5F5"/>
    <path d="M797.699 653.916H646.456V859.145H797.699V653.916Z" fill="#F5F5F5"/>
    <path d="M798.934 226.344H647.691V413.605H798.934V226.344Z" fill="#F5F5F5"/>
    <path d="M581.433 294.137V356.988C581.433 359.738 579.222 362.586 575.158 364.738C569.712 367.295 563.741 368.537 557.727 368.364H557.627C542.786 368.364 533.921 362.507 533.921 356.988V294.017C533.921 287.881 538.443 281.487 542.985 275.152C546.033 270.928 546.77 264.852 546.969 261.207C546.969 260.788 546.969 260.41 546.969 260.051H546.551C545.68 260.117 544.818 259.836 544.153 259.269C543.489 258.701 543.076 257.894 543.005 257.023V254.374C543.071 253.498 543.481 252.684 544.146 252.109C544.81 251.534 545.675 251.245 546.551 251.306H568.843C569.505 251.287 570.159 251.45 570.735 251.776C571.311 252.103 571.787 252.581 572.11 253.159C572.294 253.537 572.389 253.953 572.389 254.374V257.023C572.313 257.892 571.898 258.696 571.235 259.262C570.572 259.829 569.713 260.112 568.843 260.051H568.325C568.325 260.41 568.325 260.788 568.325 261.207C568.464 264.793 569.202 270.869 572.309 275.152C576.851 281.487 581.354 287.881 581.373 294.017L581.433 294.137Z" fill="#FAFAFA"/>
    <path d="M581.433 294.137V293.499C581.379 292.871 581.293 292.246 581.174 291.627C580.641 289.25 579.755 286.967 578.545 284.853C576.601 281.491 574.452 278.251 572.11 275.152C569.369 270.623 567.986 265.403 568.126 260.111V259.752H568.325C569.11 259.871 569.912 259.695 570.574 259.257C571.236 258.819 571.713 258.151 571.911 257.382C571.911 256.585 571.911 255.609 571.911 254.712C571.959 254.301 571.902 253.884 571.745 253.501C571.588 253.118 571.337 252.781 571.014 252.521C570.334 251.974 569.476 251.697 568.604 251.744H559.619H546.79C546.29 251.7 545.787 251.762 545.313 251.927C544.839 252.092 544.405 252.355 544.041 252.7C543.71 253.047 543.489 253.484 543.403 253.955C543.372 254.499 543.372 255.045 543.403 255.589C543.403 256.147 543.403 256.804 543.403 257.262C543.467 257.748 543.683 258.202 544.021 258.557C544.392 258.931 544.843 259.217 545.339 259.393C545.836 259.568 546.366 259.63 546.89 259.573H547.348V260.071C547.325 262.643 547.044 265.205 546.511 267.721C545.994 270.362 544.973 272.878 543.503 275.132C540.152 279.393 537.385 284.083 535.276 289.077C534.826 290.365 534.532 291.703 534.399 293.061C534.399 294.396 534.399 295.87 534.399 297.284V305.93C534.399 311.774 534.399 317.697 534.399 323.7C534.399 334.258 534.399 344.577 534.399 354.538C534.338 355.736 534.391 356.936 534.558 358.124C534.848 359.238 535.417 360.26 536.212 361.092C537.833 362.815 539.803 364.173 541.989 365.076C546.295 366.803 550.877 367.741 555.516 367.846C559.932 368.075 564.358 367.68 568.664 366.67C572.728 365.867 576.459 363.869 579.381 360.933C580.007 360.211 580.482 359.371 580.776 358.463C581 357.537 581.08 356.583 581.015 355.634V349.857C581.015 346.071 581.015 342.446 581.015 338.979C581.015 325.174 581.135 313.998 581.174 306.189C581.174 302.364 581.174 299.376 581.174 297.264C581.174 295.153 581.274 294.157 581.274 294.157C581.378 295.189 581.418 296.227 581.393 297.264C581.393 299.376 581.393 302.364 581.493 306.189C581.493 313.998 581.493 325.174 581.652 338.979C581.652 342.446 581.652 346.071 581.652 349.857V355.634C581.729 356.663 581.648 357.697 581.413 358.702C581.089 359.727 580.56 360.675 579.86 361.491C576.831 364.565 572.941 366.649 568.704 367.467C564.317 368.522 559.803 368.945 555.297 368.722C550.516 368.629 545.791 367.67 541.352 365.893C539.031 364.963 536.938 363.542 535.216 361.73C534.313 360.768 533.662 359.598 533.323 358.323C533.13 357.058 533.064 355.777 533.124 354.498C533.124 344.538 533.124 334.218 533.124 323.66C533.124 317.644 533.124 311.72 533.124 305.89V297.244C533.124 295.79 533.124 294.435 533.124 292.941C533.254 291.501 533.562 290.083 534.041 288.718C536.185 283.64 539.006 278.876 542.427 274.554C544.993 270.161 546.277 265.137 546.133 260.051L546.611 260.529C545.958 260.585 545.3 260.494 544.687 260.263C544.073 260.032 543.519 259.667 543.065 259.195C542.601 258.7 542.302 258.073 542.208 257.402C542.208 256.704 542.208 256.206 542.208 255.609C542.17 255.018 542.17 254.426 542.208 253.836C542.326 253.181 542.638 252.577 543.105 252.103C543.549 251.668 544.081 251.334 544.665 251.121C545.249 250.908 545.872 250.821 546.491 250.868H559.321H568.305C569.354 250.837 570.379 251.183 571.194 251.844C571.591 252.181 571.903 252.608 572.104 253.09C572.304 253.571 572.389 254.093 572.349 254.613C572.349 255.549 572.349 256.386 572.349 257.382C572.13 258.318 571.57 259.139 570.778 259.684C569.986 260.229 569.019 260.46 568.066 260.33L568.405 259.991C568.214 265.163 569.514 270.28 572.15 274.733C574.463 277.879 576.579 281.166 578.485 284.574C579.676 286.73 580.51 289.065 580.955 291.487C581.057 292.113 581.117 292.745 581.134 293.38C581.282 293.61 581.383 293.867 581.433 294.137Z" fill="#263238"/>
    <path d="M567.15 259.971C560.528 260.668 553.851 260.668 547.229 259.971C553.851 259.275 560.528 259.275 567.15 259.971Z" fill="#263238"/>
    <path d="M579.441 302.523C578.374 302.002 577.193 301.756 576.007 301.808C574.82 301.861 573.665 302.209 572.648 302.822C570.612 304.06 568.413 305.006 566.114 305.631C563.309 305.891 560.498 305.188 558.145 303.639C555.797 302.107 553.325 300.774 550.754 299.655C548.202 298.787 545.458 298.653 542.834 299.27C540.21 299.886 537.812 301.228 535.913 303.141V356.929C535.913 356.929 538.881 366.112 559.719 364.678C580.557 363.244 578.903 354.04 578.903 354.04L579.441 302.523Z" fill="#3DB1E3"/>
    <path d="M740.465 730.274V792.608C740.465 795.357 738.274 798.166 734.21 800.317C728.805 802.869 722.872 804.105 716.898 803.923C702.136 803.923 693.331 798.086 693.331 792.608V730.354C693.331 730.354 693.331 730.354 693.331 730.214C693.331 724.118 697.833 717.763 702.335 711.488C705.383 707.285 706.101 701.229 706.32 697.683C706.32 697.264 706.32 696.886 706.32 696.547H705.782C704.914 696.608 704.057 696.324 703.397 695.757C702.737 695.19 702.327 694.386 702.256 693.519V690.89C702.322 690.02 702.731 689.213 703.392 688.645C704.053 688.078 704.913 687.796 705.782 687.861H727.934C728.592 687.84 729.242 687.999 729.815 688.323C730.388 688.646 730.86 689.12 731.182 689.694C731.357 690.068 731.445 690.477 731.441 690.89V693.519C731.374 694.384 730.968 695.189 730.312 695.756C729.655 696.323 728.8 696.608 727.934 696.547H727.516C727.516 696.886 727.516 697.264 727.516 697.683C727.655 701.229 728.373 707.285 731.401 711.488C735.923 717.763 740.385 724.118 740.425 730.214C740.485 730.194 740.465 730.234 740.465 730.274Z" fill="#FAFAFA"/>
    <path d="M740.465 730.274C740.479 730.062 740.479 729.849 740.465 729.637C740.422 729.008 740.342 728.383 740.226 727.764C739.693 725.409 738.814 723.147 737.617 721.05C735.687 717.702 733.545 714.482 731.202 711.409C728.472 706.912 727.089 701.727 727.218 696.468V696.089H727.556C728.336 696.206 729.132 696.029 729.788 695.59C730.444 695.152 730.913 694.484 731.102 693.718C731.102 692.941 731.102 691.965 731.102 691.069C731.14 690.661 731.077 690.251 730.921 689.873C730.765 689.495 730.52 689.16 730.206 688.897C729.528 688.36 728.679 688.084 727.815 688.121H718.89H706.141C705.644 688.077 705.144 688.139 704.673 688.304C704.202 688.469 703.772 688.732 703.412 689.077C703.077 689.421 702.855 689.859 702.774 690.332C702.743 690.869 702.743 691.408 702.774 691.945C702.774 692.483 702.774 693.141 702.774 693.599C702.837 694.085 703.054 694.539 703.392 694.894C703.759 695.261 704.203 695.541 704.693 695.714C705.182 695.886 705.704 695.946 706.221 695.89H706.699V696.388C706.675 698.94 706.395 701.482 705.862 703.978C705.351 706.599 704.336 709.095 702.874 711.329C699.537 715.589 696.789 720.279 694.706 725.274C694.251 726.56 693.963 727.899 693.849 729.258C693.849 730.573 693.849 732.047 693.849 733.442C693.849 736.27 693.849 739.139 693.849 742.048V759.658C693.849 770.157 693.849 780.416 693.849 790.317C693.789 791.501 693.842 792.689 694.009 793.863C694.303 794.975 694.871 795.996 695.662 796.831C697.274 798.547 699.229 799.905 701.4 800.815C705.656 802.488 710.175 803.391 714.747 803.485C719.137 803.714 723.537 803.318 727.815 802.31C731.854 801.524 735.561 799.539 738.453 796.612C739.079 795.898 739.553 795.064 739.848 794.162C740.064 793.242 740.137 792.295 740.067 791.353C740.067 789.361 740.067 787.488 740.067 785.615C740.067 781.85 740.067 778.264 740.067 774.818C740.067 761.092 740.186 749.976 740.226 742.227C740.226 738.422 740.226 735.454 740.326 733.382C740.425 731.31 740.326 730.294 740.326 730.294C740.445 731.319 740.485 732.351 740.445 733.382C740.445 735.374 740.445 738.422 740.445 742.227C740.445 749.976 740.545 761.092 740.625 774.818C740.625 778.264 740.625 781.85 740.625 785.615C740.625 787.488 740.625 789.401 740.625 791.353C740.703 792.376 740.615 793.405 740.366 794.401C740.045 795.417 739.523 796.359 738.832 797.17C735.828 800.234 731.966 802.318 727.755 803.146C723.396 804.2 718.908 804.623 714.428 804.401C709.701 804.303 705.031 803.351 700.643 801.592C698.443 800.647 696.462 799.256 694.826 797.509C693.933 796.551 693.289 795.387 692.953 794.122C692.761 792.87 692.694 791.602 692.754 790.337V733.402C692.754 731.967 692.754 730.613 692.754 729.139C692.886 727.699 693.194 726.28 693.67 724.915C695.799 719.879 698.6 715.155 701.997 710.871C704.536 706.504 705.812 701.517 705.683 696.468L706.141 696.926C705.496 696.979 704.846 696.889 704.24 696.662C703.634 696.434 703.086 696.075 702.635 695.611C702.169 695.12 701.876 694.49 701.798 693.818C701.798 693.141 701.798 692.643 701.798 692.045C701.759 691.455 701.759 690.862 701.798 690.272C701.924 689.626 702.235 689.031 702.694 688.559C703.137 688.127 703.665 687.794 704.246 687.581C704.826 687.368 705.445 687.281 706.061 687.324H718.811H727.736C728.779 687.289 729.799 687.636 730.604 688.3C731 688.635 731.311 689.058 731.512 689.536C731.712 690.014 731.797 690.532 731.76 691.049C731.76 691.985 731.76 692.822 731.76 693.798C731.518 694.717 730.955 695.52 730.173 696.06C729.391 696.601 728.442 696.844 727.496 696.746L727.835 696.408C727.65 701.536 728.936 706.609 731.54 711.03C733.854 714.147 735.957 717.414 737.836 720.811C739.023 722.955 739.857 725.276 740.306 727.684C740.413 728.303 740.466 728.929 740.465 729.557C740.525 730.055 740.505 730.274 740.465 730.274Z" fill="#263238"/>
    <path d="M726.282 696.308C719.726 696.999 713.115 696.999 706.56 696.308C713.115 695.617 719.726 695.617 726.282 696.308Z" fill="#263238"/>
    <path d="M738.493 738.601C737.434 738.077 736.261 737.827 735.08 737.876C733.9 737.925 732.751 738.27 731.739 738.88C729.722 740.113 727.543 741.058 725.265 741.689C722.46 741.941 719.653 741.239 717.296 739.697C714.965 738.161 712.505 736.828 709.945 735.713C707.412 734.855 704.687 734.727 702.084 735.343C699.481 735.96 697.104 737.296 695.224 739.199V792.708C695.224 792.708 698.152 801.851 718.85 800.417C739.549 798.983 737.935 789.839 737.935 789.839L738.493 738.601Z" fill="#4CBE42"/>
    <g opacity="0.5">
        <path opacity="0.5" d="M738.493 738.601C737.434 738.077 736.261 737.827 735.08 737.876C733.9 737.925 732.751 738.27 731.739 738.88C729.722 740.113 727.543 741.058 725.265 741.689C722.46 741.941 719.653 741.239 717.296 739.697C714.965 738.161 712.505 736.828 709.945 735.713C707.412 734.855 704.687 734.727 702.084 735.343C699.481 735.96 697.104 737.296 695.224 739.199V792.708C695.224 792.708 698.152 801.851 718.85 800.417C739.549 798.983 737.935 789.839 737.935 789.839L738.493 738.601Z" fill="#3DB1E3"/>
    </g>
    <path d="M772.897 503.748C772.215 503.471 771.475 503.369 770.744 503.452C770.013 503.536 769.314 503.802 768.713 504.227C768.414 504.426 768.096 504.665 767.797 504.904C757.684 512.382 745.391 516.324 732.815 516.12C708.332 516.12 688.052 502.394 684.426 484.465V481.078C684.457 480.739 684.417 480.397 684.308 480.075C684.199 479.752 684.024 479.456 683.795 479.205C683.565 478.953 683.286 478.753 682.974 478.615C682.663 478.478 682.326 478.407 681.986 478.407C681.645 478.407 681.309 478.478 680.997 478.615C680.686 478.753 680.406 478.953 680.177 479.205C679.947 479.456 679.772 479.752 679.664 480.075C679.555 480.397 679.515 480.739 679.545 481.078V490.561C679.561 490.785 679.608 491.006 679.685 491.218C678.002 494.938 677.113 498.968 677.075 503.051C677.075 523.749 698.989 540.563 726.102 540.563C748.832 540.563 767.936 528.75 773.514 512.673C773.582 512.603 773.624 512.512 773.634 512.414C774.279 511.132 774.639 509.725 774.69 508.291C774.838 507.442 774.749 506.569 774.432 505.767C774.116 504.966 773.585 504.267 772.897 503.748Z" fill="#F1D368"/>
    <g opacity="0.3">
        <path opacity="0.3" d="M682.594 493.708C682.594 493.708 705.683 546.818 768.255 509.645C768.255 509.645 752.139 526.379 731.122 530.443C712.077 534.089 683.869 523.351 682.594 493.708Z" fill="black"/>
    </g>
    <path d="M774.61 506.418C774.232 507.334 772.738 507.593 771.283 506.976C769.829 506.358 768.953 505.103 769.291 504.187C769.63 503.27 771.164 503.031 772.618 503.649C774.072 504.266 775.009 505.501 774.61 506.418Z" fill="#263238"/>
    <path d="M797.939 164.01C797.774 164.039 797.605 164.039 797.441 164.01H796.026H790.787L773.196 164.17H773.057V164.03C772.917 163.094 772.778 162.038 772.619 161.122C771.403 152.596 770.328 144.986 769.611 140.005H769.71H763.734C763.595 140.023 763.454 140.023 763.315 140.005H763.734H764.989H769.67H769.77V140.105C770.507 145.065 771.643 152.675 772.918 161.182C773.057 162.178 773.196 163.174 773.336 164.09L773.176 163.951H790.767H797.919L797.939 164.01Z" fill="#263238"/>
    <path d="M772.439 159.03C772.439 159.03 772.439 159.03 772.578 159.03H772.937H774.351H779.651L797.898 158.851L797.739 158.99C798.257 155.902 798.835 152.575 799.412 149.149C799.711 147.376 800.01 145.623 800.309 143.969L800.468 144.169H778.953H770.407C770.307 144.169 770.268 144.169 770.268 144.169H770.865H772.578H778.953L800.468 143.989H800.668V144.189L799.791 149.348C799.193 152.795 798.616 156.121 798.098 159.309V159.428H797.958H779.71H772.499L772.439 159.03Z" fill="#263238"/>
    <path d="M779.491 170.823C779.491 170.823 779.491 170.604 779.352 170.226C779.2 169.709 778.877 169.259 778.435 168.951C778.118 168.726 777.751 168.582 777.366 168.53C776.981 168.478 776.589 168.52 776.224 168.652C775.78 168.819 775.398 169.117 775.129 169.507C774.859 169.897 774.714 170.359 774.714 170.833C774.714 171.307 774.859 171.77 775.129 172.16C775.398 172.55 775.78 172.848 776.224 173.015C776.589 173.155 776.984 173.199 777.371 173.143C777.758 173.087 778.125 172.933 778.435 172.696C778.866 172.381 779.181 171.933 779.332 171.421C779.451 171.043 779.451 170.823 779.471 170.823C779.523 171.026 779.523 171.238 779.471 171.441C779.347 172.014 779.031 172.527 778.575 172.895C778.233 173.162 777.83 173.339 777.402 173.412C776.975 173.485 776.536 173.451 776.124 173.314C775.609 173.138 775.161 172.805 774.844 172.362C774.527 171.919 774.356 171.388 774.356 170.843C774.356 170.299 774.527 169.767 774.844 169.324C775.161 168.881 775.609 168.549 776.124 168.373C776.537 168.227 776.979 168.187 777.41 168.257C777.842 168.327 778.249 168.503 778.595 168.771C779.053 169.129 779.37 169.637 779.491 170.206C779.548 170.408 779.548 170.621 779.491 170.823Z" fill="#263238"/>
    <path d="M744.668 790.715H538.742C523.471 790.715 511.091 803.095 511.091 818.366V831.634C511.091 846.905 523.471 859.284 538.742 859.284H744.668C759.939 859.284 772.319 846.905 772.319 831.634V818.366C772.319 803.095 759.939 790.715 744.668 790.715Z" fill="#4CBE42"/>
    <g opacity="0.3">
        <path opacity="0.3" d="M744.668 790.715H538.742C523.471 790.715 511.091 803.095 511.091 818.366V831.634C511.091 846.905 523.471 859.284 538.742 859.284H744.668C759.939 859.284 772.319 846.905 772.319 831.634V818.366C772.319 803.095 759.939 790.715 744.668 790.715Z" fill="black"/>
    </g>
    <path d="M734.529 790.715H528.602C513.331 790.715 500.951 803.095 500.951 818.366V831.634C500.951 846.905 513.331 859.284 528.602 859.284H734.529C749.8 859.284 762.18 846.905 762.18 831.634V818.366C762.18 803.095 749.8 790.715 734.529 790.715Z" fill="#4CBE42"/>
    <path d="M623.707 821.235C623.707 824.741 621.157 826.873 616.953 826.873H612.969V831.793H610.658V815.577H616.993C621.157 815.577 623.707 817.709 623.707 821.235ZM621.396 821.235C621.396 818.904 619.842 817.589 616.874 817.589H612.889V824.86H616.874C619.842 824.86 621.396 823.546 621.396 821.235Z" fill="white"/>
    <path d="M636.636 827.729H628.089L626.316 831.714H623.926L631.277 815.498H633.568L640.919 831.714H638.488L636.636 827.729ZM635.819 825.877L632.333 817.908L628.826 825.877H635.819Z" fill="white"/>
    <path d="M648.488 826.175V831.793H646.197V826.135L639.763 815.577H642.233L647.413 824.123L652.632 815.577H654.923L648.488 826.175Z" fill="white"/>
    <path d="M562.707 547.317C563.298 543.497 563.127 539.598 562.204 535.844C561.282 532.091 559.626 528.557 557.331 525.446C555.037 522.335 552.15 519.709 548.837 517.719C545.523 515.728 541.849 514.413 538.025 513.849C537.603 513.684 537.141 513.649 536.699 513.748C536.257 513.848 535.855 514.077 535.544 514.407C535.234 514.737 535.029 515.152 534.956 515.599C534.883 516.047 534.946 516.505 535.136 516.917C535.833 524.365 538.874 531.401 543.82 537.014C548.767 542.626 555.365 546.526 562.668 548.153" fill="#168550"/>
    <path d="M521.65 601.403C529.041 616.643 539.579 626.902 552.827 627.4C555.456 627.4 557.448 625.767 559.958 625.608C561.427 625.941 562.842 626.477 564.162 627.201C564.863 627.498 565.612 627.667 566.373 627.699C579.959 626.962 591.554 617.4 599.363 601.403C610.22 578.992 606.873 554.927 591.872 547.616C589.898 546.631 587.838 545.831 585.717 545.225C583.294 544.548 580.78 544.253 578.266 544.349C572.414 544.72 566.659 546.018 561.214 548.193L560.476 548.472C548.285 543.074 538.563 543.054 529.1 547.616C514.1 554.927 510.773 578.992 521.65 601.403Z" fill="#E77070"/>
    <path d="M521.908 578.713C521.205 577.308 520.785 575.778 520.673 574.21C520.228 570.42 520.685 566.578 522.008 562.998C523.33 559.418 525.481 556.202 528.283 553.612C529.376 552.482 530.692 551.594 532.148 551.002C532.247 551.141 530.753 552.118 528.781 554.13C526.24 556.76 524.272 559.888 523 563.316C521.728 566.745 521.18 570.4 521.39 574.051C521.59 576.939 522.088 578.653 521.908 578.713Z" fill="#FAFAFA"/>
    <path d="M524.657 589.351C524.378 589.351 523.9 588.355 523.582 587C523.263 585.645 523.243 584.47 523.582 584.39C523.92 584.311 524.339 585.386 524.657 586.761C524.976 588.136 524.936 589.291 524.657 589.351Z" fill="#FAFAFA"/>
    <path d="M593.725 510.641C593.725 510.841 590.896 511.916 586.672 514.446C584.21 515.94 581.859 517.611 579.64 519.447C576.987 521.743 574.534 524.263 572.309 526.977C570.066 529.719 568.066 532.652 566.333 535.742C564.969 538.274 563.797 540.904 562.827 543.611C561.173 548.273 560.695 551.301 560.496 551.261C560.481 550.536 560.562 549.813 560.735 549.109C560.843 548.269 561.009 547.437 561.233 546.619C561.476 545.529 561.776 544.452 562.129 543.392C563.007 540.594 564.134 537.881 565.496 535.284C568.848 528.908 573.456 523.277 579.042 518.729C581.303 516.894 583.715 515.254 586.254 513.829C587.228 513.269 588.232 512.763 589.262 512.315C590.019 511.938 590.797 511.605 591.593 511.319C592.275 511.011 592.99 510.784 593.725 510.641Z" fill="#263238"/>
    <path d="M778.216 302.165C766.044 285.192 740.207 273.558 719.209 276.685C702.197 279.215 687.136 287.124 678.889 304.017C678.341 305.121 678.066 306.339 678.087 307.571C678.108 308.803 678.425 310.011 679.011 311.095C679.597 312.178 680.434 313.105 681.453 313.798C682.472 314.49 683.642 314.928 684.865 315.074C713.211 318.457 741.865 318.364 770.188 314.795C774.571 314.237 779.75 313.022 780.049 307.623C780.077 305.648 779.43 303.723 778.216 302.165Z" fill="#E79D47"/>
    <path d="M711.001 301.328C710.902 301.328 710.025 300.551 708.87 298.957C707.33 296.848 706.233 294.449 705.642 291.905C705.144 289.374 704.93 286.795 705.005 284.216C704.929 283.146 705.017 282.071 705.264 281.028C705.602 282.042 705.764 283.107 705.742 284.176C705.884 286.69 706.19 289.192 706.658 291.666C707.232 294.099 708.187 296.425 709.487 298.559C710.108 299.413 710.617 300.344 711.001 301.328Z" fill="#263238"/>
    <path d="M729.05 300.491C728.732 300.491 729.17 295.671 728.552 289.814C727.935 283.957 726.56 279.355 726.819 279.255C728.43 282.514 729.365 286.065 729.568 289.694C730.114 293.292 729.938 296.962 729.05 300.491Z" fill="#263238"/>
    <path d="M747.617 297.742C747.338 297.623 748.732 294.395 749.071 290.172C749.41 285.949 748.633 282.542 748.932 282.482C749.933 284.949 750.336 287.618 750.108 290.27C749.879 292.923 749.026 295.483 747.617 297.742Z" fill="#263238"/>
    <g opacity="0.3">
        <path opacity="0.3" d="M725.704 277.562L725.863 277.86L725.704 277.562Z" fill="black"/>
    </g>
    <g opacity="0.3">
        <path opacity="0.3" d="M725.883 277.781C724.023 281.19 723.309 285.107 723.847 288.953C724.386 292.799 726.147 296.369 728.872 299.137C730.634 291.897 729.565 284.258 725.883 277.781Z" fill="black"/>
    </g>
    <g opacity="0.3">
        <path opacity="0.3" d="M708.551 298.34C706.619 294.835 705.464 290.955 705.165 286.965C705.186 285.203 704.93 283.448 704.408 281.765C702.313 284.371 701.281 287.673 701.519 291.009C701.803 294.513 703.447 297.767 706.101 300.073C706.497 300.443 706.975 300.716 707.495 300.87C707.758 300.934 708.034 300.917 708.286 300.821C708.539 300.725 708.756 300.554 708.91 300.332C709.268 299.714 708.91 298.957 708.551 298.34Z" fill="black"/>
    </g>
    <g opacity="0.3">
        <path opacity="0.3" d="M749.311 284.056C749.242 283.36 749.039 282.684 748.713 282.064C748.546 281.763 748.295 281.516 747.991 281.354C747.688 281.191 747.343 281.12 747 281.148C746.064 281.307 745.605 282.363 745.326 283.279C743.759 287.21 743.285 291.492 743.952 295.67C744.171 296.607 744.789 297.663 745.765 297.663C746.741 297.663 747 296.866 747.338 296.208C749.249 292.463 749.939 288.214 749.311 284.056Z" fill="black"/>
    </g>
    <path d="M517.486 411.612V413.485H516.111V411.632C514.64 411.595 513.214 411.109 512.027 410.238L512.764 408.565C513.743 409.283 514.901 409.717 516.111 409.82V406.493C514.259 406.035 512.266 405.437 512.266 403.106C512.266 401.413 513.502 399.919 516.111 399.68V397.688H517.486V399.54C518.681 399.598 519.843 399.947 520.872 400.556L520.175 402.249C519.351 401.765 518.435 401.46 517.486 401.353V404.72C519.339 405.158 521.351 405.756 521.351 408.066C521.351 409.879 520.096 411.334 517.486 411.612ZM516.111 404.461V401.492C514.936 401.672 514.418 402.289 514.418 403.006C514.418 403.724 515.135 404.182 516.111 404.461ZM519.219 408.325C519.219 407.509 518.482 407.11 517.486 406.831V409.78C518.701 409.6 519.219 409.043 519.219 408.325Z" fill="#263238"/>
    <path d="M531.331 399.799V411.473H529.16V401.612H526.689V399.799H531.331Z" fill="#263238"/>
    <path d="M536.312 410.198C536.283 410.703 536.155 411.198 535.933 411.653L535.077 414.003H533.722L534.399 411.433C534.157 411.334 533.952 411.162 533.813 410.94C533.673 410.719 533.607 410.459 533.622 410.198C533.599 410.008 533.617 409.815 533.674 409.632C533.73 409.449 533.826 409.28 533.953 409.136C534.08 408.993 534.236 408.878 534.411 408.799C534.586 408.72 534.775 408.68 534.967 408.68C535.159 408.68 535.348 408.72 535.523 408.799C535.698 408.878 535.854 408.993 535.981 409.136C536.108 409.28 536.203 409.449 536.26 409.632C536.317 409.815 536.335 410.008 536.312 410.198Z" fill="#263238"/>
    <path d="M546.212 407.887C546.212 409.879 544.738 411.652 541.591 411.652C540.023 411.677 538.488 411.203 537.208 410.298L538.124 408.604C539.111 409.365 540.325 409.772 541.571 409.76C543.105 409.76 544.041 409.083 544.041 407.967C544.041 406.851 543.304 406.154 540.893 406.154H538.085L538.682 399.799H545.535V401.612H540.435L540.176 404.321H541.292C544.838 404.321 546.212 405.815 546.212 407.887Z" fill="#263238"/>
    <path d="M547.468 405.636C547.468 401.791 549.579 399.66 552.349 399.66C555.118 399.66 557.229 401.831 557.229 405.636C557.229 409.441 555.138 411.612 552.349 411.612C549.56 411.612 547.468 409.481 547.468 405.636ZM555.058 405.636C555.058 402.807 553.942 401.512 552.349 401.512C550.755 401.512 549.659 402.807 549.659 405.636C549.659 408.465 550.755 409.76 552.349 409.76C553.942 409.76 555.058 408.445 555.058 405.636Z" fill="#263238"/>
    <path d="M605.519 426.354C605.519 426.653 584.103 426.872 557.708 426.872C531.312 426.872 509.896 426.653 509.896 426.354C509.896 426.055 531.312 425.836 557.708 425.836C584.103 425.836 605.519 426.075 605.519 426.354Z" fill="#263238"/>
    <path d="M554.38 434.143C554.38 434.442 544.419 434.661 532.168 434.661C519.916 434.661 509.936 434.442 509.936 434.143C509.936 433.845 519.896 433.625 532.168 433.625C544.439 433.625 554.38 433.865 554.38 434.143Z" fill="#263238"/>
    <path d="M685.164 363.841V365.714H683.869V363.861C682.435 363.801 681.051 363.323 679.885 362.487L680.622 360.793C681.592 361.53 682.754 361.973 683.969 362.068V358.721C682.116 358.283 680.124 357.666 680.124 355.355C680.124 353.661 681.359 352.167 683.969 351.908V350.036H685.343V351.888C686.541 351.93 687.707 352.28 688.73 352.904L688.033 354.578C687.209 354.094 686.293 353.788 685.343 353.681V357.048C687.196 357.506 689.208 358.084 689.208 360.415C689.029 362.108 687.853 363.582 685.164 363.841ZM683.789 356.709V353.741C682.594 353.92 682.096 354.518 682.096 355.255C682.096 355.992 682.813 356.43 683.869 356.709H683.789ZM686.897 360.554C686.897 359.737 686.16 359.359 685.164 359.08V362.028C686.379 361.849 686.897 361.232 686.897 360.554Z" fill="#263238"/>
    <path d="M703.431 361.889V363.722H694.805V362.267L699.447 357.865C700.583 356.769 700.782 356.092 700.782 355.434C700.782 354.379 700.045 353.761 698.61 353.761C698.092 353.734 697.574 353.829 697.1 354.041C696.625 354.252 696.208 354.573 695.881 354.976L694.367 353.801C694.897 353.146 695.573 352.624 696.341 352.278C697.109 351.932 697.948 351.771 698.79 351.809C701.34 351.809 702.973 353.084 702.973 355.156C702.95 355.882 702.758 356.594 702.412 357.234C702.067 357.873 701.577 358.424 700.981 358.841L697.853 361.829L703.431 361.889Z" fill="#263238"/>
    <path d="M707.515 362.447C707.484 362.945 707.355 363.432 707.137 363.881L706.28 366.232H704.925L705.603 363.682C705.359 363.584 705.151 363.412 705.008 363.191C704.866 362.97 704.795 362.71 704.806 362.447C704.806 362.088 704.948 361.743 705.203 361.489C705.457 361.235 705.801 361.092 706.16 361.092C706.52 361.092 706.864 361.235 707.118 361.489C707.372 361.743 707.515 362.088 707.515 362.447Z" fill="#263238"/>
    <path d="M717.556 361.889V363.722H708.93V362.267L713.572 357.865C714.708 356.769 714.907 356.092 714.907 355.434C714.907 354.379 714.17 353.761 712.735 353.761C712.217 353.734 711.699 353.829 711.225 354.041C710.75 354.252 710.333 354.572 710.006 354.976L708.492 353.801C709.024 353.143 709.703 352.62 710.475 352.273C711.247 351.927 712.09 351.768 712.935 351.809C715.465 351.809 717.098 353.084 717.098 355.155C717.075 355.882 716.883 356.594 716.537 357.233C716.192 357.873 715.702 358.424 715.106 358.841L711.978 361.829L717.556 361.889Z" fill="#263238"/>
    <path d="M727.297 360.136C727.297 362.128 725.823 363.881 722.676 363.881C721.107 363.914 719.569 363.439 718.293 362.526L719.209 360.853C720.193 361.604 721.399 362.003 722.636 361.988C724.19 361.988 725.106 361.311 725.106 360.215C725.106 359.12 724.389 358.383 721.978 358.383H719.15L719.767 352.028H726.62V353.861H721.6L721.341 356.55H722.457C725.923 356.55 727.297 358.064 727.297 360.136Z" fill="#263238"/>
    <path d="M773.197 378.603C773.197 378.882 751.781 379.121 725.385 379.121C698.99 379.121 677.574 378.882 677.574 378.603C677.574 378.324 699.01 378.085 725.385 378.085C751.761 378.085 773.197 378.324 773.197 378.603Z" fill="#263238"/>
    <path d="M722.098 386.392C722.098 386.671 712.137 386.91 699.866 386.91C687.594 386.91 677.653 386.671 677.653 386.392C677.653 386.113 687.614 385.874 699.866 385.874C712.117 385.874 722.098 386.113 722.098 386.392Z" fill="#263238"/>
    <path d="M513.661 654.075V655.948H512.286V654.075C510.815 654.034 509.391 653.548 508.202 652.68L508.959 651.007C509.926 651.734 511.08 652.17 512.286 652.262V648.935C510.433 648.477 508.461 647.879 508.461 645.569C508.461 643.855 509.696 642.381 512.286 642.122V640.23H513.661V642.122C514.855 642.18 516.018 642.529 517.047 643.138L516.37 644.831C515.538 644.35 514.616 644.045 513.661 643.935V647.302C515.513 647.76 517.525 648.338 517.525 650.648C517.525 652.322 516.29 653.796 513.661 654.075ZM512.286 646.923V643.955C511.111 644.154 510.613 644.752 510.613 645.489C510.613 646.226 511.33 646.624 512.286 646.903V646.923ZM515.394 650.788C515.394 649.971 514.657 649.593 513.661 649.294V652.262C514.876 652.083 515.394 651.485 515.394 650.768V650.788Z" fill="#263238"/>
    <path d="M523.463 648.098C523.463 644.254 525.575 642.122 528.344 642.122C531.113 642.122 533.224 644.274 533.224 648.098C533.224 651.923 531.133 654.075 528.344 654.075C525.555 654.075 523.463 651.923 523.463 648.098ZM531.053 648.098C531.053 645.29 529.937 643.975 528.344 643.975C526.75 643.975 525.654 645.29 525.654 648.098C525.654 650.907 526.75 652.222 528.344 652.222C529.937 652.222 531.053 650.907 531.053 648.098Z" fill="#263238"/>
    <path d="M537.168 652.66C537.137 653.159 537.008 653.646 536.79 654.095L535.933 656.445H534.598L535.256 653.895C535.017 653.792 534.815 653.618 534.677 653.398C534.538 653.177 534.469 652.92 534.479 652.66C534.456 652.47 534.473 652.277 534.53 652.094C534.587 651.911 534.682 651.742 534.809 651.598C534.936 651.455 535.092 651.34 535.267 651.261C535.442 651.182 535.632 651.142 535.823 651.142C536.015 651.142 536.205 651.182 536.38 651.261C536.554 651.34 536.71 651.455 536.838 651.598C536.965 651.742 537.06 651.911 537.117 652.094C537.174 652.277 537.191 652.47 537.168 652.66Z" fill="#263238"/>
    <path d="M547.069 650.33C547.069 652.322 545.595 654.095 542.447 654.095C540.878 654.128 539.341 653.653 538.064 652.74L538.981 651.047C539.962 651.805 541.168 652.211 542.407 652.202C543.961 652.202 544.878 651.525 544.878 650.409C544.878 649.294 544.16 648.597 541.75 648.597H538.921L539.539 642.242H546.411V644.114H541.391L541.132 646.824H542.248C545.694 646.764 547.069 648.258 547.069 650.33Z" fill="#263238"/>
    <path d="M548.404 648.098C548.404 644.254 550.516 642.122 553.285 642.122C556.054 642.122 558.166 644.274 558.166 648.098C558.166 651.923 556.074 654.075 553.285 654.075C550.496 654.075 548.404 651.923 548.404 648.098ZM555.994 648.098C555.994 645.29 554.879 643.975 553.285 643.975C551.691 643.975 550.596 645.29 550.596 648.098C550.596 650.907 551.691 652.222 553.285 652.222C554.879 652.222 555.915 650.907 555.915 648.098H555.994Z" fill="#263238"/>
    <path d="M601.713 668.817C601.713 669.096 580.278 669.335 553.902 669.335C527.526 669.335 506.091 669.096 506.091 668.817C506.091 668.538 527.506 668.299 553.902 668.299C580.298 668.299 601.713 668.518 601.713 668.817Z" fill="#263238"/>
    <path d="M550.595 676.606C550.595 676.885 540.635 677.124 528.383 677.124C516.132 677.124 506.171 676.885 506.171 676.606C506.171 676.327 516.132 676.088 528.383 676.088C540.635 676.088 550.595 676.307 550.595 676.606Z" fill="#263238"/>
    <path d="M677.395 590.845V592.717H676.04V590.865C674.563 590.827 673.131 590.34 671.937 589.47L672.694 587.797C673.666 588.527 674.828 588.962 676.04 589.052V585.725C674.188 585.267 672.196 584.669 672.196 582.358C672.196 580.645 673.431 579.171 676.04 578.912V577.019H677.395V578.872C678.59 578.93 679.752 579.279 680.782 579.888L680.104 581.581C679.274 581.097 678.351 580.791 677.395 580.685V584.052C679.248 584.51 681.26 585.088 681.26 587.398C681.26 589.112 680.025 590.586 677.395 590.845ZM676.04 583.693V580.725C674.845 580.924 674.347 581.522 674.347 582.259C674.347 582.996 675.064 583.414 676.04 583.693ZM679.128 587.558C679.128 586.741 678.391 586.362 677.395 586.064V589.032C678.61 588.833 679.128 588.335 679.128 587.558Z" fill="#263238"/>
    <path d="M691.24 579.031V590.705H689.069V580.844H686.599V579.031H691.24Z" fill="#263238"/>
    <path d="M696.24 589.45C696.209 589.948 696.08 590.436 695.862 590.885L695.005 593.235H693.651L694.308 590.685C694.069 590.581 693.868 590.408 693.729 590.188C693.59 589.967 693.522 589.71 693.531 589.45C693.531 589.091 693.674 588.746 693.928 588.492C694.182 588.238 694.527 588.096 694.886 588.096C695.245 588.096 695.59 588.238 695.844 588.492C696.098 588.746 696.24 589.091 696.24 589.45Z" fill="#263238"/>
    <path d="M697.436 584.868C697.436 581.024 699.547 578.892 702.316 578.892C705.085 578.892 707.197 581.044 707.197 584.868C707.197 588.693 705.205 590.845 702.316 590.845C699.428 590.845 697.436 588.713 697.436 584.868ZM705.026 584.868C705.026 582.06 703.91 580.745 702.316 580.745C700.723 580.745 699.627 582.06 699.627 584.868C699.627 587.677 700.723 588.992 702.316 588.992C703.91 588.992 705.026 587.697 705.026 584.868Z" fill="#263238"/>
    <path d="M708.671 584.868C708.671 581.024 710.783 578.892 713.552 578.892C716.321 578.892 718.432 581.044 718.432 584.868C718.432 588.693 716.341 590.845 713.552 590.845C710.763 590.845 708.671 588.713 708.671 584.868ZM716.261 584.868C716.261 582.06 715.145 580.745 713.552 580.745C711.958 580.745 710.862 582.06 710.862 584.868C710.862 587.677 711.958 588.992 713.552 588.992C715.145 588.992 716.261 587.697 716.261 584.868Z" fill="#263238"/>
    <path d="M765.546 605.607C765.546 605.885 744.111 606.124 717.735 606.124C691.359 606.124 669.924 605.885 669.924 605.607C669.924 605.328 691.339 605.069 717.735 605.069C744.131 605.069 765.546 605.308 765.546 605.607Z" fill="#263238"/>
    <path d="M714.329 613.396C714.329 613.674 704.368 613.913 692.117 613.913C679.865 613.913 669.904 613.674 669.904 613.396C669.904 613.117 679.865 612.858 692.117 612.858C704.368 612.858 714.329 613.097 714.329 613.396Z" fill="#263238"/>
    <path d="M693.351 159.09C693.351 159.369 670.263 159.608 641.795 159.608C613.328 159.608 590.219 159.369 590.219 159.09C590.219 158.811 613.308 158.572 641.795 158.572C670.283 158.572 693.351 158.791 693.351 159.09Z" fill="#4CBE42"/>
    <path d="M21.6843 776.893C18.6024 777.019 15.6517 778.175 13.3042 780.175C10.9567 782.176 9.348 784.906 8.73545 787.929C7.44088 792.788 6.42326 797.717 5.68749 802.691C5.68749 802.691 -6.00633 813.21 5.68749 816.019C17.3813 818.827 21.6245 803.07 21.6245 803.07L23.4175 776.813L21.6843 776.893Z" fill="#F6AD96"/>
    <path d="M138.782 575.588C138.782 575.588 175.318 452.892 179.043 447.613C185.179 438.868 244.325 412.571 244.325 412.571L260.262 380.219L358.494 364.422L382.858 395.778L451.328 446.099L446.547 619.654L443.997 740.835L456.966 892.118L145.994 891.54L160.058 859.666L174.82 584.512L138.782 575.588Z" fill="#4CBE42"/>
    <path d="M180.916 559.033C180.825 558.709 180.785 558.373 180.796 558.037C180.796 557.26 180.796 556.324 180.637 555.188C180.637 552.718 180.418 549.212 180.338 544.73C180.179 535.885 180.179 523.673 180.557 510.186C180.936 496.699 181.653 484.508 182.33 475.682C182.649 471.28 182.968 467.714 183.227 465.264L183.525 462.435C183.556 462.105 183.616 461.778 183.705 461.459C183.761 461.788 183.761 462.125 183.705 462.455C183.705 463.212 183.705 464.148 183.585 465.284C183.446 467.913 183.247 471.439 183.008 475.742C182.529 484.567 181.932 496.739 181.553 510.226C181.175 523.713 181.055 535.885 181.035 544.73C181.035 549.033 181.035 552.559 181.035 555.188C181.035 556.324 181.035 557.181 181.035 558.037C181.043 558.373 181.003 558.709 180.916 559.033Z" fill="#263238"/>
    <g opacity="0.3">
        <path opacity="0.3" d="M251.357 523.792C251.282 522.418 251.683 521.06 252.493 519.948C253.857 518.276 255.727 517.093 257.821 516.575C259.916 516.058 262.121 516.235 264.107 517.079C269.306 519.569 271.896 525.545 272.952 531.223C274.087 537.438 273.928 543.853 275.103 550.069C276.279 556.284 279.088 562.619 284.566 565.826C291.319 569.811 300.184 568.018 307.276 571.364C317.835 576.325 320.285 590.051 320.823 601.725C321.819 623.817 320.823 645.93 319.906 668.023L313.811 809.106L308.252 879.886L279.645 892.038L241.795 643.32L251.357 523.792Z" fill="black"/>
    </g>
    <path d="M259.545 503.632C259.33 503.815 259.079 503.951 258.808 504.03C258.03 504.309 257.195 504.391 256.377 504.269C254.88 504.004 253.484 503.335 252.34 502.334C251.195 501.334 250.346 500.04 249.883 498.592C249.268 496.608 249.072 494.519 249.305 492.456C249.569 490.146 249.955 487.852 250.461 485.583C251.417 480.762 252.453 475.503 253.568 469.985C255.8 458.928 257.871 448.928 259.425 441.696L261.417 433.15C261.61 432.095 261.883 431.056 262.234 430.042C262.193 431.116 262.053 432.183 261.816 433.23C261.398 435.441 260.88 438.35 260.242 441.856C258.868 449.107 256.895 459.128 254.664 470.184C253.529 475.702 252.453 480.961 251.477 485.762C250.501 490.563 249.485 494.906 250.66 498.373C251.062 499.726 251.816 500.948 252.845 501.914C253.874 502.88 255.141 503.555 256.517 503.871C257.531 504.016 258.566 503.934 259.545 503.632Z" fill="#263238"/>
    <path d="M269.625 457.474C269.625 457.574 268.808 457.574 267.453 457.992C265.553 458.62 263.882 459.799 262.652 461.379C261.728 462.5 261.107 463.84 260.849 465.27C260.59 466.7 260.704 468.173 261.178 469.547C261.699 471.251 262.72 472.76 264.11 473.876C265.499 474.992 267.192 475.665 268.968 475.807C270.745 475.949 272.523 475.553 274.072 474.671C275.621 473.789 276.868 472.462 277.653 470.861C278.339 469.582 278.685 468.148 278.657 466.697C278.629 465.246 278.228 463.826 277.494 462.574C276.537 460.815 275.072 459.385 273.29 458.47C272.015 457.833 271.298 457.713 271.298 457.614C271.298 457.514 271.497 457.614 271.876 457.614C272.439 457.69 272.989 457.844 273.509 458.072C275.473 458.897 277.116 460.337 278.191 462.176C278.953 463.444 279.422 464.867 279.565 466.339C279.722 468.048 279.376 469.765 278.569 471.28C277.715 473.07 276.338 474.558 274.619 475.549C272.901 476.54 270.922 476.986 268.945 476.828C266.968 476.671 265.085 475.917 263.545 474.667C262.006 473.416 260.881 471.728 260.321 469.825C259.761 468.201 259.692 466.449 260.122 464.785C260.583 463.047 261.5 461.463 262.778 460.199C264.057 458.934 265.65 458.035 267.394 457.594C267.946 457.447 268.516 457.38 269.087 457.395C269.269 457.389 269.451 457.416 269.625 457.474Z" fill="#263238"/>
    <path d="M303.073 584.313L123.462 551.802L39.6133 570.209L227.232 603.976L303.073 584.313Z" fill="#F1D368"/>
    <g opacity="0.6">
        <path opacity="0.6" d="M303.073 584.313L123.462 551.802L39.6133 570.209L227.232 603.976L303.073 584.313Z" fill="black"/>
    </g>
    <path d="M188.227 662.644C190.657 629.535 199.741 545.447 206.554 512.955C208.546 503.234 210.937 493.293 216.515 485.066C222.093 476.838 231.934 470.822 241.735 472.336C250.501 473.69 257.553 480.802 261.099 488.93C264.563 497.153 266.11 506.058 265.621 514.967C263.928 555.129 260.461 600.111 260.501 637.344" fill="#E79D47"/>
    <path d="M249.046 583.795C246.867 584.614 244.646 585.319 242.393 585.907C231.671 589.22 221.411 593.872 211.853 599.752C209.927 601.065 207.932 602.276 205.877 603.378C205.877 603.378 206.335 602.88 207.291 602.123C208.248 601.366 209.662 600.35 211.455 599.135C216.162 596.009 221.112 593.264 226.256 590.927C231.403 588.588 236.733 586.675 242.194 585.21C244.285 584.652 245.998 584.253 247.174 584.034C247.785 583.874 248.415 583.794 249.046 583.795Z" fill="#263238"/>
    <path d="M252.035 545.586C252.035 545.746 249.346 546.343 245.043 547.678C233.811 551.13 223.319 556.642 214.105 563.934C210.579 566.723 208.527 568.635 208.407 568.516C208.779 567.969 209.214 567.468 209.702 567.022C210.579 566.105 211.913 564.85 213.686 563.376C218.195 559.52 223.119 556.179 228.368 553.415C233.619 550.657 239.157 548.486 244.883 546.941C246.608 546.458 248.357 546.066 250.122 545.765C250.747 545.608 251.392 545.547 252.035 545.586Z" fill="#263238"/>
    <path d="M248.01 514.828C248.01 515.007 245.879 515.106 242.512 515.724C238.135 516.536 233.891 517.95 229.902 519.927C225.923 521.925 222.236 524.459 218.945 527.458C216.415 529.769 214.961 531.442 214.961 531.302C214.961 531.163 215.2 530.804 215.778 530.027C216.597 528.927 217.496 527.888 218.467 526.92C224.914 520.429 233.312 516.23 242.373 514.967C243.732 514.778 245.104 514.685 246.476 514.688C247.473 514.708 247.991 514.748 248.01 514.828Z" fill="#263238"/>
    <path d="M225.679 610.609C225.67 610.669 225.67 610.729 225.679 610.789V725.735C225.679 730.775 221.695 735.974 214.144 739.919C206.594 743.863 195.817 746.552 182.27 746.572H182.091C154.898 746.572 138.643 735.835 138.643 725.735V610.789C138.647 610.729 138.647 610.669 138.643 610.609C138.643 610.609 138.643 610.47 138.643 610.39C138.643 599.155 146.95 587.421 155.277 575.827C160.855 568.097 162.19 556.941 162.449 550.407C162.449 549.61 162.449 548.913 162.449 548.276H161.692C160.9 548.343 160.103 548.253 159.347 548.009C158.59 547.765 157.89 547.373 157.288 546.856C156.685 546.338 156.191 545.706 155.836 544.995C155.48 544.285 155.27 543.51 155.217 542.717V537.857C155.265 537.06 155.471 536.282 155.825 535.567C156.178 534.851 156.671 534.214 157.274 533.693C157.877 533.171 158.579 532.775 159.338 532.529C160.097 532.283 160.897 532.191 161.692 532.259H202.53C203.744 532.219 204.945 532.517 206 533.118C207.054 533.719 207.922 534.601 208.507 535.665C208.833 536.35 209.003 537.098 209.005 537.857V542.717C208.952 543.512 208.741 544.288 208.384 545C208.028 545.712 207.532 546.346 206.927 546.863C206.322 547.381 205.62 547.773 204.861 548.015C204.103 548.258 203.304 548.346 202.51 548.276H201.773C201.773 548.913 201.773 549.61 201.773 550.407C202.032 556.941 203.367 568.097 208.965 575.827C217.272 587.421 225.539 599.155 225.599 610.39C225.679 610.47 225.679 610.569 225.679 610.609Z" fill="#FAFAFA"/>
    <path d="M225.679 610.609C225.706 610.218 225.706 609.825 225.679 609.434C225.606 608.285 225.467 607.141 225.261 606.008C224.304 601.637 222.7 597.433 220.5 593.537C216.963 587.351 213.037 581.396 208.746 575.707C206.209 571.953 204.399 567.757 203.407 563.336C202.226 558.409 201.611 553.363 201.574 548.296V547.937H201.933C203.443 548.038 204.949 547.684 206.256 546.921C206.913 546.541 207.478 546.021 207.912 545.397C208.346 544.774 208.637 544.064 208.766 543.315C208.766 541.781 208.766 540.048 208.766 538.395C208.835 537.597 208.71 536.794 208.401 536.055C208.092 535.316 207.609 534.663 206.993 534.151C205.691 533.095 204.046 532.556 202.371 532.637H185.836H162.309C161.344 532.552 160.371 532.675 159.456 532.998C158.542 533.321 157.708 533.837 157.01 534.51C156.345 535.201 155.901 536.075 155.735 537.02C155.684 538.035 155.684 539.053 155.735 540.068C155.735 541.084 155.735 542.24 155.735 543.176C155.876 544.144 156.307 545.047 156.97 545.766C157.682 546.49 158.548 547.045 159.503 547.39C160.458 547.735 161.478 547.861 162.489 547.758H162.967V548.256C162.934 552.943 162.427 557.615 161.453 562.201C160.486 566.972 158.62 571.515 155.954 575.588C153.146 579.572 150.257 583.556 147.588 587.78C144.825 591.975 142.552 596.474 140.814 601.187C139.969 603.58 139.427 606.07 139.201 608.597C139.061 611.088 139.201 613.757 139.201 616.347V664.756C139.201 684.099 139.201 703.005 139.201 721.253C139.093 723.482 139.199 725.717 139.519 727.926C140.079 730.029 141.154 731.96 142.647 733.544C145.65 736.736 149.296 739.255 153.345 740.935C157.319 742.599 161.46 743.834 165.696 744.62C169.845 745.405 174.047 745.878 178.266 746.035C186.392 746.448 194.535 745.704 202.451 743.823C206.232 742.902 209.9 741.565 213.388 739.839C216.765 738.229 219.786 735.96 222.273 733.165C223.435 731.794 224.321 730.211 224.882 728.504C225.301 726.777 225.448 724.996 225.321 723.225V712.627C225.321 705.714 225.321 699.06 225.321 692.705C225.321 667.365 225.44 646.886 225.48 632.623C225.52 618.359 225.659 610.59 225.659 610.59C225.72 611.072 225.72 611.561 225.659 612.044C225.659 613.04 225.659 614.454 225.659 616.287C225.659 620.052 225.659 625.551 225.659 632.623C225.659 646.846 225.659 667.365 225.819 692.705C225.819 699.04 225.819 705.694 225.819 712.627V725.934C225.793 726.885 225.646 727.829 225.38 728.743C224.793 730.563 223.852 732.249 222.611 733.703C220.064 736.604 216.952 738.956 213.467 740.616C209.924 742.343 206.204 743.679 202.371 744.6C194.47 746.492 186.343 747.27 178.227 746.911C173.96 746.763 169.711 746.29 165.517 745.497C161.206 744.695 156.993 743.439 152.946 741.752C148.753 740.063 144.975 737.487 141.87 734.201C140.264 732.524 139.106 730.468 138.503 728.225C138.148 725.939 138.028 723.623 138.145 721.312V616.387C138.145 613.757 138.145 611.207 138.145 608.558C138.386 605.949 138.948 603.379 139.818 600.908C141.583 596.115 143.896 591.543 146.711 587.282C149.38 583.038 152.309 579.034 155.118 575.07C157.694 571.086 159.499 566.652 160.437 562.001C161.397 557.494 161.911 552.904 161.971 548.296L162.429 548.754C161.291 548.855 160.145 548.702 159.073 548.305C158.002 547.909 157.032 547.28 156.233 546.463C155.438 545.611 154.929 544.531 154.779 543.375C154.779 542.2 154.779 541.224 154.779 540.148C154.721 539.079 154.721 538.009 154.779 536.94C154.986 535.821 155.52 534.788 156.313 533.972C157.1 533.211 158.04 532.625 159.07 532.254C160.1 531.883 161.198 531.735 162.289 531.821H185.817H202.252C204.103 531.752 205.917 532.361 207.352 533.534C208.046 534.119 208.59 534.862 208.936 535.701C209.283 536.54 209.423 537.45 209.344 538.355C209.344 540.068 209.344 541.642 209.344 543.375C209.204 544.225 208.878 545.035 208.389 545.744C207.9 546.454 207.26 547.046 206.515 547.479C205.092 548.304 203.453 548.679 201.813 548.555L202.132 548.236C202.311 558.734 204.343 568.456 209.085 575.349C213.348 581.066 217.234 587.055 220.719 593.278C222.907 597.215 224.467 601.469 225.34 605.888C225.532 607.068 225.646 608.259 225.679 609.454C225.748 609.836 225.748 610.227 225.679 610.609Z" fill="#263238"/>
    <path d="M199.542 547.997C193.501 548.522 187.435 548.695 181.374 548.515C175.306 548.694 169.233 548.521 163.186 547.997C169.234 547.484 175.306 547.311 181.374 547.479C187.435 547.311 193.5 547.483 199.542 547.997Z" fill="#263238"/>
    <path d="M222.053 625.969C218.388 623.578 213.547 624.634 209.602 626.507C205.658 628.379 201.933 630.989 197.65 631.666C192.61 632.483 187.53 630.471 183.047 627.941C178.565 625.411 174.322 622.283 169.501 620.55C164.825 618.97 159.8 618.733 154.996 619.867C150.193 621.001 145.804 623.46 142.328 626.965V725.655C142.328 725.655 147.747 742.489 185.916 739.859C224.085 737.229 221.077 720.356 221.077 720.356L222.053 625.969Z" fill="#4CBE42"/>
    <path d="M120.933 558.794C121.497 555.151 121.334 551.433 120.453 547.854C119.571 544.274 117.989 540.905 115.798 537.941C113.606 534.977 110.849 532.477 107.685 530.586C104.521 528.694 101.014 527.448 97.3658 526.92C96.6973 526.748 95.9887 526.825 95.3737 527.139C94.5569 527.697 94.537 528.872 94.6167 529.848C95.284 536.968 98.1875 543.693 102.911 549.061C107.635 554.428 113.936 558.163 120.913 559.73" fill="#168550"/>
    <path d="M81.7472 610.41C88.7993 624.953 98.9393 634.754 111.51 635.232C114.02 635.232 115.912 633.658 118.303 633.519C119.693 633.843 121.033 634.352 122.287 635.033C122.917 635.311 123.592 635.473 124.279 635.511C137.268 634.814 148.324 625.69 155.775 610.41C166.154 589.035 162.946 566.065 148.623 559.073C146.743 558.136 144.783 557.369 142.766 556.782C140.449 556.159 138.053 555.877 135.654 555.945C130.117 556.34 124.673 557.59 119.518 559.651L118.821 559.91C107.167 554.77 97.8834 554.73 88.9388 559.093C74.5357 566.065 71.3482 589.035 81.7472 610.41Z" fill="#E77070"/>
    <path d="M81.9859 588.756C81.3061 587.415 80.8998 585.952 80.7906 584.453C80.3669 580.834 80.8047 577.167 82.0684 573.75C83.332 570.333 85.3858 567.263 88.0619 564.79C89.1177 563.72 90.3778 562.874 91.7673 562.3C91.7673 562.46 90.4525 563.376 88.56 565.308C86.1415 567.838 84.2639 570.834 83.0418 574.114C81.8291 577.398 81.3135 580.899 81.5277 584.393C81.6871 587.063 82.2449 588.696 81.9859 588.756Z" fill="#FAFAFA"/>
    <path d="M84.6361 598.916C84.3572 598.916 83.8791 597.979 83.5803 596.664C83.2815 595.35 83.2615 594.254 83.5803 594.194C83.899 594.134 84.3174 595.131 84.6361 596.445C84.9548 597.76 84.915 598.856 84.6361 598.916Z" fill="#FAFAFA"/>
    <path d="M150.536 523.792C150.536 523.972 147.866 525.008 143.822 527.438C141.469 528.854 139.231 530.453 137.129 532.219C134.57 534.403 132.204 536.802 130.057 539.391C127.952 542.017 126.072 544.816 124.439 547.758C123.129 550.17 122.01 552.681 121.092 555.268C119.518 559.691 119.1 562.599 118.841 562.559C118.841 561.889 118.915 561.221 119.06 560.567C119.158 559.766 119.317 558.973 119.538 558.197C119.768 557.146 120.054 556.109 120.395 555.089C121.233 552.422 122.306 549.836 123.602 547.359C126.786 541.265 131.186 535.888 136.531 531.562C138.701 529.792 141.028 528.225 143.483 526.88C144.499 526.263 145.476 525.844 146.352 525.426C147.074 525.065 147.82 524.752 148.583 524.49C149.204 524.181 149.86 523.947 150.536 523.792Z" fill="#263238"/>
    <path d="M39.6138 570.209L17.043 854.925L227.412 905.784C227.412 905.784 300.802 880.902 301.798 879.209C302.794 877.515 303.073 584.373 303.073 584.373L227.233 604.035L39.6138 570.209Z" fill="#F1D368"/>
    <g opacity="0.4">
        <path opacity="0.4" d="M39.6138 570.209L17.043 854.925L227.412 905.784C227.412 905.784 300.802 880.902 301.798 879.209C302.794 877.515 303.073 584.373 303.073 584.373L227.233 604.035L39.6138 570.209Z" fill="black"/>
    </g>
    <path d="M369.57 238.559L357.836 404.723C356.914 417.798 351.068 430.037 341.478 438.972C331.889 447.907 319.268 452.875 306.16 452.872C299.064 452.888 292.04 451.444 285.524 448.632C279.009 445.82 273.141 441.699 268.284 436.525C263.427 431.351 259.686 425.234 257.291 418.553C254.897 411.873 253.901 404.772 254.365 397.69C255.401 381.873 256.357 368.904 256.357 368.904C256.357 368.904 216.136 362.649 215.638 322.428C215.359 299.199 219.363 246.488 222.79 206.107C223.914 192.918 229.957 180.633 239.718 171.691C249.478 162.75 262.244 157.805 275.481 157.838H299.766C309.697 158.421 319.41 160.989 328.332 165.39C337.254 169.791 345.204 175.935 351.711 183.46C358.218 190.985 363.151 199.738 366.219 209.201C369.286 218.665 370.426 228.647 369.57 238.559Z" fill="#F6AD96"/>
    <path d="M256.437 368.904C256.437 368.904 281.797 370.398 308.81 353.425C308.81 353.425 295.861 382.69 255.72 379.064L256.437 368.904Z" fill="#EF918B"/>
    <path d="M230.42 247.583C231.137 248.34 235.48 245.113 241.675 245.133C247.871 245.153 252.373 248.241 253.05 247.484C253.369 247.145 252.652 245.81 250.68 244.356C248.002 242.513 244.826 241.533 241.576 241.547C238.359 241.551 235.225 242.561 232.611 244.436C230.719 245.91 230.081 247.265 230.42 247.583Z" fill="#263238"/>
    <path d="M297.396 254.695C297.389 256.19 297.963 257.63 298.995 258.711C300.028 259.792 301.44 260.43 302.934 260.492C303.668 260.555 304.408 260.469 305.109 260.241C305.81 260.013 306.458 259.647 307.015 259.164C307.572 258.681 308.027 258.092 308.352 257.43C308.678 256.769 308.867 256.049 308.91 255.313C308.927 253.815 308.356 252.37 307.322 251.286C306.287 250.203 304.869 249.568 303.372 249.516C302.637 249.45 301.896 249.534 301.194 249.761C300.492 249.988 299.842 250.354 299.285 250.837C298.727 251.321 298.272 251.911 297.948 252.574C297.623 253.237 297.435 253.958 297.396 254.695Z" fill="#263238"/>
    <path d="M235.998 254.695C235.987 256.192 236.559 257.634 237.592 258.716C238.626 259.798 240.041 260.435 241.536 260.492C242.271 260.557 243.012 260.474 243.714 260.247C244.417 260.02 245.066 259.654 245.623 259.17C246.181 258.687 246.636 258.096 246.96 257.434C247.285 256.771 247.473 256.05 247.513 255.313C247.535 253.816 246.969 252.371 245.937 251.288C244.905 250.204 243.49 249.568 241.995 249.516C241.257 249.445 240.513 249.524 239.808 249.749C239.102 249.973 238.449 250.339 237.889 250.823C237.328 251.307 236.872 251.9 236.547 252.565C236.222 253.231 236.035 253.955 235.998 254.695Z" fill="#263238"/>
    <path d="M290.562 247.603C291.279 248.34 295.642 245.113 301.818 245.133C307.993 245.153 312.516 248.241 313.193 247.484C313.512 247.145 312.794 245.81 310.822 244.356C308.145 242.513 304.968 241.533 301.718 241.547C298.502 241.551 295.367 242.561 292.754 244.436C290.861 245.91 290.224 247.265 290.562 247.603Z" fill="#263238"/>
    <path d="M268.131 293.422C268.131 293.084 264.326 292.426 258.171 291.629C256.597 291.45 255.103 291.151 254.844 290.075C254.7 288.446 255.062 286.811 255.88 285.394L260.561 273.441C267.036 256.329 271.737 242.264 271.04 242.005C270.343 241.746 264.526 255.412 258.051 272.525C256.391 276.682 254.897 280.686 253.569 284.537C252.59 286.447 252.302 288.635 252.752 290.733C252.984 291.291 253.339 291.789 253.791 292.189C254.243 292.589 254.78 292.882 255.362 293.044C256.232 293.282 257.129 293.409 258.031 293.422C264.227 293.761 268.111 293.781 268.131 293.422Z" fill="#263238"/>
    <path d="M286.319 297.705C285.323 297.705 285.303 304.359 279.566 309.12C273.829 313.882 266.677 313.105 266.617 314.081C266.617 314.499 268.211 315.376 271.239 315.475C275.168 315.525 278.99 314.193 282.036 311.71C284.953 309.311 286.83 305.878 287.276 302.128C287.535 299.339 286.778 297.666 286.319 297.705Z" fill="#263238"/>
    <path d="M288.968 227.503C289.586 229.176 295.742 228.379 302.913 229.256C310.085 230.132 316.041 232.104 316.998 230.61C317.436 229.893 316.4 228.299 314.049 226.626C310.906 224.604 307.329 223.354 303.61 222.98C299.901 222.53 296.137 222.974 292.634 224.275C290.044 225.391 288.709 226.706 288.968 227.503Z" fill="#263238"/>
    <path d="M231.277 229.893C232.373 231.308 236.636 229.893 241.756 229.774C246.875 229.654 251.198 230.73 252.214 229.256C252.633 228.539 251.955 227.124 250.063 225.809C247.521 224.21 244.559 223.405 241.557 223.497C238.555 223.589 235.649 224.575 233.209 226.327C231.397 227.762 230.799 229.216 231.277 229.893Z" fill="#263238"/>
    <path d="M356.004 268.799C356.701 268.501 383.655 260.632 382.779 288.123C381.902 315.615 354.47 309.06 354.45 308.284C354.43 307.507 356.004 268.799 356.004 268.799Z" fill="#F6AD96"/>
    <path d="M363.136 298.064C363.255 298.064 363.614 298.422 364.411 298.821C365.531 299.341 366.81 299.405 367.977 299C370.925 298.024 373.515 293.502 373.794 288.541C373.952 286.189 373.57 283.831 372.678 281.649C372.448 280.78 372.011 279.98 371.403 279.317C370.796 278.654 370.037 278.149 369.192 277.844C368.645 277.68 368.057 277.713 367.533 277.939C367.008 278.165 366.58 278.569 366.323 279.079C365.925 279.836 366.084 280.393 365.945 280.433C365.805 280.473 365.367 279.955 365.626 278.82C365.809 278.146 366.208 277.551 366.761 277.126C367.536 276.579 368.495 276.358 369.431 276.509C370.553 276.772 371.589 277.315 372.443 278.089C373.297 278.863 373.94 279.841 374.312 280.931C375.399 283.356 375.884 286.008 375.726 288.661C375.367 294.199 372.359 299.279 368.355 300.315C367.609 300.504 366.829 300.523 366.074 300.371C365.319 300.219 364.608 299.901 363.992 299.438C363.136 298.681 363.136 298.123 363.136 298.064Z" fill="#EF918B"/>
    <path d="M371.304 267.803C367.12 266.787 359.869 270.672 358.076 274.596C356.283 278.521 355.884 282.963 354.092 286.888C352.299 290.812 348.274 294.378 344.131 293.382C342.709 292.934 341.431 292.117 340.427 291.015C339.422 289.913 338.728 288.565 338.413 287.107C337.835 284.18 337.835 281.169 338.413 278.242C340.027 265.393 342.716 252.663 343.234 239.734C343.752 226.805 341.92 213.358 335.126 202.342C328.333 191.325 315.862 183.217 302.953 184.253C294.407 184.951 286.578 189.413 278.092 190.588C273.042 191.257 267.906 190.767 263.073 189.155C258.241 187.543 253.839 184.851 250.202 181.285C249.265 180.369 244.982 177.52 244.982 177.52C244.982 176.863 245.6 171.125 247.871 169.033C264.705 153.455 295.065 149.112 317.317 154.71C339.569 160.308 360.426 176.006 369.989 196.864C379.551 217.721 376.722 246.667 371.443 267.803" fill="#263238"/>
    <path d="M218.467 198.856C222.073 207.203 231.277 212.064 240.381 212.98C249.485 213.896 258.469 211.546 267.215 208.996C275.96 206.446 299.447 202.621 308.551 202.9C309.906 202.9 311.54 202.9 312.277 201.764C313.233 200.23 311.699 198.378 310.284 197.282C298.332 187.879 269.306 182.122 254.086 181.484C238.867 180.847 222.91 187.461 214.662 200.191" fill="#263238"/>
    <path d="M222.432 199.892C222.432 199.892 328.015 166.025 373.595 257.245C373.595 257.245 380.408 234.395 380.408 222.144C380.408 213.976 375.527 165.248 325.405 149.929C325.405 149.929 249.883 121.123 222.432 199.892Z" fill="#0E5640"/>
    <g opacity="0.4">
        <path opacity="0.4" d="M222.432 199.892C231.209 190.649 243.243 185.189 255.979 184.672C287.116 183.277 345.366 200.788 373.515 257.245C373.515 257.245 380.328 234.395 380.328 222.144C380.328 213.976 375.447 165.248 325.325 149.929C325.405 149.929 249.883 121.123 222.432 199.892Z" fill="black"/>
    </g>
    <path d="M369.112 246.547C353.107 222.719 332.135 202.636 307.635 187.68C283.45 172.52 243.349 157.539 215.718 150.188C207.43 147.997 198.785 146.064 190.318 147.538C181.851 149.013 173.564 154.63 171.472 162.957C168.843 173.376 187.409 189.453 196.035 195.768C204.551 201.443 213.369 206.651 222.451 211.366C222.451 211.366 222.212 192.043 253.15 188.058C295.204 182.64 369.112 246.547 369.112 246.547Z" fill="#0E5640"/>
    <path d="M282.653 167.699C282.653 167.699 267.434 159.292 252.174 157.34C254.715 155.336 257.499 153.663 260.461 152.359C268.751 153.733 276.767 156.423 284.207 160.328L282.653 167.699Z" fill="#FAFAFA"/>
    <path d="M415.21 441.796C415.21 441.796 386.364 474.766 389.552 520.645C389.99 527 390.309 535.865 391.086 542.2C395.946 581.564 403.477 618.1 403.477 618.1H406.226L506.809 593.258C506.809 593.258 491.648 505.943 488.162 494.349C477.026 457.235 438.837 436.816 438.837 436.816L415.21 441.796Z" fill="#4CBE42"/>
    <path d="M301.798 879.209C301.798 879.209 301.798 878.711 301.798 877.735C301.798 876.759 301.798 875.264 301.798 873.352C301.798 869.487 301.798 863.83 301.798 856.518C301.798 841.836 301.798 820.66 301.918 794.125C302.097 741.154 302.356 667.445 302.655 584.314L303.292 584.812L265.043 594.772L227.472 604.514L227.85 604.016C228.368 645.691 228.229 685.016 228.029 720.555C227.83 756.095 227.631 787.83 227.472 814.365C227.312 840.9 227.472 862.176 227.472 876.918C227.472 884.249 227.472 889.927 227.472 893.811V898.194C227.472 899.17 227.472 899.668 227.472 899.668C227.472 899.668 227.472 899.17 227.472 898.194C227.472 897.218 227.472 895.724 227.472 893.811C227.472 889.827 227.332 884.249 227.213 876.918C227.033 862.236 226.914 840.9 226.934 814.365C226.954 787.83 227.153 756.075 227.272 720.555C227.392 685.036 227.512 645.691 226.974 604.036V603.617L227.372 603.518L264.924 593.776L303.193 583.816L303.85 583.636V584.314C303.412 667.445 303.033 741.174 302.774 794.125C302.595 820.58 302.436 841.836 302.336 856.518C302.336 863.83 302.216 869.487 302.177 873.352C302.177 875.344 302.177 876.719 302.177 877.735C302.177 878.751 301.798 879.209 301.798 879.209Z" fill="#263238"/>
    <path d="M255.222 382.51C255.222 382.51 251.238 420.779 264.107 426.736C278.63 433.429 293.112 426.875 301.957 421.198C325.684 406.057 360.944 364.003 360.944 364.003L384.85 395.041C384.85 395.041 324.648 467.395 312.556 466.917C304.587 466.618 292.335 458.948 284.666 453.55C280.468 450.618 276.729 447.08 273.57 443.051L263.151 429.804C250.142 436.218 239.624 444.446 232.352 454.984C232.352 454.984 228.886 428.19 235.121 416.038C241.357 403.886 253.788 382.909 253.788 382.909L255.222 382.51Z" fill="#4CBE42"/>
    <path d="M234.384 417.074C234.336 417.303 234.255 417.524 234.145 417.731C233.966 418.209 233.707 418.827 233.368 419.604C232.541 422.08 231.947 424.627 231.595 427.214C230.438 436.741 230.438 446.373 231.595 455.901L230.878 455.761C234.229 450.1 238.607 445.114 243.787 441.059C249.651 436.292 256.056 432.233 262.871 428.967L263.19 428.807L263.429 429.086C267.633 433.967 272.075 439.047 276.757 444.207C281.439 449.612 286.711 454.476 292.474 458.709C295.228 460.659 298.221 462.246 301.379 463.431C302.934 463.997 304.533 464.43 306.16 464.726C307.754 464.984 309.373 465.044 310.981 464.905C317.456 464.307 322.934 460.602 327.476 456.697L368.693 412.751L380.646 400.141L383.854 396.814L384.69 395.957L385.009 395.698L384.77 396.017L383.973 396.933L380.885 400.36L369.132 413.169L328.213 457.355C325.853 459.456 323.276 461.3 320.524 462.853C317.643 464.487 314.455 465.504 311.161 465.841C309.46 465.98 307.748 465.92 306.061 465.662C304.371 465.365 302.711 464.918 301.1 464.327C297.846 463.11 294.76 461.483 291.917 459.486C286.07 455.213 280.724 450.295 275.98 444.824C271.278 439.645 266.836 434.545 262.652 429.644L263.23 429.764C256.481 433.004 250.13 437.015 244.305 441.717C239.25 445.688 234.963 450.548 231.655 456.06L231.057 457.096L230.937 455.92C229.824 446.33 229.932 436.638 231.256 427.074C231.665 424.484 232.332 421.941 233.248 419.484C233.607 418.648 233.926 418.05 234.125 417.632C234.199 417.44 234.286 417.254 234.384 417.074Z" fill="#263238"/>
    <g opacity="0.3">
        <path opacity="0.3" d="M235.859 449.326C235.456 450.33 235.382 451.436 235.647 452.484C235.912 453.533 236.502 454.471 237.333 455.163C238.163 455.482 239.064 455.566 239.938 455.408C240.813 455.25 241.627 454.855 242.293 454.267C243.598 453.072 244.725 451.697 245.64 450.183C248.022 446.749 250.887 443.676 254.146 441.059C257.354 438.469 261.756 436.278 265.442 438.111C267.746 439.633 269.494 441.864 270.422 444.465C275.422 454.685 281.419 465.084 291.2 470.921C300.981 476.758 313.552 477.017 324.329 473.212C335.043 469.041 344.47 462.122 351.661 453.151C358.796 444.207 365.123 434.647 370.567 424.584C375.069 416.795 379.631 408.767 381.025 399.882C379.79 400.579 376.882 405.061 375.646 405.758C375.646 405.758 329.21 456.896 324.847 459.546C320.484 462.195 308.452 479.846 274.366 441.617L263.091 429.385C263.091 429.385 241.616 439.804 235.859 449.326Z" fill="black"/>
    </g>
    <path d="M360.232 559.656L309.173 551.825L306.808 567.243L357.867 575.074L360.232 559.656Z" fill="white"/>
    <path d="M498.361 595.19L418.676 614.454L427.88 689.617L275.282 804.225C269.186 805.081 262.931 806.058 259.465 806.934C251.118 808.926 236.376 829.943 232.213 832.035L202.47 854.984C202.47 854.984 199.86 865.423 213.427 863.331C226.993 861.24 242.113 850.821 243.687 850.821C245.261 850.821 250.002 853.988 247.671 860.782C245.679 866.758 237.512 887.317 237.512 887.317L227.411 905.844C227.411 905.844 271.079 907.278 283.191 891.082C291.478 880.085 317.057 848.908 317.057 848.908C317.057 848.908 496.688 760.537 507.465 742.03C522.147 716.85 498.361 595.19 498.361 595.19Z" fill="#F6AD96"/>
    <path d="M461.627 722.009C461.734 719.268 461.615 716.523 461.268 713.802C460.304 707.23 457.083 701.199 452.158 696.743C447.232 692.286 440.91 689.683 434.275 689.378C431.531 689.303 428.786 689.456 426.067 689.836C426.748 689.512 427.473 689.29 428.219 689.179C430.222 688.754 432.269 688.574 434.315 688.641C441.181 688.755 447.772 691.359 452.862 695.969C457.952 700.579 461.194 706.881 461.986 713.702C462.232 715.733 462.232 717.787 461.986 719.818C461.974 720.562 461.853 721.3 461.627 722.009Z" fill="#EF918B"/>
    <path d="M263.29 877.774C263.133 879.481 262.786 881.165 262.254 882.795C261.233 886.824 259.749 890.721 257.831 894.409C255.92 898.18 253.013 901.356 249.424 903.592C248.328 904.246 247.139 904.73 245.898 905.027C245.451 905.182 244.973 905.23 244.504 905.166C246.076 904.562 247.595 903.829 249.046 902.975C252.402 900.649 255.138 897.537 257.014 893.911C258.852 890.272 260.365 886.479 261.537 882.575C261.981 880.927 262.567 879.321 263.29 877.774Z" fill="#EF918B"/>
    <path d="M284.447 870.822C284.146 872.495 283.63 874.122 282.913 875.663C281.414 879.476 279.67 883.189 277.693 886.779C275.71 890.368 273.501 893.828 271.08 897.138C270.161 898.597 269.063 899.935 267.812 901.122C268.581 899.609 269.474 898.163 270.482 896.799C272.195 894.189 274.466 890.524 276.777 886.36C279.088 882.197 280.941 878.392 282.236 875.463C282.836 873.855 283.576 872.302 284.447 870.822Z" fill="#EF918B"/>
    <path d="M283.869 740.736C284.086 741.569 284.206 742.425 284.228 743.286C284.407 744.919 284.546 747.27 284.626 750.238C285.001 765.614 282.778 780.943 278.052 795.579C277.136 798.368 276.339 800.619 275.701 802.133C275.429 802.944 275.075 803.725 274.646 804.464C274.779 803.618 275.006 802.789 275.323 801.994C275.841 800.44 276.538 798.169 277.315 795.36C279.455 788.039 281.079 780.576 282.176 773.028C283.253 765.478 283.812 757.864 283.849 750.238C283.849 747.31 283.849 744.939 283.849 743.305C283.775 742.45 283.782 741.59 283.869 740.736Z" fill="#263238"/>
    <path d="M240.699 764.661C241.668 766.698 242.507 768.794 243.209 770.936C244.684 774.921 246.735 780.22 249.186 786.097C251.636 791.973 253.907 797.253 255.6 801.057C256.598 803.08 257.469 805.163 258.21 807.293C256.926 805.414 255.831 803.412 254.943 801.316C253.07 797.571 250.66 792.332 248.23 786.435C245.799 780.539 243.867 775.1 242.572 771.116C241.75 769.026 241.123 766.866 240.699 764.661Z" fill="#263238"/>
    <path d="M229.125 816.238C228.723 816.409 228.302 816.53 227.87 816.596L224.225 817.473C222.631 817.851 220.698 818.289 218.408 818.668C216.117 819.046 213.547 819.604 210.638 819.963C207.73 820.321 204.662 820.819 201.176 821.118C197.689 821.417 194.084 821.676 190.239 821.895C173.492 822.637 156.717 821.36 140.276 818.09C136.511 817.273 132.905 816.556 129.598 815.64C126.291 814.724 123.204 813.927 120.415 813.07C117.626 812.213 115.115 811.357 112.924 810.62C110.733 809.883 108.94 809.165 107.366 808.628L103.88 807.233C103.469 807.076 103.069 806.89 102.685 806.675C103.124 806.737 103.553 806.858 103.96 807.034L107.506 808.249C109.02 808.807 110.912 809.484 113.103 810.241C115.295 810.998 117.805 811.795 120.614 812.532C123.423 813.269 126.471 814.206 129.797 814.963C133.124 815.72 136.69 816.536 140.455 817.313C148.647 818.842 156.912 819.945 165.218 820.62C173.531 821.217 181.869 821.376 190.199 821.098C194.044 820.899 197.689 820.76 201.096 820.421C204.502 820.082 207.65 819.764 210.539 819.405C213.427 819.046 216.017 818.608 218.308 818.25C220.599 817.891 222.551 817.552 224.145 817.234L227.83 816.556C228.248 816.401 228.683 816.294 229.125 816.238Z" fill="#263238"/>
    <path d="M221.535 781.594C218.238 780.389 215.069 778.861 212.072 777.032C208.917 775.502 205.915 773.674 203.107 771.574C206.41 772.765 209.581 774.294 212.57 776.136C215.733 777.652 218.736 779.481 221.535 781.594Z" fill="#263238"/>
    <path d="M506.809 593.258L506.311 593.417L504.837 593.816L499.139 595.27L477.704 600.569L403.596 618.498L403.058 618.618V618.08C400.967 604.394 398.098 589.632 395.329 574.253C393.516 563.994 391.942 553.933 390.867 544.172C389.791 534.41 389.313 524.908 389.173 515.864C388.954 507.304 389.454 498.741 390.667 490.265C391.746 482.849 393.95 475.641 397.202 468.889C399.984 463.357 403.704 458.349 408.198 454.088C411.58 450.866 415.462 448.215 419.693 446.239C422.384 445.036 425.205 444.147 428.1 443.589L430.371 443.31C430.629 443.283 430.889 443.283 431.148 443.31C430.895 443.393 430.635 443.446 430.371 443.47L428.139 443.868C425.287 444.483 422.514 445.419 419.872 446.657C415.716 448.701 411.911 451.39 408.597 454.626C404.208 458.88 400.577 463.852 397.859 469.327C394.698 476.029 392.562 483.167 391.524 490.504C390.354 498.944 389.888 507.466 390.13 515.983C390.289 524.988 390.807 534.43 391.883 544.172C392.958 553.913 394.552 563.954 396.365 574.193C399.114 589.553 401.963 604.334 404.055 618.02L403.437 617.602L477.644 599.971L499.139 594.951L504.876 593.656L506.37 593.338C506.514 593.297 506.66 593.271 506.809 593.258Z" fill="#263238"/>
</svg>
