<svg width="87" height="90" viewBox="0 0 87 90" fill="none" xmlns="http://www.w3.org/2000/svg">
<path d="M43.5 40.4189L55.5 19.5349C56.3994 17.7316 57 15.7787 57 13.8258V12.7738C56.8498 5.56229 50.6997 -0.147489 43.5 0.00290397C36.2996 -0.147489 30.1494 5.56229 30 12.7738V13.8258C30 15.7787 30.4497 17.882 31.5 19.6853L43.5 40.4189ZM33 12.6234C33.1494 7.06475 37.9497 2.70704 43.5 2.85743C49.0496 2.70704 53.8498 7.06475 54 12.6234V13.6754C54 15.1779 53.6997 16.6803 52.9497 18.0324L43.5 34.4091L34.0496 18.0324C33.2996 16.6803 33 15.1779 33 13.6754V12.6234Z" fill="#4CBE42"/>
<path d="M43.5 17.882C46.7996 17.882 49.5 15.1778 49.5 11.8721C49.5 8.56717 46.7996 5.8623 43.5 5.8623C40.1997 5.8623 37.5 8.56717 37.5 11.8721C37.5 15.1778 40.1997 17.882 43.5 17.882ZM43.5 8.86722C45.1494 8.86722 46.5 10.2193 46.5 11.8721C46.5 13.525 45.1494 14.8771 43.5 14.8771C41.8499 14.8771 40.5 13.525 40.5 11.8721C40.5 10.2193 41.8499 8.86722 43.5 8.86722Z" fill="#4CBE42"/>
<path d="M79.5 26.5968V19.3845H58.5V22.3894H76.5V25.3944H55.5V28.3993H77.0999L84 42.2222V43.4239H3V42.2222L9.89941 28.3993H31.5V25.3944H10.5V22.3894H28.5V19.3845H7.5V26.5968L0 41.6213V50.1849C0 52.4386 1.19971 54.5419 3 55.7443V90.0001H84V55.7443C85.7996 54.5419 87 52.4386 87 50.1849V41.6213L79.5 26.5968ZM59.25 53.9411C57.1494 53.9411 55.5 52.2882 55.5 50.1849V46.4288H63V50.1849C63 52.2882 61.3499 53.9411 59.25 53.9411ZM13.5 46.4288H21V50.1849C21 52.2882 19.3499 53.9411 17.25 53.9411C15.1494 53.9411 13.5 52.2882 13.5 50.1849V46.4288ZM24 46.4288H31.5V50.1849C31.5 52.2882 29.8499 53.9411 27.75 53.9411C25.6494 53.9411 24 52.2882 24 50.1849V46.4288ZM34.5 46.4288H42V50.1849C42 52.2882 40.3499 53.9411 38.25 53.9411C36.1494 53.9411 34.5 52.2882 34.5 50.1849V46.4288ZM45 46.4288H52.5V50.1849C52.5 52.2882 50.8499 53.9411 48.75 53.9411C46.6494 53.9411 45 52.2882 45 50.1849V46.4288ZM66 46.4288H73.5V50.1849C73.5 52.2882 71.8499 53.9411 69.75 53.9411C67.6494 53.9411 66 52.2882 66 50.1849V46.4288ZM10.5 46.4288V50.1849C10.5 52.2882 8.84985 53.9411 6.75 53.9411C4.64941 53.9411 3 52.2882 3 50.1849V46.4288H10.5ZM6.75 56.946C8.84985 56.946 10.7996 56.0444 12 54.3922C14.25 57.2468 18.4497 57.8476 21.2996 55.5939C21.75 55.2931 22.0496 54.8427 22.5 54.3922C24.75 57.2468 28.9497 57.8476 31.7996 55.5939C32.25 55.2931 32.5496 54.8427 33 54.3922C35.25 57.2468 39.4497 57.8476 42.2996 55.5939C42.75 55.2931 43.0496 54.8427 43.5 54.3922C45.75 57.2468 49.9497 57.8476 52.7996 55.5939C53.25 55.2931 53.5496 54.8427 54 54.3922C55.0496 55.7443 56.6997 56.6459 58.5 56.946V80.9853H6V56.7956C6.29956 56.946 6.44971 56.946 6.75 56.946ZM6 83.9902H58.5V86.9951H6V83.9902ZM81 86.9951H61.5V56.4955C62.6997 56.0444 63.75 55.2931 64.5 54.3922C66.75 57.2468 70.9497 57.8476 73.7996 55.5939C74.25 55.2931 74.5496 54.8427 75 54.3922C76.1997 56.0444 78.1494 56.946 80.25 56.946C80.5496 56.946 80.6997 56.946 81 56.7956V86.9951ZM84 50.1849C84 52.2882 82.3499 53.9411 80.25 53.9411C78.1494 53.9411 76.5 52.2882 76.5 50.1849V46.4288H84V50.1849Z" fill="#4CBE42"/>
<path d="M64.5 67.4631H67.5V70.468H64.5V67.4631Z" fill="#4CBE42"/>
<path d="M55.5 59.9507H9V76.4777H55.5V59.9507ZM52.5 73.4728H12V62.9556H52.5V73.4728Z" fill="#4CBE42"/>
</svg>
