<svg width="500" height="444" viewBox="0 0 500 444" fill="none" xmlns="http://www.w3.org/2000/svg">
<path d="M250 443.161C388.071 443.161 500 381.97 500 306.487C500 231.003 388.071 169.812 250 169.812C111.929 169.812 0 231.003 0 306.487C0 381.97 111.929 443.161 250 443.161Z" fill="#F5F5F5"/>
<path d="M65.4667 371.297L38.6828 356.556C36.344 355.23 36.344 353.079 38.6828 351.743L173.064 275.478C174.382 274.824 175.838 274.483 177.316 274.483C178.793 274.483 180.25 274.824 181.568 275.478L208.352 290.188C210.701 291.515 210.701 293.665 208.352 295.001L73.9707 371.266C72.6557 371.927 71.2001 372.274 69.7224 372.279C68.2447 372.284 66.7866 371.948 65.4667 371.297Z" fill="#E0E0E0"/>
<path d="M233.289 412.192C269.401 412.192 298.674 394.481 298.674 372.633C298.674 350.785 269.401 333.074 233.289 333.074C197.178 333.074 167.904 350.785 167.904 372.633C167.904 394.481 197.178 412.192 233.289 412.192Z" fill="#E0E0E0"/>
<path d="M402.792 347.793C397.027 346.456 389.005 347.421 381.25 347.612C393.016 338.036 391.354 324.773 376.254 316.232C359.277 306.636 331.744 306.636 314.767 316.232C297.79 325.828 297.79 341.402 314.767 351.008C331.18 360.313 357.595 360.604 374.654 351.862L375.68 352.003C385.353 353.058 394.78 348.989 403.11 352.003C411.439 355.017 407.982 361.217 408.844 362.865C409.706 364.513 412.106 363.367 412.106 358.494C412.106 353.621 408.824 349.2 402.792 347.793Z" fill="#E0E0E0"/>
<path d="M58.8609 292.841C52.4701 266.867 32.6514 237.858 12.9661 248.067C-6.71917 258.276 27.2249 281.075 37.0624 302.517C45.6689 321.317 55.3115 346.82 57.5786 352.838L64.9439 349.472C64.9029 343.062 64.3284 315.178 58.8609 292.841Z" fill="#4CBE42"/>
<path opacity="0.15" d="M58.8609 292.841C52.4701 266.867 32.6514 237.858 12.9661 248.067C-6.71917 258.276 27.2249 281.075 37.0624 302.517C45.6689 321.317 55.3115 346.82 57.5786 352.838L64.9439 349.472C64.9029 343.062 64.3284 315.178 58.8609 292.841Z" fill="black"/>
<path d="M59.1996 346.458C59.3819 346.458 59.5567 346.387 59.6856 346.261C59.8145 346.134 59.8869 345.963 59.8869 345.785C59.7125 295.253 37.9551 263.862 19.3879 252.337C19.2324 252.243 19.0453 252.212 18.8669 252.251C18.6884 252.291 18.5329 252.397 18.4339 252.548C18.3381 252.699 18.307 252.881 18.3473 253.054C18.3877 253.227 18.4962 253.377 18.6494 253.473C36.9293 264.807 58.3379 295.785 58.5123 345.775C58.511 345.864 58.5277 345.952 58.5617 346.035C58.5956 346.118 58.646 346.193 58.71 346.257C58.7739 346.321 58.8501 346.371 58.9342 346.406C59.0183 346.44 59.1085 346.458 59.1996 346.458Z" fill="white"/>
<path d="M54.7579 323.9C39.5451 293.756 18.3006 290.56 10.4429 297.403C4.16496 302.859 8.88368 311.169 14.7308 314.716C22.3423 319.328 48.2132 331.386 56.9326 353.13L62.6771 350.487C62.472 346.599 61.2512 336.782 54.7579 323.9Z" fill="#4CBE42"/>
<path d="M59.4768 349.412H59.6307C59.8197 349.373 59.9854 349.263 60.0912 349.104C60.197 348.946 60.2343 348.753 60.1949 348.568C55.1684 324.121 31.3901 307.15 19.4805 304.517C19.3001 304.494 19.1173 304.537 18.968 304.639C18.8187 304.741 18.7138 304.894 18.674 305.068C18.6341 305.242 18.6621 305.424 18.7525 305.579C18.8429 305.734 18.9892 305.849 19.1625 305.904C30.7336 308.466 53.8656 324.995 58.769 348.849C58.8022 349.009 58.891 349.152 59.02 349.255C59.1491 349.357 59.3106 349.413 59.4768 349.412Z" fill="white"/>
<path d="M179.65 1.808L59.7229 69.6025C57.8042 70.688 56.1981 72.2327 55.0552 74.0921C53.9123 75.9514 53.27 78.0646 53.1885 80.2334V348.638C53.1885 352.999 55.9274 358.074 59.3433 359.993C62.7593 361.912 68.5756 361.701 72.4429 359.52L191.929 291.957C193.956 290.659 195.644 288.912 196.856 286.858C198.067 284.804 198.769 282.499 198.905 280.13V12.6599C198.905 8.30912 196.156 3.22478 192.75 1.30559C189.344 -0.613597 183.497 -0.392539 179.65 1.808Z" fill="#37474F"/>
<path d="M70.7504 360.294C67.0267 361.721 62.2464 361.65 59.3228 359.992C55.9377 358.083 53.168 352.959 53.168 348.638V80.2332C53.2403 78.1689 53.8474 76.1565 54.9324 74.3853L66.2163 80.6352C64.2674 82.8639 63.1275 85.6625 62.9747 88.5933V354.175C62.9542 359.42 66.3804 361.902 70.7504 360.294Z" fill="#263238"/>
<path d="M69.0992 78.1735C67.3113 79.3186 65.8229 80.859 64.7539 82.6706C63.6849 84.4821 63.065 86.5143 62.9443 88.6034V354.185C62.9443 360.063 67.2014 362.474 72.4023 359.53L191.899 291.957C193.926 290.659 195.614 288.912 196.825 286.858C198.037 284.803 198.739 282.499 198.874 280.13V12.6599C198.874 8.31908 195.735 6.55062 191.899 8.72101L69.0992 78.1735Z" fill="#455A64"/>
<path d="M75.408 95.014L68.7812 98.7619V341.162L75.408 337.414L187.734 273.9L194.361 270.152V27.752L187.744 31.4898L75.408 95.014Z" fill="#37474F"/>
<path d="M185.97 264.716V32.4849L75.408 95.0142L68.7812 98.7621V331.014L179.343 268.484C182.995 266.425 185.97 264.716 185.97 264.716Z" fill="#4CBE42"/>
<path opacity="0.6" d="M185.97 264.716V32.4849L75.408 95.0142L68.7812 98.7621V331.014L179.343 268.484C182.995 266.425 185.97 264.716 185.97 264.716Z" fill="white"/>
<path d="M122.8 55.2939L142.968 43.8893C144.168 43.2061 145.142 43.6884 145.142 44.9645C145.089 45.6812 144.864 46.3754 144.486 46.9915C144.108 47.6075 143.588 48.1281 142.968 48.5115L122.8 59.916C121.6 60.5892 120.615 60.1069 120.615 58.8308C120.67 58.1146 120.897 57.4211 121.276 56.8066C121.656 56.1921 122.178 55.6739 122.8 55.2939Z" fill="black"/>
<path d="M157.411 35.69C158.539 35.0569 159.463 35.5694 159.463 36.8456C159.424 37.541 159.218 38.2177 158.862 38.8203C158.505 39.4228 158.008 39.9341 157.411 40.3123C156.283 40.9554 155.359 40.4329 155.359 39.1567C155.399 38.4616 155.606 37.7855 155.962 37.1832C156.319 36.5809 156.815 36.0694 157.411 35.69Z" fill="black"/>
<path d="M165.587 31.078C166.715 30.4349 167.638 30.9574 167.638 32.2335C167.599 32.9286 167.392 33.6047 167.036 34.207C166.679 34.8093 166.183 35.3209 165.587 35.7002C164.458 36.3333 163.535 35.8208 163.535 34.5447C163.573 33.8492 163.779 33.1725 164.136 32.5699C164.493 31.9674 164.99 31.4561 165.587 31.078Z" fill="black"/>
<path d="M100.232 68.055C101.361 67.4119 102.284 67.9344 102.284 69.2105C102.244 69.9056 102.037 70.5816 101.681 71.1839C101.325 71.7862 100.828 72.2977 100.232 72.6771C99.1039 73.3202 98.1807 72.7977 98.1807 71.5216C98.219 70.8261 98.4249 70.1495 98.7815 69.5469C99.1381 68.9444 99.6352 68.4331 100.232 68.055Z" fill="black"/>
<path d="M108.377 63.4329C109.505 62.7999 110.428 63.3123 110.428 64.5884C110.39 65.2838 110.184 65.9604 109.828 66.5629C109.471 67.1655 108.974 67.6767 108.377 68.0548C107.248 68.6979 106.325 68.1754 106.325 66.8993C106.366 66.2045 106.573 65.5287 106.929 64.9266C107.286 64.3245 107.781 63.8128 108.377 63.4329Z" fill="black"/>
<path opacity="0.1" d="M75.7875 203.312C75.2531 203.304 74.726 203.189 74.238 202.976C73.75 202.763 73.3111 202.455 72.9478 202.071C72.5846 201.687 72.3044 201.235 72.1243 200.742C71.9441 200.249 71.8677 199.725 71.8996 199.203V145.204C71.9224 144.053 72.2512 142.927 72.8536 141.939C73.4208 140.943 74.245 140.112 75.2438 139.527L115.189 116.969C115.88 116.571 116.665 116.357 117.466 116.346C118.233 116.339 118.984 116.561 119.618 116.983C120.252 117.405 120.74 118.007 121.015 118.707C121.203 119.279 121.3 119.875 121.303 120.476V174.484C121.258 175.622 120.933 176.732 120.354 177.719C119.775 178.706 118.96 179.541 117.979 180.152L78.0648 202.689C77.8328 202.815 77.5929 202.925 77.3467 203.021C76.8501 203.213 76.3212 203.311 75.7875 203.312Z" fill="black"/>
<path d="M123.734 123.39C123.697 122.73 123.503 122.088 123.166 121.515C122.829 120.943 122.36 120.456 121.795 120.094L120.205 119.2C119.605 118.897 118.941 118.74 118.266 118.74C117.592 118.74 116.927 118.897 116.328 119.2L76.3929 141.778C75.8278 142.139 75.3577 142.626 75.0208 143.198C74.6839 143.771 74.4897 144.414 74.4541 145.074V199.072C74.4897 199.732 74.6839 200.375 75.0208 200.947C75.3577 201.52 75.8278 202.007 76.3929 202.368L77.9726 203.262C78.5737 203.56 79.2379 203.715 79.9114 203.715C80.5849 203.715 81.2491 203.56 81.8502 203.262L121.775 180.664C122.338 180.303 122.807 179.818 123.143 179.247C123.48 178.677 123.675 178.036 123.713 177.378L123.734 123.39Z" fill="#FAFAFA"/>
<path d="M74.4541 199.072C74.4897 199.732 74.6839 200.375 75.0208 200.947C75.3577 201.52 75.8278 202.007 76.3929 202.368L77.9726 203.262C78.5203 203.53 79.1194 203.682 79.7309 203.708C80.3424 203.734 80.9527 203.633 81.522 203.413C80.609 203.755 79.9114 203.242 79.9114 202.157V148.158C79.9334 147.497 80.1315 146.853 80.4859 146.289L75.0183 143.195C74.6725 143.765 74.4785 144.411 74.4541 145.074V199.072Z" fill="#E0E0E0"/>
<path d="M123.672 122.877C123.447 122.063 122.646 121.812 121.795 122.314L81.85 144.872C81.2772 145.22 80.807 145.709 80.4856 146.289L75.0283 143.204C75.3497 142.624 75.8199 142.135 76.3926 141.787L116.327 119.23C116.929 118.932 117.593 118.777 118.266 118.777C118.94 118.777 119.604 118.932 120.205 119.23L121.795 120.124C122.282 120.435 122.699 120.839 123.021 121.312C123.344 121.785 123.565 122.318 123.672 122.877Z" fill="#F0F0F0"/>
<path d="M90.549 190.712C90.4656 190.709 90.3844 190.684 90.3131 190.642C90.2419 190.603 90.1826 190.546 90.1411 190.477C90.0997 190.408 90.0776 190.33 90.0771 190.25V162.015C90.0776 161.935 90.0997 161.857 90.1411 161.788C90.1826 161.719 90.2419 161.662 90.3131 161.623L113.096 148.731C113.168 148.692 113.25 148.671 113.332 148.671C113.415 148.671 113.496 148.692 113.568 148.731C113.64 148.772 113.7 148.831 113.741 148.901C113.783 148.972 113.804 149.052 113.804 149.133V177.348C113.803 177.429 113.781 177.509 113.74 177.579C113.699 177.65 113.64 177.709 113.568 177.75L90.7747 190.632C90.7076 190.677 90.63 190.704 90.549 190.712ZM91.0004 162.286V189.416L112.85 177.057V149.927L91.0004 162.286Z" fill="#4CBE42"/>
<path d="M99.9453 185.376C99.8219 185.376 99.7034 185.329 99.6152 185.245C99.527 185.16 99.4761 185.045 99.4734 184.924V156.79L95.3702 151.002L91.0002 162.185C90.9544 162.298 90.8653 162.388 90.7521 162.437C90.6389 162.486 90.5107 162.49 90.395 162.447C90.3372 162.426 90.2844 162.393 90.2395 162.352C90.1947 162.311 90.1588 162.261 90.1339 162.205C90.1091 162.15 90.0958 162.091 90.0948 162.03C90.0938 161.97 90.1052 161.91 90.1283 161.854L94.847 149.917C94.8767 149.839 94.9278 149.77 94.9948 149.719C95.0618 149.667 95.142 149.635 95.2265 149.625C95.3108 149.615 95.3962 149.628 95.4739 149.662C95.5515 149.695 95.6184 149.749 95.6676 149.816L100.356 156.438C100.407 156.516 100.435 156.606 100.438 156.699V184.924C100.436 184.986 100.422 185.047 100.397 185.103C100.371 185.159 100.334 185.21 100.289 185.252C100.243 185.294 100.189 185.327 100.13 185.348C100.071 185.369 100.008 185.379 99.9453 185.376Z" fill="#4CBE42"/>
<path d="M99.9452 157.162C99.8698 157.162 99.7956 157.143 99.7293 157.108C99.663 157.073 99.6067 157.022 99.5656 156.961L94.8777 150.339C94.8404 150.287 94.8148 150.228 94.8024 150.166C94.7901 150.103 94.7912 150.039 94.8059 149.977C94.8213 149.916 94.8492 149.859 94.888 149.809C94.9268 149.759 94.9757 149.717 95.0315 149.686L108.439 142.099C108.539 142.041 108.659 142.022 108.773 142.046C108.887 142.07 108.988 142.136 109.054 142.23L113.742 148.852C113.778 148.904 113.803 148.963 113.816 149.025C113.828 149.088 113.828 149.152 113.814 149.213C113.801 149.277 113.774 149.336 113.735 149.388C113.696 149.44 113.646 149.483 113.588 149.515L100.232 157.101C100.146 157.151 100.045 157.172 99.9452 157.162ZM95.9342 150.228L100.037 156.096L112.634 148.962L108.531 143.104L95.9342 150.228Z" fill="#4CBE42"/>
<path d="M95.2576 150.52C95.1961 150.52 95.1353 150.508 95.0786 150.484C95.0219 150.461 94.9705 150.427 94.9275 150.384C94.8845 150.341 94.8507 150.29 94.8282 150.234C94.8056 150.178 94.7946 150.118 94.796 150.057V146.973C94.7957 146.891 94.8174 146.811 94.8588 146.741C94.9002 146.67 94.96 146.611 95.032 146.571L108.439 139.005C108.511 138.965 108.593 138.944 108.675 138.944C108.758 138.944 108.839 138.965 108.911 139.005C108.982 139.047 109.04 139.106 109.082 139.176C109.123 139.246 109.145 139.325 109.147 139.406V142.481C109.147 142.604 109.097 142.721 109.009 142.808C108.92 142.895 108.8 142.943 108.675 142.943C108.55 142.943 108.43 142.895 108.342 142.808C108.253 142.721 108.203 142.604 108.203 142.481V140.19L95.7295 147.224V150.047C95.7323 150.109 95.7221 150.171 95.6996 150.229C95.677 150.287 95.6425 150.34 95.5982 150.384C95.554 150.428 95.5009 150.463 95.4423 150.486C95.3837 150.51 95.3209 150.521 95.2576 150.52Z" fill="#4CBE42"/>
<path d="M103.023 178.393L103.936 175.821L103.997 175.69C104.009 175.657 104.028 175.626 104.053 175.6C104.078 175.574 104.108 175.554 104.141 175.54L104.459 175.359C104.473 175.352 104.489 175.348 104.505 175.348C104.521 175.348 104.537 175.352 104.551 175.359C104.559 175.374 104.563 175.391 104.563 175.409C104.563 175.426 104.559 175.444 104.551 175.459V179.478C104.564 179.524 104.564 179.573 104.551 179.619C104.535 179.663 104.502 179.699 104.459 179.719L104.079 179.941C104.079 179.941 104.007 179.941 103.987 179.941C103.979 179.925 103.975 179.908 103.975 179.89C103.975 179.873 103.979 179.856 103.987 179.84V177.408L103.371 179.157C103.371 179.157 103.371 179.247 103.3 179.297C103.276 179.346 103.236 179.385 103.187 179.408L102.941 179.549C102.924 179.561 102.905 179.568 102.884 179.568C102.864 179.568 102.844 179.561 102.828 179.549C102.828 179.549 102.828 179.549 102.766 179.488L102.14 178.433V180.875C102.149 180.922 102.149 180.969 102.14 181.016C102.115 181.054 102.084 181.087 102.048 181.116L101.658 181.337C101.645 181.346 101.629 181.351 101.612 181.351C101.596 181.351 101.58 181.346 101.566 181.337C101.559 181.321 101.556 181.304 101.556 181.287C101.556 181.27 101.559 181.253 101.566 181.237V177.218C101.557 177.171 101.557 177.123 101.566 177.077C101.591 177.039 101.623 177.005 101.658 176.976L101.987 176.796C102.048 176.796 102.099 176.796 102.12 176.796L102.192 176.856L103.023 178.393Z" fill="#4CBE42"/>
<path d="M105.464 179.147C105.45 179.154 105.434 179.157 105.418 179.157C105.402 179.157 105.386 179.154 105.372 179.147C105.36 179.114 105.36 179.079 105.372 179.046V175.027C105.364 174.981 105.364 174.933 105.372 174.886C105.395 174.847 105.426 174.812 105.464 174.786L105.854 174.565C105.865 174.555 105.88 174.55 105.895 174.55C105.91 174.55 105.925 174.555 105.936 174.565C105.944 174.58 105.949 174.598 105.949 174.615C105.949 174.633 105.944 174.65 105.936 174.665V178.684C105.933 178.73 105.92 178.776 105.899 178.817C105.878 178.858 105.849 178.895 105.813 178.925L105.464 179.147Z" fill="#4CBE42"/>
<path d="M108.942 176.404C108.942 176.404 109.014 176.404 109.034 176.404C109.042 176.419 109.046 176.436 109.046 176.454C109.046 176.471 109.042 176.489 109.034 176.504V176.946C109.047 176.992 109.047 177.041 109.034 177.087C109.015 177.129 108.982 177.164 108.942 177.187L106.89 178.363C106.879 178.373 106.864 178.378 106.849 178.378C106.834 178.378 106.819 178.373 106.808 178.363C106.808 178.363 106.808 178.313 106.808 178.273V174.253C106.794 174.208 106.794 174.159 106.808 174.113C106.824 174.072 106.853 174.037 106.89 174.012L107.28 173.791C107.294 173.782 107.31 173.777 107.326 173.777C107.343 173.777 107.359 173.782 107.372 173.791C107.379 173.807 107.383 173.824 107.383 173.842C107.383 173.859 107.379 173.876 107.372 173.892V177.308L108.942 176.404Z" fill="#4CBE42"/>
<path opacity="0.1" d="M131.109 172.023C130.574 172.014 130.047 171.9 129.559 171.686C129.071 171.473 128.632 171.165 128.269 170.781C127.906 170.397 127.626 169.945 127.446 169.452C127.265 168.959 127.189 168.436 127.221 167.913V113.915C127.244 112.763 127.572 111.638 128.175 110.649C128.739 109.652 129.564 108.82 130.565 108.237L170.51 85.6794C171.195 85.2741 171.977 85.0555 172.777 85.0464C173.544 85.0377 174.295 85.2593 174.93 85.6815C175.565 86.1037 176.052 86.7061 176.326 87.4077C176.512 87.9799 176.608 88.576 176.614 89.1762V143.175C176.569 144.312 176.244 145.422 175.665 146.409C175.086 147.397 174.271 148.231 173.29 148.842L133.283 171.4C133.054 171.523 132.818 171.634 132.576 171.731C132.108 171.912 131.611 172.011 131.109 172.023Z" fill="black"/>
<path d="M179.218 92.09C179.182 91.4289 178.987 90.7856 178.648 90.2127C178.309 89.6398 177.836 89.1537 177.269 88.7943L175.689 87.9C175.089 87.5977 174.425 87.4399 173.75 87.4399C173.076 87.4399 172.411 87.5977 171.812 87.9L131.877 110.448C131.309 110.807 130.837 111.293 130.498 111.866C130.159 112.439 129.964 113.083 129.928 113.744V167.742C129.965 168.403 130.161 169.046 130.5 169.618C130.839 170.191 131.31 170.677 131.877 171.038L133.457 171.932C134.058 172.23 134.722 172.385 135.395 172.385C136.069 172.385 136.733 172.23 137.334 171.932L177.269 149.374C177.836 149.015 178.309 148.529 178.648 147.956C178.987 147.383 179.182 146.74 179.218 146.079V92.09Z" fill="#FAFAFA"/>
<path d="M129.888 167.742C129.925 168.403 130.121 169.046 130.46 169.618C130.799 170.191 131.27 170.677 131.837 171.038L133.416 171.932C133.964 172.2 134.563 172.352 135.175 172.378C135.786 172.404 136.397 172.303 136.966 172.083C136.053 172.425 135.355 171.912 135.355 170.827V116.828C135.378 116.168 135.572 115.525 135.919 114.959L130.462 111.865C130.115 112.435 129.918 113.08 129.888 113.743V167.742Z" fill="#E0E0E0"/>
<path d="M179.106 91.5468C178.88 90.7329 178.131 90.4817 177.239 90.9841L137.294 113.542C136.719 113.887 136.248 114.376 135.929 114.959L130.462 111.874C130.79 111.295 131.263 110.807 131.836 110.457L171.761 87.8993C172.364 87.6024 173.03 87.4478 173.705 87.4478C174.38 87.4478 175.046 87.6024 175.649 87.8993L177.239 88.7936C177.725 89.1036 178.142 89.5078 178.463 89.9813C178.784 90.4547 179.003 90.9874 179.106 91.5468Z" fill="#F0F0F0"/>
<path d="M150.805 156.046C148.558 156.046 146.455 154.841 144.568 152.469C139.152 145.657 142.075 130.836 148.148 125.932C152.251 122.636 154.395 123.099 155.882 124.073C157.202 123.352 158.332 122.34 159.186 121.119C161.02 118.597 163.571 116.658 166.52 115.542C167.269 115.241 168.096 115.176 168.884 115.357C169.673 115.537 170.385 115.953 170.921 116.547C173.916 119.622 174.624 128.515 170.623 138.08C164.94 151.645 159.165 152.258 157.77 152.208C157.083 153.042 154.395 156.006 150.877 156.046H150.805ZM153.574 124.284C152.436 124.284 150.928 124.867 148.743 126.636C143.091 131.207 140.259 145.556 145.306 151.907C147.03 154.067 148.938 155.142 150.866 155.132C154.405 155.082 157.154 151.495 157.185 151.454C157.24 151.386 157.313 151.333 157.396 151.302C157.479 151.27 157.569 151.26 157.657 151.274C157.708 151.274 163.709 152.148 169.751 137.729C173.619 128.515 173.034 120.044 170.244 117.18C169.831 116.717 169.28 116.393 168.669 116.254C168.057 116.115 167.417 116.168 166.838 116.407C164.044 117.463 161.631 119.305 159.904 121.702C159.05 122.896 157.97 123.919 156.724 124.716L156.898 124.867C157.637 125.47 158.129 125.872 158.734 125.751C159.575 125.631 160.95 124.596 162.007 122.626C162.065 122.52 162.164 122.44 162.283 122.405C162.401 122.371 162.529 122.383 162.637 122.44C162.746 122.498 162.827 122.595 162.863 122.711C162.899 122.827 162.886 122.952 162.827 123.058C161.801 125.068 160.222 126.455 158.878 126.656C158.391 126.676 157.907 126.589 157.459 126.401C157.012 126.213 156.613 125.929 156.293 125.57C155.586 124.819 154.614 124.359 153.574 124.284Z" fill="#4CBE42"/>
<path d="M158.991 126.525C158.87 126.528 158.753 126.484 158.665 126.403C158.577 126.323 158.524 126.211 158.519 126.093C158.263 119.933 162.079 110.508 165.802 108.067C165.906 108 166.032 107.976 166.153 108.001C166.274 108.025 166.381 108.096 166.449 108.197C166.517 108.299 166.541 108.422 166.516 108.541C166.491 108.66 166.419 108.764 166.315 108.83C162.868 111.091 159.217 120.265 159.453 126.053C159.455 126.112 159.446 126.171 159.425 126.227C159.405 126.283 159.373 126.335 159.332 126.378C159.291 126.422 159.242 126.458 159.187 126.483C159.132 126.508 159.072 126.522 159.011 126.525H158.991Z" fill="#4CBE42"/>
<path d="M157.534 120.506H157.462C157.07 120.483 156.692 120.357 156.367 120.141C156.042 119.926 155.783 119.628 155.616 119.28C154.446 117.15 155.052 113.643 155.072 113.493C155.088 113.415 155.121 113.341 155.168 113.277C155.216 113.212 155.278 113.159 155.349 113.121C155.462 113.061 158.119 111.624 160.027 112.93C161.74 114.106 161.35 117.08 160.324 118.698C160.045 119.199 159.644 119.626 159.158 119.941C158.672 120.256 158.114 120.45 157.534 120.506ZM156.118 113.945C156.016 114.759 155.77 117.271 156.59 118.768C156.667 118.948 156.792 119.105 156.953 119.22C157.114 119.335 157.305 119.405 157.503 119.421C157.901 119.37 158.281 119.225 158.609 118.999C158.938 118.774 159.206 118.474 159.391 118.125C160.252 116.768 160.417 114.538 159.391 113.814C158.365 113.091 156.724 113.674 156.118 113.945Z" fill="#4CBE42"/>
<path opacity="0.1" d="M75.7869 277.126C75.2534 277.117 74.7272 277.003 74.2399 276.79C73.7526 276.578 73.3142 276.27 72.9511 275.888C72.588 275.505 72.3076 275.054 72.1268 274.562C71.946 274.07 71.8686 273.548 71.899 273.026V219.008C71.9227 217.856 72.2515 216.731 72.853 215.742C73.4202 214.747 74.2444 213.915 75.2432 213.33L115.188 190.772C115.879 190.375 116.664 190.16 117.465 190.149C118.232 190.142 118.983 190.364 119.617 190.786C120.251 191.208 120.739 191.81 121.015 192.511C121.203 193.082 121.3 193.679 121.302 194.279V248.288C121.258 249.425 120.932 250.535 120.353 251.522C119.774 252.51 118.959 253.344 117.978 253.955L78.0642 276.493C77.8321 276.618 77.5923 276.729 77.3461 276.824C76.8501 277.019 76.3213 277.122 75.7869 277.126Z" fill="black"/>
<path d="M123.733 197.193C123.695 196.535 123.5 195.895 123.163 195.324C122.826 194.754 122.357 194.268 121.794 193.908L120.204 193.013C119.605 192.711 118.94 192.553 118.265 192.553C117.591 192.553 116.926 192.711 116.327 193.013L76.3919 215.561C75.827 215.92 75.3569 216.405 75.0199 216.976C74.6829 217.547 74.4887 218.188 74.4531 218.847V272.845C74.4919 273.502 74.6875 274.14 75.0243 274.709C75.361 275.278 75.8295 275.762 76.3919 276.121L77.9717 277.015C78.5728 277.313 79.2369 277.468 79.9104 277.468C80.584 277.468 81.2481 277.313 81.8492 277.015L121.774 254.487C122.338 254.126 122.808 253.639 123.145 253.066C123.482 252.494 123.676 251.852 123.713 251.192L123.733 197.193Z" fill="#FAFAFA"/>
<path d="M74.4531 272.855C74.4935 273.51 74.6899 274.147 75.0265 274.714C75.3632 275.281 75.8308 275.763 76.3919 276.121L77.9717 277.015C78.5193 277.283 79.1184 277.435 79.7299 277.461C80.3415 277.487 80.9517 277.386 81.521 277.166C80.608 277.508 79.9105 276.995 79.9105 275.91V221.942C79.9325 221.28 80.1305 220.636 80.4849 220.073L75.0173 216.978C74.6716 217.548 74.4776 218.194 74.4531 218.857V272.855Z" fill="#E0E0E0"/>
<path d="M123.671 196.66C123.446 195.846 122.645 195.595 121.794 196.097L81.849 218.655C81.2762 219.003 80.806 219.492 80.4846 220.072L75.0273 216.987C75.3487 216.407 75.8189 215.919 76.3917 215.571L116.326 193.012C116.928 192.715 117.592 192.56 118.265 192.56C118.939 192.56 119.603 192.715 120.204 193.012L121.794 193.907C122.281 194.218 122.698 194.622 123.02 195.095C123.343 195.568 123.565 196.101 123.671 196.66Z" fill="#F0F0F0"/>
<path d="M94.2309 249.926C94.1432 249.929 94.0569 249.904 93.9847 249.855C93.9139 249.814 93.8556 249.755 93.8159 249.685C93.7762 249.614 93.7566 249.534 93.759 249.453C94.1078 229.418 108.315 210.909 119.835 208.95C119.899 208.937 119.965 208.938 120.028 208.952C120.092 208.966 120.152 208.992 120.204 209.03C120.306 209.114 120.372 209.232 120.389 209.362C120.389 209.804 121.148 220.324 109.854 235.316C101.719 246.107 94.7438 249.725 94.4668 249.876C94.3929 249.909 94.3123 249.926 94.2309 249.926ZM119.466 209.954C108.541 212.296 95.4105 229.669 94.7232 248.65C96.703 247.444 102.581 243.425 109.085 234.773C118.778 221.922 119.455 212.245 119.466 209.954Z" fill="#4CBE42"/>
<path d="M114.512 227.8C109.711 227.508 107.177 223.439 107.557 216.616C107.559 216.556 107.574 216.497 107.601 216.442C107.627 216.388 107.664 216.339 107.71 216.299C107.756 216.258 107.81 216.228 107.868 216.208C107.926 216.188 107.988 216.18 108.049 216.184C108.173 216.192 108.288 216.247 108.37 216.337C108.453 216.427 108.496 216.546 108.49 216.667C108.142 222.906 110.368 226.634 114.573 226.875C114.697 226.886 114.811 226.943 114.892 227.035C114.972 227.127 115.013 227.247 115.004 227.368C115.002 227.428 114.987 227.487 114.96 227.542C114.934 227.596 114.897 227.645 114.851 227.685C114.805 227.726 114.751 227.757 114.693 227.776C114.635 227.796 114.573 227.804 114.512 227.8Z" fill="#4CBE42"/>
<path d="M85.5016 255.935C84.5172 255.946 83.566 255.586 82.8448 254.93C82.7698 254.86 82.7201 254.769 82.7035 254.669C82.6868 254.569 82.704 254.467 82.7525 254.377C86.2095 247.966 91.3795 245.394 94.4878 246.218C94.6069 246.251 94.708 246.328 94.7694 246.434C94.8308 246.539 94.8476 246.663 94.816 246.781C94.8019 246.84 94.7755 246.896 94.7384 246.944C94.7013 246.993 94.6543 247.034 94.6004 247.064C94.5465 247.094 94.4868 247.113 94.425 247.12C94.3633 247.126 94.3008 247.12 94.2416 247.102C91.5027 246.379 86.8762 248.931 83.7578 254.478C84.4499 254.924 85.2936 255.087 86.1069 254.93C88.6817 254.578 92.0053 252.116 93.8312 249.182C93.902 249.09 94.0051 249.028 94.1205 249.006C94.2358 248.985 94.3552 249.007 94.4552 249.067C94.5552 249.127 94.6286 249.222 94.6612 249.332C94.6938 249.443 94.6832 249.561 94.6314 249.665C92.6721 252.8 89.0612 255.452 86.23 255.844C85.9893 255.889 85.7461 255.919 85.5016 255.935Z" fill="#4CBE42"/>
<path d="M96.0159 263.45C95.9262 263.446 95.8386 263.422 95.7595 263.38C92.1076 261.049 92.0153 254.397 93.8002 249.313C93.8188 249.256 93.8487 249.203 93.8883 249.158C93.9278 249.112 93.9761 249.075 94.0305 249.048C94.0849 249.021 94.1442 249.004 94.205 249C94.2659 248.995 94.327 249.003 94.3849 249.021C94.503 249.06 94.6006 249.144 94.6563 249.253C94.7121 249.362 94.7214 249.488 94.6824 249.604C93.0514 254.206 93.1232 260.044 95.8518 262.295C98.4779 256.979 97.9034 250.237 95.9749 248.519C95.9302 248.478 95.8946 248.428 95.8702 248.373C95.8459 248.317 95.8333 248.258 95.8333 248.197C95.8333 248.137 95.8459 248.078 95.8702 248.022C95.8946 247.967 95.9302 247.917 95.9749 247.876C96.0178 247.833 96.069 247.8 96.1253 247.777C96.1817 247.754 96.2421 247.742 96.3032 247.742C96.3642 247.742 96.4247 247.754 96.481 247.777C96.5374 247.8 96.5885 247.833 96.6314 247.876C99.0729 250.127 99.4729 257.653 96.457 263.239C96.4254 263.294 96.3827 263.342 96.3316 263.38C96.2804 263.418 96.2219 263.445 96.1596 263.46L96.0159 263.45Z" fill="#4CBE42"/>
<path d="M109.382 231.668C106.469 231.557 104.386 227.749 104.253 224.263C104.25 224.142 104.296 224.025 104.38 223.936C104.465 223.848 104.581 223.796 104.704 223.791C104.766 223.786 104.828 223.795 104.887 223.815C104.945 223.836 104.998 223.867 105.044 223.909C105.089 223.95 105.125 224.001 105.149 224.056C105.174 224.112 105.187 224.172 105.187 224.233C105.289 227.247 107.115 230.663 109.403 230.754C109.515 230.77 109.617 230.825 109.691 230.909C109.764 230.993 109.805 231.1 109.805 231.211C109.805 231.322 109.764 231.429 109.691 231.513C109.617 231.597 109.515 231.652 109.403 231.668H109.382Z" fill="#4CBE42"/>
<path d="M105.772 235.758H105.7C103.843 235.467 101.781 232.151 101.463 229.729C101.451 229.667 101.451 229.603 101.465 229.541C101.478 229.479 101.504 229.42 101.542 229.369C101.58 229.317 101.628 229.274 101.683 229.241C101.738 229.209 101.8 229.188 101.864 229.179C101.928 229.171 101.994 229.176 102.056 229.193C102.118 229.211 102.176 229.24 102.226 229.281C102.276 229.321 102.317 229.371 102.346 229.427C102.376 229.483 102.393 229.545 102.397 229.608C102.684 231.789 104.551 234.633 105.854 234.823C105.967 234.847 106.067 234.91 106.136 235C106.205 235.091 106.237 235.204 106.227 235.316C106.217 235.429 106.165 235.534 106.081 235.612C105.997 235.689 105.887 235.734 105.772 235.738V235.758Z" fill="#4CBE42"/>
<path d="M102.489 239.767H102.407C100.858 239.496 99.0421 236.521 98.7652 234.863C98.755 234.804 98.757 234.743 98.7712 234.684C98.7854 234.626 98.8114 234.57 98.8477 234.522C98.884 234.473 98.9299 234.432 98.9827 234.401C99.0355 234.37 99.094 234.35 99.155 234.341C99.2151 234.329 99.277 234.33 99.3368 234.343C99.3967 234.355 99.4533 234.38 99.5032 234.415C99.5531 234.449 99.5953 234.494 99.6271 234.545C99.6589 234.596 99.6798 234.653 99.6884 234.713C99.9551 236.29 101.617 238.732 102.571 238.863C102.684 238.886 102.784 238.949 102.853 239.04C102.922 239.131 102.954 239.243 102.944 239.356C102.934 239.468 102.882 239.573 102.798 239.651C102.714 239.729 102.604 239.774 102.489 239.777V239.767Z" fill="#4CBE42"/>
<path d="M98.909 243.505H98.8064C98.213 243.324 97.6783 242.994 97.2553 242.548C96.8324 242.102 96.5361 241.556 96.3958 240.963C96.368 240.844 96.389 240.72 96.4543 240.616C96.5196 240.513 96.6239 240.439 96.7445 240.41C96.8655 240.383 96.9926 240.403 97.0983 240.467C97.2039 240.531 97.2795 240.633 97.3087 240.752C97.4123 241.174 97.621 241.565 97.9164 241.89C98.2117 242.214 98.5845 242.462 99.0013 242.611C99.1217 242.637 99.2267 242.709 99.2938 242.81C99.3609 242.912 99.3848 243.035 99.3604 243.153C99.3371 243.253 99.2797 243.343 99.1977 243.407C99.1156 243.471 99.0138 243.505 98.909 243.505Z" fill="#4CBE42"/>
<path d="M112.624 219.5C112.419 219.5 112.218 219.448 112.039 219.349C111.803 219.186 111.614 218.964 111.491 218.707C111.369 218.449 111.317 218.165 111.342 217.882C111.349 217.306 111.496 216.739 111.77 216.229C112.045 215.719 112.44 215.28 112.922 214.948C113.121 214.82 113.352 214.746 113.59 214.735C113.829 214.725 114.065 214.778 114.276 214.888C114.517 215.048 114.709 215.269 114.834 215.527C114.958 215.785 115.01 216.071 114.983 216.355C114.975 216.931 114.827 217.497 114.55 218.006C114.274 218.514 113.877 218.951 113.393 219.279C113.16 219.414 112.895 219.49 112.624 219.5ZM113.65 215.652C113.543 215.657 113.44 215.692 113.352 215.752C113.011 215.999 112.733 216.32 112.539 216.689C112.345 217.059 112.241 217.467 112.234 217.882C112.234 218.274 112.357 218.495 112.47 218.556C112.583 218.616 112.778 218.556 112.881 218.485C113.22 218.237 113.498 217.916 113.692 217.547C113.885 217.178 113.99 216.77 113.999 216.355C113.999 215.953 113.876 215.742 113.763 215.682C113.741 215.667 113.717 215.657 113.691 215.652H113.65Z" fill="#4CBE42"/>
<path d="M98.335 231.538C98.2444 231.537 98.156 231.511 98.0798 231.463C98.0036 231.415 97.9427 231.347 97.9042 231.266C97.2784 229.9 94.3856 230.623 94.3548 230.623C94.2731 230.645 94.1867 230.644 94.1053 230.621C94.0239 230.598 93.9505 230.554 93.8932 230.493C93.833 230.435 93.7912 230.362 93.773 230.281C93.7547 230.201 93.7609 230.117 93.7907 230.04C94.6318 227.589 99.5044 222.203 103.413 221.48C103.473 221.468 103.535 221.468 103.594 221.48C103.654 221.492 103.711 221.515 103.762 221.549C103.812 221.583 103.856 221.626 103.889 221.676C103.922 221.726 103.945 221.782 103.956 221.841C103.97 221.9 103.971 221.961 103.959 222.02C103.948 222.08 103.924 222.136 103.889 222.186C103.855 222.236 103.81 222.278 103.758 222.31C103.706 222.343 103.648 222.364 103.587 222.374C100.407 222.967 96.4065 227.127 95.0216 229.568C96.1808 229.417 98.0991 229.427 98.7658 230.894C98.7914 230.949 98.8055 231.008 98.8075 231.068C98.8094 231.128 98.7991 231.188 98.7771 231.244C98.7551 231.301 98.722 231.352 98.6795 231.395C98.6371 231.439 98.5862 231.473 98.5299 231.497C98.4689 231.525 98.4023 231.539 98.335 231.538Z" fill="#4CBE42"/>
<path opacity="0.1" d="M131.109 245.705C130.574 245.697 130.047 245.582 129.559 245.369C129.071 245.156 128.632 244.848 128.269 244.464C127.906 244.08 127.626 243.628 127.446 243.135C127.265 242.642 127.189 242.118 127.221 241.596V187.597C127.244 186.446 127.572 185.32 128.175 184.332C128.739 183.334 129.564 182.502 130.565 181.92L170.51 159.362C171.195 158.96 171.978 158.745 172.777 158.739C173.543 158.73 174.293 158.95 174.928 159.37C175.562 159.79 176.05 160.391 176.326 161.09C176.509 161.663 176.606 162.259 176.614 162.859V216.837C176.569 217.975 176.244 219.085 175.665 220.072C175.086 221.059 174.271 221.894 173.29 222.504L133.283 245.062C133.054 245.188 132.818 245.302 132.576 245.404C132.107 245.584 131.611 245.686 131.109 245.705Z" fill="black"/>
<path d="M179.218 165.863C179.18 165.204 178.984 164.562 178.645 163.991C178.307 163.42 177.835 162.936 177.269 162.577L175.689 161.683C175.089 161.381 174.425 161.223 173.75 161.223C173.076 161.223 172.411 161.381 171.812 161.683L131.877 184.231C131.309 184.591 130.837 185.077 130.498 185.65C130.159 186.222 129.964 186.866 129.928 187.527V241.526C129.966 242.186 130.163 242.829 130.501 243.401C130.84 243.974 131.311 244.46 131.877 244.821L133.457 245.716C134.058 246.013 134.722 246.168 135.395 246.168C136.069 246.168 136.733 246.013 137.334 245.716L177.269 223.158C177.838 222.797 178.311 222.309 178.65 221.735C178.989 221.16 179.184 220.515 179.218 219.852V165.863Z" fill="#FAFAFA"/>
<path d="M129.888 241.525C129.926 242.186 130.122 242.828 130.461 243.401C130.8 243.973 131.271 244.46 131.837 244.821L133.416 245.715C133.964 245.983 134.563 246.135 135.175 246.161C135.786 246.187 136.397 246.086 136.966 245.866C136.053 246.198 135.355 245.695 135.355 244.61V190.612C135.378 189.952 135.572 189.309 135.919 188.743L130.462 185.688C130.112 186.257 129.914 186.903 129.888 187.567V241.525Z" fill="#E0E0E0"/>
<path d="M179.106 165.33C178.88 164.516 178.131 164.265 177.239 164.768L137.294 187.326C136.724 187.66 136.253 188.134 135.929 188.702L130.462 185.688C130.79 185.106 131.262 184.615 131.836 184.261L171.761 161.713C172.364 161.416 173.03 161.261 173.705 161.261C174.38 161.261 175.046 161.416 175.649 161.713L177.239 162.607C177.722 162.914 178.136 163.313 178.457 163.781C178.778 164.25 178.999 164.776 179.106 165.33Z" fill="#F0F0F0"/>
<path d="M147.224 222.324C145.102 222.342 143.009 221.845 141.131 220.877C141.078 220.851 141.03 220.815 140.991 220.771C140.952 220.728 140.922 220.677 140.903 220.622C140.884 220.567 140.876 220.509 140.88 220.451C140.884 220.393 140.899 220.336 140.926 220.284L156.446 187.125C156.474 187.056 156.52 186.996 156.58 186.95C156.639 186.904 156.71 186.874 156.785 186.864C156.86 186.848 156.939 186.852 157.012 186.875C157.086 186.898 157.152 186.939 157.205 186.994L172.736 202.599C172.808 202.671 172.853 202.765 172.864 202.865C172.875 202.965 172.852 203.066 172.798 203.152C168.407 210.406 162.837 216.214 157.103 219.42C154.125 221.216 150.72 222.218 147.224 222.324ZM141.962 220.264C146.065 222.273 151.286 221.65 156.631 218.626C162.15 215.511 167.525 209.964 171.813 202.981L157.01 188.11L141.962 220.264Z" fill="#4CBE42"/>
<path d="M145.963 226.775C143.583 226.795 141.235 226.236 139.131 225.147C139.078 225.121 139.03 225.086 138.991 225.042C138.952 224.998 138.922 224.947 138.903 224.892C138.884 224.837 138.876 224.779 138.88 224.721C138.884 224.663 138.899 224.606 138.926 224.554L156.447 187.125C156.475 187.056 156.521 186.996 156.58 186.95C156.64 186.904 156.71 186.874 156.785 186.864C156.861 186.848 156.939 186.852 157.013 186.875C157.086 186.898 157.153 186.939 157.206 186.994L174.726 204.599C174.797 204.673 174.842 204.768 174.853 204.87C174.864 204.971 174.841 205.074 174.788 205.161C169.854 213.33 163.566 219.842 157.103 223.499C153.746 225.526 149.905 226.655 145.963 226.775ZM139.962 224.534C144.65 226.785 150.548 226.142 156.631 222.705C162.889 219.168 168.941 212.888 173.803 204.99L157.011 188.11L139.962 224.534Z" fill="#4CBE42"/>
<path d="M139.346 225.197C139.282 225.211 139.215 225.211 139.151 225.197C139.096 225.172 139.046 225.137 139.005 225.093C138.963 225.049 138.931 224.998 138.91 224.941C138.889 224.885 138.88 224.826 138.882 224.766C138.885 224.707 138.9 224.648 138.925 224.594L156.446 187.165C156.474 187.096 156.52 187.035 156.58 186.99C156.639 186.944 156.71 186.914 156.785 186.903C156.86 186.888 156.939 186.892 157.012 186.915C157.086 186.938 157.153 186.979 157.205 187.034L174.726 204.638C174.815 204.725 174.864 204.842 174.864 204.965C174.864 205.087 174.815 205.205 174.726 205.292C174.683 205.334 174.632 205.368 174.576 205.391C174.519 205.414 174.459 205.426 174.398 205.426C174.337 205.426 174.276 205.414 174.22 205.391C174.164 205.368 174.113 205.334 174.07 205.292L157.021 188.159L139.787 224.986C139.739 225.056 139.673 225.112 139.595 225.149C139.518 225.186 139.432 225.203 139.346 225.197Z" fill="#4CBE42"/>
<path d="M156.539 197.635C156.37 197.639 156.206 197.582 156.078 197.474C155.575 197.062 155.698 195.847 156.426 193.847C156.457 193.767 156.51 193.697 156.579 193.644C156.647 193.59 156.729 193.557 156.816 193.546C156.905 193.537 156.995 193.553 157.075 193.592C157.154 193.631 157.221 193.692 157.268 193.767C157.791 194.554 158.016 195.496 157.904 196.429C157.846 196.641 157.746 196.839 157.608 197.012C157.471 197.184 157.299 197.328 157.103 197.434C156.938 197.551 156.743 197.621 156.539 197.635ZM156.939 195.324C156.814 195.75 156.735 196.188 156.703 196.63C156.851 196.529 156.957 196.38 157.001 196.208C157.051 195.913 157.03 195.61 156.939 195.324Z" fill="#4CBE42"/>
<path d="M156.539 214.365C156.371 214.365 156.208 214.308 156.078 214.205C155.575 213.793 155.698 212.567 156.426 210.577C156.456 210.496 156.509 210.425 156.578 210.372C156.646 210.319 156.729 210.285 156.816 210.276C156.904 210.263 156.994 210.277 157.074 210.314C157.155 210.352 157.222 210.412 157.268 210.487C157.787 211.28 158.011 212.224 157.904 213.16C157.844 213.371 157.743 213.568 157.606 213.74C157.469 213.913 157.298 214.057 157.103 214.164C156.936 214.277 156.742 214.346 156.539 214.365ZM156.939 212.044C156.815 212.47 156.735 212.908 156.703 213.351C156.853 213.252 156.959 213.101 157.001 212.929C157.051 212.633 157.03 212.33 156.939 212.044Z" fill="#4CBE42"/>
<path d="M165.514 207.131C165.426 207.134 165.338 207.116 165.258 207.08C164.529 206.809 164.458 205.332 164.519 204.126C164.525 204.059 164.545 203.994 164.579 203.935C164.612 203.876 164.659 203.825 164.714 203.785C164.769 203.744 164.833 203.716 164.9 203.704C164.968 203.692 165.038 203.695 165.104 203.714C165.248 203.714 166.509 204.086 166.827 205C166.905 205.276 166.908 205.566 166.836 205.843C166.764 206.119 166.62 206.373 166.417 206.578C166.318 206.731 166.186 206.859 166.03 206.955C165.874 207.051 165.697 207.111 165.514 207.131ZM165.442 204.83C165.437 205.263 165.485 205.694 165.586 206.116L165.689 206.005C165.914 205.714 165.996 205.483 165.935 205.302C165.831 205.094 165.657 204.927 165.442 204.83Z" fill="#4CBE42"/>
<path d="M147.748 217.139H147.645C147.493 217.131 147.346 217.083 147.22 217C147.093 216.917 146.992 216.801 146.927 216.666C146.517 215.792 147.799 213.873 148.363 213.089C148.42 213.013 148.5 212.955 148.592 212.925C148.683 212.894 148.782 212.892 148.875 212.918C148.968 212.945 149.05 212.998 149.111 213.072C149.172 213.146 149.208 213.236 149.215 213.33C149.215 213.773 149.338 216.053 148.497 216.847C148.398 216.943 148.281 217.018 148.153 217.068C148.024 217.118 147.886 217.142 147.748 217.139ZM148.22 215.059C147.973 215.426 147.821 215.847 147.779 216.285C147.779 216.224 147.779 216.214 147.85 216.174C148.075 215.842 148.203 215.457 148.22 215.059Z" fill="#4CBE42"/>
<path d="M152.446 208.015C152.321 208.019 152.196 207.993 152.083 207.939C151.97 207.885 151.873 207.804 151.8 207.703C151.297 207.01 152.087 205.312 152.826 204.006C152.875 203.926 152.946 203.861 153.032 203.82C153.117 203.779 153.213 203.763 153.308 203.775C153.403 203.789 153.491 203.831 153.56 203.896C153.63 203.96 153.678 204.044 153.698 204.136C153.749 204.367 154.18 206.447 153.493 207.442C153.399 207.588 153.274 207.713 153.128 207.808C152.981 207.903 152.815 207.967 152.641 207.995C152.577 208.01 152.512 208.017 152.446 208.015ZM152.949 205.865C152.763 206.246 152.635 206.652 152.569 207.07C152.635 207.041 152.688 206.991 152.723 206.93C152.897 206.602 152.975 206.233 152.949 205.865Z" fill="#4CBE42"/>
<path d="M160.693 203.413C160.582 203.415 160.472 203.388 160.375 203.333C159.811 203.041 159.698 201.946 160.026 200.057C160.041 199.982 160.074 199.912 160.122 199.853C160.17 199.793 160.233 199.746 160.303 199.715C160.37 199.681 160.444 199.663 160.519 199.663C160.594 199.663 160.668 199.681 160.734 199.715C161.074 199.914 161.371 200.177 161.605 200.489C161.839 200.801 162.007 201.157 162.099 201.534C162.123 201.805 162.08 202.078 161.975 202.329C161.87 202.581 161.705 202.804 161.493 202.981C161.396 203.101 161.275 203.201 161.137 203.275C161 203.349 160.849 203.396 160.693 203.413ZM160.878 201.032C160.827 201.479 160.827 201.931 160.878 202.378C160.983 202.294 161.067 202.188 161.123 202.068C161.18 201.948 161.209 201.817 161.206 201.685C161.155 201.435 161.026 201.207 160.837 201.032H160.878Z" fill="#4CBE42"/>
<path opacity="0.1" d="M97.8215 305.321C97.2894 305.314 96.7643 305.201 96.2778 304.99C95.7912 304.779 95.3532 304.474 94.9901 304.093C94.627 303.712 94.3463 303.263 94.1647 302.773C93.9832 302.283 93.9046 301.762 93.9336 301.241V280.341C93.9734 279.199 94.2992 278.084 94.8823 277.094C95.4655 276.104 96.2881 275.27 97.2778 274.664L159.36 239.687C160.048 239.282 160.834 239.063 161.637 239.054C162.402 239.047 163.151 239.27 163.784 239.692C164.416 240.114 164.902 240.715 165.176 241.415H165.227C165.411 241.988 165.508 242.584 165.515 243.184V264.064C165.475 265.202 165.152 266.314 164.573 267.302C163.993 268.29 163.175 269.124 162.191 269.731L100.088 304.718C99.8589 304.841 99.6226 304.952 99.3807 305.05C98.8827 305.234 98.3539 305.326 97.8215 305.321Z" fill="black"/>
<path d="M167.936 246.108C167.898 245.447 167.702 244.804 167.364 244.231C167.025 243.659 166.553 243.172 165.987 242.812L164.407 241.917C163.806 241.62 163.142 241.465 162.468 241.465C161.795 241.465 161.131 241.62 160.53 241.917L98.4578 276.895C97.8914 277.255 97.4197 277.742 97.0811 278.314C96.7424 278.887 96.5464 279.53 96.5088 280.191V301.06C96.5464 301.721 96.7424 302.364 97.0811 302.936C97.4197 303.509 97.8914 303.995 98.4578 304.356L100.038 305.25C100.639 305.548 101.303 305.703 101.976 305.703C102.65 305.703 103.314 305.548 103.915 305.25L165.997 270.273C166.561 269.911 167.03 269.424 167.367 268.851C167.704 268.279 167.899 267.637 167.936 266.977V246.108Z" fill="#4CBE42"/>
<path opacity="0.15" d="M167.936 246.108C167.898 245.447 167.702 244.804 167.364 244.231C167.025 243.659 166.553 243.172 165.987 242.812L164.407 241.917C163.806 241.62 163.142 241.465 162.468 241.465C161.795 241.465 161.131 241.62 160.53 241.917L98.4578 276.895C97.8914 277.255 97.4197 277.742 97.0811 278.314C96.7424 278.887 96.5464 279.53 96.5088 280.191V301.06C96.5464 301.721 96.7424 302.364 97.0811 302.936C97.4197 303.509 97.8914 303.995 98.4578 304.356L100.038 305.25C100.639 305.548 101.303 305.703 101.976 305.703C102.65 305.703 103.314 305.548 103.915 305.25L165.997 270.273C166.561 269.911 167.03 269.424 167.367 268.851C167.704 268.279 167.899 267.637 167.936 266.977V246.108Z" fill="black"/>
<path opacity="0.3" d="M96.4775 301.06C96.5151 301.721 96.7112 302.364 97.0498 302.936C97.3885 303.509 97.8601 303.995 98.4266 304.356L100.006 305.25C100.554 305.518 101.153 305.67 101.765 305.696C102.376 305.722 102.986 305.621 103.556 305.401C102.643 305.743 101.945 305.23 101.945 304.145V283.285C101.967 282.622 102.161 281.975 102.509 281.406L97.052 278.322C96.7022 278.887 96.5046 279.53 96.4775 280.19V301.06Z" fill="black"/>
<path opacity="0.15" d="M167.843 245.565C167.607 244.761 166.817 244.499 165.966 245.012L103.884 279.989C103.308 280.334 102.837 280.824 102.519 281.406L97.0518 278.321C97.3797 277.742 97.8528 277.255 98.4263 276.905L160.498 241.957C161.099 241.66 161.763 241.505 162.437 241.505C163.11 241.505 163.775 241.66 164.376 241.957L165.966 242.862C166.446 243.167 166.86 243.564 167.182 244.028C167.505 244.492 167.729 245.014 167.843 245.565Z" fill="black"/>
<path d="M108.007 296.599C107.976 296.625 107.936 296.64 107.894 296.64C107.853 296.64 107.813 296.625 107.782 296.599C107.743 296.559 107.714 296.511 107.697 296.459C107.679 296.407 107.673 296.352 107.679 296.298V284.36C107.68 284.22 107.715 284.083 107.782 283.959C107.826 283.845 107.905 283.746 108.007 283.677L111.957 281.446C112.366 281.182 112.841 281.032 113.331 281.014C113.5 281.013 113.666 281.046 113.822 281.109C113.977 281.173 114.117 281.268 114.234 281.386C114.485 281.672 114.652 282.019 114.716 282.391C114.821 282.812 114.873 283.244 114.87 283.677C114.872 284.014 114.845 284.35 114.788 284.682C114.745 284.948 114.679 285.21 114.593 285.466C114.536 285.67 114.46 285.868 114.367 286.059C114.314 286.186 114.252 286.31 114.183 286.43C114.343 286.51 114.484 286.62 114.599 286.755C114.713 286.889 114.799 287.046 114.849 287.214C114.988 287.691 115.05 288.186 115.034 288.681C115.036 289.204 114.988 289.725 114.891 290.239C114.792 290.774 114.631 291.297 114.408 291.796C114.184 292.301 113.89 292.774 113.536 293.203C113.166 293.64 112.717 294.007 112.213 294.288L108.007 296.599ZM112.593 285.004C112.608 284.887 112.599 284.769 112.565 284.657C112.532 284.544 112.475 284.44 112.398 284.35C112.275 284.23 112.09 284.24 111.844 284.35L109.946 285.426V287.536L111.844 286.461C112.089 286.322 112.283 286.111 112.398 285.858C112.529 285.591 112.595 285.299 112.593 285.004ZM109.946 292.65L111.998 291.505C112.255 291.35 112.459 291.122 112.582 290.852C112.727 290.56 112.804 290.241 112.808 289.917C112.819 289.796 112.804 289.674 112.765 289.558C112.727 289.442 112.664 289.335 112.582 289.244C112.439 289.113 112.244 289.113 111.998 289.244L109.946 290.389V292.65Z" fill="#FAFAFA"/>
<path d="M123.425 274.965C123.457 274.939 123.497 274.925 123.538 274.925C123.579 274.925 123.619 274.939 123.651 274.965C123.688 275.006 123.717 275.054 123.735 275.105C123.752 275.157 123.759 275.212 123.753 275.267V282.632C123.756 283.44 123.666 284.245 123.487 285.033C123.314 285.754 123.056 286.452 122.717 287.113C122.405 287.72 122.008 288.281 121.538 288.781C121.099 289.252 120.591 289.655 120.03 289.977C119.568 290.257 119.05 290.435 118.512 290.5C118.091 290.537 117.673 290.415 117.342 290.158C116.972 289.835 116.708 289.412 116.583 288.942C116.381 288.26 116.287 287.552 116.306 286.842V279.477C116.31 279.334 116.345 279.194 116.409 279.065C116.459 278.951 116.541 278.854 116.645 278.784L118.245 277.879C118.278 277.852 118.32 277.838 118.363 277.838C118.406 277.838 118.448 277.852 118.481 277.879C118.549 277.961 118.583 278.065 118.573 278.171V285.466C118.52 285.999 118.646 286.536 118.932 286.993C119.178 287.274 119.537 287.284 120.03 286.993C120.53 286.712 120.917 286.272 121.127 285.747C121.377 285.13 121.499 284.471 121.486 283.808V276.513C121.486 276.373 121.522 276.235 121.589 276.111C121.633 275.997 121.712 275.899 121.815 275.83L123.425 274.965Z" fill="#FAFAFA"/>
<path d="M129.857 283.747C129.855 283.886 129.824 284.023 129.765 284.149C129.721 284.267 129.638 284.366 129.529 284.431L127.929 285.335C127.896 285.362 127.854 285.377 127.811 285.377C127.768 285.377 127.726 285.362 127.693 285.335C127.623 285.251 127.589 285.142 127.601 285.034V281.145L124.769 274.895C124.753 274.826 124.753 274.754 124.769 274.684C124.772 274.569 124.8 274.456 124.851 274.353C124.888 274.262 124.952 274.184 125.036 274.131L126.718 273.127C126.882 273.036 127.006 273.026 127.088 273.127C127.148 273.18 127.197 273.245 127.231 273.318L128.77 276.985L130.329 271.569C130.367 271.445 130.415 271.324 130.473 271.207C130.55 271.042 130.679 270.904 130.842 270.816L132.524 269.871C132.55 269.85 132.583 269.838 132.617 269.838C132.651 269.838 132.683 269.85 132.709 269.871C132.738 269.904 132.761 269.942 132.775 269.984C132.789 270.025 132.794 270.069 132.791 270.112C132.785 270.204 132.768 270.296 132.74 270.384L129.909 279.829L129.857 283.747Z" fill="#FAFAFA"/>
<path d="M141.613 277.598C141.469 277.678 141.356 277.678 141.274 277.598C141.209 277.552 141.153 277.494 141.11 277.427L138.31 272.705V278.944C138.309 279.084 138.273 279.222 138.207 279.346C138.16 279.459 138.082 279.556 137.982 279.628L136.371 280.532C136.279 280.582 136.207 280.582 136.145 280.532C136.108 280.493 136.079 280.447 136.062 280.397C136.044 280.347 136.038 280.294 136.043 280.241V268.324C136.043 268.183 136.078 268.045 136.145 267.922C136.186 267.806 136.265 267.706 136.371 267.64L137.643 266.917C137.787 266.846 137.899 266.836 137.982 266.917C138.046 266.96 138.102 267.014 138.146 267.078L140.946 271.81V265.57C140.95 265.427 140.985 265.287 141.049 265.158C141.096 265.046 141.179 264.951 141.285 264.887L142.885 263.983C142.917 263.954 142.959 263.938 143.003 263.938C143.047 263.938 143.089 263.954 143.121 263.983C143.19 264.064 143.223 264.169 143.213 264.274V276.201C143.213 276.343 143.181 276.484 143.121 276.613C143.07 276.724 142.988 276.818 142.885 276.885L141.613 277.598Z" fill="#FAFAFA"/>
<path d="M144.649 267.781C144.674 267.066 144.773 266.356 144.947 265.661C145.116 264.965 145.368 264.29 145.696 263.651C146.014 263.029 146.407 262.445 146.865 261.913C147.32 261.395 147.861 260.957 148.465 260.617C148.941 260.315 149.49 260.142 150.055 260.114C150.486 260.099 150.907 260.243 151.235 260.516C151.593 260.827 151.853 261.231 151.984 261.682C152.17 262.258 152.273 262.856 152.292 263.46C152.292 263.983 152.292 264.525 152.292 265.108C152.292 265.691 152.292 266.234 152.292 266.746C152.259 267.461 152.156 268.171 151.984 268.866C151.812 269.561 151.561 270.236 151.235 270.876C150.923 271.504 150.526 272.089 150.055 272.614C149.593 273.128 149.049 273.566 148.445 273.91C147.965 274.213 147.414 274.39 146.845 274.423C146.418 274.434 146.001 274.291 145.675 274.021C145.324 273.701 145.065 273.295 144.926 272.845C144.739 272.27 144.639 271.671 144.629 271.067C144.629 270.574 144.629 270.062 144.629 269.449C144.629 268.836 144.629 268.314 144.649 267.781ZM150.025 267.932C150.025 267.711 150.025 267.459 150.025 267.178C150.025 266.897 150.025 266.625 150.025 266.344C150.025 266.063 150.025 265.791 150.025 265.53C150.025 265.269 150.025 265.038 150.025 264.827C150.011 264.565 149.967 264.305 149.891 264.053C149.839 263.865 149.74 263.693 149.604 263.551C149.475 263.433 149.308 263.366 149.132 263.36C148.895 263.373 148.666 263.446 148.465 263.571C148.215 263.712 147.993 263.896 147.809 264.113C147.616 264.326 147.456 264.567 147.337 264.827C147.204 265.096 147.105 265.379 147.04 265.671C146.967 265.971 146.926 266.277 146.916 266.585C146.916 266.806 146.916 267.047 146.916 267.319C146.916 267.59 146.916 267.861 146.916 268.143C146.916 268.424 146.916 268.705 146.916 268.967C146.916 269.228 146.916 269.479 146.916 269.69C146.903 270.156 147.051 270.613 147.337 270.986C147.583 271.248 147.963 271.238 148.465 270.986C148.97 270.702 149.366 270.265 149.594 269.74C149.847 269.168 149.993 268.555 150.025 267.932Z" fill="#FAFAFA"/>
<path d="M159.544 261.27L160.334 254.588C160.348 254.422 160.397 254.262 160.478 254.116C160.537 254.022 160.613 253.94 160.703 253.874L162.314 252.97C162.34 252.949 162.372 252.937 162.406 252.937C162.44 252.937 162.473 252.949 162.498 252.97C162.53 253.002 162.553 253.04 162.568 253.082C162.582 253.123 162.586 253.168 162.58 253.211C162.585 253.265 162.585 253.319 162.58 253.372L161.001 265.932C160.974 266.137 160.907 266.334 160.806 266.515C160.719 266.708 160.572 266.87 160.385 266.977L159.359 267.55C159.195 267.64 159.062 267.64 158.97 267.55C158.858 267.461 158.782 267.336 158.754 267.198L157.831 263.541L156.918 268.233C156.874 268.443 156.801 268.645 156.703 268.836C156.617 269.019 156.478 269.173 156.302 269.278L155.277 269.861C155.215 269.903 155.142 269.925 155.066 269.925C154.991 269.925 154.918 269.903 154.856 269.861C154.799 269.815 154.753 269.759 154.719 269.695C154.685 269.631 154.666 269.561 154.661 269.489L153.081 258.718C153.077 258.671 153.077 258.624 153.081 258.577C153.084 258.462 153.112 258.349 153.164 258.245C153.202 258.153 153.266 258.073 153.348 258.014L154.959 257.11C154.994 257.093 155.032 257.084 155.072 257.084C155.111 257.084 155.149 257.093 155.184 257.11C155.266 257.11 155.307 257.241 155.338 257.411L156.118 263.209L156.836 259.461C156.836 259.371 156.897 259.23 156.949 259.069C157.003 258.911 157.112 258.776 157.256 258.687L158.405 258.044C158.549 257.957 158.652 257.957 158.713 258.044C158.764 258.129 158.802 258.22 158.826 258.316L159.544 261.27Z" fill="#FAFAFA"/>
<path d="M68.7812 98.762L95.4215 135.357L221.011 64.3371L194.351 27.752L68.7812 98.762Z" fill="#4CBE42"/>
<path d="M80.1777 92.3111L91.595 85.8501L118.246 122.445L106.828 128.896L80.1777 92.3111Z" fill="#FAFAFA"/>
<path d="M103.022 79.3992L114.44 72.9382L141.101 109.533L129.683 115.984L103.022 79.3992Z" fill="#FAFAFA"/>
<path d="M125.878 66.4875L137.295 60.0266L163.946 96.6116L152.528 103.073L125.878 66.4875Z" fill="#FAFAFA"/>
<path d="M148.723 53.5757L160.14 47.1147L186.79 83.7001L175.373 90.1611L148.723 53.5757Z" fill="#FAFAFA"/>
<path d="M171.567 40.6638L182.985 34.2029L209.635 70.7879L198.218 77.2488L171.567 40.6638Z" fill="#FAFAFA"/>
<path d="M106.828 128.896C106.828 132.463 109.382 133.92 112.542 132.122C114.202 131.061 115.583 129.632 116.574 127.951C117.565 126.27 118.137 124.384 118.245 122.445L106.828 128.896Z" fill="#E0E0E0"/>
<path d="M129.663 115.984C129.663 119.552 132.217 121.009 135.367 119.21C137.028 118.15 138.41 116.721 139.403 115.04C140.396 113.359 140.97 111.472 141.08 109.533L129.663 115.984Z" fill="#E0E0E0"/>
<path d="M152.487 103.073C152.487 106.64 155.042 108.097 158.201 106.308C159.862 105.246 161.243 103.815 162.234 102.132C163.225 100.45 163.797 98.5619 163.905 96.6221L152.487 103.073Z" fill="#E0E0E0"/>
<path d="M175.322 90.1607C175.322 93.7277 177.877 95.1847 181.026 93.3961C182.686 92.3338 184.068 90.9032 185.059 89.2204C186.05 87.5376 186.622 85.6498 186.729 83.71L175.322 90.1607Z" fill="#E0E0E0"/>
<path d="M198.146 77.2592C198.146 80.8162 200.701 82.2832 203.85 80.4846C205.513 79.4239 206.897 77.994 207.89 76.311C208.883 74.6279 209.456 72.7393 209.564 70.7983L198.146 77.2592Z" fill="#E0E0E0"/>
<path d="M95.4219 135.347C95.4219 138.914 97.9761 140.371 101.125 138.583C102.786 137.52 104.167 136.09 105.158 134.407C106.149 132.724 106.722 130.836 106.829 128.896L95.4219 135.347Z" fill="#4CBE42"/>
<path d="M118.246 122.445C118.246 126.002 120.8 127.469 123.95 125.671C125.613 124.61 126.997 123.18 127.989 121.497C128.982 119.814 129.556 117.925 129.663 115.984L118.246 122.445Z" fill="#4CBE42"/>
<path d="M141.07 109.533C141.07 113.1 143.635 114.557 146.784 112.759C148.445 111.697 149.827 110.267 150.818 108.584C151.809 106.901 152.381 105.013 152.488 103.073L141.07 109.533Z" fill="#4CBE42"/>
<path d="M163.904 96.6218C163.904 100.189 166.459 101.646 169.608 99.8473C171.272 98.7878 172.657 97.3581 173.65 95.6748C174.643 93.9915 175.215 92.1022 175.322 90.1609L163.904 96.6218Z" fill="#4CBE42"/>
<path d="M186.729 83.7101C186.729 87.2772 189.283 88.7341 192.442 86.9355C194.102 85.8747 195.483 84.4459 196.474 82.7648C197.465 81.0837 198.038 79.1976 198.146 77.2593L186.729 83.7101Z" fill="#4CBE42"/>
<path d="M209.563 70.7983C209.563 74.3653 212.118 75.8223 215.267 74.0237C216.928 72.964 218.31 71.5355 219.301 69.8541C220.292 68.1728 220.864 66.2861 220.97 64.3474L209.563 70.7983Z" fill="#4CBE42"/>
<g opacity="0.15">
<path opacity="0.15" d="M95.4219 135.347C95.4219 138.914 97.9761 140.371 101.125 138.582C102.786 137.52 104.167 136.089 105.158 134.407C106.149 132.724 106.722 130.836 106.829 128.896L95.4219 135.347Z" fill="black"/>
<path opacity="0.15" d="M118.246 122.445C118.246 126.002 120.8 127.469 123.95 125.67C125.613 124.61 126.997 123.18 127.989 121.497C128.982 119.814 129.556 117.925 129.663 115.984L118.246 122.445Z" fill="black"/>
<path opacity="0.15" d="M141.07 109.533C141.07 113.1 143.635 114.557 146.784 112.759C148.445 111.697 149.827 110.267 150.818 108.584C151.809 106.901 152.381 105.013 152.488 103.073L141.07 109.533Z" fill="black"/>
<path opacity="0.15" d="M163.905 96.6216C163.905 100.189 166.46 101.646 169.609 99.847C171.273 98.7875 172.658 97.3579 173.651 95.6746C174.644 93.9913 175.217 92.102 175.323 90.1606L163.905 96.6216Z" fill="black"/>
<path opacity="0.15" d="M186.729 83.7099C186.729 87.2769 189.284 88.7339 192.443 86.9353C194.103 85.8745 195.484 84.4456 196.475 82.7645C197.466 81.0834 198.039 79.1973 198.147 77.259L186.729 83.7099Z" fill="black"/>
<path opacity="0.15" d="M209.563 70.7981C209.563 74.3652 212.118 75.8222 215.267 74.0236C216.928 72.964 218.31 71.5354 219.301 69.854C220.292 68.1726 220.864 66.2859 220.97 64.3472L209.563 70.7981Z" fill="black"/>
</g>
<path d="M95.4215 135.347L68.7812 115.984V98.762L95.4215 135.347Z" fill="#4CBE42"/>
<path opacity="0.2" d="M95.4215 135.347L68.7812 115.984V98.762L95.4215 135.347Z" fill="black"/>
<path d="M307.919 262.155C307.919 262.155 303.929 260.729 302.903 260.799C301.877 260.869 300.267 261.422 299.918 262.809C299.918 262.809 302.441 265.17 305.457 264.949C308.473 264.728 307.919 262.155 307.919 262.155Z" fill="#263238"/>
<path d="M337.493 257.132C339.853 249.776 339.791 244.873 338.16 242.059C337.062 240.17 333.647 239.417 332.2 239.296C330.754 239.176 330.251 240.301 331.574 241.547C332.898 242.793 332.416 244.019 331.698 245.566C330.823 247.325 329.793 249.006 328.62 250.59L337.493 257.132Z" fill="#263238"/>
<path d="M307.253 262.115C306.503 262.263 305.74 262.337 304.975 262.337C303.662 262.252 302.388 261.859 301.262 261.191C300.463 260.688 299.843 259.954 299.487 259.091C299.289 258.399 299.233 257.674 299.323 256.961C299.318 256.383 299.401 255.807 299.569 255.253C300.187 253.822 301.308 252.656 302.729 251.967C305.714 250.198 308.884 251.736 313.295 252.489C316.639 253.052 323.06 247.867 330.918 250.641C338.571 253.343 338.663 261.402 340.202 267.863C342.715 278.403 344.643 275.771 351.003 286.352C356.132 294.862 357.907 293.385 363.652 301.685C366.493 305.815 372.094 313.09 374.935 322.133C378.485 333.296 374.197 341.506 366.832 345.716C360.307 349.434 356.789 350.74 347.731 350.077C342.674 349.725 339.658 347.615 337.647 346.479C333.544 348.78 324.845 342.581 321.768 340.27C316.013 335.949 319.234 332.08 324.302 333.236C326.338 333.688 328.317 334.362 330.2 335.246C328.388 331.674 326.945 327.935 325.892 324.082C324.773 319.41 325.43 315.471 327.246 314.466C326.413 313.633 325.625 312.758 324.886 311.844C324.517 316.024 323.04 328.383 322.742 329.347C322.342 330.634 319.665 333.115 317.223 332.462C314.782 331.809 309.663 329.568 308.914 327.438C307.889 324.564 310.833 324.122 315.88 325.429V325.318C315.736 320.083 315.203 312.467 315.141 307.231C315.141 304.107 315.069 300.298 314.874 297.766C314.726 296.096 314.665 294.419 314.69 292.742C314.782 288.512 315.305 283.91 315.264 281.91C315.192 278.825 314.762 275.61 312.453 273.42C310.145 271.229 307.16 270.124 304.493 268.536C303.515 267.969 302.592 267.317 301.734 266.587C300.934 265.873 299.344 264.035 299.918 262.859C301.311 263.735 302.978 264.091 304.616 263.864C305.649 263.716 306.615 263.276 307.396 262.598C307.468 262.527 307.55 262.447 307.53 262.347C307.528 262.313 307.52 262.28 307.505 262.25C307.49 262.22 307.469 262.193 307.443 262.171C307.417 262.149 307.387 262.133 307.354 262.124C307.321 262.114 307.287 262.111 307.253 262.115Z" fill="#455A64"/>
<path d="M366.616 339.888C366.059 340.348 365.652 340.957 365.444 341.641C365.236 342.325 365.237 343.053 365.447 343.736C365.447 343.736 367.611 347.153 377.757 348.248C387.42 349.303 396.847 345.233 405.177 348.248C413.506 351.262 410.049 357.462 410.921 359.11C411.793 360.758 414.173 359.612 414.173 354.739C414.173 349.866 410.829 345.444 404.807 344.038C398.786 342.631 390.271 343.756 382.239 343.887C374.033 344.018 372.053 340.742 370.75 339.426C369.212 337.898 367.704 338.883 366.616 339.888Z" fill="#37474F"/>
<path d="M303.385 253.303L303.488 253.183C303.621 253.012 303.683 252.811 303.826 252.65C304.073 252.446 304.37 252.311 304.688 252.258C305.15 252.128 305.591 251.896 305.416 251.364C305.386 251.296 305.341 251.236 305.284 251.187C305.227 251.139 305.16 251.103 305.088 251.083C304.609 250.827 304.082 250.669 303.539 250.62C302.885 250.658 302.25 250.855 301.693 251.193C300.566 251.753 299.623 252.613 298.974 253.675C298.677 254.268 299.425 256.076 299.425 256.076C299.411 255.794 299.463 255.512 299.579 255.253C299.938 254.248 301.631 254.027 302.575 253.735C302.874 253.65 303.15 253.503 303.385 253.303Z" fill="#263238"/>
<path d="M341.997 273.57L339.801 274.987C339.801 274.987 335.493 279.921 325.861 280.343C322.409 280.538 318.947 280.501 315.5 280.232C315.565 279.953 315.711 279.698 315.921 279.499C317.89 277.358 318.465 271.892 315.921 270.114C313.377 268.335 308.063 270.375 303.457 267.813L304.483 268.466C307.15 270.053 310.176 271.189 312.443 273.349C314.341 275.148 314.967 277.65 315.162 280.202H314.946C314.98 280.475 315.071 280.738 315.213 280.976C315.213 281.267 315.213 281.569 315.213 281.86C315.213 282.382 315.213 283.046 315.141 283.87L317.295 284.191C322.019 284.909 326.844 284.644 331.457 283.415C336.07 282.186 340.367 280.02 344.069 277.057C343.22 275.992 342.523 274.819 341.997 273.57Z" fill="#37474F"/>
<path d="M325.491 257.664C323.942 259.151 321.798 261.06 320.187 262.879C318.813 264.416 317.756 263.281 316.607 256.187C315.582 250.108 315.058 249.154 313.981 248.792C313.171 248.531 311.755 248.701 311.489 248.129C310.996 247.043 312.709 244.994 316.72 244.351C322.813 243.366 327.922 255.343 325.491 257.664Z" fill="#263238"/>
<path d="M340.899 270.506C341.104 271.129 341.196 271.46 341.196 271.46C341.196 271.46 338.273 275.54 328.373 277.489C318.474 279.438 314.874 277.981 314.874 277.981C314.781 277.508 314.654 277.041 314.494 276.585C314.494 276.585 313.992 276.957 314.187 279.217C314.32 280.845 314.546 281.539 315.438 281.739C318.228 282.362 323.809 282.302 329.266 281.106C337.678 279.258 341.832 276.082 342.601 275.319C343.371 274.555 343.104 273.912 342.386 272.254C341.668 270.596 341.299 270.385 340.899 270.506Z" fill="#4CBE42"/>
<path d="M327.245 314.496C330.138 312.848 336.908 314.235 343.012 321.6C343.012 321.6 342.756 316.938 336.991 313.662C331.225 310.387 327.04 311.492 325.491 312.577L327.245 314.496Z" fill="#37474F"/>
<path d="M328.312 334.402C329.502 334.854 330.231 335.215 330.231 335.215C331.759 338.23 333.78 341.606 333.78 341.606C333.78 341.606 329.687 337.938 328.312 334.402Z" fill="#37474F"/>
<path d="M320.372 333.457C320.748 333.289 321.145 333.167 321.552 333.095C321.909 333.193 322.253 333.331 322.578 333.507C322.897 333.682 323.197 333.891 323.47 334.13C323.583 334.221 324.178 334.783 323.983 334.924C323.788 335.065 323.85 334.924 323.798 334.924C323.04 334.393 322.202 333.98 321.316 333.698C321.007 333.599 320.691 333.518 320.372 333.457Z" fill="#37474F"/>
<path d="M318.916 334.904C318.998 334.689 319.116 334.489 319.265 334.311C320.721 334.562 322.342 335.025 322.67 336.321C322.67 336.321 322.67 336.532 322.578 336.482C321.989 336.06 321.356 335.7 320.691 335.406C320.121 335.172 319.525 335.004 318.916 334.904Z" fill="#37474F"/>
<path d="M309.253 325.288C309.585 325.046 309.972 324.887 310.381 324.826H310.607C311.212 324.945 311.768 325.235 312.207 325.66C312.207 325.66 312.207 325.8 312.207 325.78C311.47 325.481 310.686 325.304 309.889 325.258C309.676 325.251 309.464 325.261 309.253 325.288Z" fill="#37474F"/>
<path d="M308.74 326.233C308.765 326.023 308.835 325.821 308.945 325.64C309.118 325.656 309.289 325.683 309.458 325.72C309.992 325.851 310.679 326.092 310.802 326.725C310.802 326.725 310.802 326.835 310.751 326.815C310.248 326.609 309.73 326.437 309.202 326.303C309.048 326.243 308.894 326.243 308.74 326.233Z" fill="#37474F"/>
<path d="M256.596 157.554C264.176 157.051 269.008 158.036 272.762 166.597C277.533 177.429 283.646 197.746 285.277 204.448C286.037 207.593 286.026 210.236 282.856 213.793C276.076 221.379 267.151 230.231 267.151 230.231L262.309 213.622L268.208 205.121L261.099 186.271L256.596 157.554Z" fill="#FFA8A7"/>
<path d="M268.218 205.121C269.394 207.118 270.768 208.997 272.321 210.728C270.179 209.955 268.394 208.449 267.295 206.488L268.218 205.121Z" fill="#F28F8F"/>
<path d="M189.754 385.283C189.362 386.547 189.33 387.892 189.661 389.172C190.041 389.956 192.421 392.528 197.283 393.463C202.146 394.397 208.813 393.463 211.645 393.292C214.476 393.121 223.554 394.196 226.416 394.578C230.93 395.181 234.397 394.206 236.079 392.568C236.351 392.247 236.551 391.874 236.668 391.472C236.784 391.071 236.814 390.65 236.756 390.237C236.744 389.172 236.582 388.114 236.274 387.092L189.754 385.283Z" fill="#37474F"/>
<path d="M235.567 382.51C235.659 382.882 235.741 383.244 235.813 383.615C236.254 385.495 236.396 387.43 236.234 389.353C235.871 389.994 235.376 390.554 234.778 390.995C234.181 391.437 233.495 391.75 232.766 391.915C229.371 392.97 226.786 392.799 223.021 392.106C219.238 391.566 215.416 391.334 211.594 391.413C208.629 391.614 204.557 392.166 201.592 391.905C199.077 391.794 196.596 391.299 194.237 390.438C192.257 389.604 190.247 388.539 189.764 386.549C189.18 382.359 190.975 380.521 193.016 379.335C195.058 378.149 197.92 378.25 201.007 378.049C203.797 377.868 205.829 377.868 208.311 377.677C210.443 377.475 212.551 377.081 214.61 376.501C216.476 375.919 218.487 373.899 219.287 373.809C219.287 373.809 231.71 373.718 232.9 373.809C234.264 373.919 234.685 378.089 234.859 378.993C234.992 379.697 235.013 380.46 235.208 381.144C235.331 381.626 235.454 382.048 235.567 382.51Z" fill="#4CBE42"/>
<g opacity="0.4">
<path opacity="0.4" d="M235.567 382.51C235.659 382.882 235.741 383.244 235.813 383.615C236.254 385.495 236.396 387.43 236.234 389.353C235.871 389.994 235.376 390.554 234.778 390.995C234.181 391.437 233.495 391.75 232.766 391.915C229.371 392.97 226.786 392.799 223.021 392.106C219.238 391.566 215.416 391.334 211.594 391.413C208.629 391.614 204.557 392.166 201.592 391.905C199.077 391.794 196.596 391.299 194.237 390.438C192.257 389.604 190.247 388.539 189.764 386.549C189.18 382.359 190.975 380.521 193.016 379.335C195.058 378.149 197.92 378.25 201.007 378.049C203.797 377.868 205.829 377.868 208.311 377.677C210.443 377.475 212.551 377.081 214.61 376.501C216.476 375.919 218.487 373.899 219.287 373.809C219.287 373.809 231.71 373.718 232.9 373.809C234.264 373.919 234.685 378.089 234.859 378.993C234.992 379.697 235.013 380.46 235.208 381.144C235.331 381.626 235.454 382.048 235.567 382.51Z" fill="black"/>
</g>
<path d="M197.284 391.343C196.894 388.328 196.381 381.767 202.054 377.989H202.782C200.216 377.26 197.491 377.26 194.925 377.989C190.38 379.174 188.359 382.771 189.498 386.58C189.478 386.54 190.503 390.217 197.284 391.343Z" fill="#FAFAFA"/>
<path d="M240.091 318.383C239.691 325.337 233.085 372.774 232.51 375.316C232.162 376.833 230.202 378.451 225.104 378.28C221.524 378.17 218.703 378.461 218.847 375.708L215.246 315.469L240.091 318.383Z" fill="#FFA8A7"/>
<path d="M241.27 346.458C241.086 348.588 240.799 350.477 241.691 352.868C242.963 356.245 245.671 357.792 247.261 359.118C248.937 360.742 250.483 362.489 251.888 364.343C253.436 366.192 253.775 367.358 256.196 369.367C257.704 370.583 261.92 371.588 264.515 370.513C266.567 369.669 267.244 368.995 267.121 365.951C266.998 362.906 257.078 361.861 257.078 361.861L241.27 346.458Z" fill="#37474F"/>
<path d="M265.839 356.867C266.68 357.159 266.864 358.666 267.018 361.65C267.121 363.901 268.136 367.207 264.802 368.634C262.105 369.779 257.806 369.015 255.981 366.885C253.777 364.028 251.428 361.282 248.944 358.656C246.133 355.842 243.199 354.898 241.958 349.281C241.147 345.664 241.783 344.167 244.389 343.132C247.979 341.705 253.621 346.367 256.432 347.091C258.853 347.724 264.987 356.566 265.839 356.867Z" fill="#4CBE42"/>
<path opacity="0.4" d="M265.839 356.867C266.68 357.159 266.864 358.666 267.018 361.65C267.121 363.901 268.136 367.207 264.802 368.634C262.105 369.779 257.806 369.015 255.981 366.885C253.777 364.028 251.428 361.282 248.944 358.656C246.133 355.842 243.199 354.898 241.958 349.281C241.147 345.664 241.783 344.167 244.389 343.132C247.979 341.705 253.621 346.367 256.432 347.091C258.853 347.724 264.987 356.566 265.839 356.867Z" fill="black"/>
<path d="M270.188 303.431C270.66 322.463 267.603 341.614 266.187 358.033C265.941 359.651 257.662 362.967 254.903 358.244C254.739 357.892 247.179 304.316 247.179 304.316L270.188 303.431Z" fill="#FFA8A7"/>
<path d="M243.599 353.431C243.599 353.431 243.876 346.95 253.149 345.865L252.985 344.719C251.981 343.747 250.731 343.054 249.364 342.71C246.143 341.896 243.599 342.71 241.906 344.719C240.214 346.729 241.927 352.135 243.599 353.431Z" fill="#FAFAFA"/>
<path d="M269.757 291.193C269.757 291.193 269.223 277.869 269.551 263.541C269.757 254.548 269.941 249.393 269.551 243.103C269.217 236.074 268.356 229.078 266.977 222.173C266.977 222.173 216.086 212.667 215.471 230.563C214.722 252.006 214.014 294.529 213.963 300.136C213.912 305.743 214.271 309.491 214.855 321.418C222.959 323.357 234.417 322.141 240.808 319.8C241.034 313.771 241.178 310.365 241.178 310.365L243.681 271.961C243.681 271.961 244.327 279.477 244.768 287.345C245.209 295.213 245.076 297.112 246.317 311.621C251.446 313.942 266.566 313.791 270.629 309.421C270.698 303.333 270.406 297.247 269.757 291.193Z" fill="#37474F"/>
<path d="M214.189 270.514C221.37 272.182 233.29 271.75 233.29 271.75C233.29 271.75 233.126 296.961 231.802 300.267C230.479 303.573 215.195 303.03 213.338 300.267C213.358 286.792 214.189 270.514 214.189 270.514Z" fill="#263238"/>
<path d="M262.309 246.981C262.309 246.981 255.672 255.914 247.671 259.26L244.676 285.385L243.701 272.323L245.548 256.527C245.548 256.527 255.683 252.196 262.309 246.981Z" fill="#263238"/>
<path d="M235.926 150.349L236.039 166.687L252.893 166.516L253.17 147.545L235.926 150.349Z" fill="#FFA8A7"/>
<path d="M270.147 165.803C268.762 161.352 263.992 157.694 257.899 157.513C256.545 157.513 253.026 157.513 253.026 157.513C252.339 160.266 243.322 161.532 235.977 159.854C233.761 160.427 225.114 162.005 223.267 162.608C217.984 164.326 216.917 169.581 216.087 186.462C216.087 186.462 214.691 214.476 215.235 235.507C224.467 240.31 239.69 240.239 249.908 239.224C265.951 237.637 269.059 231.899 269.059 231.899C268.354 224.636 268.118 217.337 268.352 210.045C268.547 203.182 270.567 195.907 271.193 188.12C272.116 176.504 271.091 168.857 270.147 165.803Z" fill="#4CBE42"/>
<path opacity="0.3" d="M270.147 165.803C268.762 161.352 263.992 157.694 257.899 157.513C256.545 157.513 253.026 157.513 253.026 157.513C252.339 160.266 243.322 161.532 235.977 159.854C233.761 160.427 225.114 162.005 223.267 162.608C217.984 164.326 216.917 169.581 216.087 186.462C216.087 186.462 214.691 214.476 215.235 235.507C224.467 240.31 239.69 240.239 249.908 239.224C265.951 237.637 269.059 231.899 269.059 231.899C268.354 224.636 268.118 217.337 268.352 210.045C268.547 203.182 270.567 195.907 271.193 188.12C272.116 176.504 271.091 168.857 270.147 165.803Z" fill="black"/>
<path d="M223.329 129.419C223.329 129.419 218.856 136.03 219.277 136.623C219.698 137.216 223.195 137.628 223.195 137.628L223.329 129.419Z" fill="#F28F8F"/>
<path d="M235.433 108.318C227.411 109.634 224.447 114.347 223.267 128.012C223.002 132.412 222.982 136.823 223.206 141.225C223.719 147.184 224.857 148.681 226.078 150.017C227.299 151.354 234.664 151.756 237.988 151.022C242.152 150.078 251.569 147.234 256.196 140.904C261.643 133.448 262.351 124.143 258.124 118.647C248.338 105.745 238.716 107.745 235.433 108.318Z" fill="#FFA8A7"/>
<path d="M226.078 149.987C227.001 150.992 232.5 151.524 235.936 151.263V149.324C232.725 150.169 229.377 150.394 226.078 149.987Z" fill="#F28F8F"/>
<path d="M229.771 120.376C229.551 121.955 229.88 123.56 230.704 124.934C231.528 126.309 232.8 127.371 234.315 127.952C233.855 129.057 233.608 130.235 233.587 131.428C233.51 132.015 233.618 132.611 233.895 133.137C233.976 133.335 234.115 133.505 234.295 133.627C234.474 133.749 234.686 133.816 234.904 133.822C235.122 133.827 235.337 133.77 235.522 133.657C235.707 133.544 235.855 133.381 235.946 133.187C236.437 132.203 237.04 131.276 237.742 130.424C238.648 129.449 239.89 128.837 241.229 128.705C246.246 128.374 246.605 134.805 244.491 137.377C241.034 141.587 238.337 138.532 238.337 138.532C238.337 138.532 237.475 143.838 243.178 149.103C244.491 150.039 246.051 150.586 247.671 150.681C249.118 150.861 251.713 151.052 253.088 150.299C255.888 145.847 261.838 138.402 263.961 134.473C266.013 130.695 268.403 126.304 267.367 121.903C267.16 120.943 266.756 120.035 266.179 119.234C265.603 118.432 264.865 117.754 264.013 117.241C264.639 116.011 264.989 114.665 265.038 113.292C264.956 110.87 262.453 108.81 260.012 109.885C260.296 108.996 260.279 108.04 259.962 107.161C259.645 106.283 259.046 105.528 258.255 105.011C257.463 104.494 256.522 104.242 255.572 104.292C254.622 104.343 253.714 104.695 252.985 105.293C253.144 104.256 252.898 103.198 252.296 102.331C251.694 101.463 250.78 100.85 249.737 100.613C248.694 100.375 247.598 100.532 246.668 101.052C245.737 101.571 245.041 102.414 244.717 103.414C244.142 102.546 243.336 101.847 242.387 101.392C241.438 100.937 240.38 100.743 239.327 100.83C238.274 100.918 237.265 101.284 236.407 101.89C235.55 102.495 234.877 103.317 234.459 104.268C232.76 103.198 230.723 102.766 228.725 103.053C227.734 103.204 226.799 103.599 226.006 104.2C225.214 104.8 224.589 105.588 224.191 106.489C223.819 107.399 223.758 108.403 224.017 109.351C224.275 110.298 224.84 111.138 225.627 111.744C223.791 111.845 222.365 114.236 222.354 116.045C222.385 117.431 223.329 122.074 229.771 120.376Z" fill="#263238"/>
<path d="M165.73 176.072C167.022 178.453 181.322 204.086 185.477 207.965C188.441 210.728 193.016 212.607 197.786 208.618C206.629 201.182 220.354 189.456 220.354 189.456C230.899 181.277 232.356 166.396 227.535 161.623C225.052 161.753 217.461 162.306 212.548 167.933C202.474 179.448 191.734 191.275 191.734 191.275C189.098 187.858 186.749 185.165 183.907 181.287C181.64 178.182 178.101 174.936 177.957 170.897C177.886 168.787 178.665 166.687 178.983 164.617C179.414 161.924 179.794 159.261 180.245 156.579C180.406 156.051 180.355 155.483 180.101 154.991C179.807 154.704 179.412 154.538 178.997 154.525C178.582 154.512 178.178 154.653 177.865 154.921C177.162 155.542 176.624 156.321 176.296 157.191C175.875 158.116 175.444 159.03 175.013 159.945C174.818 160.377 174.521 160.869 174.039 160.879C172.521 160.879 172.274 157.744 171.885 156.769C171.469 155.485 171.217 154.155 171.136 152.81C170.91 151.203 170.695 149.595 170.479 147.997C170.418 147.535 170.305 146.993 169.874 146.782C169.443 146.571 168.725 146.962 168.356 147.415C167.761 148.149 167.34 149.003 167.125 149.917C166.622 152.047 167.248 154.458 166.099 156.357C165.614 157.061 165.057 157.714 164.437 158.307C163.72 159.133 163.065 160.009 162.478 160.929C161.452 162.477 160.796 163.743 161.288 165.582C162.346 169.236 163.836 172.757 165.73 176.072Z" fill="#FFA8A7"/>
<path d="M191.673 191.275C188.975 194.169 187.385 199.906 187.385 199.906C187.385 199.906 187.098 193.827 190.247 189.456L191.673 191.275Z" fill="#F28F8F"/>
</svg>
