<svg width="500" height="472" viewBox="0 0 500 472" fill="none" xmlns="http://www.w3.org/2000/svg">
<path d="M424.484 230.392C326.933 175.217 169.284 175.217 72.3559 230.392C-24.5716 285.567 -24.0452 375.017 73.5055 430.181C171.056 485.346 328.717 485.356 425.633 430.181C522.55 375.006 522.045 285.567 424.484 230.392Z" fill="#F5F5F5"/>
<path d="M459.712 327.408C466.91 323.346 478.534 323.346 485.689 327.408C492.845 331.47 492.802 338.069 485.603 342.141C478.405 346.214 466.781 346.214 459.626 342.141C452.471 338.069 452.514 331.502 459.712 327.408Z" fill="#E0E0E0"/>
<path d="M255.06 333.354L241.748 315.632C240.405 313.843 238.684 312.358 236.702 311.28C234.72 310.201 232.524 309.554 230.264 309.381L210.646 307.908L179.49 289.355L191.147 282.757C191.3 282.662 191.426 282.531 191.513 282.375C191.601 282.22 191.646 282.045 191.646 281.868C191.646 281.69 191.601 281.516 191.513 281.36C191.426 281.205 191.3 281.073 191.147 280.978L186.301 278.274C185.346 277.739 184.265 277.457 183.164 277.457C182.064 277.457 180.982 277.739 180.027 278.274L65.7703 342.983C65.6172 343.078 65.4911 343.209 65.4037 343.365C65.3163 343.52 65.2705 343.695 65.2705 343.872C65.2705 344.05 65.3163 344.224 65.4037 344.38C65.4911 344.535 65.6172 344.667 65.7703 344.762L70.4975 347.435C71.4558 347.978 72.5434 348.264 73.6507 348.264C74.7579 348.264 75.8455 347.978 76.8039 347.435L126.396 319.379L157.133 336.648L161.151 347.729C162.388 351.131 164.669 354.074 167.681 356.156C170.693 358.238 174.289 359.356 177.975 359.358H206.66L226.127 370.365L273.162 343.583L255.06 333.354Z" fill="#E0E0E0"/>
<path d="M430.07 317.001C398.978 299.426 348.731 299.426 317.844 317.001C290.544 332.533 287.515 356.59 308.626 374.122C291.587 373.07 273.946 376.227 260.935 383.667C238.106 396.663 238.224 417.732 261.204 430.728C284.184 443.725 321.367 443.714 344.144 430.728C362.3 420.383 365.921 404.935 355.08 392.507C381.252 396.221 410.055 392.275 430.446 380.678C461.333 363.104 461.172 334.596 430.07 317.001Z" fill="#E0E0E0"/>
<path d="M69.1542 365.535C60.9676 360.904 47.7317 360.904 39.5989 365.535C31.4661 370.165 31.509 377.679 39.6956 382.31C47.8821 386.94 61.1181 386.94 69.2509 382.31C77.3837 377.679 77.3515 370.165 69.1542 365.535Z" fill="#E0E0E0"/>
<path d="M148.86 3.2202L154.608 0L154.963 123.062L154.952 123.073L108.626 148.982L108.605 142.541L108.261 25.9195L148.86 3.2202Z" fill="#F0F0F0"/>
<path opacity="0.1" d="M149.204 119.831L148.86 3.2202L154.608 0L154.963 123.062L154.952 123.073L149.183 119.842L149.204 119.831Z" fill="black"/>
<path opacity="0.2" d="M108.604 142.541L149.183 119.842L154.952 123.073L108.626 148.981L108.604 142.541Z" fill="black"/>
<path d="M85.4628 38.6738L91.2106 35.4536L91.5651 158.516L91.5544 158.526L45.2286 184.435L45.2071 177.995L44.8633 61.373L85.4628 38.6738Z" fill="#F0F0F0"/>
<path opacity="0.1" d="M85.8067 155.285L85.4629 38.6738L91.2106 35.4536L91.5652 158.516L91.5544 158.526L85.7852 155.296L85.8067 155.285Z" fill="black"/>
<path opacity="0.2" d="M45.207 177.995L85.7851 155.295L91.5544 158.526L45.2285 184.435L45.207 177.995Z" fill="black"/>
<path d="M282.809 72.286C282.455 71.9177 282.111 71.5389 281.735 71.1495L281.509 70.8969C280.94 70.255 280.435 69.6025 279.855 68.929L279.683 68.708C279.253 68.1713 278.845 67.6557 278.437 67.0558L278.254 66.8138C277.867 66.2666 277.491 65.7615 277.126 65.1511C277.029 65.0143 276.943 64.8775 276.857 64.7407C276.557 64.2776 276.266 63.8146 275.987 63.341C275.92 63.2467 275.859 63.1483 275.804 63.0464C275.482 62.5097 275.171 61.994 274.87 61.4152L274.655 60.9943C274.419 60.5628 274.193 60.1208 273.967 59.6788L273.752 59.2369C273.473 58.6791 273.215 58.1214 272.957 57.5531L272.861 57.3111C272.635 56.7954 272.42 56.2587 272.216 55.7746L272.034 55.3116C271.797 54.7012 271.572 54.0909 271.367 53.4805C271.367 53.4805 271.367 53.3858 271.314 53.3332C271.099 52.7017 270.905 52.0703 270.723 51.4389L270.626 51.0811C270.411 50.3445 270.229 49.6078 270.067 48.8817C270.067 48.7133 270.003 48.5555 269.96 48.3976L269.799 47.5347C269.799 47.3558 269.724 47.1769 269.702 46.9875C269.702 46.6928 269.606 46.3982 269.563 46.1035C269.52 45.8088 269.509 45.7562 269.487 45.5773C269.401 44.9459 269.348 44.3145 269.294 43.6936C269.294 43.5568 269.294 43.42 269.294 43.2937C269.294 42.6518 269.229 42.0098 269.229 41.3784C269.229 40.947 269.229 40.5155 269.229 40.1051V39.6315C269.229 39.379 269.229 39.1159 269.294 38.8738C269.358 38.6318 269.294 38.5581 269.348 38.4003C269.401 38.2424 269.348 37.9162 269.434 37.6847C269.52 37.4531 269.498 37.3584 269.52 37.2006C269.541 37.0427 269.595 36.7691 269.638 36.5586C269.681 36.3482 269.713 36.2324 269.745 36.064C269.777 35.8957 269.842 35.6747 269.885 35.4747C269.928 35.2748 269.982 35.159 270.024 35.0012C270.067 34.8433 270.132 34.6328 270.196 34.4539L270.358 33.9909C270.422 33.8225 270.476 33.6436 270.551 33.4752C270.626 33.3069 270.68 33.1911 270.734 33.0438C270.787 32.8965 270.873 32.7176 270.948 32.5597C271.024 32.4018 271.088 32.2861 271.163 32.1493C271.239 32.0125 271.314 31.8441 271.4 31.6968L271.636 31.3179L271.894 30.8865L272.152 30.5287C272.248 30.4024 272.334 30.2656 272.442 30.1393C272.549 30.013 272.624 29.9183 272.721 29.8025C272.818 29.6868 272.915 29.5605 273.022 29.4447C273.129 29.329 273.226 29.2343 273.323 29.129L273.645 28.8028L273.967 28.5187L274.311 28.224L274.655 27.9714L275.02 27.7083L275.375 27.4768C276.48 26.8003 277.698 26.3194 278.974 26.0562C276.557 28.7186 275.138 32.7702 275.117 37.9898C275.117 38.6213 275.117 39.2632 275.181 39.9051C275.181 40.0419 275.181 40.1682 275.181 40.305C275.181 40.9259 275.289 41.5573 275.375 42.1887C275.375 42.3676 275.428 42.5465 275.45 42.7149C275.471 42.8833 275.536 43.3042 275.59 43.5989C275.643 43.8935 275.654 43.9988 275.697 44.1987L275.858 45.0617C275.858 45.2195 275.933 45.3774 275.966 45.5457C276.127 46.2719 276.309 47.0085 276.514 47.7452C276.556 47.8661 276.592 47.989 276.621 48.1135C276.804 48.7344 276.997 49.3658 277.212 49.9972C277.212 49.9972 277.212 50.1024 277.266 50.1445C277.47 50.7654 277.695 51.3758 277.932 51.9756C277.996 52.1335 278.05 52.2913 278.114 52.4387C278.318 52.9543 278.533 53.491 278.759 53.9751L278.856 54.2171C279.113 54.7854 279.371 55.3432 279.651 55.9009C279.715 56.0482 279.79 56.1956 279.866 56.3429C280.091 56.7849 280.317 57.2269 280.553 57.6689L280.768 58.0793C281.069 58.6265 281.38 59.1316 281.703 59.7104C281.756 59.8157 281.821 59.9104 281.885 60.0156C282.165 60.4786 282.455 60.9522 282.756 61.4152L283.013 61.8151C283.389 62.3729 283.765 62.9306 284.152 63.4778L284.335 63.7199C284.743 64.2882 285.151 64.8354 285.581 65.3826L285.753 65.6036C286.29 66.2771 286.827 66.9296 287.407 67.5715L287.622 67.8241L288.697 68.9711L288.761 69.0343C289.137 69.4236 289.524 69.813 289.911 70.1813C289.986 70.2655 290.072 70.3392 290.158 70.4234C290.663 70.8969 291.168 71.3705 291.694 71.823L291.834 71.9493C292.371 72.4123 292.908 72.8438 293.467 73.2753L293.789 73.5173C294.326 73.9277 294.863 74.3171 295.444 74.6959L295.734 74.8854C296.325 75.2642 296.915 75.6325 297.506 75.9377C298.097 76.2429 298.462 76.4534 298.935 76.6954L299.333 76.8848L300.407 77.3689L300.783 77.5268L301.771 77.8951L302.019 77.9793C302.427 78.1161 302.835 78.2424 303.233 78.3476L303.942 78.516L304.264 78.6002C304.608 78.6738 304.941 78.7264 305.274 78.7791C305.772 78.8584 306.274 78.9076 306.778 78.9264H307.079C307.519 78.9264 307.949 78.9264 308.379 78.9264H308.594C308.936 78.9046 309.276 78.866 309.614 78.8106H309.926L310.248 78.737C309.452 79.625 308.512 80.3787 307.465 80.968L307.358 81.0206H307.283C307.014 81.1679 306.735 81.2942 306.456 81.4205L306.166 81.5362C305.872 81.6555 305.571 81.7607 305.263 81.8519H305.102C304.747 81.9467 304.382 82.0308 304.028 82.094H303.738C303.404 82.094 303.082 82.1782 302.738 82.2097H302.481C302.062 82.2097 301.632 82.2097 301.202 82.2097H300.923H300.214L299.397 82.115L298.881 82.0203L298.387 81.9256L298.086 81.8519H298L297.367 81.7046C296.969 81.5888 296.572 81.4731 296.174 81.3363L295.927 81.2521L294.928 80.8838L294.573 80.7364C294.215 80.5891 293.857 80.4313 293.499 80.2629L293.263 80.1471C293.202 80.1255 293.145 80.0972 293.091 80.0629C292.618 79.8314 292.145 79.5894 291.662 79.3158C291.178 79.0422 290.48 78.6107 289.9 78.2634H289.814L289.599 78.1266C289.04 77.7478 288.525 77.3584 287.945 76.948L287.74 76.7901L287.622 76.7059C287.074 76.2745 286.548 75.8325 285.989 75.38C285.958 75.3546 285.929 75.3264 285.903 75.2958H285.85C285.323 74.8538 284.775 74.3802 284.313 73.9067L284.066 73.6646C283.679 73.2963 283.293 72.9069 282.917 72.5176L282.809 72.286Z" fill="#EBEBEB"/>
<path d="M309.937 60.2788V61.6362L313.836 63.8355V62.4781L309.937 60.2788Z" fill="white"/>
<path d="M278.404 31.7388L277.803 32.5596L281.176 36.6745L281.778 35.8431L278.404 31.7388Z" fill="white"/>
<path d="M317.135 65.0251C317.135 78.99 307.004 84.6201 294.574 77.6535C282.144 70.6868 272.174 53.5859 272.206 39.621C272.238 25.6561 282.337 20.026 294.767 26.9926C307.198 33.9593 317.178 51.0602 317.135 65.0251ZM284.475 51.5443C284.57 51.8398 284.767 52.0932 285.034 52.2599C285.105 52.3034 285.186 52.3287 285.27 52.3336L294.81 53.0702C294.877 53.0891 294.947 53.0859 295.012 53.0611C295.076 53.0364 295.13 52.9915 295.165 52.9334L301.407 42.5676C301.464 42.3849 301.469 42.1904 301.422 42.005C301.374 41.8196 301.276 41.6503 301.138 41.5153C301.062 41.4277 300.971 41.353 300.87 41.2943C300.655 41.1785 300.44 41.1891 300.333 41.368L294.198 51.5654L284.797 50.8392C284.497 50.8392 284.346 51.1339 284.475 51.5548V51.5443ZM302.825 42.3993L304.78 39.7052L303.706 38.4424L301.826 41.168L302.9 42.4308L302.825 42.3993ZM303.706 76.5064L304.78 76.4222L302.739 71.4761L301.665 71.5603L303.599 76.4643L303.706 76.5064ZM278.341 54.4804L281.725 54.1963L281.134 52.6809L277.739 52.965L278.341 54.4804ZM310.936 72.9178L311.538 72.0865L308.165 67.9717L307.563 68.8031L310.936 72.9178ZM278.405 31.6967L277.804 32.5176L281.177 36.6323L281.779 35.8009L278.405 31.6967ZM308.218 51.9653L311.602 51.6811L311.001 50.1762L307.617 50.4499L308.218 51.9653ZM285.657 28.1818L284.583 28.266L286.516 33.17L287.591 33.0858L285.646 28.1818H285.657ZM285.55 66.2143L287.516 63.5097L286.441 62.2574L284.475 64.9514L285.55 66.2143ZM279.404 44.3251V43.0096L275.504 40.8102V42.1572L279.404 44.3672V44.3251ZM313.837 62.4889L309.937 60.2789V61.6365L313.837 63.8359V62.4889ZM294.015 73.5598L295.208 74.2333V69.8449L294.015 69.1609V73.5598ZM295.337 31.0863L294.144 30.4128V34.8538L295.337 35.5379V31.139" fill="#E0E0E0"/>
<path d="M294.133 30.4126L294.122 34.8009L295.315 35.4849L295.336 31.0861L294.133 30.4126Z" fill="white"/>
<path d="M303.791 38.4316L301.825 41.1258L302.867 42.3886L304.823 39.6945L303.791 38.4316Z" fill="white"/>
<path d="M311 50.1758L307.616 50.4494L308.218 51.9646L311.602 51.6805L311 50.1758Z" fill="white"/>
<path d="M308.164 67.9712L307.562 68.8025L310.936 72.9172L311.538 72.0858L308.164 67.9712Z" fill="white"/>
<path d="M302.781 71.4756L301.739 71.5598L303.673 76.4641L304.715 76.3799L302.781 71.4756Z" fill="white"/>
<path d="M294.025 69.1606L294.015 73.5594L295.207 74.2329L295.218 69.8447L294.025 69.1606Z" fill="white"/>
<path d="M286.484 62.2563L284.518 64.9507L285.549 66.2137L287.515 63.5088L286.484 62.2563Z" fill="white"/>
<path d="M281.122 52.6807L277.738 52.9648L278.34 54.4801L281.724 54.196L281.122 52.6807Z" fill="white"/>
<path d="M275.504 40.8096V42.1566L279.404 44.3666V43.0091L275.504 40.8096Z" fill="white"/>
<path d="M285.656 28.1816L284.625 28.2658L286.559 33.17L287.601 33.0858L285.656 28.1816Z" fill="white"/>
<path d="M294.671 51.6911C294.599 51.6476 294.518 51.6223 294.434 51.6174H294.241L284.84 50.8911C284.54 50.8911 284.389 51.1858 284.518 51.6069C284.612 51.9024 284.81 52.1559 285.077 52.3226C285.148 52.366 285.229 52.3914 285.313 52.3963L294.853 53.1331C295.154 53.1331 295.294 52.8489 295.165 52.4279C295.096 52.1321 294.92 51.8705 294.671 51.6911Z" fill="white"/>
<path d="M300.912 41.283C300.697 41.1672 300.482 41.1777 300.375 41.3566L294.24 51.5545H294.434C294.517 51.5594 294.599 51.5847 294.67 51.6281C294.936 51.7932 295.131 52.0477 295.218 52.3438C295.347 52.7647 295.218 53.0804 294.906 53.0489C294.973 53.0677 295.043 53.0645 295.107 53.0397C295.172 53.015 295.226 52.9701 295.261 52.9121L301.503 42.5459C301.56 42.3631 301.565 42.1686 301.518 41.9831C301.47 41.7977 301.372 41.6284 301.234 41.4934C301.141 41.4047 301.031 41.3334 300.912 41.283Z" fill="#F5F5F5"/>
<path d="M310.055 82.2096L310.41 81.936C310.542 81.8358 310.668 81.7268 310.786 81.6097C310.904 81.515 311.022 81.4203 311.129 81.3151L311.484 80.9573L311.806 80.6205C311.926 80.4978 312.037 80.3677 312.139 80.2311C312.236 80.1154 312.343 79.9996 312.44 79.8733C312.537 79.7471 312.644 79.5892 312.741 79.4524C312.838 79.3156 312.934 79.1998 313.02 79.063C313.106 78.9262 313.214 78.7579 313.3 78.6C313.385 78.4421 313.482 78.3264 313.557 78.1896C313.633 78.0528 313.729 77.8633 313.815 77.695L314.052 77.253L314.277 76.7268C314.342 76.569 314.417 76.4216 314.481 76.2638C314.546 76.1059 314.621 75.8849 314.685 75.6955C314.75 75.5061 314.814 75.3693 314.868 75.2114C314.922 75.0536 314.986 74.8115 315.04 74.6116C315.094 74.4116 315.147 74.2748 315.19 74.0959C315.233 73.917 315.298 73.6855 315.341 73.475L315.47 72.9278C315.47 72.7068 315.545 72.4753 315.588 72.2543L315.685 71.7071L315.781 70.9283L315.846 70.4337L315.91 69.5392V69.1078C315.91 68.6588 315.91 68.1957 315.91 67.7187C315.91 67.0346 315.91 66.3506 315.846 65.614C315.841 65.5685 315.841 65.5226 315.846 65.4772C315.792 64.7089 315.728 63.9302 315.62 63.1409V62.8778L315.427 61.6045C315.427 61.394 315.352 61.1836 315.309 60.9626C315.244 60.6574 315.19 60.3417 315.126 60.026V59.8786C314.748 58.1202 314.267 56.3845 313.686 54.68C312.91 52.3865 311.977 50.1469 310.893 47.9765L310.829 47.8397C310.205 46.6085 309.55 45.3877 308.841 44.1986L308.648 43.8724C308.325 43.3357 307.992 42.82 307.659 42.2938L307.423 41.9255C306.499 40.5259 305.532 39.1789 304.501 37.8845C303.491 36.6146 302.416 35.3974 301.278 34.2328C300.859 33.7908 300.429 33.3699 299.999 32.9384L299.784 32.749C299.226 32.2018 298.656 31.6966 298.065 31.1705H298.001C297.399 30.6443 296.776 30.1181 296.153 29.6551L295.82 29.392C295.229 28.95 294.638 28.5291 294.026 28.1292L293.961 28.0765C293.574 27.824 293.188 27.5714 292.801 27.3399C292.414 27.1084 292.135 26.9295 291.791 26.7401C291.275 26.4454 290.717 26.1823 290.255 25.9297C288.788 25.1956 287.252 24.6034 285.667 24.1618L285.248 24.0566L284.582 23.8987L284.12 23.8145L283.497 23.7093H283.443H282.992L282.197 23.6251H282.133H281.886C281.309 23.5935 280.732 23.5935 280.156 23.6251H279.909C279.544 23.6251 279.178 23.6882 278.834 23.7408C278.326 23.8125 277.824 23.918 277.33 24.0566H277.244H277.148C276.815 24.1618 276.492 24.2775 276.17 24.4038L276.02 24.467C275.579 24.6564 275.139 24.8563 274.72 25.0879L280.672 21.6993L280.801 21.6256L280.962 21.5414C281.252 21.3941 281.553 21.2468 281.853 21.1205C281.908 21.0882 281.966 21.0601 282.025 21.0363H282.165C282.523 20.896 282.881 20.7697 283.239 20.6575C283.639 20.5452 284.044 20.4538 284.453 20.3838H284.593H284.786C285.142 20.3218 285.5 20.2797 285.861 20.2576H286.043H286.097C286.566 20.2312 287.036 20.2312 287.504 20.2576H287.644H288.106H288.428C288.751 20.2576 289.084 20.3207 289.417 20.3733L290.491 20.5733L290.835 20.6575L291.533 20.8258H291.598C292.027 20.9416 292.468 21.0679 292.908 21.2152L293.177 21.3204C293.532 21.4362 293.886 21.573 294.251 21.7203L294.402 21.7729L294.67 21.8887C295.046 22.0466 295.433 22.2255 295.82 22.4044L296.26 22.6148C296.765 22.8674 297.335 23.1305 297.797 23.4251C298.259 23.7198 299.075 24.1828 299.709 24.6038L300.031 24.8142C300.633 25.2141 301.235 25.6351 301.825 26.0771L302.159 26.3402C302.76 26.8032 303.351 27.2768 303.931 27.7819C303.986 27.8219 304.037 27.8678 304.082 27.9187C304.651 28.4028 305.156 28.9079 305.747 29.4341L305.908 29.5814L306.015 29.6866C306.434 30.0865 306.843 30.497 307.251 30.9284L307.315 30.9916C307.702 31.402 308.078 31.8124 308.454 32.2333L308.562 32.3491L308.691 32.5069C309.303 33.2015 309.905 33.9066 310.485 34.6117V34.6748C310.531 34.7283 310.574 34.7846 310.614 34.8432C311.079 35.4325 311.53 36.0323 311.967 36.6427L312.107 36.8216C312.129 36.8508 312.147 36.8826 312.161 36.9163C312.59 37.4951 312.999 38.0949 313.396 38.7053C313.429 38.7654 313.469 38.8218 313.514 38.8737L313.676 39.1473C313.998 39.6419 314.309 40.1996 314.621 40.6522L314.761 40.8837C314.764 40.9152 314.764 40.9469 314.761 40.9784C315.115 41.5677 315.448 42.157 315.771 42.7463L315.846 42.8937L316.007 43.1883L316.748 44.6195C316.748 44.7142 316.845 44.8195 316.899 44.9142C316.952 45.0089 316.952 45.0405 316.985 45.0931C317.275 45.7035 317.565 46.3138 317.833 46.9242C317.854 46.989 317.879 47.0523 317.908 47.1136C318.156 47.6714 318.381 48.2291 318.607 48.7868C318.607 48.8816 318.682 48.9657 318.725 49.0605C318.768 49.1552 318.779 49.2078 318.8 49.292C319.058 49.9444 319.305 50.6074 319.531 51.2704V51.3862C319.767 52.0877 319.982 52.7893 320.175 53.4909L320.251 53.7539C320.255 53.7994 320.255 53.8453 320.251 53.8908C320.465 54.6905 320.67 55.4798 320.841 56.2691C320.846 56.3391 320.846 56.4095 320.841 56.4795L320.906 56.7952C320.97 57.1004 321.024 57.4161 321.089 57.7213C321.153 58.0265 321.164 58.1528 321.207 58.3738C321.25 58.5948 321.303 59.0157 321.346 59.3314C321.346 59.4787 321.4 59.6261 321.422 59.7839C321.417 59.8224 321.417 59.8613 321.422 59.8997C321.508 60.5837 321.572 61.2677 321.626 61.9412C321.626 62.0886 321.626 62.2254 321.626 62.3727C321.626 63.0673 321.701 63.7513 321.701 64.4774C321.701 71.9807 318.972 77.253 314.621 79.7365L308.669 83.1251L309.045 82.8831C309.174 82.8094 309.303 82.7357 309.421 82.6516L310.055 82.2096Z" fill="#EBEBEB"/>
<path d="M267.414 40.2836C267.414 55.3744 278.158 73.759 291.619 81.3254C298.559 85.2506 304.834 85.5348 309.271 82.746C309.4 82.6724 309.528 82.5987 309.647 82.5145L310.055 82.2199L310.409 81.9462C310.542 81.8461 310.668 81.7371 310.785 81.62C310.904 81.5253 311.022 81.4306 311.129 81.3254L311.484 80.9676L311.806 80.6308C311.925 80.5081 312.037 80.378 312.139 80.2414C312.236 80.1257 312.343 80.0099 312.44 79.8836C312.537 79.7574 312.644 79.5995 312.741 79.4627C312.837 79.3259 312.934 79.2101 313.02 79.0733C313.106 78.9365 313.213 78.7681 313.299 78.6103C313.385 78.4524 313.482 78.3367 313.557 78.1999C313.633 78.0631 313.729 77.8736 313.815 77.7053L314.051 77.2633L314.277 76.7371C314.342 76.5793 314.417 76.4319 314.481 76.2741C314.546 76.1162 314.621 75.8952 314.685 75.7058C314.75 75.5164 314.814 75.3796 314.868 75.2217C314.922 75.0639 314.986 74.8218 315.04 74.6219C315.094 74.4219 315.147 74.2851 315.19 74.1062C315.233 73.9273 315.298 73.6958 315.341 73.4853L315.47 72.9381C315.47 72.7171 315.545 72.4856 315.588 72.2646L315.684 71.7174L315.781 70.9386L315.846 70.444L315.91 69.5495V69.1181C315.91 68.6691 315.91 68.206 315.91 67.729C315.91 67.0449 315.91 66.3609 315.846 65.6243V65.4875C315.792 64.7192 315.727 63.9405 315.62 63.1512V62.8882L315.427 61.6148C315.427 61.4043 315.351 61.1939 315.308 60.9729C315.266 60.7519 315.19 60.352 315.126 60.0363V59.889C314.748 58.1306 314.267 56.3948 313.686 54.6903C312.91 52.3968 311.977 50.1572 310.893 47.9869L310.828 47.85C310.205 46.6188 309.55 45.3981 308.841 44.2089L308.648 43.8827C308.325 43.346 307.992 42.8303 307.659 42.3042L307.423 41.9358C306.499 40.5362 305.532 39.1892 304.501 37.8948C303.491 36.625 302.416 35.4077 301.278 34.2431C300.859 33.8011 300.429 33.3802 299.999 32.9487L299.784 32.7593C299.226 32.2121 298.656 31.707 298.065 31.1808H298.001C297.399 30.6546 296.776 30.1284 296.153 29.6654C296.034 29.5836 295.919 29.4958 295.809 29.4023C295.218 28.9603 294.627 28.5394 294.015 28.1395L293.95 28.0869C293.564 27.8343 293.177 27.5817 292.79 27.3502C292.403 27.1187 292.124 26.9398 291.78 26.7504C291.265 26.4557 290.706 26.1926 290.244 25.9401C288.777 25.2059 287.241 24.6138 285.656 24.1721L285.216 24.0669L284.55 23.909C284.389 23.909 284.228 23.8459 284.066 23.8143L283.443 23.7091L282.938 23.646L282.143 23.5618H281.832C281.256 23.5302 280.678 23.5302 280.102 23.5618H279.823C279.458 23.5618 279.092 23.6249 278.748 23.6775C278.24 23.7492 277.738 23.8547 277.244 23.9932H277.062C276.729 24.0985 276.406 24.2142 276.084 24.3405L275.912 24.4036C275.472 24.5931 275.031 24.793 274.612 25.0245C270.154 27.487 267.436 32.7488 267.414 40.2836ZM282.874 72.3593L282.809 72.2857C282.455 71.9173 282.111 71.5385 281.735 71.1491L281.509 70.8966C280.94 70.2546 280.435 69.6022 279.855 68.9286L279.683 68.7077C279.253 68.1604 278.845 67.6553 278.437 67.0449L278.254 66.8029C277.867 66.2557 277.491 65.7505 277.126 65.1402C277.029 65.0034 276.944 64.8666 276.858 64.7298C276.557 64.2773 276.267 63.8037 275.987 63.3301C275.92 63.2358 275.859 63.1374 275.805 63.0355C275.482 62.4988 275.171 61.9831 274.87 61.4043L274.655 60.9834C274.419 60.5519 274.193 60.1099 273.968 59.668L273.753 59.226C273.473 58.6682 273.216 58.1105 272.958 57.5422L272.861 57.3002C272.635 56.7845 272.421 56.2478 272.216 55.7637L272.034 55.3007C271.797 54.6903 271.572 54.08 271.368 53.4696C271.368 53.4696 271.368 53.3749 271.314 53.3223C271.099 52.6909 270.906 52.0595 270.723 51.428L270.626 51.0702C270.411 50.3336 270.229 49.597 270.068 48.8708C270.068 48.7025 270.003 48.5446 269.96 48.3867L269.799 47.5238C269.799 47.3449 269.724 47.166 269.702 46.9766C269.681 46.7872 269.595 46.3557 269.552 46.04C269.509 45.7243 269.498 45.6927 269.477 45.5138C269.391 44.8824 269.337 44.251 269.283 43.6301C269.283 43.4933 269.283 43.3565 269.283 43.2302C269.283 42.5883 269.219 41.9464 269.219 41.3149C269.219 40.8835 269.219 40.452 269.219 40.0416V39.568C269.219 39.3155 269.219 39.0524 269.283 38.8103C269.348 38.5683 269.283 38.4946 269.337 38.3368C269.391 38.1789 269.337 37.8527 269.423 37.6212C269.509 37.3897 269.488 37.295 269.509 37.1371C269.531 36.9792 269.584 36.7056 269.627 36.4952C269.67 36.2847 269.702 36.1689 269.735 36.0006C269.767 35.8322 269.831 35.6112 269.874 35.4112C269.917 35.2113 269.971 35.0955 270.014 34.9377C270.057 34.7798 270.121 34.5694 270.186 34.3905L270.347 33.9274C270.412 33.7591 270.465 33.5802 270.54 33.4118C270.616 33.2434 270.669 33.1276 270.723 32.9803C270.777 32.833 270.863 32.6541 270.938 32.4962C271.013 32.3384 271.078 32.2226 271.153 32.0858C271.228 31.949 271.303 31.7806 271.389 31.6333L271.626 31.2545L271.883 30.823L272.141 30.4652C272.238 30.3389 272.324 30.2021 272.431 30.0758C272.539 29.9495 272.614 29.8548 272.711 29.7391C272.807 29.6233 272.904 29.497 273.011 29.3813C273.119 29.2655 273.216 29.1708 273.312 29.0656L273.635 28.7393L273.957 28.4552L274.301 28.1605L274.644 27.908L275.01 27.6449L275.364 27.4134C276.47 26.7369 277.688 26.256 278.963 25.9927C282.584 25.235 286.967 26.0664 291.694 28.7393C304.092 35.748 314.127 52.754 314.084 66.7187C314.084 71.9805 312.655 75.9794 310.238 78.6419C309.441 79.5298 308.501 80.2836 307.455 80.8729L307.348 80.9255C307.047 81.0833 306.735 81.2306 306.424 81.3675L306.134 81.4832C305.84 81.6025 305.539 81.7077 305.231 81.7989H305.07C304.705 81.8936 304.329 81.9778 303.996 82.0515H303.706C303.372 82.0515 303.05 82.1357 302.706 82.1672H302.449C302.03 82.1672 301.589 82.1672 301.149 82.1672H300.869H300.16L299.344 82.0725L298.828 81.9778L298.334 81.8831C298.205 81.8831 298.076 81.82 297.947 81.7884L297.313 81.6411C296.481 81.4094 295.664 81.1318 294.864 80.8097L294.509 80.6624C294.069 80.473 293.639 80.2835 293.198 80.0625C293.138 80.0409 293.08 80.0126 293.027 79.9783C292.554 79.7468 292.081 79.5048 291.598 79.2312C291.114 78.9576 290.416 78.5261 289.836 78.1788H289.75C289.051 77.7158 288.353 77.2212 287.676 76.7055L287.558 76.6213C286.978 76.1688 286.398 75.7058 285.839 75.2112H285.785C285.259 74.7692 284.711 74.2956 284.249 73.8221L284.002 73.5801C283.637 73.1381 283.25 72.7382 282.874 72.3593Z" fill="white"/>
<path d="M438.203 120.452L438.139 145.035L435.099 146.772L435.174 118.748L438.203 120.452Z" fill="#F0F0F0"/>
<path d="M470.971 163.609L470.96 167.051L435.099 146.772L438.139 145.036L470.971 163.609Z" fill="#F5F5F5"/>
<path d="M431.402 148.824L474.634 173.27L474.741 136.974L431.521 112.528L431.402 148.824ZM435.098 146.719L435.173 118.685L438.203 120.4L471.046 139.037L470.971 163.62V167.061L435.098 146.719Z" fill="#E0E0E0"/>
<path d="M431.51 112.529L434.55 110.803L477.771 135.249L474.731 136.975L431.51 112.529Z" fill="#F5F5F5"/>
<path d="M477.771 135.249L477.664 171.534L474.623 173.27L474.73 136.974L477.771 135.249Z" fill="#F0F0F0"/>
<path d="M439.492 70.645L439.428 95.2278L436.377 96.9537L436.463 68.9297L439.492 70.645Z" fill="#F0F0F0"/>
<path d="M472.26 113.791L472.249 117.243L436.377 96.9539L439.428 95.228L472.26 113.791Z" fill="#F5F5F5"/>
<path d="M432.734 99.0481L475.955 123.494L476.063 87.1985L432.799 62.7207L432.734 99.0481ZM436.419 96.9434L436.505 68.9191L439.492 70.6344L472.335 89.2085L472.26 113.781V117.233L436.419 96.9434Z" fill="#E0E0E0"/>
<path d="M432.799 62.7207L435.839 60.9844L479.06 85.4303L476.02 87.1667L432.799 62.7207Z" fill="#F5F5F5"/>
<path d="M479.06 85.4302L478.953 121.726L475.912 123.452L476.02 87.1666L479.06 85.4302Z" fill="#F0F0F0"/>
<path d="M448.646 129.787L439.686 136.701L439.664 143.447L469.445 160.284L469.466 153.539L463.794 142.499L458.701 146.372L460.496 151.855L457.885 146.993L448.646 129.787Z" fill="#E0E0E0"/>
<path d="M458.422 133.186C457.026 132.397 455.876 133.038 455.876 134.617C455.923 135.476 456.177 136.313 456.618 137.057C457.058 137.802 457.673 138.433 458.411 138.9C459.808 139.7 460.947 139.058 460.958 137.479C460.91 136.619 460.656 135.781 460.215 135.035C459.775 134.289 459.16 133.655 458.422 133.186Z" fill="#E0E0E0"/>
<path d="M449.924 79.979L440.975 86.8825L440.953 93.6281L470.734 110.476L470.755 103.731L465.083 92.681L459.98 96.5642L461.785 102.047L459.174 97.1745L449.924 79.979Z" fill="#E0E0E0"/>
<path d="M459.711 83.3783C458.304 82.5891 457.165 83.2205 457.165 84.7989C457.21 85.659 457.462 86.4965 457.901 87.2428C458.339 87.989 458.953 88.6228 459.69 89.0922C461.097 89.8815 462.236 89.2501 462.236 87.6717C462.191 86.8116 461.939 85.9741 461.5 85.2278C461.062 84.4815 460.448 83.8477 459.711 83.3783Z" fill="#E0E0E0"/>
<path d="M188.117 53.4184C187.365 50.819 181.972 45.873 176.6 45.9782C176.086 45.994 175.577 46.0936 175.096 46.2729L70.8951 104.31C69.1525 105.28 67.7542 106.749 66.8878 108.52C66.2002 109.848 65.8327 111.313 65.8135 112.803V333.639C65.8135 339.259 72.4315 344.626 78.6519 342.058C78.7931 342.019 78.93 341.966 79.0602 341.9L183.272 283.726C184.798 282.871 186.067 281.637 186.95 280.147C187.833 278.658 188.299 276.966 188.3 275.244V54.4812C188.323 54.1179 188.261 53.7542 188.117 53.4184Z" fill="#455A64"/>
<path d="M80.3496 136.165C80.3531 135.308 80.5874 134.468 81.0288 133.729C81.4703 132.99 82.1032 132.378 82.8636 131.955L179.673 78.0013C180.051 77.79 180.479 77.6793 180.914 77.6802C181.349 77.6811 181.776 77.7935 182.153 78.0064C182.53 78.2192 182.844 78.525 183.063 78.8933C183.282 79.2617 183.398 79.6798 183.401 80.106V258.164C183.392 259.019 183.156 259.857 182.715 260.596C182.274 261.334 181.644 261.947 180.887 262.373L84.1206 316.422C83.7427 316.633 83.3149 316.744 82.8798 316.743C82.4447 316.742 82.0173 316.63 81.6404 316.417C81.2634 316.204 80.9498 315.898 80.7309 315.53C80.512 315.162 80.3954 314.744 80.3926 314.317L80.3496 136.165Z" fill="#4CBE42"/>
<path opacity="0.2" d="M80.3496 136.165C80.3531 135.308 80.5874 134.468 81.0288 133.729C81.4703 132.99 82.1032 132.378 82.8636 131.955L179.673 78.0013C180.051 77.79 180.479 77.6793 180.914 77.6802C181.349 77.6811 181.776 77.7935 182.153 78.0064C182.53 78.2192 182.844 78.525 183.063 78.8933C183.282 79.2617 183.398 79.6798 183.401 80.106V258.164C183.392 259.019 183.156 259.857 182.715 260.596C182.274 261.334 181.644 261.947 180.887 262.373L84.1206 316.422C83.7427 316.633 83.3149 316.744 82.8798 316.743C82.4447 316.742 82.0173 316.63 81.6404 316.417C81.2634 316.204 80.9498 315.898 80.7309 315.53C80.512 315.162 80.3954 314.744 80.3926 314.317L80.3496 136.165Z" fill="black"/>
<path opacity="0.1" d="M80.3496 136.165C80.3531 135.308 80.5874 134.468 81.0288 133.729C81.4703 132.99 82.1032 132.378 82.8636 131.955L179.673 78.0013C180.051 77.79 180.479 77.6793 180.914 77.6802C181.349 77.6811 181.776 77.7935 182.153 78.0064C182.53 78.2192 182.844 78.525 183.063 78.8933C183.282 79.2617 183.398 79.6798 183.401 80.106V258.164C183.392 259.019 183.156 259.857 182.715 260.596C182.274 261.334 181.644 261.947 180.887 262.373L84.1206 316.422C83.7427 316.633 83.3149 316.744 82.8798 316.743C82.4447 316.742 82.0173 316.63 81.6404 316.417C81.2634 316.204 80.9498 315.898 80.7309 315.53C80.512 315.162 80.3954 314.744 80.3926 314.317L80.3496 136.165Z" fill="white"/>
<path opacity="0.3" d="M65.8564 112.823V333.639C65.8564 339.258 72.4744 344.625 78.6949 342.057C78.3216 342.191 77.9208 342.235 77.5265 342.184C77.1323 342.134 76.7563 341.991 76.4305 341.768C76.1047 341.545 75.8386 341.248 75.6549 340.903C75.4711 340.557 75.3752 340.174 75.3752 339.784V118.927C75.4018 117.001 76.0112 115.125 77.1264 113.539L66.8878 108.519C66.2119 109.857 65.8591 111.33 65.8564 112.823Z" fill="black"/>
<path opacity="0.1" d="M176.611 45.9675C176.096 45.9833 175.588 46.0829 175.107 46.2621L70.895 104.31C69.1523 105.28 67.7541 106.749 66.8877 108.519L77.1262 113.539C77.9753 112.24 79.128 111.158 80.4889 110.382L184.701 52.3131C184.995 52.1472 185.322 52.0426 185.66 52.006C185.998 51.9694 186.34 52.0014 186.665 52.1002C186.989 52.199 187.29 52.3623 187.547 52.5801C187.804 52.7978 188.013 53.0652 188.16 53.3655C187.376 50.8083 181.983 45.8622 176.611 45.9675Z" fill="white"/>
<path d="M144.735 88.8192C145.476 88.4088 146.078 88.735 146.078 89.5559C146.05 90.0083 145.915 90.4482 145.684 90.8409C145.453 91.2335 145.132 91.5682 144.746 91.8184L124.333 103.394C123.603 103.815 123.012 103.468 123.012 102.637C123.036 102.19 123.168 101.756 123.395 101.368C123.623 100.981 123.941 100.651 124.322 100.406L144.735 88.8192Z" fill="#263238"/>
<path d="M119.026 103.352C119.756 102.942 120.347 103.268 120.347 104.099C120.321 104.549 120.188 104.987 119.959 105.378C119.729 105.769 119.41 106.102 119.026 106.351C118.295 106.761 117.693 106.425 117.693 105.604C117.716 105.152 117.849 104.711 118.081 104.32C118.312 103.928 118.636 103.596 119.026 103.352Z" fill="#263238"/>
<path d="M132.133 87.1455C133.594 86.3141 134.776 86.9771 134.776 88.6188C134.73 89.5182 134.468 90.3942 134.011 91.1753C133.553 91.9563 132.914 92.6201 132.144 93.1125C130.683 93.9438 129.469 93.2703 129.469 91.6181C129.523 90.7199 129.792 89.8469 130.255 89.0698C130.718 88.2928 131.361 87.6335 132.133 87.1455Z" fill="#263238"/>
<path d="M132.132 295.017C135.119 293.334 137.504 294.681 137.504 298.027C137.409 299.861 136.873 301.648 135.939 303.24C135.006 304.833 133.702 306.188 132.132 307.193C129.157 308.877 126.686 307.498 126.675 304.141C126.786 302.307 127.339 300.524 128.287 298.938C129.235 297.353 130.553 296.009 132.132 295.017Z" fill="#263238"/>
<path d="M183.079 75.2012L218.274 103.815L205.447 111.076L170.262 82.4625L183.079 75.2012Z" fill="#4CBE42"/>
<path d="M157.434 89.7236L192.619 118.327L179.791 125.588L144.617 96.9849L157.434 89.7236Z" fill="#4CBE42"/>
<path d="M144.617 96.9854L179.791 125.588L166.963 132.85L131.789 104.247L144.617 96.9854Z" fill="white"/>
<path d="M170.261 82.4629L205.446 111.076L192.618 118.327L157.434 89.7241L170.261 82.4629Z" fill="white"/>
<path d="M106.144 118.758L141.308 147.361L128.48 154.622L93.3164 126.02L106.144 118.758Z" fill="#4CBE42"/>
<path d="M131.79 104.247L166.964 132.849L154.136 140.1L118.962 111.497L131.79 104.247Z" fill="#4CBE42"/>
<path d="M80.2529 133.418L93.317 126.02L128.48 154.623L115.384 162.031L80.2529 133.418Z" fill="white"/>
<path d="M118.962 111.498L154.136 140.101L141.308 147.362L106.145 118.759L118.962 111.498Z" fill="white"/>
<path d="M218.274 103.815L205.446 111.076C205.445 111.928 205.673 112.765 206.107 113.503C206.541 114.241 207.165 114.854 207.918 115.28C208.67 115.707 209.524 115.932 210.393 115.933C211.262 115.934 212.117 115.711 212.87 115.286C214.506 114.35 215.863 113.01 216.806 111.399C217.748 109.789 218.243 107.965 218.242 106.109L218.274 103.815Z" fill="#4CBE42"/>
<path d="M205.446 111.077L192.618 118.338C192.617 119.189 192.845 120.026 193.279 120.764C193.713 121.502 194.337 122.115 195.09 122.541C195.842 122.968 196.696 123.193 197.565 123.194C198.434 123.195 199.289 122.972 200.042 122.547C201.679 121.612 203.038 120.273 203.98 118.662C204.923 117.052 205.417 115.227 205.414 113.371L205.446 111.077Z" fill="#E0E0E0"/>
<path d="M192.619 118.337L179.791 125.588C179.79 126.439 180.018 127.276 180.452 128.014C180.886 128.752 181.51 129.365 182.262 129.791C183.015 130.218 183.869 130.443 184.738 130.444C185.607 130.445 186.461 130.222 187.215 129.797C188.852 128.862 190.21 127.523 191.153 125.912C192.096 124.302 192.59 122.477 192.586 120.621L192.619 118.337Z" fill="#4CBE42"/>
<path d="M179.791 125.588L166.963 132.849C166.959 133.702 167.185 134.541 167.618 135.28C168.051 136.02 168.676 136.635 169.429 137.062C170.182 137.489 171.038 137.714 171.908 137.713C172.779 137.712 173.634 137.487 174.387 137.058C176.023 136.126 177.381 134.788 178.324 133.179C179.267 131.571 179.761 129.748 179.758 127.893L179.791 125.588Z" fill="#E0E0E0"/>
<path d="M166.963 132.85L154.136 140.09C154.135 140.941 154.363 141.778 154.797 142.516C155.23 143.254 155.855 143.867 156.607 144.293C157.36 144.72 158.213 144.945 159.083 144.946C159.952 144.947 160.806 144.724 161.559 144.299C163.197 143.364 164.555 142.025 165.498 140.414C166.441 138.804 166.935 136.979 166.931 135.123L166.963 132.85Z" fill="#4CBE42"/>
<path d="M154.135 140.089L141.308 147.34C141.307 148.192 141.535 149.028 141.968 149.766C142.402 150.504 143.027 151.117 143.779 151.544C144.531 151.971 145.385 152.196 146.254 152.197C147.124 152.198 147.978 151.975 148.731 151.55C150.367 150.613 151.724 149.273 152.667 147.663C153.609 146.053 154.105 144.229 154.103 142.373L154.135 140.089Z" fill="#E0E0E0"/>
<path d="M141.308 147.362L128.481 154.623C128.476 155.476 128.702 156.315 129.135 157.054C129.568 157.794 130.193 158.409 130.947 158.836C131.7 159.263 132.555 159.488 133.426 159.487C134.296 159.487 135.151 159.261 135.904 158.833C137.547 157.904 138.909 156.565 139.853 154.953C140.796 153.342 141.287 151.514 141.276 149.656L141.308 147.362Z" fill="#4CBE42"/>
<path opacity="0.2" d="M218.274 103.815L205.446 111.076C205.445 111.928 205.673 112.765 206.107 113.503C206.541 114.241 207.165 114.854 207.918 115.28C208.67 115.707 209.524 115.932 210.393 115.933C211.262 115.934 212.117 115.711 212.87 115.286C214.506 114.35 215.863 113.01 216.806 111.399C217.748 109.789 218.243 107.965 218.242 106.109L218.274 103.815Z" fill="black"/>
<path opacity="0.2" d="M192.619 118.337L179.791 125.588C179.79 126.439 180.018 127.276 180.452 128.014C180.886 128.752 181.51 129.365 182.262 129.791C183.015 130.218 183.869 130.443 184.738 130.444C185.607 130.445 186.461 130.222 187.215 129.797C188.852 128.862 190.21 127.523 191.153 125.912C192.096 124.302 192.59 122.477 192.586 120.621L192.619 118.337Z" fill="black"/>
<path opacity="0.2" d="M166.963 132.85L154.136 140.09C154.135 140.941 154.363 141.778 154.797 142.516C155.23 143.254 155.855 143.867 156.607 144.293C157.36 144.72 158.213 144.945 159.083 144.946C159.952 144.947 160.806 144.724 161.559 144.299C163.197 143.364 164.555 142.025 165.498 140.414C166.441 138.804 166.935 136.979 166.931 135.123L166.963 132.85Z" fill="black"/>
<path opacity="0.2" d="M141.308 147.362L128.481 154.623C128.476 155.476 128.702 156.315 129.135 157.054C129.568 157.794 130.193 158.409 130.947 158.836C131.7 159.263 132.555 159.488 133.426 159.487C134.296 159.487 135.151 159.261 135.904 158.833C137.547 157.904 138.909 156.565 139.853 154.953C140.796 153.342 141.287 151.514 141.276 149.656L141.308 147.362Z" fill="black"/>
<path d="M128.48 154.623L115.384 161.989C115.381 162.84 115.607 163.677 116.039 164.416C116.472 165.154 117.095 165.768 117.847 166.194C118.599 166.621 119.452 166.847 120.321 166.847C121.19 166.848 122.044 166.624 122.797 166.199C124.526 165.221 125.962 163.814 126.959 162.12C127.957 160.426 128.481 158.504 128.48 156.548V154.623Z" fill="#E0E0E0"/>
<path d="M143.435 191.655C139.63 192.097 135.938 193.213 132.541 194.949C124.62 198.951 118.568 205.775 115.631 214.017C114.356 217.557 113.749 221.293 113.836 225.046C114.681 221.5 115.902 218.051 117.479 214.754C121.006 207.367 126.569 201.091 133.54 196.632C136.654 194.643 139.97 192.975 143.435 191.655Z" fill="#4CBE42"/>
<path d="M133.4 246.756C131.312 246.722 129.242 246.366 127.266 245.704C125.07 244.991 123.043 243.853 121.304 242.358C119.566 240.863 118.151 239.041 117.145 237.001C116.215 235.17 115.588 233.205 115.287 231.181C115.062 233.299 115.345 235.44 116.114 237.432C116.979 239.753 118.427 241.823 120.323 243.452C122.219 245.082 124.503 246.218 126.965 246.756C129.081 247.247 131.284 247.247 133.4 246.756Z" fill="#4CBE42"/>
<path d="M150.053 212.913C150.263 215.717 150.22 218.534 149.924 221.331C149.244 227.651 147.13 233.742 143.736 239.158C142.229 241.565 140.507 243.837 138.59 245.946C141.058 244.329 143.236 242.324 145.036 240.011C149.204 234.682 151.468 228.16 151.482 221.447C151.488 218.545 151.005 215.661 150.053 212.913Z" fill="#4CBE42"/>
<path d="M116.373 201.294C113.776 203.741 111.653 206.629 110.109 209.818C106.471 217.219 105.864 225.703 108.412 233.528C109.497 236.896 111.189 240.046 113.407 242.831C111.997 239.691 110.918 236.419 110.184 233.065C108.577 225.554 109.135 217.752 111.796 210.534C112.987 207.306 114.521 204.209 116.373 201.294Z" fill="#4CBE42"/>
<path d="M157.413 202.536C157.138 199.662 156.085 196.912 154.361 194.57C152.405 191.804 149.668 189.657 146.485 188.392C143.303 187.126 139.812 186.797 136.441 187.445C133.542 187.959 130.832 189.216 128.588 191.087C131.111 189.875 133.844 189.139 136.645 188.919C139.736 188.641 142.85 189.093 145.727 190.235C148.603 191.377 151.159 193.178 153.18 195.485C155.031 197.554 156.467 199.946 157.413 202.536Z" fill="#4CBE42"/>
<path d="M203.492 169.556C206.895 169.217 210.303 170.149 213.035 172.167C215.766 174.185 217.618 177.138 218.221 180.437L223.206 207.798L254.469 229.213L247.486 237.538L217.748 222.236C215.996 221.336 214.447 220.101 213.19 218.605C211.934 217.108 210.996 215.38 210.432 213.523L200.849 181.858L203.492 169.556Z" fill="#FFA8A7"/>
<path d="M215.094 198.958C217.857 197.518 220.07 195.24 221.401 192.465L218.597 179.921C217.881 176.736 215.995 173.92 213.296 172.008C210.598 170.097 207.277 169.224 203.964 169.556L203.492 169.608L200.849 181.931L204.974 200.074C208.375 200.906 211.968 200.51 215.094 198.958Z" fill="#455A64"/>
<path d="M215.094 198.958C211.967 200.51 208.374 200.906 204.974 200.074L206.048 204.546C209.926 205.399 219.864 205.115 222.453 197.075L221.379 192.444C220.057 195.224 217.852 197.509 215.094 198.958Z" fill="#455A64"/>
<path opacity="0.2" d="M215.094 198.958C217.857 197.518 220.07 195.24 221.401 192.465L218.597 179.921C217.881 176.736 215.995 173.92 213.296 172.008C210.598 170.097 207.277 169.224 203.964 169.556L203.492 169.608L200.849 181.931L204.974 200.074C208.375 200.906 211.968 200.51 215.094 198.958Z" fill="white"/>
<path opacity="0.5" d="M215.094 198.958C211.967 200.51 208.374 200.906 204.974 200.074L206.048 204.546C209.926 205.399 219.864 205.115 222.453 197.075L221.379 192.444C220.057 195.224 217.852 197.509 215.094 198.958Z" fill="white"/>
<path d="M210.41 181.332C210.41 181.332 209.164 172.018 203.491 169.587C203.491 169.587 189.912 173.576 178.652 177.764C174.2 179.355 169.838 181.181 165.588 183.236C163.031 185.404 155.694 191.855 152.245 193.592C150.56 194.416 148.743 194.95 146.873 195.17C144.511 195.542 142.242 196.353 140.191 197.559C129.856 203.41 121.508 217.554 121.54 229.203C121.54 236.833 125.193 241.453 130.597 242.095H130.844C131.697 242.184 132.558 242.184 133.412 242.095C142.812 242.01 157.885 241.937 163.805 240.274C191.459 232.318 213.203 212.702 210.41 181.332Z" fill="#455A64"/>
<path d="M184.056 177.512L188.106 170.313L204.404 181.069L197.958 189.551C196.605 190.2 195.129 190.566 193.623 190.626C192.117 190.686 190.615 190.438 189.213 189.898C187.827 189.272 186.587 188.373 185.571 187.258C184.554 186.143 183.783 184.835 183.304 183.415C183.018 182.432 182.937 181.403 183.067 180.389C183.196 179.374 183.532 178.396 184.056 177.512Z" fill="#FFA8A7"/>
<path opacity="0.2" d="M189.632 171.313C189.632 179.985 196.669 184.047 200.966 185.583L204.404 181.068L189.632 171.313Z" fill="black"/>
<path d="M182.273 162.662C181.671 159.2 181.059 155.643 181.746 152.191C182.434 148.74 184.711 145.372 188.192 144.362C188.899 142.886 189.91 141.57 191.162 140.496C192.414 139.422 193.879 138.614 195.466 138.121C198.576 137.29 201.793 136.907 205.017 136.985C208.573 136.776 212.142 136.97 215.653 137.564C219.19 138.183 222.405 139.969 224.763 142.626C225.971 144.256 226.829 146.109 227.283 148.074C227.737 150.038 227.779 152.073 227.406 154.054C226.635 158.013 225.139 161.803 222.99 165.24C216.158 165.714 209.196 166.482 202.363 166.956C198.882 167.313 195.375 167.345 191.888 167.05C188.33 166.487 185.002 164.968 182.273 162.662Z" fill="#263238"/>
<path d="M224.108 146.614C225.859 156.913 224.7 167.485 220.756 177.185C219.843 179.427 218.607 181.753 216.512 182.942C214.417 184.131 211.495 183.942 208.992 183.563C204.851 183.101 200.814 181.989 197.034 180.269C193.23 178.511 190.266 175.382 188.762 171.534C187.407 171.801 186.003 171.68 184.717 171.186C183.43 170.691 182.317 169.844 181.51 168.745C179.923 166.466 179.101 163.759 179.157 161C179.157 159.243 179.49 157.169 181.102 156.401C182.713 155.633 184.389 156.485 185.689 157.517C187.82 159.215 189.378 161.503 190.158 164.083C191.34 159.8 193.177 155.665 194.359 151.455C194.832 149.771 195.433 147.94 196.905 147.004C198.732 145.856 201.117 146.509 203.233 147.004C210.112 148.616 217.297 148.482 224.108 146.614Z" fill="#FFA8A7"/>
<path d="M211.388 159.589L216.491 167.998L210.41 169.124L211.388 159.589Z" fill="#F28F8F"/>
<path d="M204.544 172.018L209.163 174.217C208.769 174.733 208.213 175.108 207.581 175.285C206.948 175.462 206.274 175.431 205.661 175.196C205.132 174.872 204.732 174.379 204.529 173.801C204.325 173.222 204.331 172.593 204.544 172.018Z" fill="#F28F8F"/>
<path opacity="0.3" d="M204.544 172.018L209.163 174.217C208.769 174.733 208.213 175.108 207.581 175.285C206.948 175.462 206.274 175.431 205.661 175.196C205.132 174.872 204.732 174.379 204.529 173.801C204.325 173.222 204.331 172.593 204.544 172.018Z" fill="black"/>
<path d="M207.262 175.343C206.725 175.45 206.168 175.399 205.661 175.196C205.236 174.963 204.892 174.611 204.672 174.186C204.452 173.761 204.366 173.28 204.426 172.807C205.088 172.808 205.731 173.027 206.252 173.428C206.83 173.914 207.192 174.601 207.262 175.343Z" fill="#F28F8F"/>
<path d="M202.578 159.927C202.544 160.264 202.612 160.605 202.775 160.904C202.938 161.204 203.188 161.449 203.494 161.609C203.799 161.77 204.146 161.838 204.491 161.805C204.836 161.771 205.163 161.639 205.431 161.424C205.699 161.208 205.896 160.92 205.996 160.595C206.097 160.271 206.097 159.924 205.996 159.599C205.895 159.274 205.699 158.986 205.43 158.771C205.162 158.556 204.835 158.423 204.49 158.39C204.029 158.346 203.568 158.483 203.21 158.771C202.851 159.059 202.624 159.475 202.578 159.927Z" fill="#263238"/>
<path d="M217.232 160.811C217.198 161.146 217.266 161.483 217.427 161.781C217.589 162.078 217.837 162.322 218.14 162.482C218.443 162.641 218.787 162.709 219.129 162.677C219.472 162.646 219.797 162.515 220.063 162.302C220.33 162.089 220.526 161.804 220.627 161.482C220.729 161.16 220.73 160.816 220.632 160.493C220.534 160.17 220.34 159.883 220.075 159.668C219.81 159.453 219.487 159.32 219.145 159.285C218.917 159.261 218.686 159.282 218.467 159.346C218.247 159.411 218.043 159.517 217.865 159.658C217.687 159.8 217.54 159.975 217.431 160.173C217.323 160.37 217.255 160.587 217.232 160.811Z" fill="#263238"/>
<path d="M219.617 154.202L223.205 157.19C223.421 156.739 223.49 156.234 223.403 155.743C223.317 155.252 223.079 154.799 222.722 154.444C222.279 154.124 221.753 153.932 221.205 153.889C220.656 153.847 220.106 153.955 219.617 154.202Z" fill="#263238"/>
<path d="M205.328 153.97L201.213 156.201C201.092 155.718 201.125 155.209 201.308 154.745C201.49 154.28 201.813 153.882 202.234 153.602C202.733 153.376 203.288 153.291 203.834 153.356C204.38 153.421 204.898 153.634 205.328 153.97Z" fill="#263238"/>
<path d="M227.374 150.077C212.428 152.42 197.197 152.42 182.251 150.077C182.949 132.186 191.168 126.325 205.349 126.325C219.531 126.325 227.535 133.775 227.374 150.077Z" fill="#455A64"/>
<path d="M227.374 150.077C227.374 143.226 226.02 137.964 223.367 134.144L217.426 132.513C214.63 131.744 211.694 131.593 208.831 132.071L203.169 132.997C201.231 133.303 199.449 134.219 198.091 135.608C196.734 136.996 195.876 138.78 195.649 140.69L194.349 151.487C205.376 152.264 216.458 151.791 227.374 150.077Z" fill="#455A64"/>
<path opacity="0.29" d="M227.374 150.077C227.374 143.226 226.02 137.964 223.367 134.144L217.426 132.513C214.63 131.744 211.694 131.593 208.831 132.071L203.169 132.997C201.231 133.303 199.449 134.219 198.091 135.608C196.734 136.996 195.876 138.78 195.649 140.69L194.349 151.487C205.376 152.264 216.458 151.791 227.374 150.077Z" fill="white"/>
<path d="M229.147 135.017H226.525C225.677 135.017 224.839 135.017 224.001 135.112C216.314 135.659 209.03 138.686 203.287 143.72L194.456 151.486C205.448 152.256 216.493 151.783 227.374 150.076L233.122 143.246C233.733 142.507 234.118 141.614 234.234 140.669C234.349 139.725 234.19 138.768 233.775 137.908C233.36 137.048 232.705 136.321 231.886 135.809C231.067 135.298 230.118 135.023 229.147 135.017Z" fill="#455A64"/>
<path opacity="0.2" d="M229.147 135.017H226.525C225.677 135.017 224.839 135.017 224.001 135.112C216.314 135.659 209.03 138.686 203.287 143.72L194.456 151.486C205.448 152.256 216.493 151.783 227.374 150.076L233.122 143.246C233.733 142.507 234.118 141.614 234.234 140.669C234.349 139.725 234.19 138.768 233.775 137.908C233.36 137.048 232.705 136.321 231.886 135.809C231.067 135.298 230.118 135.023 229.147 135.017Z" fill="black"/>
<path d="M274.559 230.655L234.508 253.449L194.198 230.655L234.239 207.851L274.559 230.655Z" fill="#4CBE42"/>
<g opacity="0.3">
<path opacity="0.3" d="M274.559 230.655L234.508 253.449L194.198 230.655L234.239 207.851L274.559 230.655Z" fill="white"/>
</g>
<path d="M274.559 230.655L274.441 270.56L234.39 293.354L234.508 253.449L274.559 230.655Z" fill="#4CBE42"/>
<g opacity="0.1">
<path opacity="0.1" d="M274.559 229.929L274.441 269.834L234.39 292.628L234.508 252.723L274.559 229.929Z" fill="white"/>
</g>
<path d="M234.508 253.449L234.39 293.354L194.08 270.56L194.198 230.655L234.508 253.449Z" fill="#4CBE42"/>
<path d="M241.48 227.73L255.039 219.616L248.12 215.702L234.508 223.658L241.48 227.73Z" fill="#E0E0E0"/>
<path d="M241.48 227.73L234.507 223.657L220.681 215.575L213.783 219.5L227.524 227.73L234.507 231.908L252.943 242.957L260.335 238.748L241.48 227.73Z" fill="white"/>
<path d="M227.524 227.73L208.594 238.79L216.007 242.989L234.507 231.908L227.524 227.73Z" fill="#E0E0E0"/>
<path d="M260.335 238.748L252.943 242.957L253.008 242.989L253.115 282.694L260.593 278.443L260.485 238.822L260.335 238.748Z" fill="#E0E0E0"/>
<path d="M216.007 242.988L208.594 238.79L208.529 238.821L208.411 278.674L215.889 282.894L216.007 242.988Z" fill="white"/>
<path opacity="0.2" d="M216.007 242.988L208.594 238.79L208.529 238.821L208.411 278.674L215.889 282.894L216.007 242.988Z" fill="black"/>
<path d="M234.486 239.79L226.106 244.809L234.486 249.555L242.845 244.799L234.486 239.79Z" fill="white"/>
<path d="M155.199 238.411C155.199 238.411 158.325 193.844 158.981 191.055C161.484 180.458 177.169 181.216 178.663 191.992C179.275 196.391 172.109 239.106 172.109 239.106L198.066 266.004L203.319 270.729L208.003 269.803L218.682 270.792C218.966 270.82 219.233 270.937 219.443 271.127C219.652 271.317 219.792 271.569 219.843 271.844C219.911 272.17 219.849 272.509 219.669 272.792C219.489 273.074 219.205 273.277 218.876 273.36L211.817 275.043L216.91 278.453C217.623 278.932 218.433 279.259 219.284 279.411L227.266 280.894C227.619 280.958 227.935 281.147 228.155 281.424C228.375 281.702 228.483 282.049 228.459 282.399C228.442 282.677 228.344 282.943 228.176 283.167C228.009 283.392 227.778 283.563 227.513 283.662L223.216 285.23C220.431 286.254 217.454 286.677 214.487 286.47C211.521 286.263 208.635 285.431 206.026 284.03L196.787 279C195.432 278.286 194.154 277.44 192.973 276.475L159.851 249.64C158.182 248.296 156.882 246.565 156.07 244.604C155.257 242.643 154.958 240.514 155.199 238.411Z" fill="#FFA8A7"/>
<path d="M178.244 221.332L181.564 197.127C181.77 195.478 181.642 193.805 181.188 192.204C180.734 190.603 179.962 189.105 178.917 187.796C177.872 186.487 176.574 185.393 175.098 184.575C173.621 183.758 171.994 183.233 170.31 183.031C168.626 182.829 166.918 182.954 165.284 183.399C163.649 183.844 162.12 184.6 160.784 185.623C159.448 186.647 158.33 187.918 157.496 189.365C156.661 190.812 156.125 192.405 155.919 194.055L153.147 218.753C156.912 220.884 161.094 222.212 165.418 222.65C169.743 223.089 174.113 222.629 178.244 221.3V221.332Z" fill="#455A64"/>
<path opacity="0.2" d="M178.244 221.332L181.564 197.127C181.77 195.478 181.642 193.805 181.188 192.204C180.734 190.603 179.962 189.105 178.917 187.796C177.872 186.487 176.574 185.393 175.098 184.575C173.621 183.758 171.994 183.233 170.31 183.031C168.626 182.829 166.918 182.954 165.284 183.399C163.649 183.844 162.12 184.6 160.784 185.623C159.448 186.647 158.33 187.918 157.496 189.365C156.661 190.812 156.125 192.405 155.919 194.055L153.147 218.753C156.912 220.884 161.094 222.212 165.418 222.65C169.743 223.089 174.113 222.629 178.244 221.3V221.332Z" fill="white"/>
<path d="M164.912 222.626C160.751 222.126 156.734 220.82 153.094 218.785L152.46 224.478C163.622 232.897 177.31 227.698 177.31 227.698L178.191 221.332C173.909 222.687 169.382 223.128 164.912 222.626Z" fill="#455A64"/>
<path opacity="0.5" d="M164.912 222.626C160.751 222.126 156.734 220.82 153.094 218.785L152.46 224.478C163.622 232.897 177.31 227.698 177.31 227.698L178.191 221.332C173.909 222.687 169.382 223.128 164.912 222.626Z" fill="white"/>
<path d="M455.232 304.014L472.658 304.519L490.084 304.014C490.825 315.59 488.537 327.292 485.368 333.028C484.617 334.5 483.41 335.701 481.919 336.459C476.773 339.374 468.468 339.374 463.354 336.459C461.843 335.686 460.635 334.447 459.916 332.933C456.758 327.166 454.491 315.485 455.232 304.014Z" fill="white"/>
<path d="M460.378 297.027C453.556 300.889 453.513 307.15 460.292 311.012C467.071 314.875 478.105 314.864 484.937 311.012C491.77 307.161 491.803 300.889 485.013 297.027C478.223 293.165 467.2 293.165 460.378 297.027Z" fill="#EBEBEB"/>
<path d="M463.074 298.563C457.702 301.573 457.702 306.456 463.01 309.476C468.317 312.496 476.912 312.486 482.24 309.476C487.569 306.466 487.612 301.573 482.294 298.563C476.976 295.554 468.403 295.554 463.074 298.563Z" fill="#E0E0E0"/>
<g opacity="0.15">
<path opacity="0.15" d="M463.074 298.563C457.702 301.573 457.702 306.456 463.01 309.476C468.317 312.496 476.912 312.486 482.24 309.476C487.569 306.466 487.612 301.573 482.294 298.563C476.976 295.554 468.403 295.554 463.074 298.563Z" fill="black"/>
</g>
<path d="M481.543 269.097C484.379 265.646 487.667 262.552 490.267 258.932C492.039 256.459 493.49 253.428 492.77 250.513C492.358 249.166 491.569 247.959 490.492 247.029C489.415 246.099 488.094 245.483 486.678 245.251C483.817 244.834 480.9 245.471 478.492 247.04C476.106 248.6 474.013 250.551 472.303 252.807C462.488 264.981 457.847 280.395 459.347 295.838C459.383 297.606 459.947 299.325 460.969 300.784C461.596 301.503 462.419 302.032 463.342 302.308C464.265 302.584 465.25 302.595 466.18 302.341C470.928 300.963 470.294 294.68 471.068 290.986C472.135 285.915 473.975 281.03 476.526 276.495C477.971 273.889 479.65 271.413 481.543 269.097Z" fill="#4CBE42"/>
<path opacity="0.2" d="M481.543 269.097C484.379 265.646 487.667 262.552 490.267 258.932C492.039 256.459 493.49 253.428 492.77 250.513C492.358 249.166 491.569 247.959 490.492 247.029C489.415 246.099 488.094 245.483 486.678 245.251C483.817 244.834 480.9 245.471 478.492 247.04C476.106 248.6 474.013 250.551 472.303 252.807C462.488 264.981 457.847 280.395 459.347 295.838C459.383 297.606 459.947 299.325 460.969 300.784C461.596 301.503 462.419 302.032 463.342 302.308C464.265 302.584 465.25 302.595 466.18 302.341C470.928 300.963 470.294 294.68 471.068 290.986C472.135 285.915 473.975 281.03 476.526 276.495C477.971 273.889 479.65 271.413 481.543 269.097Z" fill="white"/>
<path d="M465.878 297.627C465.97 297.608 466.053 297.559 466.114 297.488C466.174 297.418 466.208 297.329 466.211 297.237C466.544 289.776 469.026 264.309 486.946 249.881C486.989 249.849 487.025 249.808 487.052 249.761C487.078 249.714 487.094 249.662 487.099 249.609C487.104 249.555 487.098 249.502 487.081 249.451C487.064 249.4 487.036 249.353 487 249.313C486.966 249.271 486.925 249.236 486.877 249.21C486.83 249.184 486.777 249.168 486.723 249.162C486.669 249.156 486.615 249.161 486.562 249.176C486.51 249.191 486.462 249.216 486.42 249.25C468.231 263.92 465.717 289.692 465.384 297.237C465.381 297.344 465.421 297.448 465.495 297.527C465.569 297.606 465.672 297.653 465.781 297.658L465.878 297.627Z" fill="#F0F0F0"/>
<path d="M463.268 298.427C463.643 300.06 464.351 301.602 465.35 302.96C466.349 304.318 467.618 305.464 469.08 306.33C471.821 307.608 474.872 308.111 477.89 307.782C480.944 307.429 483.944 306.722 486.828 305.678C488.268 305.204 489.858 304.573 490.051 302.826C490.073 302.369 489.992 301.913 489.816 301.49C489.64 301.066 489.372 300.686 489.031 300.374C488.74 300.092 488.431 299.828 488.107 299.584C487.957 299.475 487.845 299.324 487.786 299.15C487.727 298.977 487.723 298.79 487.776 298.614C487.829 298.439 487.935 298.284 488.08 298.169C488.226 298.055 488.404 297.987 488.59 297.974C489.444 297.917 490.295 297.812 491.136 297.659C493.112 297.357 494.967 296.539 496.508 295.291C497.626 294.321 498.476 293.09 498.979 291.713C499.409 290.534 499.538 289.061 498.625 288.187C498.061 287.728 497.375 287.435 496.648 287.346C496.014 287.209 495.369 287.093 494.736 286.998C494.552 286.972 494.383 286.887 494.253 286.757C494.123 286.628 494.041 286.46 494.018 286.28C493.994 286.1 494.032 285.917 494.125 285.76C494.218 285.603 494.36 285.479 494.531 285.409L497.239 284.304C498.017 284.057 498.721 283.627 499.291 283.052C499.641 282.518 499.869 281.916 499.958 281.287C500.047 280.658 499.995 280.018 499.806 279.411C499.473 277.748 498.893 276.149 498.496 274.507C498.015 272.889 497.937 271.182 498.27 269.529C493.204 268.977 488.079 269.312 483.133 270.518C481.644 270.821 480.236 271.423 478.996 272.286C477.31 273.612 476.848 275.591 477.052 277.748C477.059 277.835 477.034 277.922 476.983 277.994C476.931 278.066 476.856 278.118 476.77 278.141C476.684 278.165 476.592 278.159 476.51 278.123C476.429 278.088 476.362 278.026 476.321 277.948L474.634 274.791C474.381 274.341 473.962 274.003 473.463 273.847C472.963 273.69 472.421 273.727 471.949 273.949C470.433 274.693 469.088 275.731 467.995 277.001C467.391 277.673 466.93 278.457 466.641 279.307C466.351 280.156 466.238 281.054 466.308 281.947C466.517 284.401 466.937 286.834 467.565 289.219C467.607 289.354 467.603 289.5 467.554 289.633C467.505 289.766 467.414 289.88 467.294 289.959C467.173 290.038 467.031 290.077 466.886 290.071C466.742 290.064 466.603 290.013 466.491 289.924H466.416C465.951 289.572 465.367 289.406 464.783 289.461C463.257 289.64 462.87 291.155 462.763 292.449C462.686 294.455 462.856 296.461 463.268 298.427Z" fill="#4CBE42"/>
<path opacity="0.2" d="M463.268 298.427C463.643 300.06 464.351 301.602 465.35 302.96C466.349 304.318 467.618 305.464 469.08 306.33C471.821 307.608 474.872 308.111 477.89 307.782C480.944 307.429 483.944 306.722 486.828 305.678C488.268 305.204 489.858 304.573 490.051 302.826C490.073 302.369 489.992 301.913 489.816 301.49C489.64 301.066 489.372 300.686 489.031 300.374C488.74 300.092 488.431 299.828 488.107 299.584C487.957 299.475 487.845 299.324 487.786 299.15C487.727 298.977 487.723 298.79 487.776 298.614C487.829 298.439 487.935 298.284 488.08 298.169C488.226 298.055 488.404 297.987 488.59 297.974C489.444 297.917 490.295 297.812 491.136 297.659C493.112 297.357 494.967 296.539 496.508 295.291C497.626 294.321 498.476 293.09 498.979 291.713C499.409 290.534 499.538 289.061 498.625 288.187C498.061 287.728 497.375 287.435 496.648 287.346C496.014 287.209 495.369 287.093 494.736 286.998C494.552 286.972 494.383 286.887 494.253 286.757C494.123 286.628 494.041 286.46 494.018 286.28C493.994 286.1 494.032 285.917 494.125 285.76C494.218 285.603 494.36 285.479 494.531 285.409L497.239 284.304C498.017 284.057 498.721 283.627 499.291 283.052C499.641 282.518 499.869 281.916 499.958 281.287C500.047 280.658 499.995 280.018 499.806 279.411C499.473 277.748 498.893 276.149 498.496 274.507C498.015 272.889 497.937 271.182 498.27 269.529C493.204 268.977 488.079 269.312 483.133 270.518C481.644 270.821 480.236 271.423 478.996 272.286C477.31 273.612 476.848 275.591 477.052 277.748C477.059 277.835 477.034 277.922 476.983 277.994C476.931 278.066 476.856 278.118 476.77 278.141C476.684 278.165 476.592 278.159 476.51 278.123C476.429 278.088 476.362 278.026 476.321 277.948L474.634 274.791C474.381 274.341 473.962 274.003 473.463 273.847C472.963 273.69 472.421 273.727 471.949 273.949C470.433 274.693 469.088 275.731 467.995 277.001C467.391 277.673 466.93 278.457 466.641 279.307C466.351 280.156 466.238 281.054 466.308 281.947C466.517 284.401 466.937 286.834 467.565 289.219C467.607 289.354 467.603 289.5 467.554 289.633C467.505 289.766 467.414 289.88 467.294 289.959C467.173 290.038 467.031 290.077 466.886 290.071C466.742 290.064 466.603 290.013 466.491 289.924H466.416C465.951 289.572 465.367 289.406 464.783 289.461C463.257 289.64 462.87 291.155 462.763 292.449C462.686 294.455 462.856 296.461 463.268 298.427Z" fill="black"/>
<path opacity="0.2" d="M463.268 298.427C463.643 300.06 464.351 301.602 465.35 302.96C466.349 304.318 467.618 305.464 469.08 306.33C471.821 307.608 474.872 308.111 477.89 307.782C480.944 307.429 483.944 306.722 486.828 305.678C488.268 305.204 489.858 304.573 490.051 302.826C490.073 302.369 489.992 301.913 489.816 301.49C489.64 301.066 489.372 300.686 489.031 300.374C488.74 300.092 488.431 299.828 488.107 299.584C487.957 299.475 487.845 299.324 487.786 299.15C487.727 298.977 487.723 298.79 487.776 298.614C487.829 298.439 487.935 298.284 488.08 298.169C488.226 298.055 488.404 297.987 488.59 297.974C489.444 297.917 490.295 297.812 491.136 297.659C493.112 297.357 494.967 296.539 496.508 295.291C497.626 294.321 498.476 293.09 498.979 291.713C499.409 290.534 499.538 289.061 498.625 288.187C498.061 287.728 497.375 287.435 496.648 287.346C496.014 287.209 495.369 287.093 494.736 286.998C494.552 286.972 494.383 286.887 494.253 286.757C494.123 286.628 494.041 286.46 494.018 286.28C493.994 286.1 494.032 285.917 494.125 285.76C494.218 285.603 494.36 285.479 494.531 285.409L497.239 284.304C498.017 284.057 498.721 283.627 499.291 283.052C499.641 282.518 499.869 281.916 499.958 281.287C500.047 280.658 499.995 280.018 499.806 279.411C499.473 277.748 498.893 276.149 498.496 274.507C498.015 272.889 497.937 271.182 498.27 269.529C493.204 268.977 488.079 269.312 483.133 270.518C481.644 270.821 480.236 271.423 478.996 272.286C477.31 273.612 476.848 275.591 477.052 277.748C477.059 277.835 477.034 277.922 476.983 277.994C476.931 278.066 476.856 278.118 476.77 278.141C476.684 278.165 476.592 278.159 476.51 278.123C476.429 278.088 476.362 278.026 476.321 277.948L474.634 274.791C474.381 274.341 473.962 274.003 473.463 273.847C472.963 273.69 472.421 273.727 471.949 273.949C470.433 274.693 469.088 275.731 467.995 277.001C467.391 277.673 466.93 278.457 466.641 279.307C466.351 280.156 466.238 281.054 466.308 281.947C466.517 284.401 466.937 286.834 467.565 289.219C467.607 289.354 467.603 289.5 467.554 289.633C467.505 289.766 467.414 289.88 467.294 289.959C467.173 290.038 467.031 290.077 466.886 290.071C466.742 290.064 466.603 290.013 466.491 289.924H466.416C465.951 289.572 465.367 289.406 464.783 289.461C463.257 289.64 462.87 291.155 462.763 292.449C462.686 294.455 462.856 296.461 463.268 298.427Z" fill="white"/>
<path d="M471.294 305.93C472.243 301.945 473.607 298.066 475.365 294.354C475.367 294.297 475.38 294.24 475.404 294.188C475.428 294.135 475.462 294.088 475.505 294.049L475.795 293.449C475.299 288.829 473.929 284.34 471.756 280.21C471.703 280.116 471.69 280.006 471.718 279.902C471.746 279.799 471.813 279.709 471.906 279.653C472.003 279.6 472.117 279.587 472.224 279.616C472.331 279.646 472.421 279.716 472.475 279.811C474.512 283.657 475.856 287.819 476.45 292.113C479.899 285.335 485.4 277.38 493.887 271.634C493.978 271.573 494.091 271.55 494.199 271.569C494.308 271.589 494.404 271.65 494.467 271.739C494.498 271.782 494.519 271.831 494.53 271.883C494.541 271.935 494.542 271.988 494.532 272.04C494.522 272.092 494.502 272.141 494.472 272.185C494.443 272.229 494.404 272.267 494.36 272.297C485.604 278.274 480.082 286.546 476.73 293.407C481.247 291.408 486.261 290.743 491.158 291.492C491.267 291.515 491.362 291.578 491.424 291.668C491.486 291.758 491.51 291.869 491.491 291.976C491.475 292.055 491.434 292.128 491.375 292.184C491.315 292.241 491.24 292.278 491.158 292.291H490.997C490.922 292.291 483.004 290.871 476.15 294.617C474.404 298.291 473.051 302.131 472.11 306.077C472.091 306.156 472.05 306.227 471.991 306.283C471.932 306.339 471.858 306.377 471.777 306.393H471.616C471.511 306.373 471.418 306.313 471.358 306.226C471.298 306.139 471.275 306.033 471.294 305.93Z" fill="#F0F0F0"/>
<path d="M74.2579 338.89L54.4254 339.458L34.6036 338.89C33.7442 352.002 36.3656 365.367 39.9754 371.902C40.8273 373.584 42.2048 374.955 43.9075 375.817C49.752 379.132 59.2062 379.132 65.0185 375.817C66.7438 374.944 68.1234 373.533 68.9398 371.808C72.5174 365.23 75.1066 351.939 74.2579 338.89Z" fill="white"/>
<path d="M68.4023 330.934C76.1698 335.333 76.2128 342.446 68.499 346.845C60.7851 351.244 48.226 351.234 40.4585 346.845C32.6909 342.457 32.648 335.333 40.3618 330.934C48.0756 326.535 60.6347 326.546 68.4023 330.934Z" fill="#EBEBEB"/>
<path d="M65.3079 332.67C71.3672 336.101 71.3995 341.657 65.3831 345.088C59.3668 348.519 49.5687 348.508 43.5094 345.088C37.4501 341.668 37.4179 336.101 43.4342 332.67C49.4506 329.239 59.2701 329.26 65.3079 332.67Z" fill="#E0E0E0"/>
<g opacity="0.15">
<path opacity="0.15" d="M65.3079 332.67C71.3672 336.101 71.3995 341.657 65.3831 345.088C59.3668 348.519 49.5687 348.508 43.5094 345.088C37.4501 341.668 37.4179 336.101 43.4342 332.67C49.4506 329.239 59.2701 329.26 65.3079 332.67Z" fill="black"/>
</g>
<path d="M87.0317 256.017C42.3496 270.35 41.9091 299.626 52.0187 320.473C54.5542 324.683 62.2465 326.966 68.929 301.036L57.1971 302.51L70.8735 295.712L74.4296 285.314L63.0201 286.146L77.5023 280.179C80.1657 271.94 83.3483 263.87 87.0317 256.017Z" fill="#4CBE42"/>
<path opacity="0.2" d="M87.0317 256.017C42.3496 270.35 41.9091 299.626 52.0187 320.473C54.5542 324.683 62.2465 326.966 68.929 301.036L57.1971 302.51L70.8735 295.712L74.4296 285.314L63.0201 286.146L77.5023 280.179C80.1657 271.94 83.3483 263.87 87.0317 256.017Z" fill="black"/>
<path opacity="0.2" d="M87.0317 256.017C42.3496 270.35 41.9091 299.626 52.0187 320.473C54.5542 324.683 62.2465 326.966 68.929 301.036L57.1971 302.51L70.8735 295.712L74.4296 285.314L63.0201 286.146L77.5023 280.179C80.1657 271.94 83.3483 263.87 87.0317 256.017Z" fill="white"/>
<path d="M74.3862 263.341C50.8258 280.853 48.6986 300.942 55.3595 321.905C53.0067 303.447 50.4605 284.778 74.3862 263.341Z" fill="white"/>
<path d="M11.3545 285.757C55.4027 291.829 60.7744 319.032 54.887 340.09C53.2433 344.436 46.4641 347.803 35.8388 324.736L47.0443 324.252L33.0778 320.106L28.0069 310.992L38.7503 309.94L24.2574 306.783C20.3978 299.523 16.0888 292.501 11.3545 285.757Z" fill="#4CBE42"/>
<path opacity="0.2" d="M11.3545 285.757C55.4027 291.829 60.7744 319.032 54.887 340.09C53.2433 344.436 46.4641 347.803 35.8388 324.736L47.0443 324.252L33.0778 320.106L28.0069 310.992L38.7503 309.94L24.2574 306.783C20.3978 299.523 16.0888 292.501 11.3545 285.757Z" fill="white"/>
<path opacity="0.1" d="M11.3545 285.757C55.4027 291.829 60.7744 319.032 54.887 340.09C53.2433 344.436 46.4641 347.803 35.8388 324.736L47.0443 324.252L33.0778 320.106L28.0069 310.992L38.7503 309.94L24.2574 306.783C20.3978 299.523 16.0888 292.501 11.3545 285.757Z" fill="black"/>
<path d="M24.3652 290.576C49.2794 303.057 54.6618 321.41 52.0189 342.015C51.0843 324.388 50.2678 306.593 24.3652 290.576Z" fill="white"/>
<path d="M99.9133 295.954C59.5286 296.596 51.5677 320.526 54.4685 340.153C55.4569 344.246 61.1831 348.024 73.3984 328.398L63.3748 326.693L76.3636 324.515L81.9825 316.885L72.3993 314.728L85.8286 313.433C90.1526 307.329 94.8564 301.491 99.9133 295.954Z" fill="#4CBE42"/>
<path d="M87.6434 298.816C63.7607 307.329 56.8097 323.294 56.8419 342.152C59.6889 326.419 62.4393 310.465 87.6434 298.816Z" fill="white"/>
<path opacity="0.2" d="M99.9133 295.954C59.5286 296.596 51.5677 320.526 54.4685 340.153C55.4569 344.246 61.1831 348.024 73.3984 328.398L63.3748 326.693L76.3636 324.515L81.9825 316.885L72.3993 314.728L85.8286 313.433C90.1526 307.329 94.8564 301.491 99.9133 295.954Z" fill="white"/>
<path d="M332.82 256.417C322.216 263.636 310.259 268.624 301.417 278.295C284.883 296.354 284.496 325.42 297.485 346.077C310.474 366.735 334.636 379.142 359.238 381.984C385.023 384.972 412.128 377.985 432.38 361.989C452.631 345.993 465.513 321.105 465.502 295.691C465.491 270.276 452.18 244.883 430.414 230.971C410.549 218.343 382.014 214.67 362.085 229.182C352.019 236.548 345.293 247.356 335.227 254.722C334.496 255.291 333.68 255.849 332.82 256.417Z" fill="#4CBE42"/>
<path opacity="0.2" d="M332.82 256.417C322.216 263.636 310.259 268.624 301.417 278.295C284.883 296.354 284.496 325.42 297.485 346.077C310.474 366.735 334.636 379.142 359.238 381.984C385.023 384.972 412.128 377.985 432.38 361.989C452.631 345.993 465.513 321.105 465.502 295.691C465.491 270.276 452.18 244.883 430.414 230.971C410.549 218.343 382.014 214.67 362.085 229.182C352.019 236.548 345.293 247.356 335.227 254.722C334.496 255.291 333.68 255.849 332.82 256.417Z" fill="black"/>
<path opacity="0.1" d="M332.82 256.417C322.216 263.636 310.259 268.624 301.417 278.295C284.883 296.354 284.496 325.42 297.485 346.077C310.474 366.735 334.636 379.142 359.238 381.984C385.023 384.972 412.128 377.985 432.38 361.989C452.631 345.993 465.513 321.105 465.502 295.691C465.491 270.276 452.18 244.883 430.414 230.971C410.549 218.343 382.014 214.67 362.085 229.182C352.019 236.548 345.293 247.356 335.227 254.722C334.496 255.291 333.68 255.849 332.82 256.417Z" fill="white"/>
<path opacity="0.1" d="M337.183 362.252C337.183 362.073 337.236 361.905 337.258 361.737C338.143 356.111 340.797 350.896 344.851 346.818C348.904 342.74 354.156 340.002 359.873 338.985C370.123 337.072 379.945 333.392 388.88 328.114C395.208 324.368 401.192 319.769 408.294 317.738C415.205 315.795 422.586 316.214 429.222 318.927C423.248 312.792 413.021 310.087 404.845 312.865C410.496 304.373 415.481 295.238 417.436 285.283C419.392 275.328 417.995 264.394 411.871 256.227C409.263 252.735 405.897 249.854 402.015 247.791C398.133 245.728 393.831 244.534 389.421 244.297C385.011 244.059 380.602 244.783 376.512 246.417C372.422 248.051 368.754 250.553 365.771 253.744C359.701 260.247 356.284 269.403 352.299 277.296C349.43 282.968 346.476 288.777 341.749 293.081C334.636 299.606 324.387 301.952 317.039 308.193C308.669 315.275 305.06 326.588 305.027 337.417C305.156 344.724 306.239 351.984 308.25 359.022C316.903 367.116 327.227 373.299 338.525 377.154C336.887 372.359 336.427 367.254 337.183 362.252Z" fill="black"/>
<path d="M451.697 292.186C451.36 274.611 444.675 257.722 432.828 244.518C420.981 231.314 404.74 222.651 386.989 220.068C384.526 220.308 382.081 220.709 379.673 221.268C398.342 222.239 415.943 230.1 428.933 243.27C441.923 256.439 449.339 273.94 449.688 292.249C450.171 315.938 438.332 340.09 418.037 356.843C402.137 369.977 381.015 378.69 357.788 381.816C358.282 381.889 358.787 381.952 359.281 382.005C361.366 382.247 363.461 382.415 365.566 382.531C386.194 378.606 404.877 370.282 419.284 358.327C440.083 341.184 452.18 316.464 451.697 292.186Z" fill="white"/>
<path d="M327.813 379.668L330.478 384.836C334.227 381.426 334.915 378.679 334.915 378.679C333.701 374.47 332.283 370.187 331.574 368.103C331.219 371.008 329.199 373.502 328.351 376.332C328.039 377.42 327.858 378.54 327.813 379.668Z" fill="#37474F"/>
<path d="M327.943 384.962L330.478 384.836L327.814 379.668C327.738 381.415 327.889 383.184 327.943 384.962Z" fill="#263238"/>
<path d="M329.877 362.01C328.958 360.706 327.903 359.5 326.729 358.411C327.372 360.668 327.353 363.056 326.675 365.304C325.891 368.292 324.462 371.102 323.742 374.112C322.872 377.774 323.076 381.71 321.486 385.14C320.7 386.805 319.528 388.267 318.064 389.411C316.6 390.554 314.884 391.348 313.053 391.728C311.702 392.096 310.257 391.926 309.034 391.255C308.521 390.897 308.143 390.382 307.96 389.792C307.164 391.423 306.195 392.968 305.07 394.401C303.824 395.98 302.266 397.726 302.61 399.663C302.813 400.471 303.256 401.203 303.883 401.765C304.51 402.327 305.293 402.694 306.134 402.82C307.816 403.051 309.531 402.911 311.151 402.409C314.712 401.656 318.112 400.299 321.196 398.4C324.305 396.455 326.577 393.459 327.578 389.981C327.944 388.305 328.074 386.588 327.965 384.877C327.965 383.109 327.76 381.331 327.836 379.616C327.877 378.487 328.054 377.367 328.362 376.28C329.222 373.449 331.241 370.955 331.585 368.05C331.585 367.892 331.639 367.745 331.65 367.587C331.673 365.591 331.053 363.639 329.877 362.01Z" fill="#455A64"/>
<path opacity="0.1" d="M329.877 362.01C328.958 360.706 327.903 359.5 326.729 358.411C327.372 360.668 327.353 363.056 326.675 365.304C325.891 368.292 324.462 371.102 323.742 374.112C322.872 377.774 323.076 381.71 321.486 385.14C320.7 386.805 319.528 388.267 318.064 389.411C316.6 390.554 314.884 391.348 313.053 391.728C311.702 392.096 310.257 391.926 309.034 391.255C308.521 390.897 308.143 390.382 307.96 389.792C307.164 391.423 306.195 392.968 305.07 394.401C303.824 395.98 302.266 397.726 302.61 399.663C302.813 400.471 303.256 401.203 303.883 401.765C304.51 402.327 305.293 402.694 306.134 402.82C307.816 403.051 309.531 402.911 311.151 402.409C314.712 401.656 318.112 400.299 321.196 398.4C324.305 396.455 326.577 393.459 327.578 389.981C327.944 388.305 328.074 386.588 327.965 384.877C327.965 383.109 327.76 381.331 327.836 379.616C327.877 378.487 328.054 377.367 328.362 376.28C329.222 373.449 331.241 370.955 331.585 368.05C331.585 367.892 331.639 367.745 331.65 367.587C331.673 365.591 331.053 363.639 329.877 362.01Z" fill="black"/>
<path d="M313.052 391.729C314.884 391.349 316.6 390.555 318.064 389.412C319.528 388.268 320.7 386.806 321.486 385.141C323.076 381.71 322.872 377.775 323.742 374.112C324.462 371.103 325.891 368.293 326.675 365.304C327.353 363.057 327.372 360.668 326.729 358.411C326.428 358.116 326.127 357.822 325.816 357.538C321.282 359.832 316.147 361.747 312.01 364.673C312.099 369.854 311.761 375.035 311 380.163C310.439 383.496 309.408 386.737 307.938 389.792C308.121 390.383 308.499 390.898 309.013 391.255C309.621 391.591 310.291 391.805 310.984 391.886C311.678 391.968 312.38 391.914 313.052 391.729Z" fill="#AB6160"/>
<path d="M297.657 378.069C296.915 382.352 293.563 391.076 293.563 391.076C293.563 391.076 309.26 391.697 309.614 390.992L314.223 384.005L297.657 378.069Z" fill="#C48281"/>
<path d="M344.638 276.117L304.619 297.943C300.988 299.923 298.085 302.971 296.317 306.654C294.55 310.338 294.007 314.472 294.767 318.474L302.534 359.516L296.163 379.353C301.664 386.572 314.288 386.94 314.288 386.94C321.335 373.102 326.503 367.23 330.5 355.633C334.496 344.036 337.171 336.038 337.171 336.038L370.476 327.135C378.083 325.109 384.896 320.895 390.034 315.039C395.172 309.182 398.4 301.952 399.301 294.28C399.87 289.355 399.892 285.998 399.892 285.998L344.638 276.117Z" fill="#455A64"/>
<path opacity="0.2" d="M341.952 289.029C341.958 293.407 343.545 297.642 346.432 300.984L321.196 316.422C317.045 318.964 313.97 322.887 312.536 327.472L302.534 359.516L311.559 323.831C312.597 319.726 315.235 316.182 318.907 313.96L341.984 300.047C339.32 293.523 341.952 289.029 341.952 289.029Z" fill="black"/>
<path d="M302.083 410.965L302.448 416.733C307.272 415.049 309.002 412.786 309.002 412.786C309.571 408.44 309.99 403.957 310.184 401.768C308.679 404.304 305.822 405.819 303.899 408.082C303.172 408.964 302.562 409.933 302.083 410.965Z" fill="#37474F"/>
<path d="M300.074 415.87L302.449 416.733L302.083 410.966C301.31 412.534 300.73 414.228 300.074 415.87Z" fill="#263238"/>
<path d="M311.054 395.506C310.733 393.957 310.25 392.444 309.614 390.992C309.297 393.313 308.322 395.5 306.8 397.306C304.877 399.747 302.427 401.778 300.568 404.262C298.291 407.303 296.894 410.997 294.069 413.533C292.676 414.763 291.01 415.657 289.203 416.147C287.396 416.636 285.498 416.707 283.658 416.353C282.272 416.167 281.017 415.452 280.167 414.365C279.827 413.838 279.676 413.216 279.737 412.597C278.351 413.798 276.843 414.856 275.235 415.754C273.452 416.732 271.314 417.732 270.841 419.679C270.714 420.493 270.834 421.326 271.185 422.074C271.537 422.822 272.104 423.453 272.818 423.888C274.27 424.75 275.899 425.282 277.588 425.446C281.167 426.125 284.839 426.186 288.439 425.625C292.068 425.041 295.35 423.168 297.657 420.363C298.67 418.962 299.483 417.433 300.074 415.817C300.73 414.175 301.31 412.481 302.083 410.913C302.563 409.884 303.173 408.919 303.899 408.04C305.822 405.767 308.68 404.251 310.184 401.726C310.259 401.599 310.356 401.473 310.431 401.326C311.261 399.499 311.479 397.462 311.054 395.506Z" fill="#455A64"/>
<path d="M283.658 416.364C285.498 416.718 287.396 416.647 289.203 416.158C291.01 415.668 292.676 414.773 294.069 413.544C296.894 411.008 298.291 407.314 300.568 404.273C302.427 401.789 304.866 399.758 306.8 397.316C308.322 395.511 309.297 393.323 309.614 391.002L309.131 389.845C304.039 390.213 298.538 389.971 293.564 391.087C291.57 395.885 289.181 400.517 286.419 404.936C284.57 407.79 282.321 410.376 279.737 412.618C279.676 413.237 279.827 413.859 280.166 414.386C281.019 415.47 282.274 416.18 283.658 416.364Z" fill="#C48281"/>
<path d="M385.721 218.164C392.244 203.313 392.629 186.563 386.796 171.439C384.926 166.662 382.284 161.968 377.954 159.053C372.41 155.391 365.244 155.444 358.562 155.633C355.017 155.738 351.396 155.844 348.066 157.043C346.406 157.595 344.908 158.534 343.701 159.779C342.494 161.024 341.614 162.537 341.136 164.189C336.763 163.399 332.359 166.777 331.177 170.976C329.995 175.175 331.542 179.742 334.26 183.194C336.978 186.646 340.706 189.119 344.531 191.381C342.232 192.56 340.534 195.275 339.739 197.695C338.944 200.126 339.133 202.763 340.266 205.062C338.207 205.082 336.203 205.721 334.526 206.891C332.849 208.062 331.579 209.708 330.887 211.607C330.328 213.509 330.243 215.514 330.637 217.455C331.031 219.395 331.894 221.215 333.154 222.762C335.719 225.848 339.255 228.016 343.21 228.929C347.144 229.829 351.21 230.043 355.221 229.56C359.368 233.496 366.963 233.412 372.174 230.971C377.384 228.529 383.412 223.341 385.721 218.164Z" fill="#263238"/>
<path d="M348.602 208.282H347.581C340.759 208.356 332.122 212.913 327.899 224.573L311.505 255.68L330.22 263.804L340.458 234.444L348.602 208.282Z" fill="#C48281"/>
<path d="M335.453 228.93C334.153 232.602 334.067 236.559 333.863 240.506C333.659 244.452 333.197 249.072 331.381 252.534C329.38 251.176 326.984 250.49 324.552 250.577C322.119 250.665 319.781 251.521 317.887 253.018C316.526 254.144 315.483 255.593 314.857 257.227L330.221 263.899L340.459 234.539L345.498 218.354C343.193 219.379 341.119 220.842 339.395 222.657C337.671 224.473 336.331 226.604 335.453 228.93Z" fill="#AB6160"/>
<path d="M330.392 258.206C329.683 256.473 328.533 254.947 327.051 253.773C325.569 252.6 323.805 251.818 321.926 251.502C318.177 250.902 313.933 252.828 311.505 255.712C309.464 258.121 309.786 261.394 311.075 264.267C312.153 266.496 313.985 268.291 316.261 269.347C318.537 270.402 321.116 270.652 323.559 270.055C328.394 268.718 332.219 262.783 330.392 258.206Z" fill="#C48281"/>
<path d="M350.321 207.714C343.102 208.84 338.622 226.73 336.279 233.528C333.851 240.547 337.15 245.641 340.824 249.882C341.488 250.652 341.981 251.55 342.271 252.517C342.562 253.485 342.643 254.501 342.511 255.501L334.969 283.146C355.704 298.226 390.47 290.923 399.902 285.998C400.012 276.341 397.931 266.78 393.811 258.006C391.034 252.339 389.469 246.176 389.213 239.895L388.858 229.75L391.361 212.239L373.355 208.03L357.487 207.335C355.093 207.328 352.701 207.455 350.321 207.714Z" fill="#4CBE42"/>
<path opacity="0.4" d="M350.321 207.714C343.102 208.84 338.622 226.73 336.279 233.528C333.851 240.547 337.15 245.641 340.824 249.882C341.488 250.652 341.981 251.55 342.271 252.517C342.562 253.485 342.643 254.501 342.511 255.501L334.969 283.146C355.704 298.226 390.47 290.923 399.902 285.998C400.012 276.341 397.931 266.78 393.811 258.006C391.034 252.339 389.469 246.176 389.213 239.895L388.858 229.75L391.361 212.239L373.355 208.03L357.487 207.335C355.093 207.328 352.701 207.455 350.321 207.714Z" fill="black"/>
<path d="M350.16 287.587C350.16 287.587 350.16 287.587 350.16 287.524C350.16 287.461 350.16 287.461 350.16 287.398V287.335V287.282V287.219L337.913 264.878V264.814V264.751V264.688L337.859 264.614V264.541C337.805 264.467 337.805 264.467 337.751 264.394L337.687 264.33L337.633 264.257V264.204V264.151V264.099L337.451 263.941H337.386H337.332H337.268H337.193L337.118 263.888H337.032L321.002 254.522H320.916H320.841H320.755H320.68H320.605H320.53H320.465H320.39H320.304H320.229H320.143H319.928C319.848 254.524 319.772 254.554 319.713 254.607L318.037 256.49H318.091C317.951 256.596 317.94 256.817 318.145 257.185L330.392 279.526C331.078 280.561 332.006 281.419 333.1 282.031L347.184 289.797C347.904 290.197 348.345 290.208 348.409 289.913C348.409 289.913 348.409 290.018 348.409 290.039L350.096 288.156C350.101 288.128 350.101 288.099 350.096 288.071C350.101 288.047 350.101 288.022 350.096 287.998L350.16 287.587ZM318.402 256.101C318.402 256.101 318.402 256.101 318.499 256.101H318.553H318.402ZM334.518 265.014C334.647 265.12 334.786 265.225 334.904 265.341C334.818 265.225 334.679 265.12 334.55 265.014H334.518ZM335.399 265.856L335.571 266.035L335.399 265.856ZM348.473 289.524C348.454 289.365 348.403 289.211 348.323 289.071C348.396 289.199 348.447 289.337 348.473 289.481C348.473 289.481 348.463 289.46 348.473 289.524Z" fill="#455A64"/>
<path opacity="0.15" d="M350.16 287.588C350.16 287.588 350.16 287.588 350.16 287.524C350.16 287.461 350.16 287.461 350.16 287.398V287.335V287.282V287.219L337.912 264.878L336.043 266.688L348.301 289.029C348.375 289.157 348.425 289.296 348.452 289.44C348.465 289.483 348.466 289.529 348.457 289.573C348.448 289.617 348.427 289.658 348.398 289.692L350.085 287.809C350.09 287.781 350.09 287.752 350.085 287.724C350.09 287.7 350.09 287.675 350.085 287.651L350.16 287.588Z" fill="white"/>
<path opacity="0.2" d="M337.708 264.741V264.678V264.614L337.655 264.541V264.467C337.601 264.393 337.601 264.393 337.547 264.32L337.483 264.257L337.429 264.183V264.13V264.078V264.025L337.246 263.867H337.182H337.128H337.064H336.989L336.913 263.815H336.827L321.002 254.522H320.916H320.841H320.755H320.68H320.605H320.53H320.465H320.39H320.304H320.229H320.143H319.928C319.848 254.524 319.772 254.554 319.713 254.607L318.037 256.49C318.116 256.406 318.256 256.385 318.456 256.427C318.728 256.496 318.988 256.602 319.23 256.743L333.314 264.509C333.597 264.659 333.867 264.831 334.12 265.025C334.39 265.228 334.648 265.446 334.894 265.677C335.132 265.893 335.355 266.125 335.56 266.372C335.735 266.574 335.89 266.793 336.022 267.024L337.708 265.141V264.741Z" fill="white"/>
<path d="M398.27 218.09C396.272 214.733 393.65 212.155 389.675 211.86C389.675 211.86 383.229 215.144 383.229 230.045L383.659 267.33C382.724 267.698 381.789 268.088 380.865 268.466C373.008 271.776 364.795 274.209 356.381 275.717C351.994 272.304 346.533 270.489 340.932 270.582L343.005 274.37C339.073 276.843 330.178 272.392 330.178 272.392C329.522 277.822 333.121 283.463 337.892 286.314C342.662 289.166 388.15 284.978 397.797 278.864C404.147 274.844 402.642 236.401 402.642 236.401C403.08 230.007 401.557 223.631 398.27 218.09Z" fill="#C48281"/>
<path d="M320.562 261.11C320.258 262.577 320.086 264.066 320.046 265.562C320.399 269.125 321.939 272.476 324.429 275.096C324.945 275.671 325.593 276.119 326.32 276.401C326.676 276.537 327.063 276.578 327.441 276.519C327.819 276.46 328.174 276.303 328.469 276.064C329.003 275.438 329.275 274.637 329.232 273.823C329.353 272.616 329.284 271.399 329.027 270.213C328.776 269.014 328.084 267.947 327.083 267.214C326.31 266.766 325.484 266.412 324.623 266.162C323.796 265.807 323.062 265.275 322.474 264.604L320.562 261.11Z" fill="#C48281"/>
<path d="M357.434 200.421V214.502C356.026 215.807 354.673 217.301 354.544 219.164C354.52 220.056 354.746 220.937 355.199 221.711C355.652 222.485 356.314 223.122 357.111 223.552C358.737 224.395 360.636 224.576 362.397 224.057C364.14 223.531 365.738 222.624 367.071 221.405C368.962 219.693 370.487 217.63 371.556 215.336C372.626 213.041 373.219 210.561 373.302 208.04V193.76L357.434 200.421Z" fill="#C48281"/>
<path d="M372.689 193.76C371.185 201.505 368.102 208.219 357.434 210.598V200.369L372.689 193.76Z" fill="#AB6160"/>
<path d="M368.962 185.615C368.806 186.855 368.806 188.11 368.962 189.35C369.136 190.287 369.615 191.143 370.326 191.792C370.672 192.1 371.091 192.32 371.544 192.431C371.997 192.543 372.472 192.544 372.926 192.434C372.625 191.213 372.817 189.926 373.461 188.841C374.106 187.755 375.153 186.956 376.385 186.608C377.617 186.261 378.938 186.392 380.073 186.976C381.208 187.559 382.069 188.55 382.477 189.74C382.73 190.598 382.787 191.5 382.644 192.382C382.501 193.264 382.162 194.105 381.65 194.844C380.613 196.317 379.241 197.534 377.642 198.401C376.722 198.743 375.707 198.758 374.776 198.443C373.846 198.127 373.058 197.502 372.55 196.675C367.962 202.873 359.722 207.714 351.804 207.377C349.637 207.352 347.522 206.716 345.713 205.546C342.64 203.441 342.275 200 341.759 196.633C341.017 192.386 340.868 188.059 341.319 183.773C342.039 177.859 344.467 171.966 348.968 167.988C352.159 180.637 364.342 184.857 368.962 185.615Z" fill="#C48281"/>
<path d="M352.46 184.815L347.324 191.56L352.427 193.055L352.46 184.815Z" fill="#AB6160"/>
<path d="M357.175 196.054L353.018 197.527C353.312 198 353.755 198.366 354.28 198.571C354.805 198.776 355.384 198.808 355.929 198.663C356.41 198.433 356.796 198.049 357.023 197.574C357.249 197.099 357.303 196.563 357.175 196.054Z" fill="#AB6160"/>
<path opacity="0.3" d="M357.175 196.054L353.018 197.527C353.312 198 353.755 198.366 354.28 198.571C354.805 198.776 355.384 198.808 355.929 198.663C356.41 198.433 356.796 198.049 357.023 197.574C357.249 197.099 357.303 196.563 357.175 196.054Z" fill="black"/>
<path d="M354.544 198.653C354.996 198.784 355.478 198.784 355.93 198.653C356.308 198.486 356.63 198.215 356.855 197.874C357.08 197.532 357.199 197.134 357.198 196.727C356.589 196.653 355.975 196.81 355.481 197.166C354.987 197.523 354.652 198.051 354.544 198.642V198.653Z" fill="#AB6160"/>
<path d="M359.958 185.878C359.958 186.169 359.87 186.455 359.704 186.697C359.538 186.94 359.303 187.128 359.027 187.24C358.752 187.351 358.449 187.379 358.157 187.322C357.865 187.264 357.597 187.123 357.387 186.915C357.177 186.708 357.035 186.445 356.978 186.158C356.921 185.872 356.952 185.575 357.068 185.306C357.183 185.037 357.378 184.808 357.627 184.647C357.875 184.487 358.167 184.402 358.465 184.404C358.662 184.404 358.857 184.443 359.039 184.517C359.221 184.591 359.386 184.7 359.525 184.836C359.664 184.973 359.773 185.136 359.848 185.315C359.922 185.493 359.96 185.685 359.958 185.878Z" fill="#263238"/>
<path d="M347.356 185.341C347.35 185.73 347.188 186.102 346.905 186.376C346.621 186.65 346.239 186.803 345.841 186.803C345.442 186.803 345.06 186.648 344.777 186.372C344.495 186.096 344.337 185.721 344.337 185.33C344.337 184.939 344.495 184.565 344.777 184.288C345.06 184.012 345.442 183.857 345.841 183.857C346.04 183.857 346.237 183.895 346.421 183.97C346.604 184.044 346.772 184.154 346.912 184.292C347.053 184.429 347.164 184.593 347.241 184.773C347.317 184.953 347.356 185.146 347.356 185.341Z" fill="#263238"/>
<path d="M345.917 179.49L342.575 181.731C342.434 181.326 342.422 180.889 342.541 180.477C342.66 180.065 342.905 179.699 343.242 179.427C343.649 179.192 344.116 179.073 344.588 179.084C345.061 179.095 345.521 179.236 345.917 179.49Z" fill="#263238"/>
<path d="M358.776 179.363L362.096 181.636C362.243 181.233 362.262 180.795 362.148 180.382C362.035 179.968 361.796 179.598 361.462 179.321C361.055 179.082 360.588 178.96 360.113 178.967C359.639 178.975 359.176 179.112 358.776 179.363Z" fill="#263238"/>
</svg>
